<?xml version="1.0" encoding="UTF-8" standalone="no"?><!DOCTYPE svg PUBLIC "-//W3C//DTD SVG 1.1//EN" "http://www.w3.org/Graphics/SVG/1.1/DTD/svg11.dtd"><svg width="100%" height="100%" viewBox="0 0 121 121" version="1.1" xmlns="http://www.w3.org/2000/svg" xmlns:xlink="http://www.w3.org/1999/xlink" xml:space="preserve" xmlns:serif="http://www.serif.com/" style="fill-rule:evenodd;clip-rule:evenodd;stroke-linejoin:round;stroke-miterlimit:2;"><rect id="Caribe" x="0.053" y="0.16" width="120.172" height="120.172" style="fill:none;"/><clipPath id="_clip1"><rect x="0.053" y="0.16" width="120.172" height="120.172"/></clipPath><g clip-path="url(#_clip1)"><path id="path2220" d="M29.846,32.142l-0.001,0.037l-0.12,-0.04l0.121,0.003Zm0,0l0.019,-0.863l-0.24,-0.16l-1.819,0.84l-0.48,-0.12l0.06,-0.46l0.88,-0.02c-0,-0 1.519,-1.04 1.619,-1.06c0.1,-0.02 0.32,0.26 0.32,0.26c0,0 0.86,-0.02 1,-0.04c0.14,-0.02 0,-0.58 0,-0.58l-0.46,-0.4l-0.38,-0.14l0,-0.46l0.36,-0.46l0.68,-0.86l0.36,-0.04c0,0 0.62,-0.819 0.64,-0.899c0.02,-0.08 0.04,0.26 0.04,0.26l1.12,-1.04l0.72,-0.06l0.46,-0.82l1.719,-0.04l0.88,-0.64l0.64,-0.04l1.94,-0l0.32,-0.42l1.739,0.16l1.58,-0.62l0.68,-0.7l1.64,-0.06l0.92,0.18l1.14,0.16l1.159,0.98l1.56,-0.8l1.2,1.16l0.96,-0.86l0.12,0.5l1.56,-0.26l0.799,0.62l0.74,0.66l1.22,-0.12l0.86,0.18l1.52,0.82l0.62,0.38l0.52,0.08l1.179,1.839l0.28,0l0.68,0.78l3.62,-0.04l0.28,0.6l0.12,-0.46l0.68,0.58l0.479,0.02l2.76,1.52l0.48,0.34l0.02,0.54l1.12,-0.08l0.04,0.34l0.4,0.58l1.1,-0l-0.04,0.28l0.22,-0.02l-0,0.16l0.3,-0.02l-0.04,0.3l0.179,-0.04l-0.04,0.42l0.28,-0l0,0.219l0.14,0.06l0.14,-0.02l0.02,0.44l0.18,-0.02l0.02,0.16l0.32,-0.02l0,0.4l0.14,0l0,0.14l0.42,-0.04l-0.04,-0.12l0.34,0.04l0.7,-0.78l0.54,0.76l0.8,0.18l-0.22,0.62l1.1,-0.04l0.58,0.36l0.44,0.46l-0,-0.46l0.799,0.02l1,0.54l0.96,1.12l0.5,-0.4l0.16,0.14l1.8,-0.24l0.4,0.24l-0.02,1.22l-0.82,0.92l-0.02,0.42l0.46,0.24l0.56,-0.46l0.3,0.32l0.36,-0l0.64,-0.38l0.379,0.02l1.08,0.22l0.14,0.22l0.76,-0l0.18,-0.2l0.18,0.14l0.56,0.02l0.58,0.679l0.22,0.02l0.4,0.52l0.32,-0.04l0.38,0.2l-0.02,0.26l0.54,0.34l0.02,0.46l0.5,0.38l1.079,-0.02l0.12,-0.12l0.62,0.28l0.06,0.24l-0.26,0.24l-0.5,0.82l-2.119,-0l-0.8,0.42l-0.94,0.02l-0.86,0.64l-1.14,-0l-0.44,0.4l-0.38,-0.02l-0.2,-0.26l-1.139,0.06l-0.66,-0.34l-1.48,0.02l0.24,-0.48l-0.34,0.16l-1.34,-0.06l-0.04,0.22l-0.98,-0l-0.14,-0.22l-2.139,-0.02l-0.02,0.14l-1.12,-0l-0,0.14l-0.24,-0l-0,0.16l-0.58,-0l-0.02,0.14l-1.78,-0.02l-0.02,0.2l-0.44,-0l0.02,0.22l-0.72,-0l-0.08,-0.22l-0.479,-0.02l-0.44,0.52l-1.24,-0.02l0.02,-0.26l-0.26,-0l-0,-0.36l0.18,-0.26l0.42,0.02l0.06,-0.36l0.54,-0.7l0.54,0.02l-0,-0.38l1.159,-0.96l0.52,-0.02l0,-0.34l0.22,0.14l0.7,-0.4l0.2,-0.04l0,-0.3l-0.4,0.02l-0.62,-0.42l-0.02,-0.32l1,0l0.02,-0.14l-1.04,0.04l0.04,-0.32l-0.36,-0.48l-1.379,0l-0,-0.239l-0.8,-0l-0.44,-0.46l-1.44,-0l0.02,0.16l-0.72,-0l-1.42,-0.64l-0.58,-0.66l-0.26,-0.62l-0.759,-0.02l0.019,-0.72l-0.839,-0.76l-0.04,-1.38l-1.06,-0.94l0.34,-0.24l-0.14,-0.259l-0.68,-0.02l-0.62,0.559l-1.48,0l0,-0.18l-1.86,0l-0.339,-0.279l-0.78,-0l-0.46,-0.54l-0.56,-0l-0.36,-0.42l-0.72,-0.14l-2.66,-1.84l-0.14,-0.56l-0.04,0.5l-2.599,-0.08l-1.16,-0.18l-0.76,-1.18l-0.26,1.28l-0.88,-0l-0.22,-0.22l-0.02,-0.76l-1.679,0.02l-0,0.38l-0.4,0.02l-2.58,-2.06l2.54,-0.04l0.5,-0.28l-0,-0.799l-0.8,-0.02l-0.94,-0.44l-1.08,0.26l-0.34,-0.22l-1.42,-0.02l-0.64,-0.36l-1.879,-0l-0.06,0.42l-1.94,1.139l-0.28,0.8l-0.78,0l-0.76,0.48l-0.08,0.44l-0.54,0.08l-0.72,-0.36l-1.159,0.72l-1.06,0.02l-0.12,0.76l-0.14,0.02l-0.18,0.66l-2.08,0.04l-0.68,0.68l-0.539,-0.017Zm72.429,3.321l-0,0.003c-0.001,-0.001 -0.001,-0.002 -0,-0.003Zm-0,0l-0.007,-0.4c-0,-0 0.219,-0.269 0.254,-0.269c0.036,0 0.531,-0.014 0.531,-0.014l0.261,0.134c0,0 0.043,0.7 0.007,0.693c-0.035,-0.007 -0.551,0.007 -0.551,0.007c-0,0 0.056,-0.162 0.021,-0.162c-0.034,-0 -0.497,-0.007 -0.516,0.011Zm-56.468,-35.199l-0.042,-0.115l13.391,-0.008l-0.001,0.123l-0.594,2.037l-0.028,2.941l-0.594,0.367l-0.198,-0.283l-0.057,0.538l-0.707,0.905l0,1.442l-0.509,0.99l-0.961,0.085l-0.764,0.792l-0.509,-0.34l-1.81,-0.452l0.481,0.028l0.057,-0.339l-0.509,-0.764l-1.018,-1.555l-0.142,-1.273l-0.565,-0.254l-1.499,-0.368l-0.509,-0.707l-0.142,0.509l-1.018,-2.658l-0.226,-1.132c-0,0 -0.566,-0.198 -0.707,-0.254c-0.141,-0.057 0.283,0.877 0.283,0.877l-1.103,-1.132Zm22.85,56.221l0.764,-0.82l1.47,-0.085l0.113,0.141l0.707,0.057l0.057,-0.481l1.47,0.028l0.792,0.312l0.792,-0.029l0.368,-0.141l0.848,0.396l1.329,-0.028l0.085,0.169l0.651,-0.028l0.509,0.933l0.509,0.085l2.149,0.509l0.679,0.368l-0,0.82l0.282,-0l0.34,0.678l-0.538,0.312l-0.989,0.028l-0.17,-0.255l-0.933,0.113l-0.283,-0.367l-0.679,0.028l-0.311,-0.594l-0.028,0.622l-0.792,0.566l-0.65,0.028l-0.17,-0.339l-0.283,-0l-0.452,0.452l0.198,0.623l-0.623,-0.057l-1.131,-0.877l-1.499,-0.169l-1.018,-0.029l-0.509,-0.961l-0.424,0.056l-0.113,-0.424l-0.255,-0.141l-0.311,-0.057l-0.169,-0.848l-0.453,0.311l-0.481,0.028l-0.339,-0.283l-0.509,-0.028l0,-0.622Zm-30.146,-23.133l0.622,0.452l0.014,0.241l0.311,0.155l0.58,-0.24l0.226,-0.325l-0.354,0.268c0,0 -0.311,-0.127 -0.311,-0.226c0,-0.099 -0.014,-0.594 -0.014,-0.594l-0.382,-0.664l0.029,-0.651l0.226,-0.565l0.735,0.141l0.594,0.467l0.269,0.381l0.056,-0.367l0.538,0.339l0.014,0.283l0.509,-0.014l0.254,0.339l-0.537,0.481l0.481,0.438l-0,0.396l-0.566,0.354l-0.693,0.014l-0.155,0.155l-1.018,0l-0.354,0.297l-0.537,-0.028l-0.707,-1.117l0.17,-0.41Zm10.411,15.844c0.02,-0.02 0.24,0.14 0.32,0.14c0.08,0 0.2,-0.2 0.2,-0.2l0.42,0l0.16,0.16l1.06,-0.02l0.18,0.14l-0.14,0.24l-0.98,-0.04l-0.02,0.44l-0.08,-0.16l-0.54,0.02l-0.58,-0.72Zm91.085,6.723l0.509,-0.678l0,-0.651l0.453,-0.028l0.17,-0.17l0.65,-0.028l0.792,0.339l2.149,0l0.566,-0.311l0.65,0l0.226,0.198l0.198,-0.198l1.047,0.057l0.198,0.367l-0.113,0.227l0.311,-0.057l0.141,0.085l-0.085,-0.17l0.283,-0.367l0.283,0.169l0.481,-0.028l0.396,0.141l0.056,-0.169l0.566,0.028l0.622,0.453l0.056,0.622l-1.103,0.905l-0.395,1.187l-0.594,-0.028l-1.471,0.396l-0.537,0l-0.113,-0.226l-0.99,0.141l-0.622,-0.367l-0.651,0.48l-0.254,-0.028l-0.481,-0.452l-0.255,-0l-0.424,0.537l-0.905,-0l-0.594,-0.283l-0.311,0.368l-0.707,-0.029l0.114,-0.282l0.028,-1.132l0.169,0.029l0,-0.622l-0.509,-0.425Zm-39.772,-9.262l1.999,-0.92l3.92,0.04l0.88,0.64l0.759,-0.04l0.4,0.24l0.6,0.04l1.88,0.2l0.56,-0.76l1.2,0.12l1.32,-0.6l1.599,0.08l0.52,-0.32l0.28,0.12l0.92,0.04l1.28,0.96l1.36,0.12l0.56,0.679l1.159,0l0.16,-0.319l0.4,-0.08l1.2,1.239l0.84,1.44l1.36,0l0.64,-0.36c-0,0 0.84,-0.04 1.16,-0.04c0.319,0 0.279,0.48 0.279,0.48l-0.239,0.44l-0.76,0.04l0.04,-0.16l-0.96,-0.04l-0.56,0.28l-0.08,0.64l0.44,-0.16l1.08,0.32l0.919,0.44l1.76,-0.04l1.12,0.28l1.84,1.12l0.96,0.92l-0,1.159l-0.44,0.04l-0.04,0.56l-0.56,0.04l-0.88,1.16l-0.96,-0.04l-0.16,-0.56l-0.2,-0.2l-0.36,-0.24l-1.68,0l-0.44,-0.4l-0.639,0l-0.36,0.28l-1.2,0l-0.16,-0.2l-1.64,0.04l-0.12,-0.36l0.28,-0.16l-0.12,0.04l-0.28,-0.28c-0.16,-0.16 -0.2,0.28 -0.2,0.28l-0.16,0.6l-0.72,0.24l-1.24,1.04l-2.279,-0.08l-0.4,-0.92l-0.44,0.08l-0.2,0.6l-0.96,-0.08l-0.32,0.44l-0.68,-0.48l-0.24,0.48l0.6,0.52l-0.52,0.56l-1.319,1.6c-0,-0 -0.48,1.599 -0.64,1.559c-0.16,-0.04 -0.72,-0.959 -0.72,-0.959l-0.72,-0l-0.08,-1.04l-1.84,-1.68l-0.68,-0l-0.8,-0.52l-2.399,0l-0.16,0.56l-0.68,0.08l-0.56,0.28l-1.52,0.04l-0.8,-0.6l-1.12,-0l-0.799,-0.28l-1.2,0.04l-1.16,0.48l0.04,1.08l-0.44,-0l-0.48,-0.68l-0.52,-0.04l-0.08,-0.44l-0.36,-0.36l-0.92,0.04l-0.32,-0.32l-0.6,-0.08l-0.439,-0.76l-0,-1l0.559,-0.2l3.24,0.04l0.68,0.32l0.72,-0.08l-0.04,0.2l1.72,-0.04l0.839,0.56c0,0 2.84,-0.04 3.12,-0.04c0.28,0 0.56,-0.68 0.56,-0.68l0.6,0.04l0.36,-0.2l0.48,0.04l0.4,0.4l0.439,-0.32l-0.319,-0.08l-0.04,-0.48l-0.84,-0.719l-0.68,-1.28l-0.64,-0.28l-0.84,-0.92l-0.12,-1.08l0.16,-0.32l-0.08,-1.12l-0.36,0l-0.36,-0.52l-0.52,-0.56l-1.16,-0.36l-0.64,0.04l-0.439,0.28l-0.88,0.08l-0.2,-0.479l0.52,-0.48Zm0.999,5.759l0.2,-0.24l0.6,-0l0,0.2l0.76,-0l0.6,0.44l0.44,0.04l0.64,0.84l-0.4,0.399l-0.2,-0.24l-0.28,0.12l-0.04,-0.639l-0.24,0.36l-0.36,-0.04l-0.2,0.08l-0.32,-0.36l-0.28,-0l-0.92,-0.96Zm2.1,-7.719l0.54,-0.26l0.52,-0l-0,0.1l0.36,0.08l0.6,0.4l-0.2,0.26l-0.42,-0l-0.1,-0.16l-0.26,0.04l-0.1,-0.14l-0.54,-0.02l-0.16,-0.12l-0.24,-0.18Zm-35.299,-31.367l0.311,0.169l0.452,-0.028l0.736,-0.679l0.424,-0.791l0.424,-0.764l0,-0.509l-0.311,-0.566l-0.028,-0.367l0.396,-0.029l0.141,0.227l0.679,0.085l0.424,0.452l-0.057,0.283l0.198,0.226l0,0.537l-0.933,0.17l0.99,0.028l0.283,0.283l-0.113,0.849l-0.142,0.311l0.396,-0.227l0.057,0.255l0.113,-0.339l0.198,-0.029l0.226,0.226l0,1.047l-0.283,0.367l-0.113,0.453c0,-0 -0.113,0.085 -0.226,0.254c-0.113,0.17 -0.113,0 -0.113,0l-0.509,0.481l-0.227,0.113c0,0 0.057,0.029 0.17,0.029c0.113,-0 0.311,0.367 0.311,0.367l0.226,-0.028l0.227,-0.453l-0,-0.254l0.367,-0.255l0.453,0.029l-0,0.339l-0.424,0.17l-0.227,0.254l0.198,0.029l0.396,0.028l0,0.735c0,0.113 -0.283,0.283 -0.283,0.283l0.368,-0l0.537,-0.481l0.198,0.085l0.029,0.933l-0.142,0.226l0,0.651l0.227,0.028l-0,0.651c-0,-0 -0.34,0.452 -0.34,0.622c0,0.169 -0.848,0.028 -0.848,0.028l-0.651,-0.848l0.594,0.311l0.057,-0.424l-0.226,0.028l-0,-0.453l-0.481,-0.707l-0.453,-0.396l-0.056,-0.311l-0.368,-0.707l-1.103,-1.046l0.028,-0.311l-0.678,-0.198l-0.764,-0.453l-0.283,-0.706l-0.452,-0.283Zm106.948,45.205l0.96,0.72l-0.64,0.08l-0.32,-0.8Zm-0.234,4.157l0.41,-0.268l0.071,-0.128l0.127,-0.183l0.212,0.169l0.255,0.212l0.255,-0.014l0.113,0.184l0.014,0.255l-0.156,0.014l-0.24,0.283l-0.099,-0.142l-0.636,-0.028l-0.326,-0.354Zm-4.666,-0.127l-0.056,-0.24l0.155,-0.085l0.085,-0.127c-0,-0 0.198,-0.014 0.255,-0.014c0.056,-0 0.056,0.113 0.056,0.113l0.127,0.056l-0.127,0.113l-0.127,0.523l-0.368,-0.339Zm-1.428,-1.64l0.113,-0.113l-0.014,-0.142l0.297,0l0.141,0.241l0.099,0.141l0.297,0.014l-0.24,0.071l0.368,0.368l-0,0.297l-0.142,-0.071l-0.226,-0.325l-0.368,0.014l-0.127,0.155l-0,-0.297l-0.113,-0.141l-0.085,-0.212Zm3.733,4.369l0.099,-0.042l0.198,0.226l0.212,-0.014l0,0.254l0.141,0.057l0,0.141l-0.127,0.071l-0.014,0.156l-0.099,-0l-0.057,-0.128l-0.183,0l-0.34,-0.283l0,-0.084l0.156,-0.043l0.014,-0.311Zm3.285,2.729l0.16,-0.01l-0.03,-0.2l0.15,-0.05l0.01,-0.25l0.12,0l0.14,-0.15l0.28,0l0.02,0.27l0.23,0.01c-0,0 0.1,0.22 0.14,0.24c0.04,0.02 0.18,0.17 0.18,0.17l0.15,-0.03l0.12,-0.09l0.13,-0.29l0.25,0l0.02,-0.29l-0.18,-0.01l-0.01,-0.2l-0.13,-0.08l-0,-0.179l0.14,-0.22l0.27,-0.01l-0,-0.23l0.26,-0.01l0.02,0.27l0.09,-0l0.17,0.269l-0,0.23l0.17,0.18l0.17,-0.01l0.11,0.13l0.29,0l0.11,0.14l0.34,0.01l0.02,0.17l0.11,0.07l-0.28,0.02l-0.12,0.13l-0.22,0l-0.37,0.28l-0.17,-0.01l-0.33,0.25l-0.47,0.02l-0.18,-0.18l-0.01,-0.22l-0.25,0.02l0.04,0.63l0.11,0.09l-0.03,0.31l0.13,0l0.01,0.15c-0,0 -0.17,0.17 -0.22,0.17c-0.05,0 0.01,0.17 0.01,0.17l-0.15,0.07l-0.15,0.39l-0.55,-0.01c0,0 0.16,-0.03 0.2,-0.03c0.04,0 -0.26,-0.25 -0.26,-0.25l0.32,-0.2l0.26,-0.17l-0.3,0.01l-0.06,-0.08l-0.17,-0.37l0.02,0.33l-0.1,0.12l-0.28,-0.01l-0.01,-0.22l-0.18,-0.07l0.01,-0.79l-0.26,0l-0.01,-0.4Zm-108.473,-40.084l0.839,-0.2l0.28,0.28l0.64,0.08l0.48,0.32l1.2,0.08l0.2,0.4l0.88,0.88l-0,0.4l0.84,0.52l1.28,1.2l0.6,0.36l1.319,1.04l0.24,0.12l0.68,0.36l-0.4,0.679l-0.6,-0.08c0,0 -1.279,-1.759 -1.439,-1.799c-0.16,-0.04 -0.8,-0.68 -0.8,-0.68l-0.24,0.28l-0,-0.4l-1.12,-0.56l-0.72,-0.8l-2,-1.28l-0.76,-0.8l-0.52,0.16l-0.599,-0.04l-0.28,-0.52Zm110.883,44.364l0.16,-0.13l0.13,-0l0.17,0.28l0.62,-0l-0,0.39l0.14,-0l0.16,0.29l0.26,0.02l-0,0.35l-0.28,0.219l0.01,0.31l0.26,0.13l0.01,0.08l-0.14,0.11l-0.02,0.5l-0.37,0l-0.14,0.28l-0.08,0.01l-0.21,-0.33l0.06,-0.23l0.34,0.01l0.08,-0.2l-0.01,-0.17l-0.16,-0.46l-0.09,0l-0.01,0.3l-0.17,0.16l-0.17,0l0.01,-0.27l-0.28,-0.01l-0.15,-0.39l-0.14,-0.069l-0,-0.39l0.13,-0.07l-0,-0.29l-0.11,-0l-0.01,-0.43Zm-170.314,-40.044l1.6,0.641l0.561,-0l0.997,0.997l0.243,-0.758l0.276,-0.239l0.281,0.197l0.64,0.042l0.16,0.159l1.319,-0l0.963,0.519l0.159,0.042l0,1.039l0.398,0.201l0.281,0.72l-0,0.398l-0.398,0.36l-0.44,0.402l-0.641,0.721l-0.121,0.037l0.042,0.44l-0.842,0.762l-0.36,0.08l-0.52,0.679l0,0.238l-0.238,0l-0.721,1.32l-0.28,0.041l-0.122,0.88l-0.276,0.482l-0.042,1.478l-1.801,1.68l0.042,0.439l0.477,0.122l0.964,-0l0.238,0.477l0,0.243l-0.561,0.398c0,0 -0.479,-0.118 -0.599,0.042c-0.12,0.16 -0.398,0.197 -0.398,0.197l0.038,0.481l0.762,-0.079l0.159,-0.281l-0.079,1.16l-1.043,0.922l0,1.876l-1.399,4.322l-1.039,-2.642l-0.041,-1.919l-0.478,0l-1.202,1.642l0.561,1.16l0.44,0.038l0.042,2.84l-0.482,0.599l-0.079,0.8c-0,-0 -0.323,0.443 -0.323,0.603c0,0.16 0.281,0.199 0.281,0.599c-0,0.4 0.042,0.678 0.042,0.678l-0.842,0.679l-0,0.762l0.281,0.519l-0.122,0.8l0.201,0.758l-0.318,0.641l-0.36,1.801c-0,-0 0.398,0.201 0.238,0.201c-0.16,-0 -0.519,0.038 -0.519,0.038l-0.121,0.561l-0.277,0.121c0,0 0.077,0.597 -0.163,0.637c-0.24,0.04 -1.558,0.603 -1.558,0.603l-1.282,1.437l-0.038,0.762l0.44,0.318l0.36,0.042l0.281,0.398l0.599,-0.038l0.038,0.599l0.561,-1.118l-0.038,-0.201l-0.402,0.038l0.042,-0.16l0.477,0l0.721,0.763l0.481,0.037l0,0.44l0.44,0.402l0.319,0l0.959,-0.682l0.959,0.041l0.481,-0.481l1.081,-0l0.038,-0.197l0.603,0.716l0.557,0.243l0.879,-0.36l2.04,-0l0.201,0.197l1.123,-0.038l0.36,0.561l0.117,-0.44l1.6,0.038l0.641,0.239l0.481,-0.038l1.039,-0.519l0.519,0.079l0.201,-0.238l0.721,0.037l-0,-0.519l-0.164,-0.201l0.842,0c0,0 0.839,0.641 1.039,0.641c0.2,-0 0.678,-0 0.678,-0l0.361,0.28l1.6,-0.079l0.163,0.159l0.519,0l0.557,-0.44l1.642,0l0.44,0.319l0.079,0.36l0.562,0.042l0.477,0.398l0.36,0.079l0.08,-0.197l0.641,0l0.561,0.319l0.599,-0.042l-0.038,0.444l0.318,0.159l0.281,0.037l0.88,0.842l0.037,0.319l0.18,0.209c-0.126,-0.089 -0.247,-0.167 -0.297,-0.167c-0.12,-0 -0.243,0.016 -0.243,0.016l0,0.222l-0.138,-0.28l-0.398,0.042l-0.44,-0.143l-0.084,0.021l-0.037,0.318l0.259,0.264l0.139,0l0.021,-0.18l0.301,0l0.021,0.318l-0.163,0.16l-0.038,0.222l0.318,0.397l0.302,-0.058l0.758,0.858l0.44,0.021l0.121,-0.259l-0.62,-0.541l-0.402,-0.238l-0.079,-0.222l0.259,0.042l1.06,0.737l0.021,0.222l0.503,0.339l0.578,-0.138l-0.021,-0.243l0.259,-0.138l0.461,0.339l-0.038,0.121l-0.46,0l-0.181,0.197l0.08,0.163l0.339,0.139l0.26,-0.139l0.36,-0.222l-0.138,-0.1l-0.021,-0.239l-0.059,-0.301l-2.123,-0.997l-0.519,-0.281c-0,0 -0.117,-0.096 -0.252,-0.197l0.633,0.038l1.281,0.8l0.838,0l1.202,0.917l-0,1.001l0.519,0.959l0.319,0.042l-0,0.599l-0.478,0.478l0.038,0.883l0.402,1.517l-0.042,1.763l-0.599,0.519l-1.039,0.478l-0.121,0.36l0.038,0.879l0.28,-0.079l-0.439,0.682l-0,1.437l-0.16,0.322l0,1.521l-0.28,0.318l-0.159,1.001l0.041,0.36l0.239,0.478l0.038,1.6l-0.277,0.72l0.038,0.842l0.159,0.477l-0.599,0.959l-0.519,-0.079l0.08,0.683c-0,-0 -0.56,0.958 -0.52,1.118c0.04,0.16 0,1.118 0,1.118l0.319,0.683l-0.08,0.8l-1.001,0.879l-0.398,0.52l0.042,0.8l0.276,1.6l1.043,1.197c0,0 0.557,1.922 0.557,2.082c0,0.16 0.201,1.24 0.201,1.24l1.722,1.44l0.037,0.557c0,0 0.88,0.481 0.88,0.721c0,0.24 0.042,0.402 0.042,0.402l0.917,0.636l0.8,0.361l0.201,1.08l3.041,1.483l0.201,0.44l-0.561,-0l0.079,0.398l0.318,0.159l0.361,-0.319l0.163,0.16l-0.36,0.318l0.36,0.402l0.44,0.042l0.28,0.557l-0.883,0.042l0.439,0.758l0.922,0.239l1.399,-0.239l-0.281,-0.959l2.32,2.521l0.52,0.117l0.44,0l0.561,-0.197l1.399,0l0.481,-0.28l0.721,-0.042l0.36,-0.281l0.44,-0.079l0.519,-0.88l0.561,-0.28l1.118,-0.038l0.44,-0.323l1.361,0l1.278,-1.197l0.201,-0.151l0.079,0.532l0.222,-0.021l0.44,0.259l-0.519,0.281l-0.042,0.339l0.138,0.08l-0.18,-0l-0.318,0.398l-0.302,0.063l-0.017,0.339l0.838,-0.021l-0.021,-0.398l0.264,-0.402l0.239,-0l0.318,0.301l-0.44,0.361l0.159,0.197l0.344,-0.298l0.44,-0.042l0.557,0.44l0.142,0.302l0,0.519l0.239,-0l0.021,-0.72l-0.159,-0.08l0.016,-0.239l-0.599,-0.322l0.402,-0.398l-0.402,-0l-0.1,0.138l-0.478,0.021l0,-0.281l-0.519,-0.28l0.318,-0.239l0,-0.398l-0.339,-0.063l-0.481,-0.276l-0,-0.285l0.502,-0.377l1.076,-0.201l0.763,-0.678l0.879,-0.159l0.838,0.477l1.96,0.08l0,0.682l1.24,0.08l0.36,-0.281l1.043,0.042l0.716,0.679l1.001,0.598l0.08,-0.519l0.439,0.281l0.683,0.079l1.118,0.959l0.679,0.08l0.561,0.921l0.36,0l0.398,0.557l0.524,0.122l0.917,0.842l-8.959,-0.08l-0.038,-0.561l-0.519,-0.402l-0.842,-0.318l-0.599,-0.042l-0.879,-0.36l-1.24,0.041c0,0 -0.279,0.922 -0.519,0.922l-0.683,-0l-0.079,-0.36l-0.16,0.557l-0.402,0.561l-23.915,-0.038l0,-0.243l-2.081,0.042l-0.038,-0.879l0.36,-0.482l-0.042,-0.72l-0.636,-0.918l-0.884,-0.561l0,-0.519l-0.637,0.079l-0.561,-0.561l-0.921,-0.038l-0.398,-0.402l-0.281,0l-0.079,-0.28l-0.52,-0l-0.041,-0.239l-0.8,0l-0.52,-0.599l0.08,-0.322l-0.478,-0.08l-0.042,-0.997c0,0 -0.841,-1.122 -1.001,-1.202c-0.16,-0.08 -1.197,-1.16 -1.197,-1.16l-0.402,0.08c-0,-0 -0.479,-0.639 -0.679,-0.599c-0.2,0.04 -0.519,-0 -0.519,-0l-0.201,-0.201l0.201,0.842l0.641,0.64l0.996,0.679l0.562,0.481l-0.122,0.398l-0.997,0.922l-0.682,0.037l-0.52,-1.118l-1.637,-0.879l-0.763,-0.042l0.201,-0.721l-0.758,-0.117l-0.603,-1.281l0,-0.361l0.402,-0.28l-0.042,-0.637l-0.159,-0.28l0.042,-0.323l0.478,-0.08l0.243,-0.318l-0.042,-0.599l-0.281,-1.043l-0.477,-0.28l-0.201,-0.159l0.159,-0.319l0.36,-0.201l-0.08,-1.361l-2.199,-1.918c0,-0 0.318,-0.478 0.038,-0.478c-0.28,0 -0.641,-0.083 -0.641,-0.083l-1.558,-1.638l-0.72,-0.678l-0.398,-0.641l-0.322,-0.243l-0.08,-0.917l-1.478,-1.68l-0.042,-0.322l-0.8,-0.038l-0.478,-0.8l-1.721,-1.24l-0.117,-0.8l-1.483,-1.001l0.042,-0.599l1.118,-0.042l0.641,0.721l0.477,-0.239l-0.079,-0.44l-0.557,-1.118l-0,-1.24l-0.721,-0.243c0,0 -1.639,-0.118 -1.759,0.042c-0.12,0.16 -0.042,0.8 -0.042,0.8l-0.519,0.44l-2.199,0.038l-0.762,-0.44c0,-0 -0.237,0.159 -0.637,0.159l-0.439,0c-0,0 -0.402,-0.356 -0.562,-0.356l-1.08,0l0.042,-55.155l1.357,0.121l0.28,-0.201l0.8,0.122l0.239,-0.281l0.402,0.042l0.44,-0.523l0.599,-0l0.481,-0.16l0.361,0l0.117,-0.28l2.601,-0.038Zm8.23,62.263l-1.073,0.113l-0.171,0.394l-0.846,-0.055l-0,0.565l0.791,0.398l0.792,-0.171l0.565,0.339l0,0.339l0.453,0.226l0.393,0l0.453,-0.452l-0.168,-0.565l-0.565,0.226l-0.172,-0.62l-0.281,-0.172l-0.226,-0.172l0.055,-0.393Zm3.329,2.588l-0.28,0.281l-0.503,-0.013l-0.058,0.226l-0.139,0.394l0,0.352l0.197,0.318l-0.26,0.222l0.222,0.138l0,0.461l0.52,0l0.138,0.201l-0.117,0.239l-0.52,0.021l-0.1,0.138l0.18,0.059l0.08,0.582l0.36,0.498l0.138,0.54l-0,0.302l0.201,-0.021l-0,0.26l0.498,0.561l0.243,-0.021l0.377,0.239l0.344,0.259l0.477,0.26l0.281,0l-0,0.142l0.201,0.021l-0,-0.121l0.218,0.021l-0.021,0.201l0.243,-0l0.439,0.26l0.08,-0.143l0.038,0.201l0.243,-0.159l0.217,0.159l0.641,0.138l0.821,0.243l0.62,0l0.201,-0.243l0.038,-1.176l-0.62,-0.662l0.021,-0.44l-0.302,-0.042l-0.038,-0.159l-0.783,-0.838l0.021,-0.28l-0.28,-0.08l-0.457,-0.54l0,-0.302l-0.243,0l-0.938,-0.917c-0,0 -0.243,-0.08 -0.323,-0.079c-0.08,-0 -0.096,0.259 -0.096,0.259l-0.461,-0.762l-0.418,-0.519l-0.264,-0.218l-0.118,0.117l-0.222,0.021l-0.737,-0.599Zm0.541,3.577l0.657,-0l0.059,0.28l0.084,0.361l0.276,-0l0.08,-0.139l0.36,0.398l-0,0.18l-0.319,0.361l-0.318,-0l-0.322,-0.319l-0.038,-0.201l-0.72,-0.042l-0.222,-0.259l0.042,-0.319l0.381,-0.301Zm3.916,2.739l0.423,-0l-0,0.142l0.238,0l0,0.139l0.16,0.142l-0.281,-0l-0.101,-0.121l-0.159,0.02l-0.037,0.122l-0.243,-0.042l-0,-0.402Zm156.217,-25.924l0.17,-0.16l0.61,-0.02l0.59,0.56l0.65,0.02l0.02,0.4l0.41,0.47l0.32,0.02l0.1,0.54l0.18,-0l-0.01,0.55l-0.26,0.259l-0.42,0.01l-0.19,-0.169l-0.69,0.01l-0.25,0.209l-0.16,-0.01l0.04,-0.559l-0.26,-0.33l0.38,-0.25l0.29,0.13l0.05,0.18l0,-0.35l0.21,-0.15l-0.25,0.02l-0.17,-0.18l0.01,-0.27l-0.08,0.27l-0.31,0.2l-0.32,-0.02l-0.41,-0.41l0.01,-0.29l-0.16,-0.1l0,-0.34l-0.11,-0.04l0.01,-0.2Zm1.48,6.149l0.238,-0.258l0.007,-0.353l0.241,-0.311l0.056,-0.234l0.142,0l0.099,-0.12l0.247,0l-0.007,0.354l0.163,0.099l-0.014,0.212l0.134,0.127l-0.007,0.141l-0.159,0.143l0,1.06l-0.14,-0l0,0.66l-0.1,-0l-0.1,-0.16l-0.36,-0l-0.24,-0.24l0.02,-0.26l-0.2,-0.16l-0.02,-0.7Zm-1.39,5.009l0.14,-0.11l0,-0.27l0.14,-0.1l-0.01,-0.29l0.19,-0.15l0.25,-0.02l0,-0.22l0.16,-0.17l0.22,0l0,0.26l0.15,0.01l0.14,0.07l0,0.13l-0.13,0.05l-0.03,0.96l-0.1,0.01l-0.2,0.26l-0.78,-0.04l0,-0.16l-0.13,-0.07l-0.01,-0.15Zm10.889,-1.45l0.55,-0.02l0.19,0.16l0.01,0.25l0.3,0.32l0.22,0l0.1,0.16l-0,0.4l-0.19,0.4l-0.19,0l-0.08,0.22l-0.11,-0.01l-0.07,-0.19l-0.27,-0.15l-0.01,-0.28l0.32,-0.21l-0.58,0.01l-0.01,-0.33l-0.19,-0.14l0.01,-0.59Zm-13.438,9.639l0.02,-0.68l0.26,-0.2l-0.02,-0.48l0.24,0.02l0.2,-0.34l0.28,0.08l0.02,0.88l-0.12,0.14l-0.14,0.22l-0.02,0.32l-0.18,0.16l-0.02,-0.12l-0.52,-0Zm6.459,5.499l-0.02,-0.1l0.22,-0.18l0.34,-0.28l-0,-0.18l0.14,-0.22l0.22,0l0.22,-0.32l0.42,-0.02l0.12,-0.24l0.12,0.02l0.14,0.16l0.22,0l-0,0.22l-0.28,0.24l-0.02,0.18l-0.12,0.14l-0.18,0l-0.04,0.18l-0.24,0l-0.2,0.24l-0.22,0.04l-0.2,0.26l-0.36,0l-0,-0.18l-0.28,0.04Zm-16.298,-47.173l-1.359,0.88l-0.142,-0.361l0.847,-0.664l0.654,0.145Zm-1.459,1.36l1.219,-0.72l-0.14,1.08l-1.079,-0.36Zm10.993,53.187l0.184,-0l0.028,-0.24l0.339,-0.212l0.863,-0.029l0.297,-0.268l0.141,-0.015l0.283,-0.24l0.226,0l0.467,-0.339l-0,-0.976l-0.17,-0.17l0.014,-0.396l-0.141,-0.141l-0.014,-0.693l-0.283,-0.056l-0.127,-0.283l-0.255,-0.127l-0.226,-0l0,-0.354l0.24,0l0.085,0.127l0.566,0.311l0.608,-0.537l1.315,-0.014l0.608,-0.552l0.891,-0.028l0.113,0.198l0.283,-0.014l0.014,0.269l-0.156,0.113l-0.268,0.396l-0.41,0.014l-0,0.283l0.226,0.24l0.014,1.216l0.523,0.566l0.014,0.565l-0.353,0.34l-0,0.523l-0.255,0.198l-0.382,-0.029l-0.904,0.58l-2.532,0l-0.169,-0.169l-1.358,-0l-0.183,0.155l-0.156,0.014l0,-0.226Zm-100.889,-106.177l0.028,1.88l-0.395,-0.254l-0,-0.283l-0.114,0.014l0,-0.268l-0.169,-0.099l-0.142,-0.015l0,-0.169l-0.113,0.014l-0.014,-0.523l0.297,-0.156l0.141,-0.24l0.099,-0.043l0,-0.834l0.142,-0.141l-0,-0.481l0.155,-0.17l0,-0.367l0.085,-0.128l0.014,-0.141l0.142,-0.127l0.014,-0.297l-0.071,-0.113l-0.099,0.014l0.014,-0.156l0.128,-0.028l0.183,0.17c0,-0 0.495,0.056 0.495,-0.014l0,-0.255l0.283,0.255l0.17,0.014l-0.014,0.169l-0.311,-0.014l0.014,0.212l0.283,0.029l-0.128,0.311l0.17,-0l-0.014,0.367l0.085,0.014l-0,0.651l-0.891,0.014l-0.043,-0.141l-0.155,-0l0.028,1.173l-0.141,0.184l-0.156,-0.028Zm2.404,4.482l-0.014,-0.099l0.099,0l0.042,-0.113l0.113,-0.056l0.015,-0.255l0.127,-0.014l-0,-0.368l0.41,-0.014l0.014,-0.269l0.226,0l0.014,-0.282l0.142,-0l0.141,0.282l0.255,0l-0.014,0.142l0.509,-0.014l0.014,0.127l0.297,0.028l-0,0.113l0.141,0.015l0.099,0.254l0.184,0.014l0.127,0.127l0.043,0.269l0.197,-0.014l0.184,0.127l0.014,0.198l0.198,-0.014l0,0.113l-0.127,0l0,0.127l0.142,0l0.014,-0.127l0.141,0l0.014,0.156l0.099,-0.014l-0.014,0.127l0.297,0.014l0,0.127l-0.127,0.014l-0,0.099l0.127,-0.014l0,-0.085l0.113,-0.014l0,0.142l0.142,-0l-0,0.113l0.113,-0l-0,0.268l0.141,0l0,0.269l0.17,0.014l-0,0.255l0.113,-0l-0,1.06l0.17,0l-0,0.283l-0.976,-0.014l-0,-0.113l-0.142,-0.014l0.029,0.381l-0.17,0.015l0,0.282l-0.438,0.014l-0,-0.296l-0.156,-0l-0.169,-0.255l-0,-0.41l-0.128,0.014l-0.014,-0.254l0.099,-0.015l0,0.184l0.24,-0.014l0,0.17l-0.084,-0l0.014,0.254l0.099,0.029l0.226,-0.297l0.396,-0.029l-0.028,-0.254l0.226,-0l0.353,-0.467l-0.169,-0.028l-0,-0.382l-0.099,-0.014l0.014,-0.339l-0.198,-0.014l-0.142,-0.326l-0.197,-0.028l-0.34,-0.396l0.014,-0.212l-0.268,0l-0,-0.198l-1.117,-0.99l-0.297,-0.042l-0.071,0.155l-0.156,0l-0.056,-0.141l-0.255,-0l-0.113,0.127l-0.551,0l-0.014,0.41l-0.269,0.382l-0.198,0.014Zm6.731,5.303l-0.015,-0.099l0.34,0.014l0.424,0.438l-0.014,0.255l0.283,-0l0.523,0.537l-0.014,0.269l0.212,-0l-0.014,0.396l0.056,-0l-0.014,0.396l0.198,-0l0,0.155l0.141,-0.014l0.015,0.113l0.254,0.297l0.17,0.014l-0.014,0.424l0.325,0.297l-0,0.283l-0.834,-0.028l-0.029,0.169l-0.791,0l0.155,-0.07l-0.028,-0.17l0.594,-0.594l0.381,-0.014l-0.325,-0.311l0,-0.297l-0.226,0l-0.156,-0.113l-0.014,-0.354l-0.226,-0.198l0,-0.197l-0.834,-0.849l-0.127,0l-0.085,-0.17l-0.142,0l-0.184,-0.198l0.015,-0.381Zm-2.22,6.787l0.693,0.014l0.282,0.24l-0.042,0.283l0.17,0.014l0.268,0.255l0.509,0.014l-0.028,0.099l0.283,-0.014l0.014,0.184l0.113,0.028l0.552,0.495l0.593,-0.014l0.057,-0.128l0.184,-0.014l0.07,-0.141l0.227,-0.014l-0,0.169l-0.439,0.283l0.17,-0.014l0.127,0.127l0,0.297l-0.254,0l-0,-0.282l-0.99,-0.015l-0.099,-0.127l-0.311,0l-0.113,-0.127l-0.382,-0l-0.834,-0.82l-0,-0.241l-0.34,0l-0.212,-0.282l-0.254,-0.015l-0.014,-0.254Zm9.852,-1.816l-0,-0.44l0.12,-0l0.08,-0.96l0.16,0l0.36,0.44l-0,1l-0.72,-0.04Zm-5.271,1.929l0.368,0l0.084,0.141l0.198,0.015l0.114,0.198l-0.029,0.212l0.156,0.07l-0,0.17l0.113,0.057l-0.014,0.198l0.141,-0l0.028,0.226l0.114,-0l0.042,0.41l0.099,0.028l0.099,0.297l0.042,1.258l-0.099,0.227l0.297,0.226l1.061,0.057l0.41,0.438l0.014,0.438l0.099,0.113l0.014,0.707l-0.268,0l-0.637,-0.664l0,-0.198l-0.339,-0.283l-0.212,-0.057l-0,-0.084l-0.424,-0.057l-0,-0.212l-0.184,-0.17l-0.198,0.014l-0.156,-0.155l0.014,-0.127l0.114,0.014l0.084,0.113l0.311,0.028l-0.155,-0.17l0.028,-0.509l-0.127,-0.014l0.014,-0.382l-0.155,-0.042l0.014,-0.509l-0.142,-0.014l0,-0.255l0.128,-0.028l0.141,0.17l-0.014,0.565l0.169,-0.014l0,0.396l0.114,0l-0,-0.763l-0.114,-0.071l-0.014,-0.255l-0.127,-0.042l-0.057,-0.354l-0.084,0l-0,0.241l-0.128,0.014l-0.028,-0.255l-0.254,0l-0,-0.113l-0.142,-0.042l0,-0.255l-0.127,0l-0.156,-0.169l-0.07,-0.269l-0.17,-0.226l0,-0.283Zm2.551,-0.209l1.12,-0.08l-0.04,0.36l0.32,0.32l-0.2,0.04l-0.28,-0.32l-0.92,0.04l0,-0.36Zm6.999,4.359l0.48,-0.36l0.52,0l-0,0.28l-0.24,0.2l-0.76,-0.12Zm-3.069,1.4l0.739,-0.04l0.15,0.27l0.39,0.01l0,0.24l0.14,-0l0.01,-0.24l0.14,0.26l0.37,0.01l-0.1,0.13l0,0.78l-0.82,0.01l-0.01,-0.13l-0.65,-0l-0.03,0.28l-0.23,-0.01l0,0.189l0.12,0.09l0.01,0.53l-0.279,-0.02l-0.27,-0.26l0.01,-0.4l0.28,-0.249l0.239,-0.02l0.03,-0.24l0.16,0.01l-0.17,-0.18l0.11,-0.11l0.2,0.21l0.02,-0.41l-0.25,-0l-0.309,-0.31l-0,-0.4Zm2.149,0.95l0.64,-0.01l0.02,0.26l0.07,-0.01l0,0.11l0.11,0.24l0,-0.18l0.25,-0.01l0,0.17l-0.14,0.13l0.11,0.129l0.16,0l0.16,0.12l-0,0.17l-0.18,0l-0.45,0.38l0,0.31l-0.11,0.01l-0.29,0.15l-0.23,0.23l-0.01,0.21l-0.26,0.27l0.01,0.15l-0.27,0.26l0,0.1l-0.26,0.31l-0.27,0.01l-0.26,0.13c-0.04,0.02 -0.26,0.01 -0.26,0.01l-0.01,0.14l-0.57,0.01l0.15,-0.07l0.01,-0.22l0.52,-0.57l0.29,-0.1l0.65,-0.6l0.01,-0.24l0.42,0.02l0.11,-0.15l0.19,0l0.12,-0.13l0.21,0l-0.01,-0.49l-0.27,-0.3l-0.24,0.01l0.01,-0.13l-0.12,-0.01l-0.01,-0.819Zm5.39,1.772l0.113,-0.17l0.785,0.014l0.134,0.163l0.021,0.148c0,0 0.085,0.071 0.127,0.085c0.043,0.014 0.806,0.014 0.806,0.014l0.163,0.142l0.156,0.134l0.113,0.134l0.113,0.135l0.162,-0.014l-0.169,0.12l0.014,0.283l-0.24,0.021l-0.425,-0.438l0,-0.135l-0.396,0.021l-0.014,0.283l-0.155,0.135l-0.276,-0.015l-0.156,-0.247l-0.12,-0l-0.127,-0.134l-0.007,-0.17l-0.113,-0.099l-0.516,0.007l0.007,-0.417Zm-3.217,10.294l-0.028,-0.658l0.113,0l0.035,-0.254l0.262,-0.021l0.29,-0.41l1.583,-0l0.142,0.148l0.275,-0.007l0.007,-0.382l0.085,-0.17l0.17,-0.007l0.071,-0.198l0.332,-0.014l0.339,-0.346l-0.007,-0.127l-0.537,0.367l-0,-0.198l0.46,-0.261l0.282,-0.007c0,-0 -0.028,0.89 -0.028,0.926c0,0.035 -0.65,0.587 -0.65,0.587l-0.015,0.636l-0.106,0.141l-0.162,0.007l-0.135,0.149l-0.6,-0l-0.107,-0.17l-1.371,0.036l-0.325,0.247l-0.375,-0.014Zm9.725,-7.087l0.33,-0.02l0.07,0.16l0.32,-0.02l0.11,0.14l0.37,-0.01l0.18,0.13l0.07,0.45l0.62,-0l0.08,0.08l0.19,0.01l0.1,0.12l0.15,0.12l-0,0.19l0.26,-0.01l0.13,0.12l0.15,0.12l0.51,0.01l0.08,0.12l0.21,0.01l-0,0.13l-0.13,0.07l-0,0.749l-0.29,-0.28l-0.09,-0.219l-0,-0.17l-0.31,-0.26l-0.32,-0.01l-0.11,0.16l-0.88,0.02l-0.16,-0.16l-0.04,-0.41l-0.34,0.03l-0.16,-0.14l-0.23,-0.01l-0.32,-0.29l0.01,-0.21l-0.14,-0.16l-0.26,-0.02l-0.15,-0.14l-0.01,-0.4Zm4.05,1.98l0.13,0.01l-0.14,0.18l0.01,-0.19Zm42.923,25.206l2.16,0.04l-0.64,0.52l-1,-0l-0.4,0.16l0.16,-0.12l-0.28,-0.6Zm1.24,-4.64l0.361,-0.23l0.41,-0l0.099,-0.114l0.071,0l-0.028,0.34l-0.198,0.155l-0.396,0.015l-0.071,0.254l-0.248,-0.02l0,-0.4Zm-2.283,0.66l0.12,-0.007l0.028,-0.085l0.828,0l0.24,0.276l-0.014,0.113l-0.12,0.156l-0.255,-0.007l-0.042,0.127l-0.064,-0.007l-0.028,-0.042l-0.127,-0.227l-0.552,-0.028l-0.014,-0.269Zm3.952,-2.559l0,-0.191l0.184,0.007l0.085,-0.12l0.169,-0.007l0.036,0.156l0.106,-0.008l0.063,0.149l0.191,-0l-0.155,0.141l-0.431,-0.007l-0.248,-0.12Zm-7.128,4.249l0.26,0.01l0.14,-0.12l0.25,0l0.18,-0.13l0.28,0l-0,0.12l0.49,0.01l-0,0.15l-0.16,0.13l-0.67,0.01l-0.29,0.25l-0.31,0l-0,-0.1l-0.17,-0.01l-0,-0.32Zm4.699,-1.58l0.16,-0.08l0,-0.07l0.55,0l-0.01,0.17l-0.4,0l-0.01,0.14l-0.29,0.01l0,-0.17Zm4.539,49.873l0.05,-0.43l0.4,-0.52l0.29,-0.01l0.02,0.16l0.62,-0.01l0.42,0.39l0.12,-0.13l0.68,0.01l0,-0.27l0.81,-0.81l0.4,-0.01l-0.03,0.43l0.18,-0.03l-0,0.26l0.23,0.15l-0,0.26l-0.12,0.01l-0.01,0.38l-0.38,-0l-0.14,0.11l-0,0.31l-0.13,0.14l-0.19,-0l0.05,-0.39l-0.27,0.38l-0.77,-0l-0.44,-0.52l-0.24,-0.01l-0.01,0.17l-1.54,-0.02Zm-6.549,0.52l0.03,-0.26l0.27,-0.27l0.54,-0.02l0,0.15l0.4,-0l-0.02,0.15l0.15,0.14l-0.01,0.29l-0.13,-0.21l-0.3,0.17l-0.78,-0l-0.15,-0.14Zm-20.226,-8.569l0.13,-0.11l0.149,-0.15l0.37,-0l0.51,0.52l0.35,-0l0.11,0.15l0,0.23l-0.13,0.02l-0.01,0.13l0.15,-0l-0.01,0.28l-0.28,-0.01l0.01,0.08l0.29,0.19l0.02,0.14l-0.17,0.27l-0.25,0.02l-0.14,-0.14l-0.15,-0.21l0,-0.44l-0.12,-0l0,-0.26l-0.25,-0.29l-0.32,-0.04l-0.249,-0.21l-0.01,-0.17Zm-4.456,-0.567l0.424,0.452l0.035,0.276l0.417,0.354l0.396,0.028l0,0.141l0.368,-0.007l0.573,0.644l0.24,0.014l0.014,0.424l-0.389,-0.007l-0.014,-0.134l-0.509,0.021l-0.162,-0.163l-0.149,0.007l0,-0.219l-0.163,-0.042l-0.233,-0.007l-0.007,-0.262l-0.233,0.007c-0,0 -0.142,-0.29 -0.17,-0.29c-0.028,0 -0.269,0.007 -0.269,0.007l-0.162,-0.261l-0.233,-0.007l-0.121,-0.149l-0.042,-0.537l-0.219,-0.12l0.134,-0.17l0.474,-0Zm-6.503,-1.283l0.23,-0.33l0.43,0.55l0.37,0.02l0.01,0.28l0.28,0.13l-0.01,0.26l-0.41,-0.01l-0.09,-0.13l-0.14,0.02l-0.28,-0.44l0,-0.1l-0.22,0.01l-0.05,0.13l-0.07,-0.39l-0.05,0Zm-42.634,25.795l0.849,-0.821l0.792,0l0.509,-1.47l0.169,-0.339l0.905,-0.905l0.368,-0.227l0.368,-0.396l1.781,-0.028l0.679,-0.763l0.028,-0.538l-0.283,-0.424l-0.311,-0.17l0.057,-2.234l0.424,-0.65l-0.339,-0.255l0.028,-0.254l0.424,-0.538l0.566,0.029l0.028,-0.566l-0.254,-0.254l0.226,-0.255l-0,-0.877l0.367,-0.707l0.736,-0.537l0.48,-0.113c0,0 0.17,-0.198 0.17,-0.311c0,-0.113 1.103,-0.679 1.103,-0.679l0.622,0.028l0.283,-0.424l-0.028,-0.339l-0.227,-0.057l0.029,-0.311l0.707,-0.198l0.905,0.509l0.565,0.311l0.736,0.057l0.282,0.17l-0.056,0.311l-0.566,0.367l0,0.311l0.82,0.283l0.566,-0.339l0.028,-0.594l0.764,-1.216l-0,-0.933l0.424,-0.707l0.226,-0.17l0.679,0.028l0.848,0.396l0.934,0l0.707,0.538l0.763,-0.029l1.16,-0.622l0.424,-0.056l0.509,-0.566l1.046,-0.933l0.396,-0.029l1.018,-0.904l0.594,-0.425l1.018,-0.028l0.509,-0.537l0.622,-0.34l1.245,-0.452l0.594,-0.933l0.282,-1.216l0.418,-0.334l0.32,-0.04l0.32,0.64l0.52,-0.12l-0.08,-0.88l1.16,-0.04l0.08,-0.84l0.4,-0.04l1.719,0.48l1.2,0.6l0.08,1.16l0.28,0.36l-0.08,0.52l-0.32,0.4l-0.76,0.04l-0.28,0.36l0.04,0.879l-2.279,0.84l-0.92,0.32l-0.4,-0.04l-0.12,1.88l0.28,0.6l0.32,-0l-0.08,0.48l0.671,0.495l0.452,0.283l-0.084,0.424l-0.17,0.057l0.283,0.791l0.226,0.736l0.396,0.424l-0.028,0.424l-0.311,0.622l-0.114,0.651l-0.82,0.452l-0.282,0.481l-0.057,0.537l-0.424,0.707l-1.386,1.612l0.028,0.453l0.792,0.622l0.085,0.877l-0.028,0.593l0.594,0.679l1.131,0.142l0.056,0.565l-0.367,0.396l0.452,0.113l0,0.622l0.453,0.538l1.499,-0.057l0.989,-0.848l0.255,-0l0.537,-0.594l0.396,-0.028l0.198,-0.255l0,-0.226l-0.113,-0.085l-0.028,-1.527l-0.17,-0.424l0.057,-0.227l0.197,-0.113l0,-0.198l-0.339,-0.622l0.057,-0.679l-0.736,-0.395l-0.056,-0.51l-0.142,-0.254l0,-0.311l-0.65,-0.566c0,0 0.226,-0.226 0.028,-0.311c-0.198,-0.085 -0.565,-0.565 -0.565,-0.565l-0.085,-0.509l-0.537,-0.877l-0.029,-1.273l0.481,-0.056l-0.028,-0.962l-0.453,-0.056l0.255,-0.425l1.725,-0.763l0.622,-0l0.481,-0.566l0.905,-0.424l2.064,-0.198l1.103,-0.254l1.301,-0.651l0.481,-0.565l0.283,-0.029l0.028,-0.509l0.594,-0.028l0.452,0.283l0.735,-0.029l0.198,-0.537l-0.056,-0.311l-0.82,-0.452l-0.792,-0l-0.622,0.311l-0.962,-0.057l0.028,-0.877l-0.197,-0.282l0.028,-0.509l0.565,-0.509l0.029,-0.877l0.198,-0.113l0.452,-0l0.311,-0.453l0.735,0.029l0.651,0.593l0.396,1.019l0.17,1.018l0.282,0.848l0.792,0.933l0.509,0.029l1.329,-0.396l0.566,0.028l1.046,0.679l2.178,-0.029l0.565,0.736l1.217,0.084l0.339,0.651l0.82,1.272l0.679,1.556l-0,0.339l-0.368,0.029l0,0.452l0.651,0.905l1.244,0.254l0.113,0.34l0.424,-0.651l1.216,0.029l2.574,-0.594l1.159,-0l3.111,-0.566l2.234,0l1.442,0.368l0.651,0.056l0.113,0.99l0.933,0.566l0.537,0.028l0.481,0.396l1.075,0.198l0.792,0.735l1.696,0l0.142,0.198l1.697,-0.028l0.198,-0.396l0.113,0.113l0.622,-0.085l0.396,-0.283l0.283,0.368l0.028,-0.226l-0.283,-0.368l0.198,-0.424l-0.17,-0.113l0.481,-0.141l0.962,0.028l0.509,-0.368l0.48,-0.056l0.085,-0.368l0.651,-0.509l0.565,-0.113l0.113,0.254l0.255,-0.254l1.612,0.056l0.961,-0.028l-0.65,-0.537c0,-0 -0.961,-0.283 -1.103,-0.283c-0.141,-0 -0.452,0.283 -0.452,0.283l-1.641,-0.029l0.283,-0.593l1.358,0.056l0.622,-0.198l0.396,-0.141l-0.142,-0.113l-0.396,-0.17l-0.113,-0.17l0,-0.226l0.424,0l0.368,0.311l-0.028,0.311l2.036,0.029l0.764,-0.425l0.933,0l0.396,-0.254l1.979,-0.028l0.736,-0.481l0.367,-0.029l0.057,-0.169l0.537,0.028l0.255,0.311l0.876,0l0.594,0.283l0.933,-0l0.17,0.17l1.018,-0l0.113,-0.255l1.047,0l0.028,-0.254l0.254,0.226l0.312,-0l-0.029,0.283l-0.509,0.311l-0.509,-0.029l-2.63,1.301l-2.347,0l0.537,0.651l0.029,0.339l0.424,0l0.226,0.566l0.311,0.424l0.453,-0l-0,0.283l-0.198,0.48l0.961,0.905l0.735,0.029l-0.028,-0.679l0.17,-0.141l1.131,-0c-0,-0 0.99,0.735 1.131,0.735l0.198,-0l0.311,0.339l0.424,0.198l0.198,-0.283l0.566,0.425l0.254,-0.029l0.029,-0.565l0.594,-0.029l1.159,0.962l0.311,0.057l0.962,0.565l0.678,0.226l0.962,0.651l0.679,0.028l0.678,0.566l0.255,0.622l-0.028,1.018l0.226,0.254l-0.057,0.368l-0.933,0.057l0.057,0.565l0.282,0.198l0.453,-0.056l0.283,1.612l0.367,-0.057l0,0.537l-1.187,0l0.226,0.311l2.206,0l0.791,-0.509l2.121,-0.028l1.047,1.16l0.339,0.622l0.594,-0.34l1.244,0.085l0.764,0.368l-114.308,-0.028Zm-66.629,-78.907l0.14,-0.17l-0,-0.62l0.13,-0.15l-0,-0.19l0.15,-0.09l-0,-0.159l0.14,-0.12l-0,-0.17l0.13,-0.13l-0.01,-0.34l0.17,-0.15l0.26,-0l0.23,0.29l0.36,0.01l0.13,-0.13l0.299,-0l0,0.35l-0.149,0.01l-0.16,0.16l-0.27,-0l-0.3,0.519l-0.12,0l-0.17,0.42l-0.12,0l-0.29,0.66l-0.55,0Zm-6.279,14.428l0.15,0.44l-0.01,0.56l-0.13,0.02l-0.02,0.51l-0.11,-0.01l-0.01,0.29l-0.29,0.39l-0.12,-0.02l0.02,-1.33l0.11,-0.1l-0.01,-0.19l0.14,-0.08l-0,-0.17l0.28,-0.31Zm12.138,11.678l0.14,-0.06l-0,-0.08l0.26,-0.11l-0,-0.18l0.16,-0.14l0.61,0l0.02,0.2l-0.1,0.01l-0.03,-0.07l-0.18,0.01l-0.01,0.2l-0.15,0l-0.11,0.13l-0.18,0l-0.05,0.11l-0.38,-0.02Zm-4.349,0.7l0.15,-0.07l-0,-0.26l1.769,-0.57l0.82,0.01l-0.01,0.29l-0.26,0l-0.01,0.39l-1.01,0.01l-0.21,0.28l-0.809,0.01l0.01,0.12l-0.28,-0.03l-0.16,-0.18Zm143.865,29.816l0.382,0.014l0.014,0.241l0.254,0.155l0,0.141l-0.664,-0.042l0.014,-0.509Zm-149.835,-36.365l-0.02,-0.74l0.14,-0.01l-0.01,-0.24l0.29,-0.16l-0.01,-0.41l0.25,-0.01l0.15,0.17l0,0.63l-0.41,0.3l-0.01,0.48l-0.37,-0.01Zm-1.349,2.05l0.39,-0l0.14,0.12l0.01,0.29l-0.29,0.11l0.02,0.57l-0.14,0.02l-0,0.1l-0.09,-0l-0.07,-0.11l-0.38,-0.12l0.18,-0.01l-0.01,-0.71l0.24,-0.26Zm171.604,29.555l0.1,-0.08l-0,-0.18l0.28,-0.319l0.08,-0.02l0.16,0.159l-0,0.22l-0.42,0.24l-0.2,-0.02Zm0.479,-1.539l0.389,-0l0.275,0.282l0.015,0.128l-0.276,-0.007l-0,-0.128l-0.396,-0.007l-0.007,-0.268Zm0.134,0.678l0.262,0.007l0.014,0.248l-0.134,-0.014l-0.128,-0.113l-0.014,-0.128Zm0.672,-2.962l0.141,0.007l-0.007,-0.254l0.134,-0l0.156,0.12l-0.007,0.127l-0.156,0.007l0,0.262l-0.254,0.014l-0.007,-0.283Zm0.389,0.933l0.141,0.021l0.17,0.121l0.007,0.148l-0.318,0l-0,-0.29Zm-69.154,-55.491l0.01,-0.09l0.42,-0.28l-0.02,-0.28l0.13,-0.01l-0,0.4l-0.26,0.28l-0.28,-0.02Zm-0.53,1.09l-0.01,-0.13l0.95,-0.01l-0,0.14l-0.94,0Zm3.339,-1.74l0.28,0l0.02,0.67l-0.18,0.05l0,0.21l-0.09,0.03l-0.01,-0.28l0.12,0l0.02,-0.56l-0.15,0.01l-0.01,-0.13Zm-7.488,-2.299l0.13,0.01l0.01,0.69l0.14,0.14l0.519,-0.01l0.12,-0.13l0,-0.15l-0.659,-0l-0.01,-0.65l0.15,-0.01l-0.02,0.42l0.149,-0.03l0.02,0.15l0.24,-0l-0.01,-0.14l0.29,0.01l0.01,0.26l0.24,-0l0.02,0.28l-0.13,-0.04l-0.13,-0.11l-0.14,0.26l-0.789,-0l-0.15,-0.14l-0,-0.81Zm0.13,1.49l0.1,-0l0.289,0.149l0.29,0.25l0.39,0.28l0.27,-0.01l0.54,0.54l0,0.28l-0.15,-0.03l0.01,-0.23l-0.07,0l-0.39,-0.43l-0.3,-0.03l-0.969,-0.51l-0.01,-0.259Zm1.189,1.879l0.19,0.01l0.01,0.14l0.51,0.52l0.22,0l0.16,0.26l0,0.4l-0.14,0.03l-0.01,-0.3l-0.12,-0.02l0.01,-0.23l-0.26,-0.01l-0.57,-0.52l0,-0.28Zm-62.56,59.341l-0.06,-0.36l0.38,0l-0.06,-0.26l0.12,-0.02l0.32,0.28l-0,0.26l-0.34,0l0.04,0.38l-0.22,0.04l-0.18,-0.32Zm2.669,-5.719l0.265,-0.015l0.01,0.29l-0.275,0.26l-0.274,0l-0,-0.125l0.274,-0.17l0,-0.24Zm96.756,10.169l0.3,-0.01l0.25,-0.53l0.39,-0l-0,0.68l-0.27,-0.01l0.02,0.289l-0.54,-0.01l-0.15,-0.279l-0,-0.13Zm3.209,-0.12l0.16,-0.01l-0.02,-0.14l0.55,0.02l0,0.24l-0.21,0.27l-0.19,-0.01l0.01,-0.23l-0.3,-0.01l0,-0.13Zm-3.739,0.24l0.27,0.01l0.01,0.299l-0.2,-0.01l-0.07,0.14l-0.53,-0.01l-0.01,-0.15l0.3,-0.01l0.23,-0.269Zm22.788,-39.396l0,-0.099l0.134,-0.135l0.269,-0.014l0.007,0.269l0.134,-0.007l0,0.134l-0.395,0.007l-0.149,-0.155Zm-1.612,-0.799l0,-0.389l0.142,-0l-0,0.12l0.268,0l0,0.269l-0.127,0.134l-0.141,0l-0.142,-0.134Zm2.41,-2.289l0.28,-0.14l0.28,-0l0,0.56l-0.54,0.02l-0.02,-0.44Zm-80.13,0.797l-0.014,-0.368l0.381,0l0.029,0.679l-0.099,-0.014l-0.297,-0.297Zm42.08,-1.075l0.184,0l0.028,0.128l0.382,-0l0.099,0.155l0.453,-0.014l0.452,0.17l0.014,0.141l-1.074,-0.014l-0.128,-0.269l-0.41,0l0,-0.297Zm5.48,0.688l0.01,-0.245l0.32,-0.145l0.19,-0l0.17,0.27l-0.145,-0l0,0.27l-0.265,-0.005l-0.28,-0.145Zm20.772,14.738l-0.01,-0.12l0.55,-0l0.01,0.27l-0.39,0.01l-0.16,-0.16Zm-4.009,-17.018l-0.01,-0.25l0.17,-0.13l0.24,0l-0.01,0.38l-0.39,0Zm26.554,14.884l0.128,0.028l-0.015,-0.367l0.17,-0.184l0.241,-0.014l0.424,0.282l-0.014,0.495l-0.255,0.297l-0.495,0.014l-0.169,-0.169l-0.015,-0.382Zm1.326,-2.407l-0,-0.258l0.403,-0.269l0.131,-0.004l0.138,0.135l-0,0.127l-0.212,0l-0.198,0.276l-0.262,-0.007Zm-3.484,3.206l-0.005,-0.095l0.155,-0.025l-0.02,-0.125l0.28,-0.01l-0.01,0.28l-0.12,-0.01l-0,0.145l-0.14,-0l-0.14,-0.16Zm-164.312,-0.926l0.014,-0.099l0.114,-0.156l0.537,-0.028l-0,0.424l-0.438,-0.028l-0.227,-0.113Zm34.842,-56.58l0.14,-0.12l0.24,-0.02l0.24,0.28l0.559,-0.64l0.3,-0.02l0.5,-0.56l0.86,-0l0,0.14l0.36,-0l0.02,0.54l-0.1,0.3l-0.8,-0.02l0,-0.14l-0.58,0.02l-0.4,0.18l-0.559,0.5l-0.34,-0.02l-0,0.16l-0.28,-0.04l-0.16,-0.26l-0,-0.28Zm18.622,-13.371l2.813,-0.028l0.156,0.283l-0.735,-0l-0.481,0.283l-1.075,-0.015l-0.693,-0.396l0.015,-0.127Z" style="fill:#4e4e4e;"/></g></svg>