<?xml version="1.0" encoding="UTF-8" standalone="no"?><!DOCTYPE svg PUBLIC "-//W3C//DTD SVG 1.1//EN" "http://www.w3.org/Graphics/SVG/1.1/DTD/svg11.dtd"><svg width="100%" height="100%" viewBox="0 0 121 121" version="1.1" xmlns="http://www.w3.org/2000/svg" xmlns:xlink="http://www.w3.org/1999/xlink" xml:space="preserve" xmlns:serif="http://www.serif.com/" style="fill-rule:evenodd;clip-rule:evenodd;stroke-linejoin:round;stroke-miterlimit:2;"><rect id="Caucaso" x="0.151" y="0.079" width="120.172" height="120.172" style="fill:none;"/><clipPath id="_clip1"><rect x="0.151" y="0.079" width="120.172" height="120.172"/></clipPath><g clip-path="url(#_clip1)"><path id="Zones-de-fond" serif:id="Zones de fond" d="M22.02,41.23c-0.034,0.011 -0.066,0.022 -0.098,0.034c-0.37,0.141 -0.368,0.463 -0.389,0.615c-0.068,0.128 -0.292,0.43 -0.393,0.724c-0.099,0.286 -0.16,0.522 -0.16,0.76l-0.018,0.058l-0.182,-0.062l-0.473,-0.265l-0.175,-0.269l0.004,-0.288l-0.16,-0.345l-0.27,-0.259l-0.225,-0.203l-0.266,-0.102l-0.218,-0.248l-0.302,-0.24l-0.156,-0.214l-0.059,-0.281l-0.309,-0.232l-0.356,-0.226l-0.113,-0.258l-0.342,-0.451l-0.411,-0.459l-0.269,-0.24l-0.19,-0.396l-0.207,-0.193l0,-0.211l-0.324,-0.397l-0.465,-0.545l-0.499,-0.51l-0.425,-0.385l-0.262,-0.233l-0.237,-0.226l-0.178,-0.193l-0.182,-0.356l-0.262,-0.189l-0.149,-0.273l-0.328,-0.451l-0.236,-0.259l-0.251,-0.025l-0.226,-0.066l-0.156,-0.112l-0.258,-0.299l-0.208,-0.276l-0.051,-0.207l-0.192,-0.222l-0.23,-0.248l-0.192,-0.022l-0.226,-0.072l-0.251,-0.27l-0.484,-0.272l-0.502,-0.113l-0.346,-0.106l-0.411,-0.076l-0.287,-0.142l-0.375,0l-0.163,-0.022l-0.233,-0.211l-0.124,-0.131l-0.444,-0.018l-0.149,0.036l-0.055,-0.138l-0.196,0.022l-0.058,-0.222l-0.149,-0.225l-0.026,-0.332l-0.102,-0.207l-0.083,-0.185l-0.182,-0.161l-0.171,-0.116l-0.048,-0.204l0,-0.243l-0.189,-0.091l-0.32,-0.015l-0.069,-0.127l-0.2,-0.215l-0.237,-0.225l-0.021,-0.121l0.127,-0.138l0.011,-0.12l-0.124,-0.142l-0.218,-0.287l-0.233,-0.295l-0.247,-0.276l-0.262,-0.088l-0.033,0.251l0.251,0.408l-0.069,0.255l-0.218,0.087l-0.455,-0.022l-0.28,-0.164l-0.328,-0.243l-0.36,-0.033l-0.567,-0.055l-0.317,-0.076l-0.251,-0.204l-0.065,-0.273l-0.382,-0.283l-0.241,-0.233l-0.123,-0.28l-0.048,-0.31l-0.098,-0.24l-0.08,-0.247l-0.142,-0.331l0.095,-0.16l0.069,-0.226l-0.142,-0.254l-0.626,-0.67l-0.793,-0.586l-0.96,-0.473l-0.549,-0.374l0.007,-3.948l0.273,0.051l0.149,0.164l0.473,0.298l0.338,0.281l0.477,0.287l0.32,0.218l-0.117,0.299l-0.251,0.258l-0.2,0.233l0.066,0.229l0.564,0.051l0.091,-0.127l0.556,0.029l0.168,-0.157l0.538,-0.025l-0.033,-0.12l-0.353,-0.019l-0.211,-0.181l-0.378,-0.044l-0.16,-0.109l-0.022,-0.117l0.153,-0.076l0.371,-0.04l0.084,0.12l0.225,-0.146l0.109,0.164l0.291,-0.018l0.401,0.029l0.112,0.266l0.164,-0.149l0.288,-0.041l0.356,-0.203l0.247,-0.219l0.073,0.048l-0.16,0.244l0.073,0.13l0.269,-0.087l0.298,0.022l0.091,0.204l-0.174,0.171l0.083,0.142l0.208,-0.037l0.094,-0.2l0.139,0.029l0.305,0.077l0.193,0.214l0.095,-0.032l0.083,-0.099l-0.123,-0.287l-0.037,-0.178l0.215,-0.055l0.003,-0.225l0.157,-0.175l-0.109,-0.109l-0.04,-0.255l-0.128,-0.196l0.139,-0.011l0.109,-0.193l-0.16,-0.113l-0.16,-0.236l0.025,-0.237l0.069,-0.153l0.073,-0.32l-0.065,-0.193l-0.211,-0.236l-0.044,0.142l-0.193,0.084l-0.044,0.301l0.142,0.106l0,0.196l-0.16,0.288l-0.033,0.447l-0.174,0.295l-0.197,-0.033l-0.025,-0.324l0.007,-0.643l0.109,-0.244l0,-0.681l0.106,-0.447l0.076,-0.273l0.189,-0.225l-0.029,0.327l0.175,0.171l0.178,0.258l0.106,-0.112l0.036,-0.262l-0.127,-0.186l-0.004,-0.171l0.666,-0.375l0.753,-0.549l0.222,-0.429l0.218,-0.43l0.08,-0.596l0.12,-0.455l0.12,-0.28l0.266,-0.684l0.24,-0.211l0.477,-0.051l0.356,-0.182l0.124,0.073l-0.131,0.131l-0.033,0.506l-0.24,0.294l-0,0.28l0.233,0.109l-0.062,0.47l-0.404,0.334l-0.265,0.397l0.123,0.226l0.306,0.021l-0.007,-0.356l0.138,-0.204l0.24,-0.233l0.054,-0.327l0.055,-0.335l0.298,-0.309l0.029,-0.553l0.19,-0.164l0.021,-0.313l0.048,-0.294l0.203,-0.211l0.288,-0.204l0.349,-0.022l0.302,0.357l0.408,0.374l0.6,0.641l0.778,0.036l0.226,-0.124l0.069,-0.32l0.015,-0.371l-0.342,-0.236l-0.608,-0.488l-0.411,-0.334l-0.517,-0.211l-0.225,-0.288l-0,-0.367l-0.389,-0.546l-0.663,-0.677l-0.418,-0.473l-0.477,-0.04l-0.294,0.055l0.225,0.255l-0.054,0.109l-0.149,0.189l-0.124,-0.197l-0.156,-0.254l-0.262,-0.237l-0.353,-0.589l-0.248,-0.469l-0.134,-0.419l-0.022,-0.367l-0.062,-0.273l-0.142,-0.295l0.018,-0.24l-0.102,-0.265l-0.069,-0.251l0.28,0.011l0.248,0.363l0.258,0.226l0.528,-0.007l0.374,0.101l0.637,0.048l0.229,-0.226l0.2,-0.265l0.28,-0.142l0.623,-0.029l0.225,-0.211l0.237,-0.193l0.192,0.116l0.008,0.379l0.56,0.298l0.313,0.24l0.498,-0.015l0.411,0.04l0.346,-0.025l0.185,-0.029l0.015,-0.273l-0.156,-0.306l-0.419,-0.287l-0.404,-0.247l-0.334,-0.019l-0.088,0.15l-0.258,0.109l-0.055,-0.295l0.157,-0.182l0.116,-0.218l0.117,-0.418l0.353,-0.273l0.287,-0.171l0.437,0.258l0.582,0.022c-0,-0 0.18,-0.178 0.211,-0.178c0.031,-0 0.411,0.029 0.411,0.029l0.4,-0.109l0.444,-0.139l0.324,-0.342l0.269,-0.251l0.244,0.142l0.098,-0.076l0.174,-0l0.233,-0.222l0.484,-0.462l0.309,-0.186l0.219,0.164l0.32,0.12l0.374,-0.175l0.233,0.066l0.397,0.098l0.164,-0.262l0.065,-0.342l0.222,-0.287l0.451,-0.131l-0.211,-0.342l-0.375,0.233l-0.262,0.316l-0.167,-0.262l0.113,-0.222l-0.08,-0.174l-0,-0.244l0.211,-0.262l-0.044,-0.597l-0.2,-0.163l-0.182,-0.284l39.287,-0c-0.005,0.356 -0.033,2.779 -0.033,2.969c0,0.196 -0.245,1.669 -0.367,2.051c-0.12,0.375 -0.58,1.048 -0.881,1.048c-0.304,0 -0.669,-0.098 -0.669,0.226c0,0.136 -0.415,0.496 -0.535,0.629c-0.118,0.132 -0.673,0.362 -0.673,0.728c0,0.37 -0.083,0.431 -0.284,0.705c-0.2,0.275 -0.556,0.396 -0.527,0.601c0.029,0.204 0.317,0.234 0.557,0.298c0.487,0.131 0.38,0.418 0.309,0.764c-0.071,0.347 -0.068,0.576 0.051,0.899c0.119,0.322 0.374,0.429 0.374,0.567c0,0.04 -0.011,0.086 -0.032,0.131c-0,0 0.707,0.087 1.073,0.087c0.367,-0 1.142,0.389 1.655,0.495c0.584,0.121 1.259,0.591 1.112,0.997c-0.302,0.839 -1.01,0.188 -1.999,0.592c-0.994,0.406 -0.373,1.116 -1.004,1.116c-0.563,-0 -0.693,-0.087 -1.073,-0.087c-0.36,-0 -0.313,0.394 -0.707,0.394c-0.381,-0 -1.181,-0.459 -1.976,-0.459c-0.744,0 -0.65,0.896 -0.65,0.896c0.305,0.074 0.713,0.142 1.331,0.142c0.994,-0 1.515,0.381 2.34,1.175c0.78,0.751 1.126,1.166 1.044,1.637c-0.092,0.522 0.493,1.322 1.611,1.863c1.048,0.506 1.159,0.651 2.412,0.651c1.253,-0 1.941,0.823 3.358,1.553c1.496,0.771 2.917,1.543 3.857,1.925c0.866,0.352 0.952,1.07 1.346,1.477c0.393,0.407 0.434,0.921 0.014,1.331c-0.548,0.537 -0.388,0.596 -0.138,1.237c0.152,0.392 -0.29,0.75 -0.8,1.354c-0.521,0.615 -0.877,1.182 -1.041,1.182c-0.164,0 -0.126,-0.153 -0.276,-0.153c-0.157,0 -0.109,0.379 -0.513,0.379c-0.399,-0 -0.424,0.094 -0.51,0.247c-0.085,0.153 0.12,0.225 0.12,0.367c0,0.137 -0.313,0.135 -0.313,0.695c0,0.182 0.152,0.246 0.366,0.28c-0.495,-0.034 -1.019,-0.03 -1.185,0.095c-0.233,0.173 -0.438,0.3 -0.743,0.3c-0.313,-0 -1.512,-1.3 -1.819,-1.435c-0.304,-0.134 -0.339,0.384 -0.935,0.417c-0.628,0.035 -1.038,1.049 -0.575,1.477c0.463,0.428 1.776,0.239 2.019,0.526c0.24,0.283 0.059,1.374 0.127,1.986c-0.002,0.012 -0.004,0.026 -0.003,0.04c0.007,0.333 0.816,1.823 1.552,2.528c-0.018,0.031 -0.034,0.065 -0.048,0.106c-0.112,0.342 0.219,0.483 0.219,0.927c-0,0.445 0.018,0.755 -0.051,0.833c-0.056,0.063 -0.364,0.041 -0.513,0.073l0.152,0.037c0,-0 0.954,0.025 1.463,0.069c0.497,0.042 0.852,0.393 1.168,0.625c0.322,0.236 0.761,0.719 0.378,0.884c-0.387,0.168 -1.738,0.042 -1.921,-0.196c-0.566,-0.738 -1.353,-0.804 -1.353,-0.804c-0.019,0.116 -0.055,0.225 -0.135,0.295c-0.249,0.219 -0.49,0.4 -0.727,0.4c-0.238,-0 -0.357,-0.041 -0.484,-0.109l-0.033,0.887c0.001,0.001 0.002,0.001 0.003,0.002c-0.019,0.049 -0.045,0.086 -0.083,0.104c-0.193,0.092 -0.275,-0.495 -0.629,-0.495c-0.676,0 -0.017,0.538 -0.644,0.764c-0.911,0.329 0.237,-0.901 -0.866,-0.553c-0.348,0.11 -0.37,0.639 -0.408,1.259c-0.025,0.412 -0.167,0.901 -0.069,1.113l-0.993,-0.131l0.003,-0.036c0.085,-0.039 0.153,-0.11 0.179,-0.193c0.044,-0.145 -0.086,-0.246 -0.135,-0.309c-0.046,-0.062 -0.104,-0.194 -0.058,-0.43c0.047,-0.236 0.228,-0.354 0.248,-0.513c0.019,-0.158 -0.057,-0.366 0.083,-0.687c0.182,-0.415 0.097,-0.675 -0.123,-0.855c-0.242,-0.198 -0.53,0.219 -0.775,-0.018c-0.115,-0.111 -0.169,-0.192 -0.222,-0.368c-0.437,-0.009 -0.791,-0.074 -1.236,0.067c-0.21,0.067 -0.648,0.706 -0.648,1.302c0,0.611 0.086,1.111 0.366,1.254c0.204,0.104 0.327,0.359 0.418,0.559c-0.006,-0.005 -0.013,-0.009 -0.021,-0.013c-0.21,-0.102 -0.325,0.062 -0.615,0.397c-0.09,0.104 -0.177,0.204 -0.237,0.305c-0.022,-0.005 -0.284,-0.07 -0.375,-0.145c-0.087,-0.073 -0.223,-0.356 -0.256,-0.522c-0.034,-0.164 -0.151,-0.649 -0.197,-1.227c-0.046,-0.577 -0.791,-0.709 -1.014,-0.709c-0.426,-0 -0.816,-0.467 -0.982,-0.633c-0.189,-0.189 -0.249,-0.697 -0.15,-0.869c0.099,-0.171 0.574,-0.479 0.574,-0.612c-0,-0.306 -0.284,-0.447 -0.524,-0.609c-0.429,-0.043 -1.277,-0.393 -1.746,-0.393c-0.228,0 -0.379,0.01 -0.651,0.269c-0.18,0.171 -0.253,0.448 -0.601,0.448c-0.269,-0 -0.414,-0.542 -0.414,-0.811c-0,-0.258 -0.025,-0.65 -0.317,-0.768c-0.109,-0.044 -0.225,-0.076 -0.338,-0.073c-0.19,0.005 -0.375,0.101 -0.513,0.368c-0.26,0.5 -1.208,0.175 -1.557,0.269c-0.082,0.022 -0.142,0.075 -0.2,0.146l-0,-0.001c-0.169,0.207 -0.284,0.565 -0.656,0.716c0.171,-0.069 0.287,-0.182 0.379,-0.305c-0.063,-0.039 -0.133,-0.072 -0.218,-0.072c-0.267,-0 -0.481,-0.459 -0.782,-0.459c-0.302,0 -0.17,0.331 -0.506,0.331c-0.115,0 -0.22,-0.099 -0.295,-0.196c0.02,-0.252 0.039,-0.42 0.015,-0.462c-0.045,-0.077 -0.375,-0.127 -0.415,-0.197c-0.038,-0.065 0.488,-0.338 0.12,-0.436c-0.281,-0.075 -0.327,0.142 -0.4,0.142c-0.081,-0 -0.269,-0.205 -0.269,-0.291c-0,-0.088 0.652,-0.592 0.327,-0.666c-0.35,-0.08 -0.567,-0.024 -0.8,0.175c-0.234,0.198 -0.107,0.52 -0.142,0.582c-0.032,0.056 -0.611,0.087 -0.811,0.036c-0.083,0.132 -0.157,0.193 -0.411,0.193c-0.255,-0 -0.839,-0.936 -1.008,-1.033c-0.171,-0.099 -0.747,0.086 -0.873,-0.04c-0.126,-0.126 -0.207,-0.772 0.142,-0.772c0.348,0 0.328,0.114 0.713,0.059c0.353,-0.051 0.546,-0.211 0.833,-0.211c-0,-0.01 0.007,-0.026 0.011,-0.033c0.052,-0.091 0.356,0.1 0.727,-0.342c0.216,-0.257 0.268,-0.462 0.324,-0.495c0.062,-0.036 0.432,-0.049 0.517,-0.098c0.091,-0.053 0.636,-0.25 0.636,-0.509c0,-0.268 -0.228,-0.524 -0.451,-0.524c-0.214,-0 -1.079,0.447 -1.186,0.447c-0.106,0 -0.138,-0.487 -0.225,-0.575c-0.092,-0.091 -0.532,-0.287 -1.325,-0.44c-0.943,-0.181 -1.638,-0.431 -1.753,-0.546c-0.111,-0.11 0.012,-1.156 -0.6,-1.156c-0.56,-0 -0.519,0.304 -0.819,0.4c-0.187,0.06 -0.262,0.052 -0.309,0.029l-0,-0c-0,-0 -0.004,-0.02 -0.05,-0.033c-0.007,-0.005 -0.015,-0.01 -0.023,-0.014l-0.08,0.003c-0.121,0.145 -0.322,0.32 -0.531,0.44c-0.291,0.168 -0.502,0.293 -0.502,0.484c-0,0.191 0.766,0.582 0.869,1.117c0.063,0.326 0.001,0.534 -0.123,0.76l0.001,0.002c-0.08,0.145 -0.185,0.298 -0.3,0.493c-0.123,0.21 -0.268,0.389 -0.338,0.473c-0.046,0.209 0.562,0.38 0.276,0.821c-0.429,0.663 -0.29,1.244 0.228,1.589c0.439,0.293 0.812,0.173 1.439,-0.477c-0.025,0.321 -0.057,0.659 -0.059,0.847c-0.003,0.36 0.072,0.999 0.342,1.338c0.23,0.288 0.034,1.099 -0.12,1.099c-0.198,0 -0.266,-0.832 -0.611,-1.342c-0.261,-0.387 -0.7,-0.619 -0.993,-0.619c-0.293,0 -0.26,0.171 -0.451,0.171c-0.2,0 -0.463,-0.414 -0.746,-0.935c-0.311,-0.572 -0.629,-0.651 -0.702,-0.764c-0.077,-0.119 -0.036,-0.404 -0.036,-0.404c-0.051,0.051 -0.105,0.088 -0.171,0.088c-0.176,-0 -0.298,-0.16 -0.364,-0.16c-0.047,-0 -0.187,0.311 -0.36,0.192c-0.173,-0.118 -0.109,-0.472 -0.379,-0.873c-0.123,-0.184 -0.282,-0.248 -0.418,-0.269c-0,0 -0.194,0.325 -0.327,0.597c-0.137,0.276 -0.397,0.519 -0.281,0.735c0.117,0.216 0.46,0.036 0.597,0.036c0.154,0 0.24,0.506 0.669,0.829c0.378,0.285 0.401,0.775 0.364,1.429c-0.246,-0.007 -0.56,-0.04 -0.795,-0.144c-0.646,-0.287 -1.103,-0.86 -1.326,-0.791c-0.381,0.118 -0.038,2.024 -0.51,2.21c-0.307,0.122 -0.555,-0.818 -0.882,-1.651c-0.327,-0.833 -0.43,-1.752 -0.638,-1.77c-0.206,-0.018 -1.614,0.874 -2.124,0.519c-0.314,-0.218 -0.407,-1.398 -1.121,-1.605c-0.714,-0.206 -0.974,0.779 -1.734,0.779c-0.76,0 -2.104,-2.166 -2.29,-2.289c-0.177,-0.118 -1.233,-0.797 -1.734,-0.578c-0.502,0.218 -0.239,0.835 -0.496,1.003c-0.257,0.168 -0.506,-0.164 -0.578,-0.437c-0.073,-0.273 -0.201,-0.708 -0.425,-0.649c-0.224,0.059 -0.383,0.602 -0.354,0.98c0.03,0.377 0.36,0.25 0.437,0.519c0.076,0.268 -0.228,0.156 -0.13,0.554c0.1,0.41 0.389,0.857 0.55,1.089c0.147,0.212 0.414,0.68 1.044,1.086c0.635,0.409 1.214,0.326 1.38,0.421c0.171,0.099 1.278,0.987 1.57,1.192c0.297,0.209 1.382,1.214 1.403,1.546c-0.047,-0.024 -0.108,-0.046 -0.18,-0.066c-0.138,-0.054 -0.29,-0.095 -0.467,-0.112c-0.429,-0.042 -0.759,-0.026 -1.032,0.047c-0.022,0.004 -0.044,0.008 -0.065,0.013c0.002,0.002 0.003,0.003 0.005,0.004Zm34.423,-42.378c-0,-0.028 0,-0.044 0,-0.044l2.79,-0.043c0,0.029 0,0.058 0.001,0.087l-2.791,-0Zm2.79,-0.087c0,-0.024 0,-0.049 0,-0.073l14.134,-0.007c0,-0 0.036,0.062 0.096,0.167l-13.457,-0c-0.025,-0.064 -0.038,-0.098 -0.038,-0.098l-0.735,0.011Zm14.23,0.087l16.002,-0c0.198,0.582 0.612,1.485 0.884,1.892c-0.308,-0.459 -0.791,-1.555 -0.946,-2.103l21.308,-0.027l-0.026,0.079l-7.987,0.067c0,-0 -0.765,0.61 -1.151,0.929c-0.372,0.307 -1.604,1.056 -1.652,1.793c-0.047,0.738 0.673,1.245 0.968,1.557c0.104,0.11 0.47,0.485 0.786,0.808l-0.236,0.2l-0.463,0.637l-0.229,0.549l-0.451,-0.011l-0.385,0.444l-0.321,0.218l-0.342,0.153l-0.032,0.429l-0.375,-0.294l-0.262,0.207l-0.244,-0.087l-0.211,0.265l-0.316,-0.44l-0.244,0.066l0.055,0.494l-0.219,0.244l-0.298,-0.276l-0.175,-0.11l-0.243,-0.032l-0.299,-0.375l0.244,0.538l0.044,0.342l-0.244,-0.076l-0.022,-0.189l-0.284,-0.197l-0.44,0.099l-0.509,-0.375l0.749,0.957l-0.444,0.051l-0.349,-0.182l0.018,0.334l0.677,0.553l0,0.302l-0.287,-0.021l-0.572,-0.706l-0.269,0.018l0.484,0.713l-0.265,0.16l-0.331,-0.218l-0.284,0.022l0.407,0.593l-0.062,0.018l0.066,-0.007l0.029,0.04l0.058,0.389l0.219,0.176l0.094,0.439l0.084,0.072l-0.24,-0.207l-0.641,0l-0.087,-0.291l-0.026,-0.306l-0.232,0.262l-0.342,0.371l-0,0.331l0.309,0.161l0.025,0.462l0.135,0.123l-0.007,0.226l-0.117,0.12l-0.207,-0.149l-0.062,-0.244l-0.346,-0.015l-0.116,0.215l-0.313,0.033l-0.254,0.364l0.127,0.225l0.018,0.353l-0.102,0.087l-0.174,-0.138l0.007,-0.28l-0.117,-0.153l-0.171,-0.08l-0.094,0.171l-0.106,0.04l-0.185,-0.215l0.229,0.495l-0.167,0.189l-0.295,-0.429l0.193,0.531l-0.098,0.146l-0.433,-0.426l-0.364,-0.276l-0.28,0.193l-0.095,0.211l0.026,0.334l0.269,0.146l0.182,0.185l0.051,0.255l-0.186,0.324l-0.247,0.174l0.625,-0.011l0.121,0.244l-0.142,0.204l0.014,0.287l0.124,0.088l0.033,0.207l0.196,0.156l-0.065,0.241l-0.204,0.083l-0.229,0.062l-0.182,-0.047l-0.022,-0.273l-0.022,-0.215l-0.204,-0.149l-0.287,-0.247l-0.2,-0.204l-0,-0.236l-0.28,-0.11l-0.237,0.157l-0.182,0.033l-0.003,0.2l-0.266,-0l-0.193,0.138l-0.196,0.196l-0.135,0.277l-0.229,0.182l-0.127,0.16l0.254,0.109l-0.007,0.211l-0.411,0.011l-0.415,0.025l-0.003,0.353l-0.117,0.193l-0.16,0.247l-0.2,0.011l0.026,0.164l0.087,0.149l-0.106,0.149l-0.163,-0.131l-0.393,-0.007l-0.229,0.16l-0.157,-0.16l-0.32,0.007l-0.146,0.248l-0.192,0.116l-0.193,-0.011l-0.095,-0.156l-0.331,0.033l-0.116,0.254l-0.218,0.098l-0.146,-0.236l-0.196,0.007l-0.011,0.477l0.116,0.116l-0.236,0.128l0.236,0.163l-0.189,0.313l-0.233,-0.087l-0.233,-0.404l-0.313,-0.313l-0.363,-0.178l-0.281,-0.007l-0.04,-0.328l-0.334,-0.218l-0.382,-0.102l-0.124,0.087l0.102,0.233l0.309,0.109l0.189,0.328l0.008,0.247l-0.117,0.109l0.029,0.346l0.197,0.131l0.163,0.047l-0.007,0.786l-0.251,-0.022l-0.014,-0.32l-0.211,-0.244l-0.022,-0.163l-0.128,-0.161l-0.152,-0.272l-0.382,0.007l-0.361,-0.149l-0.192,-0.273l0.294,-0.164l0.062,-0.164l-0.255,-0.076l-0.305,0.015l-0.157,-0.117l-0.145,0.026l-0,0.2l0.273,0.156l0.029,0.266l0.196,0.185l0.499,0.197l0.116,0.131l0.248,0.007l0.054,0.349l0.117,0.211l0.101,0.069l0.015,0.339l-0.28,0.193l0.025,0.265l0.124,0.124l-0.342,0.164l-0.135,0.301l0.026,0.361l-0.328,0.083l-0.294,-0.007l-0.237,0.156l0.04,0.219l0.506,-0.022l0.087,0.185l-0.298,0.131c-0.182,0 -0.869,-0.075 -1.35,-0.287c-0.472,-0.207 -0.737,-0.849 -0.827,-1.297c-0,-0.597 -0.2,-0.935 -0.206,-1.139c0.289,-0.108 0.585,-0.389 0.828,-0.426c-0.258,0.039 -0.666,0.337 -0.828,0.425c0,0 0,0.001 0,0.001c-0.024,0.01 -0.048,0.018 -0.073,0.024c-0.609,0.163 -1.514,0.445 -1.72,0.422c-0.238,-0.026 0.202,-1.354 0.443,-2.536c0.241,-1.174 0.316,-1.842 0.637,-2.161c0.59,-0.586 0.957,-1.249 0.735,-1.466c-0.222,-0.217 -0.871,0.068 -1.172,0.138c-0.292,0.07 -1.213,0.37 -1.356,0.332c-0.147,-0.04 0.047,-0.585 0.09,-0.783c0.043,-0.195 0.115,-1.06 0.022,-1.153c-0.081,-0.081 -0.796,-0.087 -1.564,-0.087c-0.709,-0 -1.395,0.011 -1.452,-0.088c-0.015,-0.026 -0.007,-0.083 0.022,-0.163c0.001,-0.001 0.003,-0.002 0.004,-0.004c0.145,-0.319 0.436,-0.749 0.709,-1.084c0,0 -0,-0 -0.001,-0.001c0.46,-0.532 0.796,-0.679 1.456,-0.679c0.611,-0 1.325,0.112 1.43,0.007c0.109,-0.109 -0.076,-0.38 -0.076,-0.768c-0,-0.393 -0.226,-0.545 -0.226,-0.72c0,-0.181 0.203,-0.177 0.306,-0.382c0.169,-0.337 0.195,-0.46 0.713,-0.593c0.51,-0.13 0.702,-0.212 0.702,-0.553c0,-0.333 0.375,-0.395 0.375,-0.553c-0,-0.226 -0.087,-0.352 -0.342,-0.589c-0.334,-0.311 -0.076,-0.836 -0.757,-0.662c-0.67,0.171 -0.776,-0.202 -0.928,-0.695c-0.154,-0.505 -0.294,-0.731 -0.818,-0.731c-0.516,-0 -1.179,-1.309 -1.506,-1.972c-0.256,-0.518 -0.795,-1.468 -1.014,-1.852Zm37.222,-0.159l0.209,-0.002l0.006,0.445l-0.36,-0l0.145,-0.443Zm-15.693,10.769l-0.001,-0.002l0.379,0.306l-0.378,-0.304Zm-19.264,21.346l0.062,0.499l0.109,0.171l-0.007,0.251l0.349,0.363l0.226,0.164l0.287,0.109l0.055,-0.149l0.451,0.018l0.163,0.139l0.259,-0.015l0.131,0.156l0.236,-0.116l0.419,0.131l0.243,0.204l0.146,0.254l0.087,0.422l0.102,0.211l0.16,0.281l0.266,0.145l0.265,0.288l0.186,-0.008c-0,0 0.078,-0.114 0.109,-0.145c0.031,-0.031 0.211,-0.197 0.211,-0.197l0.258,0.204l0.062,0.444l0.084,0.145l-0,0.28l0.251,0.266l-0.008,0.287l0.397,0.43l0.171,0.225l0.131,0.368l0.218,0.418l0.233,0.375l0.04,0.349l0.243,0.223c-0.362,0.426 -0.672,0.764 -0.774,0.803c-0.314,0.121 -1.581,-0.44 -1.935,-0.535c-0.366,-0.097 -1.419,-0.264 -1.889,-0.138c-0.448,0.12 -1.597,0.393 -1.646,0.751c-0.062,-0.097 -0.399,-0.082 -0.467,-0.238c-0.078,-0.177 -0.325,-0.546 -0.419,-0.546c-0.093,0 -0.256,0.128 -0.411,0.128c-0.068,-0 -0.195,-0.038 -0.311,-0.11c-0.275,-0.192 -0.253,-0.365 -0.238,-0.574c0.027,-0.2 0.045,-0.356 -0.073,-0.532c-0.023,-0.033 -0.045,-0.062 -0.067,-0.087c-0.26,-0.457 -0.525,-0.645 -0.594,-0.832c-0.063,-0.172 0.076,-0.856 0.151,-1.774c0.075,-0.918 -0.108,-1.677 0.067,-1.886c0.184,-0.219 1.007,-0.054 1.252,-0.417c0.037,-0.055 0.056,-0.114 0.061,-0.175c0.133,-0.054 0.233,-0.104 0.271,-0.147c0.16,-0.177 0.454,-0.642 0.454,-0.642l-0.027,-0.239Zm6.595,7.19c0,-0 0.001,-0.001 0.001,-0.001l0.062,0.058l-0.063,-0.057Zm-0.139,3.987c0.094,0.057 0.173,0.127 0.226,0.156l-0.213,-0.044l-0.013,-0.112Zm0.278,0.167l0.171,-0.281l-0.007,-0.622l-0,-0.553l0.124,-0.476l0.218,-0.178l0.04,-0.444l-0,-0.539l0.091,-0.207l-0.008,-0.771l0.081,-0.251l0.294,-0.219l0.306,-0.131l0.302,0.164l0.178,0.102l-0.007,0.185l-0.266,0.219l-0.054,0.422l-0.153,0.207l-0.095,0.375l-0.142,0.251l-0.054,0.466l-0.098,0.458l-0.135,0.469l-0.138,0.28l-0.019,0.59l-0.007,0.451l-0.163,0.407c-0.253,-0.109 -0.366,-0.163 -0.409,-0.179l-0.05,-0.195Zm0.516,3.542c-0,0.085 -0.001,0.17 -0.001,0.255l-0.016,-0.13l0.017,-0.125Zm-0.004,0.865c-0.002,0.354 -0.004,0.703 -0.007,1.045l-0.076,-0.29l0.008,-0.586l0.075,-0.169Zm4.886,7.791l0.001,-0l0.426,0.436l-0.427,-0.436Zm3.577,5.333l0.368,0.197l0.458,-0.033l0.484,-0.015l0.247,0.313l0.517,0.553l0.84,0.768l0.786,1.037l0.702,0.847l0.426,0.717l0.895,0.866l0.429,0.327l0.233,0.444l0.422,0.8l0.233,0.43l0.076,0.644l0.189,0.462l0.255,0.622l0.273,0.815l0.662,0.735l0.724,0.716l0.382,0.521l0.327,0.17l0.422,-0.13l0.364,0.378l0.218,0.284l-0.156,0.451l-0.036,0.498l0.123,0.335l0.499,0.396l0.76,0.07l0.306,0.356l1.153,0l0.542,-0.007l0.28,-0.218l1.161,0.01l0.4,0.412l0.316,0.294l0.586,-0.014l0.458,0.185l0.375,0.539l0.371,0.211l0.12,-0.204l-0.149,-0.218l0.116,-0.288l0.259,-0.007l0.076,0.247l-0.022,0.211l0.317,0.244l0.08,0.153l-0.397,0.127l-0.142,0.109l0.186,0.186l0.142,0.225l-0.055,0.382l0.095,0.186l-0.033,0.211l0.288,0.367l-0.015,0.233l-0.131,0.055l-0.127,-0.149l-0.062,-0.211l-0.138,-0.164l-0.353,-0.404l-0.31,-0.24l-0.327,-0.135l-0.477,0.008l-0.669,-0.037l-0.273,0.139l-0.465,0.018l0.032,0.24l-0.273,0.116l-0.298,-0.185l-0.062,-0.189l-0.44,-0.121l-0.225,0.07l-0.321,0.312l0.033,0.375l-0.24,0.218l-0.309,0.124l-0.233,0.164l-0.429,0.153l-0.353,0.331l-0.397,-0l-0.284,0.243l-0.749,0.735l-0.022,0.277l0.12,0.153l0.066,0.254l-0.175,0.222l-0.331,0.066l-0.076,0.309l0.207,0.327l0.298,0.157l-0.054,0.316l-0.462,0.397l0.011,0.298l0.232,0.309l0.044,0.364l-0.189,0.12l0.044,0.375l0.076,0.164l-0.251,0.254l0.076,0.517l0.175,0.076l0.047,0.244l-0.407,0.462l-0.386,0.539l-0.145,0.44l0.022,0.287l-0.153,0.189l0.022,0.713l0.211,0.299l0.473,0.396l0.229,0.197l0.396,0.189l0.055,0.142l-0.197,0.098l0.044,0.455l-0.098,0.032l-0.077,-0.101l-0.178,-0.11l0.167,0.288l0.153,0.174l-0.022,0.332l-0.211,-0.233l-0.163,-0.24l-0.288,-0.244l-0.283,0.043l-0.299,0.179l0.011,0.262l-0.189,0.254l0.011,0.375l0.113,0.12l-0.011,0.255l0.011,0.56l0.054,0.397l-0.12,0.156l-0.033,0.349l-0.08,0.353l-0.021,0.517l-0.331,0.396l-0.393,0.233l-0.375,0.131l-0.124,-0.229l0.055,-0.353l0.189,-0.044l0.287,-0.2l0.24,-0.218l-0.01,-0.418l-0.186,-0.266l-0.397,0.076l-0.2,-0.251l-0.021,-0.309l-0.284,-0.385l-0.51,0.043l-0.305,0.429l-0.058,0.739l0.08,0.528l0.109,0.407l-0.077,0.397l-0.101,0.662l-0.295,0.549l-0.419,0.164c-0.59,-0.303 -1.072,-0.541 -1.16,-0.546c-0.235,-0.014 -0.685,0.654 -0.953,0.724c-0.265,0.069 -0.837,-0.174 -0.837,0.127c0,0.64 1.35,0.671 1.35,1.572c-0,0.844 -0.747,1.528 -1.315,1.926c-0.159,-0.135 -0.279,-0.224 -0.308,-0.274c-0.048,-0.083 0.061,-0.578 -0.178,-0.648c-0.239,-0.07 -0.732,0.375 -0.833,0.375c-0.101,-0 -0.384,-0.3 -0.451,-0.368c-0.072,-0.072 -0.363,-0.325 -0.451,-0.436c-0.086,-0.107 0.049,-0.475 -0.048,-0.582c-0.093,-0.104 -0.387,-0.203 -0.731,-0.328c-0.337,-0.122 -0.559,-0.26 -0.833,-0.458c-0.269,-0.195 -0.702,-0.423 -0.702,-0.873c-0,-0.334 0.286,-0.495 0.538,-0.732c0.249,-0.232 0.375,-0.465 1.124,-0.465c0.665,-0 1.063,-0.303 1.063,-0.702c-0,-0.4 -0.281,-1.059 -0.477,-1.106c-0.188,-0.046 -1.512,-0.777 -1.513,-1.434c-0.001,-0.623 0.654,-1.029 0.971,-1.029c0.317,-0 1.041,-0.636 1.041,-0.684c-0,-0.237 -0.629,-0.862 -0.859,-1.015c-0.236,-0.157 -1.171,-1.069 -1.593,-1.521c-0.419,-0.448 -0.952,-1.004 -1.11,-1.004c-0.312,0 -0.228,0.296 -0.335,0.4c-0.102,0.1 -0.304,0.095 -0.556,0.095c-0.253,-0 -0.705,0.018 -0.724,0.16c-0.061,0.448 -0.73,0.811 -1.339,1.189c-0.613,0.381 -0.734,0.849 -1.255,0.877c-0.288,0.016 -0.59,0.165 -0.917,0.462c-0.266,0.243 -0.469,0.735 -0.76,1.033c-0,0 -0.154,0.759 -0,1.015c0.129,0.216 0.439,0.621 0.902,1.118c0.471,0.504 0.863,0.857 0.863,2.785c-0,1.433 -0.04,4.045 -0.04,4.995c0,0.947 0.852,1.697 0.528,2.141c-0.317,0.434 -1.274,0.14 -1.9,0.362c-0.621,0.221 -1.166,0.455 -1.166,1.096c0,0.64 1.303,0.589 2.235,1.078c0.793,0.415 1.705,0.681 2.511,0.681c0.192,-0 1.02,0.011 1.588,-0.154c0.52,-0.151 0.35,-0.48 0.936,-0.48c1.205,0 0.999,-1.718 2.011,-1.446c0.996,0.267 1.582,0.47 2.798,0.47c0.364,-0 2.242,-0.636 2.493,-0.916c0.047,-0.053 0.069,-0.115 0.072,-0.183c0.414,0.427 0.698,0.747 0.699,0.823c0.002,0.304 -0.611,1.762 -0.611,2.001c-0,0.226 0.764,1.254 0.884,1.535c0.117,0.274 -0.452,3.133 0.418,5.522c0.872,2.395 1.81,3.377 3.122,4.406c0.53,0.417 0.932,0.724 1.249,0.931c0.426,0.625 0.833,1.17 1.173,1.539c1.181,1.279 2.425,1.972 2.884,2.201l-7.078,0c-0.291,-0.178 -0.876,-0.538 -1.05,-0.665c-0.269,-0.197 -1.043,-1.373 -2.337,-2.32c-1.293,-0.947 -2.432,-1.751 -2.737,-1.435c-0.454,0.471 0.38,0.905 0.985,1.385c0.897,0.711 1.979,1.534 2.236,1.869c0.172,0.224 0.111,0.906 0.08,1.166l-3.818,0c-0.503,-0.164 -1.376,-0.454 -1.669,-0.582c-0.42,-0.184 -0.993,-0.479 -1.485,-0.901c-0.325,-0.28 -0.446,-0.801 -0.751,-0.651c-0.305,0.15 -0.497,0.672 -0.451,1.235c0.032,0.39 0.324,0.728 0.501,0.899l-7.793,0c-0.139,-0.316 -0.478,-1.159 -0.646,-2.202c-0.156,-0.968 0.004,-2.797 -0.917,-2.803c-0.92,-0.006 -2.842,2.417 -2.765,2.779c0.085,0.4 1.226,0.175 1.369,0.354c0.141,0.177 -0.084,1.452 -0.163,1.872l-1.061,0c0.012,0.057 0.018,0.111 0.018,0.16l-13.646,0c0.001,0.001 0.002,0.003 0.003,0.004l-8.04,-0.004l-0.643,0l-23.469,-0.011l0.032,-54.402l-0.01,-0.27l0.087,-0.276l0.225,-0.175l0.433,-0.396l0.062,-0.248l0.172,-0.192l-0.001,-0.001l0.098,-0.109l0.171,-0.385l0.259,-0.35l0.745,-0.698l0.193,-0.291l0.237,-0.302l0.003,-0.469l0.139,-0.16l0.131,-0.262l0.181,-0.157l0.008,-0.462l0.014,-0.375l-0.123,-0.152l-0.011,-0.451l-0.008,-0.637l-0.225,-0.375l-0.106,-0.247l-0.116,-0.175l-0.197,-0.335l-0.156,-0.378l-0.011,-0.553l-0.105,-0.487l-0.124,-0.382l-0.124,-0.572l-0.131,-0.145l-0.036,-0.535l-0.269,-0.247l-0.011,-0.262l-0.04,-0.135l-0.066,-0.229l-0.043,-0.487l-0.099,-0.422l-0.007,-0.688l-0.127,-0.244l-0.026,-0.513l-0.058,-0.324l-0.113,-0.422l-0.385,-0.341l-0.204,-0.244l-0.287,-0.044l-0.219,-0.124l-0.458,-0.083l-0.404,-0.269c0,-0 -0.802,0.004 -0.804,0.003c-0.002,-0.001 -0.058,-0.345 -0.058,-0.345l-0.324,-0l-0.029,-0.335l-0.095,-0.75l-0.16,-0.276l-0.174,-0.484l-0.324,-0.153l-0.189,0.084l-0.229,0.171l-0.226,-0.338l-0.222,-0.251l-0.011,-0.331l-0.225,-0.062l-0.099,-0.262l-0.382,-0.022l-0.229,-0.135l-1.422,0.029l-0.357,-0.28l-0.513,-0.371l-0.338,-0.076l-0.32,-0.171l-0.011,-0.226l-0.371,0.088l-0.208,0.134l-0.214,-0.364l-0.299,-0.327l0.011,-0.488l-0.12,-0.338l-0.418,-0.626c-0.069,-0.338 0.277,-0.234 0.375,-0.602c0.073,-0.272 -0.223,-0.698 -0.221,-0.933c0.243,0.655 0.441,1.293 0.441,1.293l3.245,1.641l5.122,1.557l1.712,3.06c-0,-0 2.349,0.821 3.551,0.848c0.007,0.013 0.014,0.027 0.021,0.041c0.002,-0.013 0.004,-0.027 0.006,-0.041c0.222,0.003 0.402,-0.022 0.519,-0.086c0.763,-0.418 0.741,-1.215 0.738,-1.391c-0.003,-0.176 0.198,-1.041 0.961,-1.481c0.947,-0.547 0.373,-1.227 0.795,-1.388c0.709,-0.271 0.318,0.908 0.588,0.884c0.334,-0.031 0.327,-0.605 0.427,-0.694c0.105,-0.093 1.021,0.73 1.258,0.772c0.229,0.04 1.281,-0.108 2.092,0.32c0.863,0.456 1.596,0.841 1.636,0.993c0.037,0.144 -0.254,0.287 -0.568,0.2c-0.321,-0.088 -1.81,-0.35 -3.237,-0.233c-1.427,0.117 -1.59,0.066 -2.495,0.868c-0.708,0.625 -1.129,0.917 -0.392,1.568c0.387,0.343 0.517,0.718 0.759,0.718c0.233,-0 0.256,-0.326 0.534,-0.309c0.277,0.017 0.085,0.248 0.776,0.317c0.495,0.05 0.114,1.024 0.492,1.11c0.574,0.131 0.69,-0.417 0.848,-0.398c0.42,0.052 0.756,0.025 1.056,-0.53c0.343,-0.636 -0.711,-1.122 -0.711,-1.477c0,-0.356 1.342,-0.613 1.476,-0.613c0.136,0 1.871,0.024 2.061,0.034c0.239,0.011 1.065,0.09 0.893,0.428c-0.193,0.377 -1.174,0.107 -1.388,0.441c-0.136,0.212 0.29,0.578 0.596,0.892c0.371,0.38 0.606,0.601 0.815,0.586c0.419,-0.031 0.148,-0.738 0.75,-0.741c0.404,-0.003 0.648,0.833 0.857,0.833c0.276,-0 0.469,-0.167 0.469,-0.452c0,-0.275 -0.248,-0.467 -0.203,-0.633c0.045,-0.171 0.308,-0.417 0.55,-0.417c0.237,0 0.925,0.215 1.161,0.807c0.142,0.359 0.148,0.973 0.132,1.397c-0.064,-0.081 -0.106,-0.134 -0.106,-0.134l-0.161,0.491l0.176,0.925l-0.099,1.156l0.066,1.222l0.572,1.167l0.925,-0.022l0.397,0.364l0.572,-0.386l0.54,-0.55l0.891,-0.154l0.518,0.902l0.583,0.221l0.661,0.462l0.132,0.462c0,0 0.272,0.098 0.504,0.417c0.236,0.324 0.67,0.952 0.78,1.068c0.183,0.193 0.858,0.507 1.06,0.493c0.188,-0.014 0.62,-0.665 0.576,-0.801c-0.044,-0.134 -0.427,-0.101 -0.851,-0.301c-0.461,-0.217 -0.814,-0.461 -0.793,-0.6c0.021,-0.139 0.436,-0.514 0.275,-0.726c-0.16,-0.213 -0.746,-0.064 -0.918,-0.126c-0.169,-0.06 -0.24,-0.277 -0.15,-0.425c0.086,-0.142 0.171,-0.686 0.2,-1.035c0.028,-0.321 0.048,-1.004 0.001,-1.199l0.4,-1.079c-0,0 0.734,-0.534 1.402,-0.434c0.667,0.1 1.251,0.243 1.268,0.835c0.017,0.567 -0.294,0.996 -0.448,1.486c-0.152,0.486 0.02,0.859 0.312,0.813c0.291,-0.046 0.686,-0.663 0.948,-1.033c0.593,-0.837 0.109,-1.58 -0.025,-1.972c-0.134,-0.396 0.445,-1.401 0.771,-1.43c0.469,-0.041 0.371,0.999 0.371,1.158c0,0.161 0.722,0.545 0.741,0.777c0.013,0.153 -0.85,0.783 -1.068,1.269c-0.276,0.614 0.142,0.985 0.384,1.181c0.242,0.197 0.237,-0.35 0.561,-0.35c0.323,0 0.659,0.681 1.14,0.674c0.482,-0.008 0.483,-0.61 0.738,-0.61c0.619,0 0.065,0.247 1.666,0.907c0.791,0.326 0.635,0.676 1.703,0.768c0.973,0.084 1.397,1.051 1.635,1.268c0.23,0.21 1.101,0.156 1.235,0.267c0.125,0.104 -0.774,1.518 -0.334,1.619c0.882,0.201 1.408,-0.954 1.81,-1.172c0.367,-0.2 0.533,0.174 1.153,0.585c0.199,0.132 0.347,0.321 0.458,0.522c-0.146,0.146 -0.277,0.236 -0.373,0.236c-0.182,0 -0.456,-0.174 -0.699,0.018c-0.242,0.193 -0.183,0.73 -0.171,0.881c0.013,0.15 0.137,0.724 0.266,0.818c0.127,0.092 0.219,-0.304 0.742,0.109c0.521,0.411 -0.127,0.382 -0.127,0.608c-0,0.22 0.224,0.072 0.32,0.229c0.096,0.157 -0.002,0.402 0.178,0.429c0.097,0.015 0.222,0.064 0.368,0.146c0.283,-0.355 0.586,-0.729 0.756,-0.91c0.373,-0.396 0.545,-0.658 0.804,-0.658c0.046,-0 0.142,0.002 0.27,0.004c-0.081,0.16 -0.085,0.299 0.014,0.396c0.144,0.14 0.613,0.316 0.651,0.655c0.038,0.334 0.173,0.421 0.411,0.437c0.239,0.015 0.254,-0.181 0.652,-0.342c0.397,-0.161 0.605,-0 1.026,-0.244c0.42,-0.244 0.658,-0.731 0.658,-0.731l0.258,-0.091c0.047,0.132 0.101,0.236 0.157,0.236c0.216,0 0.435,-0.266 0.604,-0.266c0.166,0 0.322,0.37 0.36,0.455c0.039,0.088 0.276,0.377 0.484,0.691c0.208,0.315 0.394,0.587 0.433,0.637c0.037,0.049 -0.032,0.848 0.029,0.953c0.061,0.106 0.21,0.353 0.4,0.353c0.088,0 0.142,0.089 0.24,0.178c0.013,-0.005 0.025,-0.01 0.037,-0.016l0.009,0.028c-0,-0 0.6,0.827 1.086,0.937c0.486,0.11 1.046,-0.214 1.046,-0.214c0,-0 -0.068,0.614 0.1,0.853c0.092,0.131 0.174,0.557 0.948,0.687c0.447,0.076 0.738,0.527 0.831,0.564c0.201,0.082 0.465,-0.017 0.75,0.126c0.259,0.13 1.12,1.543 1.368,1.543c0.25,0 0.45,-0.358 0.471,-0.575c0.021,-0.205 -0.539,-0.696 -0.578,-0.801c-0.032,-0.083 0.049,-0.35 -0.077,-0.618c0.711,0.258 1.371,0.489 1.742,0.597c1.56,0.455 1.15,-0.284 0.437,-0.571c-0.706,-0.284 -1.195,-0.368 -1.393,-1.25c-0.175,-0.787 -0.454,-1.399 -1.145,-1.662c-0.193,-0.074 -0.383,-0.096 -0.557,-0.087l0.149,-0.21c0,-0 0.372,0.283 0.732,0.283c0.337,-0 0.443,-0.354 1.086,-0.425c0.703,-0.077 1.301,-0.354 1.463,-0.625c0.167,-0.28 0.044,-0.98 0.201,-1.239c0.161,-0.269 0.536,-0.369 0.566,-0.602c0.038,-0.303 -0.448,-0.614 -0.448,-0.614l0.342,-0.389l0.118,-0.555c-0,0 0.354,0.131 0.779,0.142c0.344,0.009 0.539,-0.113 0.76,-0.243c0.184,-0.108 0.19,-0.567 -0.182,-0.689c-0.539,-0.178 -0.944,-0.236 -0.944,-0.236l0.72,-1.11l-0.614,-0.661l-0.977,0.039c0.007,-0.013 0.014,-0.026 0.022,-0.039l-0.306,-0.164Zm6.377,35.02c0,-0 0,-0 0.001,-0l-0.066,0.025l0.065,-0.025Zm4.141,14.446l0.531,0.255l-0,0l-0.531,-0.255Zm8.156,1.412l0.815,0.076l-0,0.011l-0.815,-0.087Zm0.815,0.076l-0.186,-53.977l0.193,-0l0,53.978l-0.007,-0.001Zm0.007,0.001l0.111,0.01l-0.009,10.398l-3.54,-0c0,-0 -0.066,-0.029 -0.183,-0.088l3.621,0l0,-10.32Zm-10.699,10.32c0.102,0.062 0.168,0.102 0.168,0.102l-3.004,0c0,0 0.006,-0.038 0.013,-0.102l2.823,0Zm-6.641,0c0.219,0.072 0.367,0.119 0.367,0.119l-4.088,0c-0,0 -0.056,-0.043 -0.134,-0.119l3.855,0Zm-11.648,0c0.039,0.087 0.062,0.134 0.062,0.134l-3.21,0c-0,0 0.01,-0.05 0.026,-0.134l3.122,0Zm-59.276,-78.37c-0.217,-0.586 -0.469,-1.186 -0.649,-1.358c0.02,-0.006 0.04,-0.012 0.06,-0.017c0.44,-0.082 1.117,-0.042 1.499,0.065c0.268,0.104 0.485,0.257 0.744,0.382c0.376,0.182 0.864,0.438 1.252,0.433c0.393,-0.004 0.506,-0.393 0.876,-0.393c0.365,0 0.563,0.429 0.772,0.55c0.209,0.12 0.57,0.265 0.742,0.265c0.177,0 0.572,0.349 0.88,0.673c0.134,0.141 0.578,0.637 0.877,0.637c0.299,0 0.751,-0.142 0.971,-0.142c0.22,0 0.717,0.541 0.884,0.622c0.171,0.083 0.65,-0.131 0.852,-0.014c0.198,0.114 0.214,0.583 0.422,0.629c0.208,0.046 0.48,0.16 0.596,0.255c0.116,0.095 0.213,0.465 0.64,0.582c0.427,0.117 0.44,-0.077 0.925,-0.077c0.46,0 0.552,0.342 0.953,0.342c0.4,0 0.49,-0.141 0.847,-0.141c0.358,-0 0.59,0.374 1.041,0.374c0.295,0 0.454,-0.053 0.557,-0.119l0.003,0.017c0,0 0.07,0.422 0.029,0.492c-0.039,0.067 -0.134,0.177 -0.316,0.349c-0.192,0.18 -0.31,0.277 -0.31,0.433c0,0.096 0.037,0.4 -0.134,0.564c-0.171,0.163 -0.284,0.196 -0.571,0.196c-0.233,0 -0.427,-0.057 -0.528,0.138c-0.101,0.196 0.146,0.441 0.178,0.499c0.032,0.054 0.084,0.217 0.095,0.429c0.011,0.212 0.229,0.279 0.229,0.437c0,0.153 -0.352,0.383 -0.425,0.545c-0.074,0.164 0.141,0.394 0.141,0.495c0,0.045 -0.017,0.147 -0.034,0.257c-0.009,0 -0.018,0 -0.027,-0c-0.228,-0.417 -0.436,0.082 -0.436,-0.583c-0,-0.236 -0.285,-0.682 -0.613,-0.835c-0.85,-0.397 -2.006,-0.292 -2.167,-0.493c-0.161,-0.2 1.072,-0.667 1.862,-0.894c0.466,-0.135 1.745,-1.287 1.121,-1.504c-0.876,-0.306 -1.001,0.225 -3.033,0.225c-1.65,0 -2.049,-0.313 -2.266,-0.462c-0.336,-0.228 -0.604,-0.585 -1.002,-0.762c-0.416,-0.184 -0.958,-0.182 -1.192,-0.207c-0.445,-0.048 -1.589,-0.47 -1.829,-0.59c-0.518,-0.258 -0.589,0.114 -0.792,0.114c-0.204,0 -1.016,-0.767 -1.437,-1.127c-0.416,-0.355 -1.969,-1.565 -2.217,-1.417c-0.049,0.029 -0.069,0.076 -0.07,0.136Zm42.719,-10.605c0.212,0.083 0.63,0.386 1.47,0.946c0.864,0.575 2.153,0.4 2.437,0.567c0.291,0.171 1.257,2.286 1.652,2.286c0.676,0 0.737,-1.597 0.934,-2.403c0.198,-0.805 0.334,-1.623 0.534,-2.036c0.207,-0.426 0.397,-0.959 0.852,-1.068c0.454,-0.108 0.846,0.255 1.118,0.534c0.237,0.244 0.676,0.675 0.645,1.027c-0.42,0.171 -1.173,0.377 -1.363,0.487c-0.096,0.055 -1.206,4.019 -2.59,4.019c-1.383,-0 -4.045,-1.891 -5.481,-3.194c0.103,-0.385 0.219,-0.684 0,-0.979c-0.066,-0.09 -0.134,-0.148 -0.208,-0.186Zm-0,-0c-0.005,-0.002 -0.01,-0.004 -0.015,-0.006c-0.061,-0.021 -0.234,-0.053 -0.459,-0.082c0.19,0.013 0.341,0.019 0.474,0.088Zm-1.016,-0.142c0.192,0.014 0.38,0.033 0.542,0.054c-0.054,-0.003 -0.112,-0.007 -0.173,-0.014c-0.131,-0.013 -0.258,-0.022 -0.369,-0.04Zm-4.366,-32.989c0.308,0.806 2.414,6.319 2.629,6.81c0.226,0.518 0.737,4.271 1.153,4.541c0.568,0.367 6.264,3.044 7.662,4.871c1.837,2.401 1.222,2.944 2.103,4.002c0.864,1.038 1.276,-1.251 2.521,-1.608c0.901,-0.259 1.028,0.21 0.96,0.429c-0.108,0.347 -0.641,0.968 -0.844,1.834c-0.105,0.446 -0.282,1.515 -0.375,2.783c-0.084,1.157 -0.085,2.53 -0.138,2.768c-0.11,0.501 -0.262,1.546 -0.262,1.546c-0.521,-0.273 -1.133,-0.562 -2.059,-0.764c-1.118,-0.243 -2.13,-0.207 -2.477,-0.207c-0.341,-0 -0.602,-0.237 -0.786,-0.237c-0.178,0 -0.248,0.146 -0.524,0.146c-0.27,-0 -0.506,-0.298 -0.771,-0.298c-0.26,-0 -1.023,0.334 -1.023,0.334l-0.036,0.044c0.099,-0.313 -0.006,-0.644 -0.276,-0.924c-6.73,-17.006 -8.213,-16.737 -8.229,-26.07l0.772,-0Zm13.43,11.831c-0.304,0.322 -0.664,0.347 -1.206,0.588c-0.544,0.243 -0.823,0.467 -0.903,0.692c-0.075,0.209 0.224,0.392 0.038,1.043c-0.14,0.49 0.032,0.733 -0.288,0.733c-0.295,0 -0.511,-0.348 -0.66,-0.485c-0.431,-0.399 -0.414,-0.29 -0.381,-0.653c0.019,-0.201 0.142,-0.297 0.397,-0.4c0.255,-0.103 0.343,-0.654 0.343,-0.919c-0,-0.266 0.268,-0.629 0.268,-0.906c0,-0.297 -0.385,-0.712 -0.222,-1.218c0.166,-0.517 0.472,-1.204 1.047,-1.204c0.566,-0 0.792,0.543 1.135,0.75c0.353,0.213 1.109,0.86 1.144,0.89c-0.012,0.013 -0.023,0.027 -0.035,0.041c-0.35,0.414 -0.596,0.822 -0.677,1.048Zm9.076,31.664l0.017,0.064c-0.025,-0.051 -0.066,-0.082 -0.017,-0.064Zm0.017,0.064c0.008,0.018 0.015,0.038 0.015,0.059l-0.015,-0.059Zm6.357,27.582c-1.384,-0.503 -2.958,-1.109 -2.958,-1.109l1.177,-1.579c-0,0 0.371,-0.263 0.865,-0.285l-0.169,0.238l0.295,0.484l-0.543,0.448l-1.109,0.071c0.17,0.359 0.301,0.535 0.781,0.881c0.471,0.34 0.916,0.106 1.481,0.611c0.085,0.077 0.142,0.158 0.18,0.24Zm-56.374,-30.633c0.221,0.007 0.386,-0.007 0.386,-0.007l3.637,2.12l2.737,-3.338l2.503,0l0.635,1.469l4.973,0.1l0.467,4.039l9.646,2.47l8.761,0.357l10.416,9.478l6.558,3.578l-0.402,3.576l-8.335,0.047c-0,-0 -0.052,-0.529 -0.31,-0.997c0.064,-0.064 0.131,-0.139 0.198,-0.222c0.066,0.088 0.117,0.157 0.142,0.178c0.109,0.091 0.384,0.174 0.815,0.189c0.431,0.015 0.782,-0.033 0.862,-0.189c0.018,-0.034 0.043,-0.122 0.073,-0.233c0.302,0.021 0.425,-0.48 0.746,-0.48c0.287,-0 0.459,-0.288 0.596,-0.349l0.099,-0.113c0.343,-0.069 0.664,0.045 0.876,0.367c0.078,0.131 0.136,0.329 0.171,0.534c0.288,-0.094 0.577,-0.173 0.812,-0.203c0.293,-0.037 0.546,-0.054 0.771,-0.054c0.675,-0.001 1.095,0.155 1.579,0.393c0.098,0.048 0.192,0.101 0.283,0.159c-0.001,-0.183 0.06,-0.442 0.142,-0.752c0.092,-0.345 0.456,-1.054 0.471,-1.475c0.004,-0.103 -0.044,-0.198 -0.12,-0.292c-0.223,0.122 -0.501,0.25 -0.776,0.314c-0.401,0.095 -0.526,0.39 -1.074,0.39c-0.547,-0 -1.055,-0.11 -1.699,-0.755c-0.642,-0.644 -0.963,-0.901 -1.041,-1.204l-0.046,0.024c-0.32,-0.012 -0.968,0.065 -1.153,-0.073c-0.16,-0.118 -0.169,-0.813 -0.593,-1.131c-0.425,-0.319 -0.721,-0.295 -1.11,-0.142c-0.39,0.153 -0.507,0.485 -0.448,0.757c0.059,0.271 0.726,0.251 0.921,0.363c0.223,0.129 0.467,0.762 0.567,0.935c0.106,0.183 0.154,0.982 0,1.085c-0.159,0.106 -0.591,0.024 -1.051,0.225c-0.111,0.048 -0.213,0.106 -0.306,0.167c-0.14,-0.146 -0.281,-0.356 -0.349,-0.356c-0.032,-0 -0.098,0.005 -0.174,0.014c-0.321,-0.346 -0.667,-0.689 -0.965,-0.913c-0.817,-0.613 -1.19,-0.88 -2.077,-0.884c-0.278,-0.001 -0.583,0.1 -0.873,0.24c-0.056,-0.106 -0.107,-0.191 -0.135,-0.207c-0.103,-0.06 -0.718,-0.085 -0.822,-0.113c-0.107,-0.029 -0.361,-0.343 -0.564,-0.535c-0.2,-0.189 -0.913,-0.303 -0.942,-0.571c-0.03,-0.271 0.151,-0.551 0.2,-0.662c0.01,-0.021 0.05,-0.133 0.073,-0.193c0.834,-0.025 1.436,-0.17 1.499,-0.709c0.036,-0.31 -0.445,-0.546 -0.953,-0.87c0.064,-0.193 0.12,-0.378 0.12,-0.469c-0,-0.052 -0.016,-0.098 -0.04,-0.142l0.054,-0.014c0.17,0.038 0.402,0.042 0.47,-0.011c0.071,-0.056 0.205,-0.276 0.487,-0.539c0.282,-0.262 0.537,-0.429 0.597,-0.502c0.034,-0.042 0.049,-0.245 0.078,-0.399c-0.002,0.009 -0.004,0.019 -0.006,0.028c-0.358,-0.077 -0.871,-0.287 -1.116,-0.611c-0.432,-0.569 -0.133,-1.324 -0.757,-1.324c-0.624,-0 -0.51,0.825 -0.557,1.011c-0.054,0.215 -0.256,0.502 -0.44,0.633c-0.429,0.305 -1.419,-0.07 -1.484,-0.644c-0.067,-0.585 0.337,-0.752 0.389,-0.782c0.147,-0.083 -0.04,-0.7 -0.04,-1.059c0,-1.113 0.023,-1.562 -0.72,-2.106c-0.775,-0.567 -1.575,-0.343 -1.823,-0.942l-0,-0.001c0.002,0.022 0.005,0.044 0.007,0.066c0,0 -0.393,0.543 -0.63,0.748c-0.243,0.21 -0.546,0.251 -1.004,0.223c-0.436,-0.026 -0.876,-0.213 -0.904,-0.224c0.001,0.012 0.002,0.024 0.003,0.035c0.021,0.48 0.976,1.109 0.218,1.794c-0.762,0.687 -0.383,0.688 -0.935,0.688c-0.648,-0 -0.848,-0.569 -1.215,-0.517c-0.367,0.052 -0.109,0.346 -0.142,0.626c-0.031,0.264 -0.183,0.643 -0.247,0.866c-0.079,-0.008 -0.155,-0.011 -0.222,-0.011c-0.356,-0 -0.969,0.098 -1.321,0.393c-0.357,0.298 -1.029,0.08 -1.211,0.185c-0.176,0.102 -0.19,0.535 -0.495,0.84c-0.305,0.306 -1.232,0.101 -1.379,0.186c-0.141,0.082 -0.509,0.662 -0.749,0.662c-0.24,0 -0.318,-0.259 -0.717,-0.385c-0.399,-0.127 -0.588,-0.029 -0.793,-0.084c-0.206,-0.055 -0.459,-0.175 -0.459,-0.444c0,-0.286 0.33,-0.453 0.492,-0.615c0.161,-0.162 0.415,-0.266 0.403,-0.458c-0.011,-0.2 -0.374,-0.397 -0.72,-0.448c-0.338,-0.049 -0.573,-0.068 -0.724,-0.163c-0.157,-0.099 -0.194,-0.171 -0.262,-0.288c-0.07,-0.12 -0.04,-0.263 -0.447,-0.458c-0.408,-0.196 -0.643,-0.23 -1.146,-0.379c-0.179,-0.052 -0.309,-0.102 -0.426,-0.145l0.004,-0.051c0.125,-0.17 0.36,-0.659 0.549,-0.677c0.189,-0.018 0.704,0.382 0.862,0.277c0.162,-0.108 0.289,-0.433 0.568,-0.837c0.266,-0.386 0.369,-0.638 0.587,-0.807c-0.144,0.112 -0.245,0.264 -0.369,0.461c-0.013,-0.099 -0.029,-0.189 -0.047,-0.273c-0.154,0.09 -0.701,0.182 -1.08,0.279c-0.407,0.105 -0.91,0.3 -1.094,0.025c-0.375,-0.563 -0.093,-0.849 0.234,-1.176c0.401,-0.401 0.298,-0.724 0.15,-0.993c-0.144,-0.263 -0.391,-0.438 -0.784,-0.334c-0.384,0.102 -0.419,0.499 -0.492,0.626c-0.072,0.123 -0.454,0.676 -0.66,0.676c-0.214,-0 -0.6,-0.342 -1.026,-0.676c-0.425,-0.334 -0.634,-0.538 -0.634,-0.701c-0,-0.164 0.423,-0.6 0.459,-0.734c0.038,-0.142 0.3,-1.264 0.3,-1.41c0,-0.155 -0.308,-0.611 -0.308,-0.96c-0,-0.343 0.236,-0.999 0.504,-1.089c-0.209,-0.174 -0.419,-0.299 -0.631,-0.359c-0.267,-0.075 -0.449,-0.131 -0.569,-0.182c-0.066,0.075 -0.137,0.131 -0.205,0.169c-0.23,0.13 -1.994,-0.065 -2.361,-0.174c-0.008,-0.003 -0.017,-0.008 -0.025,-0.011c0.078,-0.049 0.129,-0.089 0.138,-0.106c-0.015,0.026 -0.16,0.124 -0.295,0.193c-0.26,-0.031 -0.58,0.042 -1.164,-0.495c-0.563,-0.518 -0.17,-1.502 -0.695,-1.502c-0.524,-0 -1.075,1.114 -1.266,1.207c-0.082,0.041 -0.778,0.004 -0.778,0.241c-0,0.236 0.52,1.146 0.749,1.688c0.524,1.239 0.703,2.042 0.39,2.339c-0.319,0.301 -0.993,0.249 -1.274,0.247c-0.281,-0.002 -1.003,-0.094 -1.229,-0.171c-0.247,-0.083 0.309,-1.178 0.309,-1.604c-0,-0.435 0.23,-1.31 -0.244,-1.31c-0.551,0 -0.81,1.17 -0.891,1.983c-0.057,0.563 -0.614,0.964 -1.088,0.964c-0.908,0 -0.177,-0.813 -0.156,-1.419c0.015,-0.474 0.022,-1.681 -0.201,-1.681c-0.222,0 -0.804,0.175 -1.196,0.175c-0.188,0 -0.258,-0.509 -0.39,-0.513c-0.132,-0.004 -0.557,0.402 -0.953,0.24c-0.403,-0.164 -0.255,-0.832 -0.2,-1.633c0.007,-0.096 0.013,-0.188 0.018,-0.278Zm0.888,15.685c-0,-0 0.696,-0.383 0.742,-0.462c-0.023,0.039 -0.209,0.152 -0.389,0.258c-0.18,0.106 -0.353,0.204 -0.353,0.204Zm3.345,-2.702c0.155,-0.141 0.253,-0.266 0.253,-0.369c-0,-0.107 -0.054,-0.236 -0.113,-0.353c-0.059,-0.118 -0.122,-0.224 -0.138,-0.283c0.016,0.059 0.079,0.166 0.138,0.283c0.059,0.117 0.113,0.246 0.113,0.353c-0,0.069 -0.044,0.146 -0.12,0.233c-0.038,0.043 -0.082,0.089 -0.133,0.136c-0.262,0.238 -0.686,0.521 -1.082,0.824c0.316,-0.241 0.651,-0.469 0.906,-0.673c0.064,-0.051 0.123,-0.102 0.176,-0.151Zm14.267,0.969c0.181,0.228 0.544,0.673 0.644,0.718c0.055,0.025 0.368,-0.078 0.61,-0.003c0.307,0.095 0.571,0.369 0.841,0.369c0.473,-0 1.473,-0.566 1.598,-0.587c0.113,-0.019 1.072,0.318 1.105,0.469c0.032,0.152 -0.494,0.755 -0.876,1.09c-0.385,0.339 -0.774,0.692 -0.458,1.01c0.32,0.322 0.858,0.099 0.944,-0.319c0.099,-0.481 0.376,-0.649 0.767,-0.649c0.391,0 1.093,0.634 1.161,0.754c0.006,0.009 0.01,0.022 0.015,0.039l-0.228,0.613l-2.255,0.384l-3.899,-3.425c-0,0 0.02,-0.193 0.031,-0.463Zm-36.314,-22.219c-0.292,0.081 -0.537,0.419 -0.6,0.709c-0.065,0.298 0.181,0.774 0.4,1.06c0.226,0.296 0.601,0.169 0.668,0.284c0.062,0.108 -0.309,0.504 -0.109,0.692c0.282,0.265 0.611,0.017 0.91,0.017c0.181,-0 0.313,0.131 0.567,0.258c0.255,0.128 0.409,0.217 0.509,0.192c0.117,-0.029 0.207,-0.175 0.275,-0.375c0.067,-0.192 0.009,-0.467 -0.217,-0.634c-0.225,-0.167 -0.381,0.031 -0.642,-0.15c-0.261,-0.182 -0.217,-0.434 -0.476,-0.626c-0.258,-0.192 -0.409,0.208 -0.625,-0.009c-0.217,-0.217 -0.411,-0.47 -0.351,-0.617c0.063,-0.155 0.321,-0.213 0.259,-0.417c-0.063,-0.205 -0.276,-0.466 -0.568,-0.384Zm11.127,-3.496c0.251,0 0.559,-0.362 0.636,-0.494c-0.028,-0.035 -0.044,-0.071 -0.05,-0.1c-0.014,-0.07 -0.114,-0.816 -0.174,-0.899c-0.064,-0.086 -0.572,-0.697 -1.103,-1.149c-0.347,-0.296 -0.561,-0.493 -0.804,-0.681c-0.231,0.079 -0.445,0.173 -0.625,0.198c-0.18,0.025 -0.597,-0.071 -0.665,0.165c-0.068,0.236 0.078,0.575 0.301,0.892c0.22,0.313 0.218,0.751 0.493,0.928c0.276,0.177 0.485,-0.608 0.745,-0.608c0.255,-0 0.564,0.569 0.69,1.013c0.125,0.445 0.304,0.735 0.556,0.735Zm24.946,-5.794c0.255,-0 0.598,0.792 1.628,1.085c0.222,0.063 1.013,0.46 1.829,0.46c0.638,0 0.904,-0.886 0.59,-1.333c-0.528,-0.752 -1.556,-0.625 -2.1,-0.625c-0.532,-0 -0.885,-0.068 -0.885,-0.39c-0,-0.334 0.182,-0.01 0.684,-0.283c0.493,-0.269 0.541,-0.367 0.154,-0.602c-0.36,-0.218 -0.873,0.188 -0.98,0.26c-0.115,0.076 -1.103,0.056 -1.251,0.141c-0.528,0.305 -0.818,0.182 -0.932,0.224c-0.118,0.045 0.156,0.396 0,0.626c-0.156,0.23 -0.406,0.212 -0.625,0.212c-0.231,0 -0.486,-0.348 -0.697,-0.259c-0.147,0.062 -0.156,0.56 -0.106,0.661c0.07,0.14 0.819,0.46 1.499,0.46c0.903,-0 0.948,-0.637 1.192,-0.637Zm-39.377,1.933c-0.081,-0.006 -0.171,0.502 -0.171,0.706c-0,0.217 0.055,0.513 0.105,0.542c0.048,0.028 0.737,-0.004 0.808,0.036c0.012,0.007 0.078,0.087 0.115,0.124c0,-0 0.367,-0.096 0.688,-0.137c0.316,-0.039 0.479,-0.135 0.68,-0.048c0.211,0.092 0.299,0.519 0.592,0.907c0.293,0.387 0.331,0.761 0.331,0.761c0.302,0.017 0.766,0.045 0.806,0.045c0.063,-0 0.963,-0.009 1.022,0.025c0.055,0.032 0.825,0.295 1.168,0.295c0.338,-0 0.682,-0.017 0.768,-0.164c0.083,-0.143 0.151,-0.257 0.203,-0.287c0.055,-0.032 0.411,-0.108 0.437,-0.295c0.026,-0.187 -0.287,-0.375 -0.331,-0.451c-0.052,-0.09 -0.158,-0.482 -0.298,-0.513c-0.14,-0.031 -0.419,-0.083 -0.462,-0.244c-0.057,-0.212 -0.063,-0.526 0.065,-0.658l-0.556,-0.586c-0.439,0.399 -0.872,0.79 -0.946,0.833c-0.08,0.046 -0.554,0.12 -0.932,0.12c-0.35,0 -0.39,-0.072 -0.469,-0.072c-0.079,-0 -0.304,0.196 -0.608,0.196c-0.303,0 -0.452,-0.149 -0.669,-0.324c-0.217,-0.174 -0.417,-0.533 -0.437,-0.793c-0.005,-0.069 -0.567,0.091 -0.654,0.142c-0.092,0.053 -0.205,0.302 -0.317,0.302c-0.408,0 -0.865,-0.396 -0.924,-0.455c-0.005,-0.005 -0.009,-0.007 -0.014,-0.007Zm-7.906,-6.967l-0.171,0.24l0.011,0.222l0.244,-0.054l0.087,-0.16l-0.171,-0.248Zm64.647,20.705c0.048,0.01 0.099,0.012 0.154,0.006c0.154,-0.017 0.325,-0.202 0.582,-0.315c-0.193,0.11 -0.422,0.326 -0.597,0.326c-0.074,0 -0.114,-0.005 -0.139,-0.017Zm0.923,-0.372c0.027,-0.006 0.054,-0.011 0.083,-0.015c0.063,-0.009 0.135,0.049 0.211,0.105c-0.114,-0.051 -0.208,-0.088 -0.294,-0.09Zm0.502,0.184c0.004,-0 0.009,-0.001 0.013,-0.001c0.697,-0.114 0.23,-0.048 0.079,0.039c-0.032,-0.012 -0.063,-0.025 -0.092,-0.038Zm1.308,1.52c0.012,0.003 0.025,0.006 0.039,0.009c0.073,0.014 0.16,-0.108 0.256,-0.223c-0.033,0.163 -0.047,0.3 -0.212,0.26c-0.029,-0.007 -0.057,-0.024 -0.083,-0.046Zm-4.103,-1.862c0.241,0.044 0.492,0.114 0.672,0.174c-0.028,-0.001 -0.058,-0.001 -0.091,-0.001c-0.277,-0 -0.399,-0.106 -0.581,-0.173Zm4.545,1.5c0.027,-0.019 0.055,-0.034 0.082,-0.04c0.072,-0.017 0.144,0.018 0.221,0.061c-0.116,-0.015 -0.224,-0.027 -0.303,-0.021Zm0.819,0.048c0.079,-0.061 0.15,-0.089 0.214,-0.091c-0.046,0.038 -0.105,0.067 -0.176,0.083c-0.013,0.003 -0.025,0.006 -0.038,0.008Zm3.951,0.467c0.004,0.033 0.012,0.061 0.023,0.084l-0.058,-0.009c0.016,-0.024 0.028,-0.05 0.035,-0.075Zm-0.043,0.087c-0.049,0.123 -0.178,0.184 -0.393,0.184c0.178,0 0.32,-0.083 0.393,-0.184Zm-1.44,6.64c0.131,-0.055 0.209,-0.125 0.088,-0.023l-0.002,0.002c-0.03,0.007 -0.058,0.014 -0.086,0.021Zm0.202,-0.052c0.101,-0.046 0.234,-0.098 0.34,-0.102c-0.118,0.037 -0.234,0.072 -0.34,0.102Zm10.889,62.714c-1.158,0.027 -2.253,0.254 -2.616,-0.067c-0.934,-0.825 -1.522,-0.566 -1.891,0.114c-0.11,0.201 0.195,0.751 1.099,1.098c0.703,0.27 1.891,0.371 2.748,0.389c2.084,0.044 3.18,-0.177 4.46,-0.756c1.281,-0.578 1.941,-1.053 1.794,-1.534c-0.21,-0.689 -0.822,-0.51 -1.667,-0.277c-1.147,0.316 -2.652,1.002 -3.927,1.033Zm-8.366,-10.751c-0.354,0.567 0.136,0.496 0.165,0.838c0.054,0.627 0.021,1.569 0.803,1.404c0.673,-0.142 -0.015,-0.891 -0.024,-1.486c-0.009,-0.596 0.153,-0.652 -0.083,-0.838c-0.236,-0.186 -0.71,-0.16 -0.861,0.082Zm-29.463,-19.285c0.356,0.11 0.917,0.179 1.153,0.18c0.676,0.005 1.116,-0.383 1.074,-0.72c-0.021,-0.176 -0.187,-0.346 -0.434,-0.457c0.124,-0.113 0.233,-0.24 0.33,-0.396c0.316,-0.508 -0.087,-1.339 -0.847,-1.218c-0.953,0.152 -1.768,0.076 -1.902,-0.1c-0.139,-0.182 -0.247,-0.743 -0.635,-0.768c-0.388,-0.025 -0.652,0.487 -0.941,0.644c-0.243,0.132 -1.211,0.074 -1.211,0.074l-0.134,2.136c0,0 1.352,0.693 2.267,0.785c0.501,0.051 0.913,-0.027 1.28,-0.16Zm34.23,35.995c-1.235,-0.524 -1.706,-0.801 -1.9,-0.201c-0.15,0.467 1.346,0.971 2.231,1.133c0.885,0.162 2.135,0.448 1.262,-0.46c-0.899,-0.937 -0.771,-0.124 -1.593,-0.472Zm-29.316,-53.659c-0.105,0.526 -0.702,0.586 -0.976,1.377c-0.267,0.768 -1.248,0.595 -1.427,0.826c-0.184,0.236 0.305,0.434 0.751,0.392c0.446,-0.042 0.914,-0.507 1.035,-0.559c0.114,-0.049 1.693,-0.809 1.819,-0.718c0.236,0.173 -0.568,0.588 -0.593,0.81c-0.025,0.221 0.478,0.624 0.626,0.642c0.181,0.023 0.676,-0.146 1.26,-0.333c0.584,-0.188 1.003,-0.301 1.085,-0.484c0.083,-0.187 -0.16,-1.081 -0.292,-1.185c-0.128,-0.1 -0.446,0.058 -0.584,-0.05c-0.134,-0.105 -1.108,-1.302 -1.686,-1.302c-0.569,-0 -0.913,0.058 -1.018,0.584Zm24.395,35.923c0.023,-0.703 -0.919,-0.567 -1.687,-0.449c-0.749,0.115 -1.464,0.299 -1.404,0.767c0.084,0.661 0.851,0.184 1.64,0.154c0.892,-0.034 1.424,0.363 1.451,-0.472Zm-33.891,-31.951c-0.001,0.008 -0.003,0.016 -0.006,0.024c-0.38,0 -0.924,-0.026 -1.197,0.053c-0.006,-0.012 -0.011,-0.025 -0.016,-0.038c-0.01,0.003 -0.017,0.005 -0.021,0.008c-0.044,0.025 -0.17,0.305 -0.233,0.651c-0.02,0.108 -0.201,0.28 -0.408,0.604c-0.206,0.325 -0.266,0.441 -0.433,0.441c-0.167,-0 -0.249,-0.086 -0.378,-0.164c-0.154,-0.094 -0.197,-0.149 -0.509,-0.149c-0.084,-0 -0.168,-0.06 -0.353,-0.16c-0.185,-0.101 -0.315,-0.221 -0.386,-0.24c-0.059,-0.016 -0.288,0.058 -0.442,0.08l0.347,-0.502l-2.762,-0.259l-0.826,2.242l1.713,-0.054c-0.259,0.171 -0.464,0.25 -0.464,0.25l7.662,3.958c-0,-0 0.008,-0.053 0.025,-0.145c0.4,0.464 0.853,0.953 1.259,1.302c0.989,0.847 0.373,1.237 1.346,1.284c1.081,0.053 2.252,-0.258 2.783,-0.258c0.543,-0 0.641,0.305 1.172,0.272c0.119,-0.007 0.314,-0.059 0.542,-0.134c-0.015,-0.017 -0.028,-0.034 -0.044,-0.051c-0.391,-0.415 -0.393,-0.729 -0.385,-0.971c0.014,-0.451 -0.556,-1.117 -0.783,-1.117c-0.21,-0 -0.929,-0.334 -0.96,-0.59c-0.029,-0.234 0.006,-0.62 0.08,-0.735c-0.108,-0.17 -0.001,-0.566 -0.331,-0.763c-0.357,-0.214 -0.478,-0.295 -0.677,-0.295c-0.195,-0 -0.533,0.287 -1.004,0.287c-0.212,0 -0.009,-0.537 -0.372,-0.808l0.001,0.001c-0.003,-0.003 -0.007,-0.005 -0.011,-0.008c-0.378,-0.269 0.256,-0.45 0.16,-0.647c-0.095,-0.197 -0.471,-0.102 -0.56,-0.153c-0.091,-0.053 -0.546,-0.608 -0.597,-0.637c-0.052,-0.03 -0.441,-0.056 -0.553,-0.218c-0.105,-0.153 -0.244,-0.541 -0.283,-0.586c-0.042,-0.046 -0.715,-0.8 -0.852,-0.8c-0.14,-0 -0.256,0.324 -0.374,0.324c-0.115,-0 -0.129,-0.068 -0.241,-0.16c-0.111,-0.093 -0.207,-0.139 -0.207,-0.211c0,-0.073 0.21,-0.275 0.284,-0.35c0.072,-0.072 0.317,-0.106 0.229,-0.429c-0.037,-0.135 -0.446,-0.151 -0.888,-0.149c-0.015,0 -0.031,0 -0.047,0Zm-1.219,0.039c0.082,-0.021 0.34,-0.035 0.826,-0.035c0.128,-0 0.261,-0.003 0.393,-0.004c0.042,-0.19 -0.006,-0.433 -0.107,-0.526c-0.107,-0.099 -0.741,-0.795 -0.741,-1.025c0,-0.233 0.116,-0.743 0.476,-0.881c0.363,-0.139 0.86,-0.001 0.994,-0.001c0.139,-0 0.742,-0.197 0.914,-0.197c0.234,-0 0.572,0.325 1.001,0.552c0.427,0.226 0.787,0.059 1.074,-0.169c0.279,-0.221 0.192,-0.421 0.314,-0.475c0.125,-0.055 0.536,0.128 0.807,0.026c0.357,-0.134 0.48,-0.481 0.23,-0.625c-0.395,-0.229 -1.188,-0.094 -1.852,-0.094c-0.658,-0 -1.49,-0.14 -1.965,-0.75c-0.483,-0.62 -1.289,-0.519 -1.487,-0.519c-0.198,-0 -0.636,-0.025 -0.785,0.041c-0.153,0.069 -0.35,0.26 -0.395,0.396c-0.044,0.133 0.601,0.93 -0.129,1.17c-0.724,0.239 -0.921,-0.744 -2.237,-0.744c-0.758,-0 -1.331,0.617 -1.611,0.842c-0.285,0.229 -1.994,1.505 -2.006,1.652c-0.012,0.154 0.448,0.537 0.637,0.537c0.196,0 0.212,-0.236 0.52,-0.318c0.313,-0.085 0.621,0.271 0.743,0.271c0.96,-0 0.812,-0.466 2.325,-0.466c1.456,-0 1.708,0.575 1.774,0.641c0.066,0.066 0.168,0.406 0.287,0.701Zm12.693,1.643c0.175,-0.026 0.355,-0.041 0.525,-0.048c0.241,-0.011 0.422,-0 0.548,0.034c0.001,-0.006 0.003,-0.011 0.005,-0.017c0.144,-0.451 0.214,-0.583 0.41,-0.669c0.207,-0.091 0.525,0.324 0.671,0.133c0.152,-0.198 -0.891,-1.332 -1.077,-1.486c-0.178,-0.148 -0.376,-0.502 -0.774,-0.497c-0.398,0.005 -0.471,0.383 -0.817,0.517c-0.346,0.135 -0.356,-0.144 -0.586,-0.121c-0.23,0.023 -0.471,0.23 -0.566,0.372c-0.104,0.156 0.194,0.54 0.751,0.384c0.554,-0.156 0.781,-0.197 1.006,0.124c0.226,0.321 -0.105,0.873 -0.105,1.161c0,0.035 0.003,0.073 0.009,0.113Zm1.073,-0.014c-0.146,0.452 -0.3,0.735 -0.564,0.735c-0.256,0 -0.465,-0.412 -0.509,-0.721c-0.439,0.065 -0.851,0.201 -1.026,0.47c-0.252,0.386 -0.045,0.702 -0.083,1.456c-0.037,0.738 -0.425,1.416 0.351,2.163c0.646,0.621 1.64,0.402 2.013,1.105c0.316,0.596 0.875,0.331 1.171,-0.157c0.259,-0.427 -0.161,-0.647 -0.471,-0.942c-0.025,-0.024 -0.057,-0.057 -0.094,-0.098c-0.173,-0.09 -0.726,-0.24 -0.987,-0.408c-0.268,-0.174 -0.363,-0.367 -0.205,-0.438c0.087,-0.039 0.168,-0.231 0.245,-0.407c-0.275,-0.422 -0.493,-0.832 -0.493,-1.056c0,-0.565 0.758,-1.126 0.847,-1.389c0.054,-0.16 -0.008,-0.263 -0.195,-0.313Zm-0.159,2.758c0.325,0.497 0.728,1.01 0.947,1.253c0.005,0.002 0.009,0.005 0.014,0.007c0.162,0.092 0.356,0.223 0.49,0.458c0.137,0.241 0.468,0.011 0.433,-0.162c-0.038,-0.18 -0.257,-0.502 -0.243,-0.671c0.031,-0.356 0.32,-0.44 0.427,-0.466c0.11,-0.026 0.437,-0.062 0.513,-0.124c0.081,-0.065 0.294,-0.289 0.407,-0.289c0.12,-0 0.357,0.254 0.467,0.254c0.115,-0 0.372,-0.316 0.418,-0.396c0.045,-0.076 0.285,-0.309 0.285,-0.503c0,-0.203 -0.04,-0.524 -0.438,-0.641c-0.416,-0.123 -1.067,0.201 -1.311,0.306c-0.241,0.103 -1.063,0.194 -1.132,0.307c-0.072,0.119 -0.035,0.378 -0.375,0.428c-0.209,0.03 -0.592,-0.13 -0.724,-0.06c-0.057,0.03 -0.116,0.159 -0.178,0.299Zm-2.041,0.567c0.182,0.002 0.343,0.009 0.418,0.009c-0.075,0 -0.238,-0.005 -0.418,-0.007l-0,-0.002Zm23.01,24.9c0,0.05 0.076,0.224 0.16,0.404l0.28,0.473l-0.042,0.018c0.011,0.021 0.017,0.033 0.017,0.033l0.003,0.004l0.004,-0c0.309,-0.149 0.578,-0.489 0.728,-0.673c0.198,-0.245 0.349,-1.041 0.782,-1.041c0.441,0 0.4,-0.178 0.4,-0.476c-0,-0.306 0.257,-0.427 0.422,-0.637c0.168,-0.214 0.339,-0.502 0.731,-0.502c0.4,0 0.613,0.087 0.961,-0.16c0.342,-0.243 0.454,-0.395 0.454,-0.655c0,-0.252 0.107,-0.518 0.557,-0.913c0.45,-0.395 0.911,-0.547 1.342,-0.775c0.104,-0.055 0.196,-0.136 0.281,-0.233c-0,0 -0.101,-1.472 -0.318,-2.246c-0.216,-0.773 -0.314,-1.055 -0.65,-1.515c-0.307,0.102 -0.638,0.21 -0.684,0.243c-0.081,0.058 -0.716,0.695 -0.742,0.782c-0.026,0.086 -0.208,0.302 -0.197,0.484c0.011,0.182 0.637,0.009 0.637,0.419c-0,0.286 -0.546,0.586 -0.546,0.76c0,0.179 0.344,0.631 0.058,0.88c-0.411,0.36 -1.168,-0.551 -1.142,-0.625c0.053,-0.149 -0.033,-0.419 -0.506,-0.419c-0.472,0.001 0.061,0.595 0.055,0.666c-0.005,0.066 -0.121,0.433 -0.367,0.433c-0.182,0 -0.285,-0.525 -0.382,-0.691c-0.115,0.203 -0.251,0.407 -0.408,0.589c-0.653,0.757 -1.023,0.662 -2.084,0.979c0.09,0.034 0.166,0.08 0.228,0.131c0.001,0.001 0.003,0.002 0.004,0.003c0.014,0.012 0.026,0.023 0.037,0.034c0.039,0.039 0.072,0.08 0.098,0.122c0.007,0.008 0.013,0.017 0.018,0.026c0.003,0.005 0.005,0.01 0.007,0.015c0.001,0.002 0.002,0.003 0.002,0.005c0.022,0.043 0.038,0.086 0.049,0.128c-0.011,-0.042 -0.027,-0.085 -0.049,-0.127c0.001,0.001 0.001,0.003 0.002,0.005c0.015,0.03 0.027,0.061 0.036,0.091c0.009,0.026 0.015,0.051 0.019,0.076c0.001,0.007 0.003,0.015 0.003,0.022c0.004,0.031 0.004,0.062 0,0.09c0,0 0,0 0,0.001c-0.025,0.208 0.818,0.62 0.826,0.749c0,0.005 -0.002,0.008 -0.004,0.011c-0.001,0.004 -0.003,0.008 -0.007,0.011c-0.115,0.094 -0.532,0.397 -0.72,0.397c-0.182,-0 -0.752,-0.52 -1.073,-0.16c-0.273,0.305 0.208,0.76 0.363,0.785c0.473,0.078 0.633,0.844 0.633,1.052c0,0.207 -0.276,0.737 -0.276,0.927Zm0.171,-4.105c0.01,0.016 0.019,0.032 0.027,0.048c0,-0 0,-0.001 0,-0.001c-0.008,-0.015 -0.017,-0.031 -0.027,-0.046c0,-0.001 -0,-0.001 -0,-0.001Zm-0,-0c-0.025,-0.039 -0.055,-0.077 -0.09,-0.112c0.008,0.008 0.016,0.017 0.025,0.027c0.007,0.008 0.014,0.016 0.021,0.025c0.005,0.005 0.007,0.013 0.011,0.018c0.011,0.014 0.022,0.028 0.033,0.042Zm-0.141,-0.159c0.018,0.015 0.035,0.031 0.051,0.047c-0.003,-0.003 -0.005,-0.006 -0.008,-0.009c-0.013,-0.012 -0.027,-0.025 -0.041,-0.037c-0.001,-0 -0.002,-0.001 -0.002,-0.001Zm-0,0c-0.033,-0.027 -0.069,-0.052 -0.109,-0.075c0.001,0.001 0.002,0.002 0.003,0.003c0.037,0.022 0.07,0.044 0.101,0.069c0.002,0.001 0.003,0.002 0.005,0.003Zm-0.226,-0.13c0.042,0.016 0.081,0.035 0.117,0.055c-0,-0 -0.001,-0 -0.001,-0.001c-0.035,-0.02 -0.075,-0.038 -0.116,-0.054Zm-20.743,-0.239c0.052,-0.039 0.111,-0.078 0.185,-0.101c-0.075,0.023 -0.135,0.061 -0.186,0.1l0.001,0.001Zm4.477,-3.592c0.155,0.09 0.556,0.079 0.869,0.055c0.166,-0.014 0.311,-0.03 0.379,-0.04c-0.198,0.03 -1.01,0.122 -1.248,-0.015Zm13.755,9.725l-0.083,0.123c0.039,0 0.086,-0.012 0.138,-0.034l0.011,-0.028c-0,0 -0.024,-0.02 -0.066,-0.061Zm3.008,-0.522l0.092,0.158l0.021,-0.202c-0.037,0.017 -0.075,0.033 -0.113,0.044Zm-5.264,-15.608c-0.016,-0.025 -0.035,-0.048 -0.057,-0.071c0.022,0.023 0.042,0.048 0.059,0.073l0.158,0.105l2.804,-0.167l0.346,-0.497l0.438,0.047l0.534,-0.017l0.618,-0.851l0.801,-0.084c-0,0 0.355,-0.243 0.612,-0.45c-1.12,0.152 -4.18,0.453 -6.29,0.187c-2.11,-0.266 -3.285,-0.883 -4.232,-0.914l0.865,0.96l2.42,1.536l0.433,-0.184l0.491,0.327Zm-0,-0c0.031,0.049 0.052,0.101 0.066,0.155l0.004,-0.001c-0.014,-0.054 -0.036,-0.105 -0.068,-0.152l-0.002,-0.002Zm-6.652,-13.647c-0.168,0.115 -0.365,0.272 -0.578,0.457l0.002,0.001c0.213,-0.184 0.409,-0.341 0.577,-0.457c-0,-0 -0,-0 -0.001,-0.001Zm0,0c0.196,-0.134 0.354,-0.212 0.454,-0.212c-0.1,0 -0.257,0.079 -0.453,0.213c0.005,0.012 0.012,0.023 0.019,0.035c0.157,0.248 1.996,1.8 3.271,2.837c0.997,0.811 4.527,3.706 5.173,3.171c1.081,-0.736 -0.891,-1.347 -0.133,-2.103c0.185,-0.184 2.097,0.577 2.47,1.836c0.341,1.152 0.912,1.499 1.88,1.708c0.968,0.209 1.628,-0.13 1.992,-0.872c0.473,-0.968 -1.215,-1.928 -1.75,-2.22c-0.545,-0.298 -2.011,-0.808 -2.656,-1.119c-0.664,-0.321 -1.522,-0.737 -3.352,-1.793c-1.811,-1.046 -1.972,-1.913 -2.635,-2.136c-0.995,-0.335 -1.255,0.1 -1.727,0.177c-0.45,0.072 -1.114,-0.086 -1.747,0.043c-0.601,0.122 -0.903,0.223 -0.806,0.435Zm9.006,34.359c-1.232,-0.074 -2.1,-0.361 -2.326,0.04c-0.373,0.661 0.851,1.257 2.044,1.368c1.194,0.111 2.602,-0.008 2.631,-0.741c0.029,-0.745 -1.205,-0.598 -2.349,-0.667Zm24.262,-24.655c-0.233,1.038 -2.188,1.183 -2.957,1.271c-1.395,0.16 -2.019,0.588 -1.998,1.196c0.019,0.525 1.58,0.998 2.038,1.093c0.47,0.097 0.898,-0.323 1.579,-0.323c0.945,0 0.534,0.87 1.477,0.71c0.483,-0.082 1.296,-0.062 1.559,-0.408c0.294,-0.386 0.554,-0.879 0.817,-1.141c0.299,-0.3 0.897,-0.655 0.897,-1.737c-0,-0.304 0.112,-1.771 0.051,-1.918c-0.063,-0.151 -1.129,-0.933 -1.164,-1.118c-0.038,-0.196 -0.359,-1.394 -1.369,-1.79c-0.79,-0.31 -1.59,-0.124 -1.681,0.299c-0.075,0.348 0.602,0.5 0.948,1.399c0.193,0.503 0.064,1.311 -0.197,2.467Zm-41.768,6.59c-0.142,0.457 -0.289,0.947 -0.309,1.084c-0.04,0.283 0.062,0.535 -0.571,1.342c-0.625,0.798 -1.168,0.909 -2.914,0.903c-1.746,-0.006 -2.295,-0.306 -4.136,-0.877c-1.294,-0.401 -2.626,-0.7 -3.376,-1.179c-0,0.639 0.025,0.857 0.025,1.132c0.334,0.124 0.761,0.22 1.943,0.684c1.16,0.455 2.378,0.55 2.834,0.971c0.657,0.607 0.874,0.942 1.64,0.975c0.783,0.033 1.503,-0.242 2.125,-0.433c0.637,-0.196 1.214,-0.434 2.085,-0.684c0.871,-0.25 1.549,-0.322 2.306,-0.979c0.201,-0.174 0.629,-0.659 1.059,-1.156c-0.309,-0.508 -0.71,-0.805 -1.033,-1.019c-0.404,-0.268 -1.06,-0.611 -1.583,-0.757c-0.027,-0.007 -0.059,-0.009 -0.095,-0.007Zm-6.493,25.179c-0.626,-0.018 -1.028,0.459 -1.357,1.029c-0.329,0.57 -0.518,1.099 -0.601,1.39c-0.079,0.28 0.107,1.317 0.095,1.677c-0.012,0.348 -0.139,0.728 -0.426,1.015c-0.287,0.287 -0.116,0.626 -0.116,0.862c-0,0.068 -0.046,0.266 -0.102,0.502c0.058,0.026 0.112,0.04 0.164,0.04c0.174,0 0.284,-0.107 0.385,-0.178l0.31,0.04c0.13,0.149 0.247,0.421 0.523,0.458c0.425,0.058 0.551,0.479 0.764,0.466c0.085,-0.005 0.151,-0.033 0.215,-0.062c-0.093,-0.459 -0.19,-0.967 -0.207,-1.171c-0.034,-0.405 0.006,-1.153 0.142,-1.652c0.136,-0.502 0.347,-1.069 0.636,-1.63c0.28,-0.542 0.873,-0.973 0.731,-1.651c-0.141,-0.679 -0.531,-1.118 -1.156,-1.135Zm30.907,-12.401c-0.608,-0.083 -0.644,1.841 -0.814,2.136c-0.165,0.286 -1.664,0.543 -1.558,1.015c0.106,0.472 1.127,0.889 2.443,0.661c1.327,-0.231 1.867,-0.222 1.959,-0.543c0.156,-0.55 -1.077,-1.239 -1.287,-1.641c-0.214,-0.41 -0.37,-1.577 -0.743,-1.628Zm-10.184,25.761l3.068,-0c0,-0 -1.138,-0.968 -2.065,-0.968c-0.903,-0 -1.003,0.968 -1.003,0.968Zm-20.447,-43.516c0,0.077 0.165,0.214 0.317,0.382l0.004,0.002c-0.152,-0.17 -0.321,-0.306 -0.321,-0.384Zm16.771,5.132c-0.537,0.342 -0.072,0.706 0.298,1.127c0.363,0.413 1.065,0.846 2.145,1.69c1.08,0.844 1.603,1.512 2.124,1.652c0.558,0.149 0.812,-0.154 0.985,-0.054c0.179,0.103 0.415,0.313 0.744,0.313c0.355,0 0.643,-0.574 0.754,-0.766c0.114,-0.198 -0.02,-0.676 0.119,-0.815c0.143,-0.143 1.003,-0.087 1.228,-0.408c0.223,-0.317 -0.094,-0.832 -0.578,-1.472c-0.417,-0.552 -1.005,-1.086 -1.287,-1.086c-0.482,-0 -0.468,0.862 -0.925,0.862c-0.214,-0 -0.552,-0.483 -1.241,-0.836c-0.703,-0.36 -1.238,-0.599 -1.954,-0.599c-1.372,0 -1.875,0.049 -2.412,0.392Zm8.747,25.258c-0.497,0.046 -0.872,0.58 -1.469,1.402c-0.596,0.822 -1.141,1.575 -0.868,1.903c0.359,0.429 1.632,-0.395 1.853,-0.334c0.312,0.085 -0.212,1.269 1.101,1.418c0.881,0.101 1.423,-0.271 2.153,-1.068c0.77,-0.841 1.21,-1.418 1.235,-1.986c0.033,-0.751 0.001,-0.74 -0.601,-0.901c-0.524,-0.14 -0.984,0.3 -1.819,0.3c-0.843,0 -0.833,-0.803 -1.585,-0.734Zm-6.475,-78.352c-0,0.553 -0.464,0.968 -1.118,0.968c-0.654,-0 -1.018,-0.516 -1.018,-1.068c-0,-0.553 0.464,-0.901 1.118,-0.901c0.654,-0 1.018,0.448 1.018,1.001Zm-59.767,-29.446l-0.254,0.224l-0.419,0.386l-0.196,0.305l-0.179,-0.011l0.201,-0.142l-0.066,-0.309l-0.233,-0.284l-0.695,0.022l-0.152,-0.134l-0.452,0.021l-0.505,-0.12l-0.342,0.099l-0.211,0.134l-0.328,0.033l-0.189,-0.167l-0.549,-0.011l-0.277,-0.175l-0.473,0.022l-0.385,0.353l-0.397,0.44l-0.207,0.353l-0.255,0.175l-0.211,0.352l-0.294,0.342l-0.066,0.342l-0.102,-0.123l-0.142,-0.484l-0.265,-0.262l-0.44,-0l-0.273,0.24l-0.586,0.098l-0.68,0.32l-0.63,0.255l-0.385,0.295l-0.208,0.058l-0.102,0.349l-0.251,0.488l-0.156,0.24l-0.24,0.484l-0.087,0.243l-0.266,-0.163l0.211,-0.059l0.218,-0.272l0.109,-0.441l-0.338,-0.553l-0.487,-0.207l-0.273,-0.2l-0.019,0.021l-0.037,-3.905l12.632,0.013c-0.003,0.007 -0.006,0.014 -0.009,0.022l-0.071,-0l0.044,0.073c-0.158,0.336 -0.022,1.124 -0.022,1.124l-0.011,0.096Zm0.06,-1.293l5.63,-0l-0.218,0.153l-0.044,0.691l-0.473,0.076l-0.124,0.19l-0.505,0.043l-0.902,-0.022l-0.452,0.23l-0.32,-0.044l-0.153,0.167l-0.374,-0.043l-0.222,-0.266l0.309,-0.473l0.44,-0.44l-0.109,-0.167l-0.651,0.716l-0.397,0.32c0,0 -0.152,0.142 -0.207,0.142c-0.055,0 -0.902,-0.011 -0.902,-0.011l-0.309,-0.032l-0.077,0.065l0,-0.002l0.073,-0.063l-0.062,-0.033c0,-0 -0.096,-0.846 0.049,-1.197Zm101.193,29.002l-0.091,7.214l-0.163,-0.065l-0.019,-0.779l-0.247,0l-0.305,-0.254l-0,-0.47l-0.062,-0.527l-0.2,-0.779l-0.506,-0.382l-0.539,-0.225l0.124,0.051c0.246,-0.189 0.456,-0.366 0.524,-0.477c0.204,-0.334 0.066,-0.717 -0.167,-1.135c-0.201,-0.359 -0.159,-0.552 -0,-0.728c0.158,-0.175 0.362,-0.093 0.633,0.026c0.284,0.125 0.539,0.217 0.695,0.218c0.022,0 0.219,0.008 0.302,0.011l0.021,-1.699Zm-17.717,-16.564l0.255,0.102l-0.007,0.364l-0.157,0.236l-0.164,0.015l-0.061,-0.437l0.134,-0.28Zm0.637,0.211l0.087,0.561l0,0.669l-0.142,0.32l-0.233,-0.28l0,-0.498l0.095,-0.142l0.022,-0.459l0.171,-0.171Zm-1.332,1.121l0.259,0.149l-0,0.458l-0.233,0.077l-0.04,0.258l-0.149,-0.025l-0.226,-0.226l0.095,-0.218l0.273,-0.215l0.021,-0.258Zm-3.827,2.928l0.171,0.135l0.055,0.156l0.011,0.415l0.054,0.131l0.178,0.222l0.248,0.149l0.014,0.229l-0.185,-0.054l-0.342,-0.335l-0.28,-0.324l-0.259,-0.316l-0.109,-0.218l0.208,-0.171l0.236,-0.019Zm-0.524,0.564l0.179,0.328l0.076,0.203l0.16,0.277l0.127,0.127l-0.08,0.109l-0.156,-0.098l-0.146,-0.287l-0.225,-0.229l-0.149,-0.19l0.072,-0.163l0.142,-0.077Zm-2.863,1.226l0.262,0.31l0.026,0.287l0.16,0.146l-0.084,0.145l-0.015,0.317l0.095,0.283l-0.287,0.335l-0.179,-0.335l-0.014,-0.891c-0,-0 0.036,-0.575 0.036,-0.597Zm19.314,5.163l0.273,0.109l0,0.269l-0.127,0.156l-0.022,0.328l0.138,0.142l-0.098,0.316l-0.305,0.182l-0.193,-0.189l-0.008,-0.546l0.037,-0.513l0.305,-0.254Zm-1.6,0.276l0.011,0.204l-0.182,0.156l-0.226,0.109l-0.113,0.346l-0.109,0.342l0.044,0.364l0.2,0.109l0.145,0.193l0.048,0.364c-0,-0 0.218,0.247 0.24,0.258c0.022,0.011 0.244,0.153 0.244,0.153l0.16,-0.153l0.356,0.007l-0.105,0.229l-0.28,0.266l-0.353,-0.127l-0.324,-0.353l-0.12,-0.335l-0.222,-0.193l-0.229,-0.28l-0.168,-0.331l0.139,-0.178l0.011,-0.28l0.174,-0.259l0.04,-0.163l0.073,-0.255l0.16,-0.175l0.386,-0.018Zm-17.958,14.188c-0.117,0.077 -0.202,0.165 -0.28,0.183l-0.054,0.036l-0.049,-0.062c-0.027,-0.02 -0.054,-0.054 -0.082,-0.102l-0.36,-0.142l-0.266,0.164l-0.193,-0.255l0.211,-0.273l0.328,0.044l0.214,-0.124l0.211,0.062l0.299,0.182l0.021,0.287Zm25.947,-12.052l-0.233,-0l-0.378,-0.055l-0.335,-0.32l-0.095,-0.171l0.069,-0.327l0.171,-0.248l-0.007,-0.211l-0.258,-0.109l-0.146,-0.116l0.171,-0.226l0.288,-0.225c-0,-0 0.468,0.014 0.538,0.014l0.211,0l0.004,1.994Z" style="fill:#4e4e4e;"/></g></svg>