<?xml version="1.0" encoding="UTF-8" standalone="no"?><!DOCTYPE svg PUBLIC "-//W3C//DTD SVG 1.1//EN" "http://www.w3.org/Graphics/SVG/1.1/DTD/svg11.dtd"><svg width="100%" height="100%" viewBox="0 0 121 121" version="1.1" xmlns="http://www.w3.org/2000/svg" xmlns:xlink="http://www.w3.org/1999/xlink" xml:space="preserve" xmlns:serif="http://www.serif.com/" style="fill-rule:evenodd;clip-rule:evenodd;stroke-linecap:round;stroke-linejoin:round;"><rect id="europa" x="0.044" y="0.167" width="120.172" height="120.172" style="fill:none;"/><clipPath id="_clip1"><rect x="0.044" y="0.167" width="120.172" height="120.172"/></clipPath><g clip-path="url(#_clip1)"><path id="AL" d="M51.642,48.148l-0.066,-0.166l-0.996,-0.199l-0.381,-0.481l-0.067,-0.515l-0.414,0.199l0.099,0.183l0,0.382l-0.415,0.647l-0.182,-0.034l-0.216,0.133l-0.216,0.033l-0.099,-0.166l-0.183,0.034l-0.133,0.166l-0.564,0.215l0.166,0.116l-0.282,0.166l-0.099,0.15l-0.448,0.249l-0.714,0.647l-0.382,0.182l-0.265,0.199l-0.232,0l-0.299,0.15l-0.763,0.149l-0.515,-0.066l-0.348,0.066l-0.183,-0.116l0,-0.183l-0.199,-0.016l-0.133,0.199l-0.265,-0.066l0.116,-0.399l-0.514,-0.016l-0.631,-0.266l-0.149,-0.133l-0.515,-0.215l-0.232,-0.233l-0.133,-0.265l0.05,-0.597l0.1,-0.083l0.448,0.132l0.464,0.216l-0.016,-0.199l-0.398,-0.265l0.132,-0.299l-0.033,-0.266l0.432,-0.348l-0.067,-0.116l-0.564,0.332l-0.514,0.149l-0.183,0.199l-0.182,0.1l-0.349,-0l-0.083,-0.15l0.083,-0.547l0.199,-0.448l0.299,-0.166l0.564,0.116l0.166,-0.166l0.216,-0.033l0.398,-0.199l-0.68,0.083l-0.199,-0.166l0.464,-0.399l0.199,-0.232l0.05,-0.249l0.365,-0.282l0.299,-0.133l0.265,0.1l0.249,-0.315l-0.83,0.182l-0.331,0.183l-0.448,0.464l-0.034,0.183l-0.331,0.149l-0.249,0.249l-0.1,0.199l-0.465,0.316l-0.232,0.049l0,-0.398l0.183,-0.332l-0.05,-0.265l0.531,0.033l0.299,-0.199l-0.448,-0l-0.233,-0.116l-0.199,-0.249l-0.099,-0.316l0.182,-0.298l-0.365,-0.332l-0.083,-0.365l-0.016,-0.415l0.149,-0.083l0.348,0.066l0.399,-0.033l0.862,-0.149l0.565,0.1l0.232,-0.017l0.332,-0.116l0.315,-0.017l0.365,0.199l0.116,-0.083l0.896,-0.199l-0.498,-0.249l0.017,0.233l-0.597,0.049l-0.531,-0.099l-0.216,-0.1l-0.083,0.216l-0.183,0.05l-0.564,-0.083l-0.78,0.05l-0.348,0.116l-0.232,-0.017l-0.415,-0.199l-0.149,-0.149l-0.05,-0.432l0.464,-0.05l-0.315,-0.381l-0.315,-0.216l-0.033,-0.232l0.116,-0.216l0.249,0.033l0.63,-0.016l0.996,0.249l0.813,-0.05l-0.133,-0.1l-0.481,0l-1.195,-0.215l-0.365,0.016l-0.199,-0.05l-0.116,-0.166l0.066,-0.315l0.183,-0.066l0.199,0.099l0.315,-0.381l0.315,-0.166l0.332,-0.083l0.332,0.166l0.216,-0.017l0.664,-0.133l-0.216,-0.083l-0.581,0.083l-0.033,-0.083l0.398,-0.381l0.697,-0.067l0.979,0.083l0.382,0.133l0.066,-0.299l0.88,-0.232l-1.129,0.133l-0.298,-0.083l-0.814,0.116l-0.016,-0.216l0.382,-0.381l0.68,-0.15l0.315,-0.182l0.514,-0.033l0.432,0.049l0.199,0.216l0.73,0.282l-0.846,-0.663l0.182,-0.283l0.548,-0.066l-0,-0.265l-0.365,-0.05l-0,-0.199l0.315,-0.15l0.465,-0.116l0.531,0.133l-0.1,0.216l0.15,0.083l0.282,-0.249l0.647,-0.133l0.464,0.348l0.083,0.183l0.183,-0.083l0.448,-0.083l0.448,0.05l0.299,-0.033l-0.166,-0.216l0.066,-0.166l0.398,-0.166l0.282,-0.05l0.432,-0.199l-0.133,-0.166l-0.232,-0.05l0.481,-0.248l-0.282,-0.1l-0.398,0.149l-0.266,0.15l0.249,0.166l-0.183,0.182l-1.012,0.465l-0.498,0.132l-0.232,-0.016l-0.315,-0.415l-0.349,-0.017l0.216,-0.365l0.266,-0.132l0.232,-0.382l0.382,-0.216l0.531,-0.547l0.464,-0.183l0.15,-0.182l0.497,-0.249l0.498,-0.15l0.05,-0.165l-0.448,0.149l0.066,-0.349l0.233,-0.166l1.128,-0.464l0.265,0.216l0.349,-0.034l0.381,-0.265l-0.049,-0.116l-0.349,0.166l-0.249,-0l-0.066,-0.1l-0.348,-0.083l-0.05,-0.199l0.215,-0.465l0.565,-0.547l0.083,-0.216l0.215,-0.116l0.282,0.033l-0.033,-0.182l-0.348,-0.183l1.028,-0.182l0.498,-0l0.399,-0.15l0.082,-0.166l-1.061,0.183l-0.399,0.016l-0.132,-0.448l0.033,-0.248l0.315,-0.365l0.232,-0.034l0.282,-0.182l0.017,-0.249l0.382,-0.133l0.348,-0.348l0.382,-0.083l0.232,0.033l0.498,-0.116l1.095,-0.017l0.017,-0.099l-1.046,-0.05l-0.581,0.033l-0.066,-0.1l0.465,-0.448l0.332,-0.165l0.282,0.033l0.298,0.166l0.1,-0.133l-0.266,-0.249l0.117,-0.249l-0.432,0.183l-0.299,0.049l-0.149,-0.331l0.382,-0.332l0.381,-0l0.05,-0.249l0.548,-0.216l0.315,-0.033l0.249,-0.1l0.099,0.067l0.15,0.381l0.249,0.05l0.166,-0.133l-0.216,-0.182l-0.183,-0.299l0.332,-0.249l0.382,-0.033l0.431,0.116l0.382,-0.033l0.149,-0.199l-1.045,-0.017l-0.133,-0.149l0.199,-0.199l0.365,-0.133l0.415,-0.016l0.398,-0.233l0.15,-0.182l0.05,-0.266l0.232,-0.215l0.647,-0.133l-0.1,-0.365l0.133,-0.233l0.166,-0.099l0.349,0.249l0.298,0.083l-0.083,-0.233l0.05,-0.199l0.348,0l0.166,-0.083l0.05,-0.215l0.232,-0.199l0.78,-0.117l0.083,0.415l0.116,0.233l0.133,-0.465l0.266,-0.349l0.398,-0.149l0.149,0.183l-0.066,0.713l-0.315,0.398l0.249,-0.033l0.414,-0.381l0.1,-0.2l-0.116,-0.464l0.099,-0.133l0.581,-0.017l0.315,0.067l0.116,-0.249l0.283,-0.017l0.298,0.15l0.681,0.232l-0.216,-0.365l-0.166,-0.133l-0.349,-0.083l-0.365,-0.166l0.2,-0.166l0.398,0.05l0.332,-0.133l0.365,-0.033l0.182,0.1l0.133,-0.166l0.415,-0.083l0.464,0.149l0.266,0.448l0.398,0.233l-0.016,-0.233l0.099,-0.315l0.382,-0.332l0.348,-0.166l0.232,-0.016l0.482,-0.565l-0.266,-0.165l0.548,-0.382l0.182,-0.017l0.896,0.349l0.249,-0.15l0.564,0.133l-0.132,0.166l-0.515,0.481l-0.083,0.133l-0.016,0.365l-0.199,0.232l0.132,0.233l0.266,-0.067l0.298,-0.215l0.017,-0.216l0.714,-0.614l0.315,-0.349l0.381,-0.282l0.249,-0.049l0.15,0.182l-0.033,0.249l0.033,0.714l0.614,-0.233l0.182,-0.498l0.183,-0.116l-0.133,-0.232l0.066,-0.183l0.382,-0.215l0.365,0.066l0.548,0.05l0.448,0.133l0.033,0.232l-0.133,0.149l-0.481,0.183l0.116,0.116l0.332,-0.1l0.149,0.913l0.15,-0.348l0.165,-0.117l0.017,-0.248l0.133,-0.316l0.298,-0.215l0.449,-0l0.547,0.282l0.415,0.049l0.299,0.133l0.398,-0.116l0.332,0.166l0.016,0.166l0.631,0.05l0.63,0.265l0.1,0.266l-0.73,0.166l-0.299,0.165l-0.547,0.067l-1.909,-0.116l0.067,0.116l1.377,0.249l0.1,0.083l0.066,0.348l0.299,0.116l0.58,-0.033l0,-0.216l0.531,0.1l0.631,0.033l0.182,0.282l-0.049,0.249l-0.399,0.017l-0.697,-0.233l-0.066,0.382l-0.182,0.149l-0.963,0.216l-0.182,0.432l-0.365,0.165l-0.614,0.216l0.265,0.133l0.133,0.199l-0.332,0.531l0.017,0.1l0.514,0.663l1.195,0.282l0.381,0.299l0.598,0.382l0.298,0.149l0.017,0.315l-0.498,0.498l-0.431,0.515l-0.199,0.282l0.066,0.282l0.431,0.348l0.382,0.365l0.498,0.581l0.498,0.415l0.497,0.697l0.067,0.232l-0.614,0.116l0.199,0.149l-0.1,0.216l0.05,0.315l-0.083,0.249l0.315,0.05l0.05,0.216l-0.282,0.166l0,0.149l0.232,0.282l0.166,0.1l0.531,0.099l0.15,0.266l-0.166,0.282l0.298,0.365l0.747,0.299l0.116,0.215l0.034,0.282l-0.399,0.498l-0.332,0.133l0.117,0.133l0.746,0.431l1.095,0.481l0.432,0.216l0.348,0.315l0.365,0.266l0.083,0.166l-0.265,0.746l-0.116,0.199l-0.365,0.366l-0.565,0.464l-0.381,0.382l-0.88,0.979l-0.315,0.249l-0.348,0.365l-0.813,0.547l-0.117,0.133l-0.414,0.249l-0.93,0.863l-0.58,0.166l-0.432,-0.183l-0.298,0.033l-0.2,0.133l-0.414,0.033l-0.332,0.1l-0.166,-0.116l-0.116,0.099l-0.316,0.033l-0.331,-0.165l0.049,0.248l-0.547,0.249l-0.133,-0.149l-0.332,0.166l-0.348,0.033l-0.183,0.133l-0.979,0.182l-0.249,0.216l-0.199,-0.05l-1.112,0.183l-0.481,-0.033l-0.448,0.331l-0.299,0.067l0.249,-0.498l-0.398,-0.182l-0.199,-0.266l-0.116,0.066l-0.05,0.249l-0.249,0.133l-0.332,-0.017l-0.066,-0.398l0.133,-0.381l-0.598,-0.1l-0.63,-0.232l-0.15,-0.017l-0.116,-0.216l-0.332,0.15l-0.348,-0.15l-0.282,-0.879l-0,-0.216l0.149,-0.265l-0.016,-0.564l-0.1,-0.332l0.183,-0.1l-0.15,-0.265l-0.365,-0.498l-0.265,-0.183l0.083,-0.547l-0.1,-0.266l-0.315,-0.182l-0.183,-0.481l0.1,-0.399l0.398,-0.365l0,-0.199l0.15,-0.182l-0.083,-0.216l0.448,-0.083l0.165,0.066l0.399,-0.066l0.315,-0.166l-0.183,-0.299l0.249,-0.116l0.199,-0.199l-0.016,-0.166l0.382,-0.083l0.398,-0.315l0.381,-0.183l0.382,-0.315l0.183,-0.016l0.049,-0.216l0.415,-0.315l0.133,-0.266l0.382,-0.299l0.365,-0.647l0.63,-0.199l0.631,0.05l-0.1,-0.282l0.166,-0.05l-0.099,-0.216l-0.166,-0.099l-0,-0.763l-0.216,-0.15l-0.747,-0.265l-0.282,-0.017l-0.199,-0.199l-0.763,-0.116l-0.448,0.05l-0.365,-0.1l-0.166,0.05l-0.631,0.05l-0.182,0.116l-0.349,-0.116l-0.332,-0.199l-0.332,0.182l-0.265,-0.166l-0.166,0.315l0.017,0.299l-0.299,-0.033l0.05,0.182l-0.332,0.249l-0.531,0.034l0.116,0.248l-0.149,0.117l0.166,0.282l-0.216,0.249l-0.349,0.315l-0.082,0.166l0.282,0.182l0.265,0.415l0.266,0.183l-0.067,0.199l-0.348,0.182l-0.365,0.282l-0.332,0.714l-0.515,0.216l-0.398,0.265l-0.498,0.116l-0.398,0.365l-0.298,-0.133l-0.249,0.083l-0.166,0.299l-0.316,0.249l-0.398,-0.033l0.033,0.133l-0.381,0.049l-0.166,0.664l-0.365,0.1l-0.116,0.132l-0.15,-0.099l-0.348,0.016l0.265,0.465l-0.282,0.299l-0.199,-0l-0.249,0.116l-0.315,-0.133l-0.033,0.199l0.132,0.216l0.216,0.166l-0.016,0.216l-0.15,0.713l0.116,0.299l-0.348,0.199l-0.133,0.182l0.1,0.282l-0.017,0.183l0.116,0.315l0.133,0.697l0.183,0.332l-0.017,0.266l0.216,0.149l0.348,-0.017l0.232,0.266l0.515,-0.133l0.133,0.183l0.481,0.365l0.282,0.049l0.315,0.2l0,0.248l0.481,0.166l0.316,0.332l0.132,0.266l-0.016,0.166l-0.432,0.249l-0.215,0.215l-0.631,0.349l-0.099,-0.017l-0.349,0.166l0.332,0.1l0.232,-0.117l0.432,-0.099l0.232,0.199l-0.365,0.083l-0.05,0.265l-0.133,0.166l-0.331,0.117l-0.465,0.248l-0.664,0.233l-0.182,0.199l-0.432,0.166l-0.215,0.133l-0.631,-0l-0.614,-0.017l0.166,0.149l0.149,-0.033l0.598,0.066l0.282,0.216l-0.498,0.149l0.282,0.531l-0.116,0.133l0.066,0.581l-0.182,0.017l-0.05,0.232l0.1,0.415l0.165,0.348l-0.016,0.166l-0.249,0.398l0.149,0.482l-0.249,0.879l-0.315,0.514l-0.216,0.681l-0.298,0.232l-0.398,-0.149l-0.565,0.083l-0.531,-0.05l-0.497,0.033l-0.133,0.066l0.116,0.233l-0.382,-0.034l-0.282,0.183l-0.332,0.348l0,0.249l0.316,0.498l-0.282,0.332l-0.183,0l-0.531,-0.083l-0.913,0.199l-0.846,-0.166l0.083,-0.166l0.033,-0.514l-0.099,-0.282l-0.216,-0.183l-0.514,-0.63l-0.199,-0.382l0.398,0.149l0.166,-0.082l-0.299,-0.432l0.365,-0.017l0.116,-0.165l-0.099,-0.249l-0.316,-0.1l-0.315,-0.398l-0.298,-0.199l-0.581,-0.78l-0.216,-0.531l-0.182,0.05l-0.2,-0.614l-0.282,-0.1l-0.099,-0.614l-0.299,-0.066l-0.216,-0.282l-0.066,-0.531l-0.199,-0.1l-0.133,-0.232l-0.133,-0.498l-0.049,-0.448l-0.15,-0.299l0.083,-0.199l0.183,-0.033l0.182,0.133Zm-33.153,12.063l0.116,0.183l-0.365,0.066l0.249,0.863l0.1,0.149l-0,0.68l0.149,0.531l0.017,0.415l-0.216,0.299l-0.149,0.348l-0.033,0.299l-0.266,0.349l-0.249,0.149l0.266,0.249l-0.465,0.133l-0.431,-0.05l-0.216,0.132l-0.647,0.034l-0.614,0.116l-0.282,0.298l-0.415,0.117l-0.166,0.166l-0.382,0.132l-0.282,-0.199l-0.166,0.033l0.034,0.349l-0.482,0.216l-0.298,0.049l-0.166,0.116l-0.963,0.233l-0.315,-0.083l-0.548,0.133l-0.199,-0.017l0.266,-0.299l0.265,-0.215l-0.63,0.099l-0.232,0.083l-0.1,-0.099l0.531,-0.316l-0.548,0.017l-0.497,-0.066l-0.067,-0.166l0.481,-0.382l0.399,-0.149l-0.017,-0.15l-0.846,0.017l0.083,-0.183l0.282,-0.166l0.299,-0.016l0.248,0.099l0.183,-0.132l-0.1,-0.282l0.648,-0.382l0.497,-0.05l0.548,-0.116l0.547,-0.133l-0.398,-0.199l-0.381,0.299l-0.432,0.05l-0.315,-0.083l-0.349,-0l0.448,-0.332l0.266,-0.282l-0.133,-0.117l0.332,-0.381l0.597,-0.166l-0.265,-0.216l-0.647,0.033l-0.233,-0.215l-0.431,0.016l0.066,-0.199l-0.58,-0.033l0.083,-0.166l-0.1,-0.182l0.465,-0.1l-0.034,-0.332l0.316,-0.133l0.332,-0.066l0.016,-0.183l-0.332,-0.033l-0.332,0.067l0.133,-0.349l-0.133,-0.166l-0.066,-0.282l-0.149,-0.166l0.464,-0.033l0.2,-0.083l0.779,0.017l0.316,0.215l0.282,-0.199l0.796,0.15l0.1,-0.432l0.63,-0.249l0.199,-0.332l-0.614,0.067l-0.597,-0.166l0.116,-0.133l0.349,-0.116l0.315,-0.266l-0.05,-0.182l0.282,-0.448l0.515,-0.133l0.398,0l0.265,-0.149l0.2,0.332l-0.166,0.166l0.099,0.149l0.199,-0.133l-0.083,-0.348l0.15,-0.216l0.315,-0.05l0.099,-0.132l0.531,0.282l-0.414,0.249l-0.083,0.116l0.215,0.099l0.316,-0.332l0.464,-0.016l0.448,-0.116l0.647,0.049l0.183,0.183l0.083,0.282l0.216,0.282l0.282,0.232l-0,0.15l-0.332,0.182l0.581,0.05l0.199,0.415l-0.349,0.05l-0.016,0.232l0.182,0.033l-0.099,0.232l-0.432,0.1l-0.232,0.365l-0.166,0.083l-0.382,-0.083Zm-3.368,43.043l-0.697,0.116l-0.747,0.415l-0.215,-0l-0.415,-0.183l-0.747,-0.066l-0.249,-0.05l-0.298,0.116l-0.249,0l-0.183,0.166l-0.133,-0.05l0.166,-0.348l0.266,-0.681l-0,-0.431l0.066,-0.365l-0.05,-0.349l-0.116,-0.232l0.183,-0.581l-0,-0.298l-0.15,-0.382l0.465,0.05l-0.282,-0.232l-0.249,-0l-0.382,0.149l-0.249,0.017l0.017,-0.233l-0.083,-0.298l0.332,-0.1l0.265,-0.282l-0.049,-0.266l-0.199,0.183l-0.1,0.232l-0.465,0.116l-0.248,-0.083l-0,-0.315l0.099,-0.282l0.066,-0.382l0.133,-0.365l-0.033,-0.232l0.265,-0.216l0.233,-0.315l0.713,-1.477l-0.099,-0.166l0.282,-1.095l0.199,-0.381l0.099,-0.714l-0.033,-0.332l-0.116,-0.332l-0.116,-0.713l0,-0.232l-0.149,-0.299l0.016,-0.166l0.233,-0.282l-0.216,-0.017l-0,-0.415l0.431,-0.431l-0.265,-0.033l0.199,-0.315l-0.166,-0.166l0.017,-0.432l-0.382,0.15l-0.083,-0.2l0.232,-0.365l-0.232,-0.033l-0.382,-0.415l0.133,-0.514l0.332,-0.166l0.315,-0.249l0.432,0.05l0.282,-0.05l0.597,-0.265l-0.066,-0.249l0.066,-0.116l0.531,-0.282l0.332,-0.034l0.315,-0.149l0.216,0.083l0.182,-0.017l0.216,0.1l0.282,0.265l0.415,0.1l0.332,-0.083l0.597,-0.017l0.282,0.034l0.531,-0.05l0.299,0.016l0.481,-0.132l0.382,0.166l0.73,0.066l0.431,0.133l1.195,0.232l0.448,0l0.614,-0.133l0.265,-0.083l0.249,0.05l0.349,-0.099l0.381,0.165l0.78,0.216l0.349,-0.216l0.564,0.1l0.548,0.216l0.298,0.016l0.432,-0.049l0.414,-0.166l0.332,-0.083l0.316,-0.316l0.282,-1.178l0.215,-1.377l0.166,-0.265l0.199,-0.067l-0.166,-0.199l-0.182,0.249l0.116,-1.261l0.083,-0.465l0.149,-0.497l0.515,0.398l0.133,0.166l0.149,0.564l0.099,0.016l-0.182,-0.763l-0.299,-0.381l-0.597,-0.382l-0.083,-0.216l0.299,-0.099l-0.083,-0.299l-0.083,-0.979l-0.498,-0.1l-0.797,-0.431l-0.282,-0.431l-0.265,-0.316l-0.067,-0.282l0.15,-0.298l-0.133,-0.183l-0.232,-0.133l0.182,-0.265l-0.498,-0.033l-0.298,-0.083l-0.05,-0.183l0.216,-0.232l-0.266,-0.133l-0.431,0.033l-0.033,-0.282l-0.365,0.05l-0.2,-0.05l-0.182,-0.182l-0.216,0.033l-0.365,-0.067l-0.133,-0.116l-0.796,-0.215l-0.332,-0.017l-0.315,0.1l-0.183,-0.05l-0.215,-0.365l-0.515,-0.183l0.1,-0.116l0.514,-0.1l0.1,-0.116l-0.365,-0.149l-0.033,-0.199l0.265,0.05l0.017,-0.199l-0.664,0.016l-0.067,-0.216l0.083,-0.232l0.382,-0.199l0.963,-0.232l0.414,0.033l0.282,-0.033l0.498,-0.266l0.481,-0.066l0.448,0.133l0.415,0.464l0.199,0.166l0.515,-0.282l0.73,0.017l0.149,0.149l0.199,-0.282l0.166,0.166l0.78,-0.033l-0.249,-0.415l-0.033,-0.996l-0.216,-0.282l-0.348,-0.713l0.033,-0.233l0.531,0.05l0.448,-0.099l0.216,0.066l0.05,0.464l0.182,0.266l0.365,-0l0.382,0.083l0.498,0.017l0.713,0.132l0.299,-0.083l0.58,-0.332l-0.298,-0.116l-0.033,-0.116l0.149,-0.365l0.863,-0.415l0.614,-0.116l0.63,-0.216l0.332,-0.232l0.199,-0.299l0.083,-0.215l0.05,-1.129l0.166,-0.365l0.481,-0.265l1.062,-0.183l0.149,-0.083l0.847,-0.414l0.78,-0.283l0.464,-0.066l0.581,0.116l0.249,-0.099l0.199,0.083l0.232,-0.067l-0.431,-0.132l-0.365,0.082l-0.465,-0.116l-0.282,-0.215l0.199,-0.117l0.382,-0.016l0.664,0.116l0.199,-0.149l-0.1,-0.166l-0.382,-0.349l0.266,-0.448l0.232,-0.166l0.531,-0.63l0.15,-0.332l0.199,-0.913l0.166,-0.332l0.232,0.083l0.332,-0.132l0.564,-0.332l0.166,-0.282l0.166,-0.15l0.664,-0.265l0.348,-0.066l1.477,-0.083l0.298,0.282l0.448,0.099l-0.282,-0.232l0.083,-0.448l0.183,-0.232l0.149,-0.067l0.664,-0.05l0.747,0.017l0.315,0.365l-0.1,0.199l0.266,0.05l0.149,-0.398l0.232,0.133l0.183,-0.017l-0.083,-0.282l0.033,-0.266l0.15,-0.232l0.547,0.1l0.597,-0.05l0.017,-0.1l-0.465,-0.083l-0.149,-0.182l-0.033,-0.647l-0.249,-0.133l-0.265,0.05l-0,-0.249l0.564,-0.183l-0,-0.166l-0.564,-0.63l-0.034,-0.266l-0.083,-0.348l-0.132,-0.232l0.182,-0.05l-0.149,-0.647l-0.531,-0.216l-0.415,-0.232l0.083,-0.93l-0.166,-0.381l0.017,-1.145l0.215,-0.017l0.515,0.133l0.249,0.149l0.099,-0.315l0.266,-0.265l0.332,-0.133l0.265,0.216l0.05,-0.747l-0.266,-0.083l-0.215,0.066l-0.216,0.316l-0.166,0.398l-0.315,0.033l-0.249,0.116l-0.398,-0.232l0.016,-0.233l0.266,-0.315l0.332,-0.315l0.365,-0l0.265,-0.1l0.647,0.017l0.465,-0.216l0.464,-0.597l0.249,-0.249l0.548,-0.083l0.498,-0.282l-0.133,0.415l0.199,0.282l0,0.498l-0.149,0.166l-0.233,0.414l0.034,0.93l0.414,0.249l0.681,-0l0.166,0.182l-0.116,0.365l-0.432,0.232l-0.149,0l-0.233,-0.182l-0.182,0.149l-0.199,0.846l-0.332,-0.016l-0.199,0.083l0.232,0.199l-0.216,0.133l-0.564,0.514l0.183,0.564l-0.033,0.15l-0.249,0.215l-0.1,0.183l0.382,0.05l0.216,0.481l0.298,0.116l0.266,0.265l0.016,0.233l-0.282,0.265l0.531,-0.05l0.133,0.2l0.282,-0.067l0.747,0.299l0.531,-0.149l0.116,0.232l-0.1,0.249l-0.365,0.265l0.233,0.199l0.348,-0.033l0.597,0.15l0.548,-0.415l0.182,-0.083l0.598,-0.05l0.846,-0.747l0.879,0.15l0.249,0.315l0.614,0.348l0.531,-0.033l0.216,0.332l0.133,0.415l0.315,0.216l0.465,0.083l0.464,0.149l0.116,-0.083l-0.016,-0.299l-0.681,-0.116l-0.564,-0.017l-0.033,-0.282l-0.182,-0.166l-0.017,-0.165l0.78,0.431l0.332,0.066l0.63,-0.232l1.079,-0.299l1.145,-0.282l0.547,-0.083l0.332,-0.365l0.315,-0.282l0.631,-0.116l0.216,-0.133l0.464,-0.199l1.095,-0.199l0.913,-0.066l0.896,0.381l-0.149,0.05l-0.498,-0.199l0.365,0.581l0.183,0.199l0.331,0.149l0.282,0.05l0.814,-0.083l0.365,-0.183l0.083,0.017l1.095,0.066l3.8,0.15l1.161,0.016l-0.216,-0.332l0,-0.348l0.166,-0.514l-0.215,-0.216l-0.233,-0.1l-0.149,-0.215l-0.946,-0.017l-0.398,-0.099l-0.647,-0.233l-0.332,-0.199l-0.299,0.033l-0.099,-0.199l0.033,-0.265l-0.183,-0.399l-0.265,-0.481l-0.116,-0.63l-0.133,-0.465l-0.1,-0.913l0.017,-0.464l0.315,-0.266l0.133,-0.199l0.1,-0.746l0.414,-0.598l0.399,-0.066l0.514,-0.166l0.581,-0.149l0.232,0.315l0.813,0.498l0.199,0.166l0.382,0.564l0.73,0.298l0.514,-0.099l0.598,-0.398l0.166,-0.183l-0,-0.182l-0.2,-0.78l-0.182,-0.332l0.017,-0.216l0.165,-0.564l0.017,-0.597l-0.382,-0.067l-0.149,0.216l-0.216,0.05l-0.68,-0.216l-0.199,-0.348l-0.266,-0.183l-0.132,-0.199l-0,-0.299l-0.249,-0.332l0.116,-0.182l-0.116,-0.465l0.498,-0.199l0.547,-0.033l0.15,-0.216l0.331,-0.215l0.382,0.033l0.514,-0.166l1.046,0.016l0.066,-0.282l0.531,0l1.261,0.199l0.299,0l0.464,0.2l0.233,0.049l0.664,0l1.045,0.083l0.199,-0.166l0.249,0.199l-0.166,0.233l-0.199,0.066l-0.149,0.531l-0.133,0.166l-0.282,-0.05l-0.415,0.033l-0.332,0.083l-0.216,0.183l0.017,0.182l0.431,0.382l0.233,0.465l0.431,0.365l0.133,0.215l0.398,0.482l0.299,0.414l-0.382,0.1l-0.199,0.332l-0.033,0.332l0.315,0.05l0.083,0.182l0.531,0.282l0.116,0.365l-0.133,0.266l-0.049,0.514l0.298,-0.05l0.166,0.1l0.05,0.199l0.282,0.348l0.216,0.133l0.315,0.697l-0.05,0.282l0.299,0.216l0.199,-0.066l0.315,-0.017l0.515,0.365l0.265,-0.149l0.249,-0.05l0.597,0.199l0.034,0.382l0.282,0.249l0.348,-0.216l0.448,-0.183l0.564,0l0.448,0.15l0.399,0.298l0.58,0.233l0.067,0.414l-0.1,0.299l0.349,0.349l0.083,0.215l-0.216,0.332l-0,0.332l0.68,0.332l0.083,0.083l-0.083,0.298l0.232,0.1l0.299,0.398l0.249,0.233l0.813,0.348l0.116,0.133l-0.066,0.464l0.879,0.083l0.531,0.216l0,0.183l0.116,0.182l0.465,0.232l0.1,0.282l-0.432,0.166l-0.05,0.15l-0.497,0.298l-0.581,-0.033l-0.398,-0.249l-0.482,0.017l-0.232,0.448l0.647,0.548l0.1,0.165l-0.033,0.249l0.166,0.249l0.083,0.548l0.265,0.232l0.216,0.299l0.431,0.133l0.282,-0.017l0.299,-0.149l0.083,-0.399l0.265,-0.099l0.614,0.149l0.166,-0.016l0.448,-0.2l0.266,-0.033l0.332,0.05l0.564,-0.033l0.415,0.232l0.232,0.232l0.282,0.448l0.664,0.498l-0.017,0.166l-0.481,0.083l0.216,0.315l0.083,0.332l0.199,0.282l-0.067,0.166l0.515,0.017l0.481,0.166l0.68,-0.083l0.249,0.365l0.315,0.033l0.034,0.149l0.232,0.465l0.149,0.183l-0.033,0.298l0.083,0.166l0.315,0.266l0.116,0.166l0.183,0.066l0.382,-0.232l0.464,0.066l0.448,0.332l0.382,-0l0.282,0.182l0.232,-0.215l0.714,-0.15l0.381,-0.166l0.166,0.017l0.382,0.299l0.083,0.199l0.249,0.265l0.78,0.482l0.215,-0.1l0.15,-0.249l0.431,0.232l0.398,0.034l0.598,0.315l0.232,0.016l0.266,-0.099l0.331,0.299l0.316,0.033l0.73,0.381l0.481,-0.049l0.166,0.132l-0.017,0.282l0.166,0.15l-0.016,0.431l-0.282,0.349l-0.382,0.132l0.182,0.249l0.515,0.15l-0.149,0.149l-0.233,-0.033l-0.133,0.166l-0.049,0.381l0.415,0.116l0.199,0.465l-0,0.183l0.199,0.049l-0.216,0.78l-0.017,0.299l-0.696,0.033l-0.996,-0.05l-0.149,0.034l-0.15,0.315l-0.381,0.232l-0.282,0.033l-0.133,0.133l-0,0.382l-0.067,0.215l0.183,0.117l-0.116,0.265l0.083,0.216l-0.083,0.016l-0.714,-0.033l-0.564,0.05l-0.348,0.398l-0.249,0l-0.531,0.249l-0.233,0.282l-0.232,-0.133l-0.514,0.083l-0.282,0.183l-0.515,-0.017l-0.381,0.1l-0.764,0.63l-0.215,0.017l-0.166,-0.166l-0.266,0.431l-0.398,0.2l0.1,0.514l0.464,0.747l0.598,0.647l0.282,0.232l0.398,0.116l0.514,-0.232l0.398,0.066l0.283,-0.199l0.248,-0.016l0.614,0.166l-0.182,0.414l-0.05,0.432l-0.315,0.099l-0.365,-0.016l-0.365,0.066l-0.448,-0.249l-0.415,0l-0.183,0.316l-0.381,0.215l-0.1,0.233l-0.431,-0.05l-0.349,0.033l-0.464,0.232l-0.316,0.465l-0.381,0.299l-0.315,0.082l-0.332,-0.016l-0.216,-0.1l-0.481,-0.298l0.116,-0.332l0.083,-0.581l-0.199,-0.481l-0.382,-0.232l-0.265,0.033l-0.15,-0.05l-0.614,-0.398l-0.315,-0.033l-0.315,0.082l-0.249,-0.199l0.581,-0.481l0.58,-0.398l0.283,-0.033l0.348,-0.199l0.365,-0.266l-0.216,-0.381l-0.315,0.099l-0.365,-0.182l-0.149,-0.133l-0.515,0.133l-0.298,-0.017l-0.631,0.133l-0.315,-0.133l-0.664,-0.332l-0.431,-0.05l-0,-0.166l0.298,-0.049l0.017,-0.166l-0.631,-0.1l-0.016,-0.216l0.332,0.083l0.531,0.034l0.481,0.083l0.348,-0.299l-0.398,0.083l-0.481,-0.083l-0.349,-0.299l-0.365,0.199l-0.531,-0.083l-0.398,0.133l-0.382,-0.033l-0.68,0.182l-0.066,0.482l-0.332,0.663l-0.514,0.614l-0.764,0.349l-0.282,-0.067l-0.149,0.183l0.033,0.216l0.166,0.149l0.182,0.514l-0.016,0.216l-0.033,0.714l-0.116,0.348l-1.029,0.216l0.066,-0.1l-0.116,-0.332l-0.166,-0.166l-0.149,0.183l0.099,0.282l-0.116,0.232l-0.033,0.398l0.1,0.15l-0.266,0.332l-0.083,0.215l0.133,0.797l-0.067,0.614l0.034,0.614l-0.15,0.298l-0.332,-0.099l-0.365,0.083l-0.166,0.332l-0.199,0.199l0,0.431l0.067,0.697l-0.266,0.116l-0.481,0.614l0.498,0.299l0.282,0.365l0.398,0.415l0.083,0.199l-0.017,0.299l0.166,0.331l0.382,0.448l0.332,0.233l1.344,0.547l0.232,0.05l-0.149,0.581l-0.349,0.083l-1.061,-0.249l-0.266,-0.017l-0.481,0.233l-0.382,-0.067l-0.514,0.1l-0.1,0.348l-0.332,0.399l-0.547,0.315l-0.415,0.166l-0.581,0.614l-0.249,0.365l-0.249,0.116l0.083,-0.332l-0.049,-0.282l0.381,-0.332l0.548,-0.265l0.116,-0.216l-0.896,0.05l-0.548,-0l-0.166,-0.299l-0.083,-0.116l-0.348,-0.199l-0.763,-0.1l-0.382,-0.149l-0.149,0.033l-0.332,-0.166l-0.199,0.066l-0.415,0.283l-0.249,-0.034l-0.265,-0.166l-0.365,0.067l-0.283,0.315l-0.298,0.166l-0.299,-0.066l-0.382,-0l-0.033,0.182l0.332,0.349l-0.083,0.165l0.083,0.166l0.349,0.017l0.414,0.216l-0.116,0.116l-0.531,-0.199l-0.199,-0.017l-0.199,0.199l0.581,0.448l0.083,0.233l-0.1,0.149l-0.249,-0.133l-0.415,-0.531l-0.514,-0.099l-0.066,0.099l0.199,0.398l0.481,0.283l-0.1,0.099l-0.497,-0.166l-0.183,-0.265l-0.066,-0.332l-0.913,-0.465l-0.232,-0.464l-0.365,0.215l0.066,0.332l-0.099,0.631l0.066,0.215l0.581,0.614l0.215,0.448l0.432,0.349l0.431,0.531l0.116,0.298l-0.215,0.183l-0.216,-0.083l0.05,-0.315l-0.365,-0.199l-0.316,0.199l0.249,0.381l0.083,0.2l-0.066,0.215l-0.266,0.133l-0.431,0.017l0.398,0.232l0.548,0.166l0.265,0.182l0.249,0.017l0.282,0.348l0.432,0.1l0.282,0.348l0.332,0.083l0.282,0.133l0.166,0.349l0.05,0.481l0.099,0.348l0.017,0.282l-0.183,0.083l-0.216,-0.265l-0.696,-0.598l-0.166,-0.066l-0.166,0.116l-0.482,0.083l-0.315,0.216l0.249,0.216l0.017,0.199l0.132,0.249l0.332,0.066l0.332,0.398l-0.498,0.166l-0.182,0.116l-0.133,-0.083l-0.033,-0.199l-0.714,-0.365l-0.099,0.1l0.116,0.398l0.216,0.265l0.365,0.714l0.215,0.614l-0.033,0.348l0.166,0.249l0.017,0.249l-0.282,-0.199l-0.365,-0.415l-0.133,-0.249l-0.365,0.017l-0.216,0.547l0.033,0.316l-0.265,-0.183l-0.033,-0.481l-0.349,-0.465l-0.149,-0.066l-0.216,-0.315l-0.249,0.099l-0.016,0.482l-0.067,0.165l-0.365,-0.315l-0.381,-0.581l-0.034,-0.298l0.233,-0.282l-0.05,-0.199l-0.266,-0.415l-0.348,-0.249l-0.199,-0.083l-0.116,-0.266l-0.332,-0.215l-0,-0.166l0.332,-0.282l0.166,-0.432l0.315,0.083l0.232,-0.033l0.332,-0.398l0.266,0.016l0.647,0.349l0.697,0.199l0.348,0.166l0.199,0.182l0.266,0.05l-0.083,-0.232l0.132,-0.066l0.349,-0l0.033,-0.266l-0.332,-0.1l-0.132,0.034l-0.399,-0.233l-0.381,-0.132l-0.365,-0.249l-0.2,0.215l-0.199,0l-0.564,-0.149l-0.348,0.116l-0.697,0.116l-0.183,-0.215l-0.431,0.166l-0.166,-0.117l-0.315,-0.696l-0.282,-0.316l-0.2,-0.083l-0.033,-0.315l0.249,-0.033l0.398,0.149l0.15,-0.099l-0.1,-0.266l-0.415,-0.033l-0.298,0.083l-0.465,-0.365l-0.249,-0.282l-0.365,-0.183l-0.282,-0.564l-0.431,-0.431l-0.117,-0.415l-0.282,-0.448l-0.813,-0.432l-0.199,-0.182l0.067,-0.249l-0.017,-0.232l-0.232,-0.399l0.049,-0.431l0.133,-0.365l-0.05,-0.448l0.017,-0.348l-0.116,-0.482l0.083,-0.348l0.149,-0.216l-0.033,-0.365l-0.249,-0.182l-0.265,-0.034l-0.349,-0.199l-0.149,-0.298l-0.515,-0.482l-0.58,-0.331l0.016,-0.166l-0.265,0.016l-0.797,-0.514l-0.73,-0.415l-0.514,-0.116l-0.714,-0.332l-0.083,-0.149l0.963,0.331l-0.183,-0.099l-0.581,-0.465l-0.431,-0.249l-0.514,-0.464l-0.631,-0.183l-0.448,-0.199l-0.547,0.1l-0.299,-0.033l-0.116,-0.365l-0.963,-0.648l-0.713,-0.663l-0.133,-0.216l0.514,-0.199l-0.232,-0.133l-0.647,-0.564l-0.199,-0.266l-0.017,-0.68l-0.132,-0.282l-0.482,-0.365l-0.182,-0.183l-0.349,-0.116l-0.232,0.15l-0.05,0.315l-0.497,0.83l-0.216,-0l-0.515,-0.697l-0.083,-0.316l-0.215,-0.647l0.116,-0.083l0.282,-0.182l0.116,-0.1l-0.332,-0.365l-0.332,0.149l-0.531,-0.149l-0.348,0.332l-0.249,0.066l-0.282,0.183l-0.531,0.199l-0.299,-0.066l-0.166,0.116l-0.066,0.514l0.133,0.1l0.249,0.431l0.282,0.183l-0.116,0.315l-0.15,0.116l-0.215,-0.083l-0.05,0.282l0.149,0.747l0.232,0.531l0.2,0.216l0.448,0.365l0.448,0.182l0.846,0.614l0.464,0.183l0.117,0.116l0.298,0.464l0.266,0.531l0.298,0.847l0.216,0.414l0.382,0.482l0.796,0.68l0.714,0.481l0.663,0.315l0.498,0.05l1.162,-0.066l0.431,0.116l0.067,0.199l-0.067,0.149l-0.481,0.349l-0,0.282l0.249,0.199l1.178,0.531l1.195,0.432l0.365,0.232l0.448,0.348l1.062,0.481l0.182,0.233l0.664,0.498l0.299,0.398l0.083,0.298l-0.249,0.731l-0.266,-0.083l-0.315,-0.216l-0.514,-0.896l-0.83,-0.083l-0.481,-0.216l-0.116,-0.232l-0.382,-0.066l-0.216,0.149l-0.232,0.332l-0.249,0.498l-0.249,0.713l0,0.282l0.183,0.282l0.481,0.166l0.398,0.249l0.266,0.266l0.049,0.63l0.15,0.349l-0.15,0.215l-0.315,-0.05l-0.415,0.117l-0.282,0.232l-0.116,0.232l0.083,0.564l-0.05,0.233l-0.547,0.414l-0.266,0.415l-0.166,0.382l-0.713,-0l-0.183,-0.249l-0.016,-0.365l0.099,-0.216l0.266,-0.116l0.149,-0.464l-0.083,-0.332l0.183,-0.266l0.464,-0.116l0,-0.481l-0.232,-0.216l-0.232,-0.846l-0.399,-0.714l-0.232,-0.63l-0.183,-0.299l-0.232,-0.166l-0.614,-0.05l-0.763,-0.431l-0.05,-0.182l0.1,-0.183l-0.183,-0.465l-0.332,-0.282l-0.431,0.1l-0.199,-0.017l-0.017,-0.249l-0.332,-0.215l-0.448,-0.034l-0.116,-0.116l-0.431,-0.663l-0.282,-0.282l-0.382,0.016l-0.647,-0.149l-0.332,0.116l-0.531,-0.432l-0.465,-0.149l-0.945,-0.879l-0.299,-0.332l-0.581,-0.365l-0.381,-0.531l-0.299,-0.199l-0.664,-0.233l-0.05,-0.215l-0.514,-0.515l-0.282,-0.166l-0.216,-0.348l-0.415,-0.083l0.017,-0.448l-0.199,-0.581l-0.282,-0.365l-0.199,-0.879l-0.133,-0.249l-0.299,-0.183l-0.663,-0.199l-0.946,-0.564l-0.183,-0.017l-0.564,-0.215l-0.348,-0.033l-0.432,0.199l-0.514,0.531l-0.415,0.564l-0.149,0.099l-0.565,0.199l-0.497,0.083l-0.1,0.05l-0.133,0.05l-0.398,0.183l-0.647,0.564l-0.299,0.166l-0.116,0.298l-0.332,0.233l-0.398,0.083l-0.382,0.165l-0.182,-0.066l-0.465,0l-0.282,-0.199l-0.564,-0.133l-0.183,-0.298l-0.414,-0.017l-0.133,-0.249l-0.315,0.05l-0.249,0.116l-0.332,-0.017l-0.979,-0.298l-0.232,-0.233l-0.282,0.083l-0.266,0.266l-1.079,0.68l-0.431,0.714l-0.017,0.199l0.117,0.647l0.265,0.415l0.199,0.365l-0.298,0.083l-0.034,0.232l0.199,0.216l0.017,0.348l-0.498,0.465l-1.443,0.78l-0.482,0.448l-1.095,0.249l-0.746,0.249l-0.365,0.083l-0.681,0.63l0.183,0.05l0.199,0.199l-0.066,0.1l-0.415,0.182l-0.15,0l-0.481,0.763l-0.431,0.548l-0.249,0.249l-0.249,0.348l-0.531,0.929l-0.017,0.266l0.266,0.913l0.365,0.448l0.398,0.182l0.1,0.166l-0.133,0.166l-0.398,0.282l-0.714,0.382l-0.298,0.315l-0.05,0.299l-0.216,0.132l-0.083,0.415l-0.299,0.73l0.216,0.199l-0.216,0.133l-1.078,0.05l-0.68,0.465l-0.332,0.398l-0.316,0.746l-0.365,0.432l-0.166,0.083l-0.248,-0.199l-0.316,-0.017l-0.315,0.05l-0.166,0.166l-0.249,0.083l-0.249,-0.083l-0.763,-0.033l-0.382,0.132l-0.315,-0.083l-0.531,-0.049l-1.161,0.099l-0.664,0.564l-0.564,0l-0.515,0.2l-0.348,0.497l-0.083,0.266l-0.166,-0.05l-0.05,0.199l-0.348,0.133l-0.398,-0.166l-0.332,-0.249l-0.166,-0.017l-0.266,-0.365l-0.199,-0.514l0,-0.182l-0.249,-0.1l-0.05,-0.232l0.034,-0.266l-0.199,-0.332l-0.83,-0.614l-0.614,-0.049Zm35.078,-26.616l-0.365,-0.199l-0.847,-0.382l0.166,0.266l0.133,0.182l0.432,0.216l0.199,0l0.282,-0.083Zm20.874,13.938l0.282,0l-0.282,-0.464l-0.133,0.05l-0.415,-0.034l0.266,0.316l0.282,0.132Zm-29.187,-26.233l0.149,-0.15l-0.083,-0.315l-0.349,-0.05l-0.082,-0.132l0.066,-0.415l-0.465,-0.067l-0.066,-0.414l-0.249,0.049l-0.382,0.249l0.1,0.216l0.265,0.265l0,0.15l-0.348,0.116l0.017,0.431l-0.034,0.266l0.896,0.232l0.565,-0.431Zm-0.565,0.298l-0.497,-0.066l-0.15,-0.116l0.399,-0.282l0.53,-0.249l0.283,0.066l0.083,0.15l-0.183,0.182l-0.465,0.315Zm80.759,28.507l0.216,0.266l0.282,0.199l0.282,0.548l-0.033,0.381l-0.166,0.232l0.133,0.316l0.315,0.498l-0.083,0.099l0.299,0.149l0.481,0.15l0.58,-0.067l0.266,0.117l0.382,0.282l0.531,0.464l0.132,0.15l-0.547,-0.316l-0.233,0.266l-0.016,0.63l-0.1,0.067l-0.464,-0.017l-0.199,0.067l0.199,0.414l0.232,0.199l-0,0.382l0.348,0.415l0.034,0.348l0.149,0.365l0.05,0.365l0.083,0.117l0.232,0.049l-0.1,0.631l-0.099,0.199l-0.066,0.332l0.282,0.099l0.531,0.332l0.016,0.216l0.1,0.249l0.05,0.332l0.531,0.381l-0,0.382l-0.349,-0.083l-0.614,0.515l-0.199,-0.2l-0.05,-0.398l-0.249,-0.249l-0.215,-0.033l-0.349,0.232l-0.697,-0.049l-0.481,-0.183l-0.481,-0.133l-0.315,0.1l-0.365,-0.116l-0.249,0.315l-0.332,0.315l-0.199,0.05l-0.266,-0.431l-0.216,-0.034l-0.199,0.216l-0.365,0.133l-0.763,0.166l-0.531,0.05l-0.68,-0.1l-0.531,0.033l-0.515,0.233l-0.863,0.464l-0.68,0.232l-0.697,0.15l-1.261,-0.033l-0.182,-0.05l-0.581,-0.382l-0.564,-0.099l-0.564,0.265l-0.382,0.133l-0.581,0.265l-0.796,-0.016l-0.316,-0.282l-0.614,-0.116l-0.099,0.265l-0.05,0.631l0.299,0.514l-0.548,0.232l0,0.432l-0.298,0.182l-0.133,0.266l-0.365,-0.199l-0.166,-0.017l0.116,-0.216l-0.415,-0.813l0.116,-0.249l0.581,-0.647l-0.066,-0.398l-0.332,-0.266l-0.481,0.349l-0.282,0.133l-0.05,0.199l-0.183,0.133l-0.298,0.066l-0.482,-0.166l-0.531,-0.232l-0.315,-0.183l-0.232,-0.05l-0.216,0.083l-0.581,0.465l-0.514,0.68l-0.133,0.133l-0.531,0.282l-0.365,0.1l-0.166,-0.017l-0.73,0.133l-0.365,0.016l-0.265,0.15l-0.581,-0.166l-0.365,-0.216l-0.232,-0.216l-0.382,-0.481l-0.266,-0.216l-0.547,-0.199l-0.963,-0.497l-0.879,-0.117l-0.664,-0.049l-0.116,0.182l0.017,0.697l-0.083,0.199l-0.017,0.365l-0.182,0.183l-0.349,-0.166l-0.315,0.149l-0.614,0.216l-0.199,0.016l-0.763,-0.265l-0.482,-0.349l-0.099,-0.331l-0.216,-0.448l-0.299,0.049l-0.381,-0.066l-0.531,-0.265l-0.398,-0.017l-0.2,0.315l-0.165,0.116l-0.216,-0.066l0.133,-0.216l-0.614,0.033l-0.299,0.166l-0.249,-0.016l-0.166,-0.166l0.332,-0.1l0.647,-0.066l0.149,-0.066l0.15,-0.216l0.282,-0.199l-0.199,-0.083l-0.996,0.05l-0.697,-0.034l-0.166,0.117l-0.066,-0.266l0.597,-0.232l-0.049,-0.216l-0.697,-0.365l-0.05,-0.266l-0.332,-0.514l0.315,-0.083l0.017,-0.415l-0.067,-0.249l-0.647,-0.215l-0.132,0.016l-0.183,-0.215l-0.282,-0.15l-0.199,0.116l-0.548,-0.232l-0.099,-0.099l0.083,-0.233l0.166,-0.182l-0.15,-0.316l-0.016,-0.166l0.298,-0.016l0.166,0.182l0.05,0.365l0.597,0.117l0.482,-0.1l-0.415,-0.182l-0.183,-0.2l-0.199,-0.381l0.299,-0.183l0.199,-0.282l-0.448,-0.199l0.033,-0.398l-0.415,-0.448l0.05,-0.133l0.382,-0.465l-0.199,-0.116l-0.714,0.116l-0.265,0.1l-0.515,0.033l-0.05,-0.265l0.1,-0.216l-0.083,-0.564l0.033,-0.299l0.282,-0.099l0.282,-0.448l0.498,-0.515l0.581,0l0.216,-0.149l0.348,-0l0.133,0.199l0.315,0.149l0.531,-0.016l0.232,-0.15l-0.265,-0.249l0.282,-0.082l0.249,0.066l-0.017,0.299l0.681,-0.083l0.73,0.066l0.232,-0.033l0.564,-0l0.083,-0.083l-0.597,-0.282l0.332,-0.249l1.128,-0.199l0.614,-0.133l-0.946,-0.133l-0.232,-0.099l-0.332,-0.233l-0.166,-0.182l0.05,-0.432l0.099,-0.116l0.365,-0.016l1.278,0.199l0.88,-0.133l1.012,0.299l0.929,-0.067l0.182,-0.116l0.183,-0.431l1.228,-0.697l0.398,-0.349l0.465,-0.199l0.829,-0.232l0.664,-0.282l0.199,-0.033l1.726,0.132l1.161,0.017l0.498,-0.265l0.332,0.083l-0.017,0.348l0.432,0.431l0.581,0.233l0.73,-0.199l0.298,0.083l0.365,0.663l0.249,0.233l0.299,0.149l0.216,0.033l0.249,-0.232l0.282,-0.017l0.481,0.216l0.199,0.232l0.796,0.183l0.714,0.099l0.332,0.199l1.029,0.2l0.365,-0.034l0.597,-0.215l1.162,-0.216l0.862,0.315l0.415,0.017l0.282,0.083l0.282,-0.05l0.83,-0.382l0.232,-0.199l0.282,-0.066l0.863,-0.548l0.15,-0.232l0.315,-0.498l0.066,-0.282l-0.066,-0.398l-0.282,-0.448l-0.614,-1.328l-0.183,-0.199l-0.663,-0.232l-0.183,-0.265l-0.531,-0.349l-0.68,-0.149l-0.797,-0.481l-0.481,-0.283l0.149,-0.348l0.133,-0.033l0.797,0.149l0.249,-0.066l0.979,0.415l0.597,0.116l0.514,0.282l0.996,0.083l0.464,-0.1l0.299,0l0.332,0.183l0.398,-0.033l0.531,0.199l0.249,0.265l0.581,0.232l0.464,0.133l0.531,0.249l0.034,0.398l0.414,0.067l0.714,-0.349l0.348,-0.116l0.299,0.033l0.315,0.316l0.133,-0.365l0.763,0.282l0.349,0.298l0.464,-0.016l0.366,0.166l-0.034,0.697l0.482,0.232l0.265,0.199l0.564,0.116l0.515,0.249l-0.2,0.348l-0.199,0.05l0,0.216l0.183,0.133l0.149,0.249l0.747,0.431l0.149,0.133l-0.033,0.332l-0.299,0.232l-0.68,-0.332l-0.282,0.083l-0.531,-0.149l-0.232,-0.166l0.016,-0.116l-0.663,-0.233l-0.316,-0.066l-0.498,0.415l-0.381,0.083l0.083,0.116l-0.581,0.016l-0.182,0.034l-0.531,-0.05l-0.88,0.216l-0.73,0.049Zm-18.319,15.897l-0.033,-0l0.017,-0.017l0.016,0.017Zm0,-0l0.033,-0l0.017,0.016l-0.05,0l0,-0.016Zm-51.455,-49.647l-0.299,0l-0.232,-0.116l0.133,-0.166l0.282,0.066l0.116,0.216Zm4.696,0.083l-0.216,0.116l-0.216,0l-0.215,0.216l-0.349,-0.183l-0.083,-0.182l0.017,-0.365l0.099,-0.233l0.332,-0.149l0.15,0.199l0.282,0.1l-0.083,0.282l0.282,0.199Zm-4.63,-1.261l0.349,0.166l0.398,0.05l0.066,0.315l-0.58,0.116l-0.847,-0.348l0.017,-0.415l0.382,-0.033l0.215,0.149Zm2.274,-0.183l-0.382,0.017l-0.315,0.166l-0.05,-0.199l0.265,-0.166l0.2,0.033l0.282,0.149Zm-4.779,0.199l-0.199,0.034l-0.282,-0.083l-0.1,-0.382l0.448,0.183l0.133,0.248Zm1.327,0.332l-0.232,-0.249l0.415,-0.481l0.116,-0.033l-0.299,0.763Zm8.313,-0.663l-0.398,-0.034l-0.398,-0.165l0.017,-0.332l0.083,-0.15l0.746,0.382l-0.05,0.299Zm-8.645,-1.444l0.382,0.714l-0.017,0.464l-0.298,0.199l-0.349,0l-0.896,-0.282l-0.282,-0.481l-0.016,-0.382l0.796,-0.232l0.432,0.133l0.248,-0.133Zm3.867,0.033l-0.166,0.1l-0.116,-0.15l0.149,-0.149l0.133,0.199Zm-3.966,-0.464l-0.149,-0l-0,-0.498l0.248,0.265l-0.099,0.233Zm3.75,-0l0.017,0.249l-0.117,0.116l-0.331,0.116l-0.183,0.298l0.332,0.2l0.083,0.249l-0.166,0.116l-0.432,0.116l0,0.929l-0.365,0.1l-0.248,-0.349l-0.017,-0.149l-0.216,-0.515l-0.332,-0.066l-0.365,0.017l-0.249,-0.299l0.017,-0.349l-0.166,-0.331l-0.216,-0.1l0.067,-0.232l0.514,-0.033l0.249,-0.316l0,-0.149l0.299,-0.033l0.132,0.116l0.017,0.431l0.266,0.083l0.182,-0.481l-0.149,-0.182l0.647,-0.365l0.182,-0.017l0.498,0.149l-0.066,0.349l0.116,0.332Zm18.103,-6.887l0.647,0.034l0.664,0.298l-0.299,0.116l-0.614,0.415l-0.05,0.083l-0.431,-0.016l-0.232,0.033l-0.166,0.149l-0.15,0.465l-0.265,0.083l-0.05,-0.15l0.266,-0.298l-0.249,-0.233l-0.315,-0.116l0.149,-0.298l-0.266,-0.266l0.249,-0.033l0.166,0.083l0.332,-0.083l0.083,-0.166l0.531,-0.1Zm1.377,0.166l-0.149,0.034l-0.398,-0.183l0.166,-0.166l0.315,0.083l0.066,0.232Zm-0.896,-0.663l-0.133,0.116l-0.149,-0.1l-0.149,0.266l-0.216,0.05l-0.315,-0.415l-0.481,-0.083l-0.216,-0.116l0.747,-0.067l0.199,-0.265l0.215,0.016l0.067,0.15l0.348,0.049l0.15,0.166l-0.067,0.233Zm-1.974,-3.701l0.331,0.034l-0.099,0.464l-0.382,-0.298l0.15,-0.2Zm-0.316,0.083l-0.348,-0.099l0.149,-0.133l0.199,0.232Zm-1.078,-0.448l-0.249,0.117l-0.05,-0.283l0.299,0.166Zm4.231,-10.437l-0.249,0.083l-0.216,-0.05l-0.033,-0.149l0.332,-0.099l0.166,0.215Zm-45.548,34.547l-0.266,0.216l-0.215,0.033l-0.415,-0.199l-0,-0.083l0.415,-0.183l0.332,0.1l0.149,0.116Zm-6.056,-6.587l0.215,0.149l-0.564,0.315l-0.199,-0.099l-0.149,-0.199l-0.017,-0.316l0.199,-0.083l0.299,0l0.216,0.233Zm-1.593,-5.244l-0.432,-0.083l-0.099,-0.332l0.149,-0.232l0.299,0.116l0.099,0.216l-0.016,0.315Zm-1.909,-1.178l0.117,0.564l-0.399,0.216l-0.132,-0.398l-0.233,0.166l0.033,-0.316l0.249,-0.049l0.365,-0.183Zm0.282,0.282l-0.182,-0.199l0.265,-0.365l0.282,-0.166l-0.016,0.266l-0.349,0.464Zm0.415,-1.294l-0.763,0.133l0.1,-0.498l-0.316,-0.149l0.05,-0.15l0.349,-0.083l0.282,0.282l0.348,0.1l-0.05,0.365Zm-2.688,-1.892l-0.249,-0.033l-0.066,-0.232l0.033,-0.382l0.266,0.033l0.016,0.614Zm2.124,-0.945l-0.016,0.464l0.481,0.133l0.332,-0.017l0.066,0.1l-0.548,0.448l-0.116,-0.017l-0.033,-0.365l-0.232,0.05l-0.316,-0.05l-0.199,-0.315l-0.448,-0.083l-0.149,-0.183l0.232,-0.099l0.05,-0.199l0.465,-0.1l0.249,-0.116l0.149,0.166l0.033,0.183Zm-1.974,-0.432l0.199,0.149l-0.183,0.216l-0.249,0l-0.365,-0.166l0.033,-0.083l0.565,-0.116Zm1.958,-1.643l-0.266,0.432l-0.166,0.116l-0.033,0.282l-0.498,0.266l-0.531,0.398l-0.232,-0.166l0.431,-0.282l-0.348,-0.166l-0.033,-0.432l0.132,-0.116l0.233,0.116l0.315,-0.049l-0.116,-0.199l1.045,-0.531l0.067,0.331Zm5.774,-0.365l-0,0.199l-0.216,0.266l-0.365,0.199l-0.697,0.465l-0.415,0.215l-0.083,0.266l0.233,0.016l0.033,0.133l-0.365,0.266l-0.1,0.249l0.498,-0.067l0.88,-0.249l0.597,0.083l0.431,-0.049l1.145,0.033l0.316,-0.05l0.381,0.216l0.166,0.282l-0.465,0.564l-0.132,0.382l-0.332,0.58l-0.315,0.332l-0.332,0.415l-0.349,0.183l-0.514,0.082l0.747,0.316l-0.233,0.298l-0.398,0.017l-0.382,0.282l-0.348,0.116l0.597,0.183l0.399,-0.166l0.448,-0.017l0.862,0.316l0.598,0.564l0.332,0.249l0.083,0.182l0.348,1.145l0.249,0.631l0.265,0.298l0.747,0.266l0.183,0.099l0.564,0.548l0.564,0.398l-0.232,0.249l0.066,0.199l0.348,0.481l0.05,0.266l-0.215,-0.017l-0.382,-0.232l-0.05,0.116l0.83,0.548l0.265,0.331l0.166,0.449l-0.099,0.182l-0.498,0.448l0.464,0.232l0.2,-0.033l0.331,-0.348l0.283,-0.033l0.696,0.049l0.631,0.166l0.548,0.349l0.116,0.182l0.066,0.515l-0.365,0.962l-0.465,0.315l-0.083,0.282l-0.348,0.15l-0.282,-0.05l-0.398,0.199l0.282,0.1l-0,0.282l-0.183,0.099l-0.415,0.033l0.183,0.332l0.415,0.067l0.713,-0.034l0.316,0.034l-0.034,0.448l-0.066,0.066l-0.631,0.282l-0.165,0.299l-0.366,-0.017l-0.182,0.116l-0.946,0.316l-0.813,-0.133l-0.481,0.016l-0.664,0.1l-0.697,-0.199l-0.298,-0.033l-0.465,0.282l-0.697,0.083l-0.332,-0.033l0.15,0.248l-0.15,0.067l-0.63,-0.083l-0.166,0.083l-0.233,-0.033l-0.448,-0.233l-0.431,-0.016l-0.813,0.199l-0.166,0.216l-0.216,0.58l-0.182,0.199l-0.233,0.034l-0.746,-0.415l-0.249,0.083l-0.415,0.05l-0.448,0.116l-0.647,0.398l-0.149,0.249l-0.216,0.033l-0.183,-0.149l-0.232,-0.05l-0.382,0.133l-0.049,-0.216l0.166,-0.166l0.464,-0.116l0.415,-0.315l0.365,-0.382l0.763,-0.631l0.133,-0.514l0.448,-0.116l0.232,-0.415l0.681,-0.099l0.464,-0l0.465,0.082l0.481,-0.016l0.183,-0.116l0.315,-0.399l0.597,-0.497l-0.78,0.166l-0.63,0.381l-0.531,-0.066l-0.382,-0.315l-0.348,-0.133l-0.349,0.066l-0.116,-0.149l-0.398,-0.282l-0.432,-0l-0.597,0.282l-0.431,-0.199l-0.15,-0.382l0.05,-0.232l0.183,-0.116l0.414,-0.1l0.631,-0.282l0.365,-0.116l0.465,-0.315l0.199,-0.382l-0.05,-0.332l0.083,-0.232l-0.149,-0.282l0.049,-0.249l-0.497,0.05l-0.448,0.199l-0.117,-0.183l0.465,-0.298l0.166,-0.233l0.431,-0.282l0.598,-0.216l0.315,0.017l0.614,-0.116l0.448,0.216l-0.133,-0.349l0.199,-0.066l0.017,-0.398l0.265,-0.365l-0.199,-0.1l0.017,-0.332l0.249,-0.133l0.116,-0.431l-0.282,-0.083l-0.349,0.1l-0.282,-0.249l-0.464,-0.598l-0.05,-0.232l0.265,-0.514l0.382,-0.332l-0.315,-0.133l-0.232,0.033l-0.448,0.199l-0.332,0.216l-0.349,-0l-0.133,-0.149l-0.182,0.016l-0.415,0.183l-0.581,-0.216l-0.182,0.382l-0.432,-0.415l-0.049,-0.315l0.215,-0l0.199,-0.399l0.482,-0.663l0.099,-0.199l-0.083,-0.233l-0.315,-0.249l0.05,-0.431l0.133,-0.166l0.248,-0.066l-0.315,-0.2l-0.481,0.15l-0.299,0.149l0.05,-0.332l-0.1,-0.066l-0.248,0.232l0.016,0.548l-0.348,0.946l-0.183,0.149l-0.232,-0.083l0.182,-0.647l0.233,-0.415l-0.1,-0.05l0.05,-0.597l0.166,-0.481l0.282,-0.631l0.365,-0.581l-0.68,0.448l-0.166,0.083l-0.398,-0.066l-0.133,-0.116l-0.166,-0.382l0.299,-0.033l0.282,-0.183l-0.249,-0.116l0.249,-0.149l0.282,-0.348l0.066,-0.316l-0.166,-0.249l-0.265,-0.099l-0.034,-0.15l0.283,-0.315l-0.117,-0.249l0.266,-0.514l0.498,0.017l0.315,-0.067l-0.382,-0.332l0.116,-0.481l0.614,-0.05l-0.132,-0.298l0.049,-0.332l0.266,-0.15l0.216,0.034l0.166,0.149l0.431,-0.149l0.1,0.132l0.464,-0.099l0.614,-0.05l0.747,-0.1l0.365,-0.066l0.381,0.033l-0.099,0.282Zm-0.1,-0.663l-0.215,0.016l-0.216,-0.232l0.249,-0.05l0.182,0.266Zm0.216,-0.565l0.448,0.1l-0.099,0.232l-0.233,-0.116l-0.332,0.05l-0.315,-0.166l0.066,-0.348l0.283,-0.017l0.199,0.083l-0.017,0.182Zm0.614,-0.381l-0.166,0.05l-0.066,-0.199l-0.282,-0.1l0.066,-0.133l0.448,0.382Zm2.671,-3.236l0.266,0.299l0.166,0.083l-0.216,0.63l-0.033,0.266l-0.166,0.282l-0.133,-0.066l0.15,-0.482l-0.083,-0.182l-0.282,0.05l-0.067,-0.15l0.266,-0.232l-0.133,-0.332l-0.183,-0.033l0.249,-0.266l0.199,0.133Zm0.482,0.067l-0.233,-0.216l0.216,-0.1l0.017,0.316Zm53.512,63.004l0.382,-0l0.282,-0.166l0.365,0.614l0.282,-0.017l0.581,-0.149l0.614,0.033l0.232,0.166l0.432,0.033l0.381,0.083l0.548,-0.116l0.066,0.066l0.017,0.465l0.199,0.033l0.116,-0.116l0.282,-0.1l0.299,0l0.265,-0.133l-0.066,0.581l-0.149,0.067l-0.73,-0.017l-1.344,0.166l-0.88,0.066l-0.116,-0.033l-0.116,-0.365l-0.548,-0.182l-1.029,-0.166l-0.248,-0.067l-0.515,0.033l-0.182,-0.165l-0.067,-0.299l0.033,-0.315l0.233,0.049l0.066,-0.232l0.315,0.183Zm7.202,0.182l-0.266,-0.348l0.183,-0.083l0.199,0.398l-0.116,0.033Zm-9.077,-1.892l-0.232,0.034l-0.116,-0.365l0.083,-0.166l0.348,0.348l-0.083,0.149Zm10.404,0.681l-0.282,-0.067l0.067,-0.298l-0.117,-0.266l0.382,-0.448l0.531,-0.215l0.149,0.149l-0.149,0.415l-0.149,0.215l0.066,0.166l-0.265,0.034l-0.233,0.315Zm-3.152,-1.709l-0.249,0.199l-0.15,-0.1l0.316,-0.199l0.083,0.1Zm1.028,-0.365l0,-0.117l0.216,-0.182l0.415,-0.166l0.199,0.1l-0.415,0.232l-0.249,0.016l-0.166,0.117Zm-3.683,-0.896l-0.15,0.215l-0.215,-0.116l0.066,-0.199l0.183,-0.099l0.116,0.199Zm0.597,0.265l-0.182,0.1l-0.233,-0.365l0.316,-0.332l0.149,0.116l0.016,0.299l-0.066,0.182Zm0.896,-1.46l0.1,-0.266l0.265,-0.016l0,0.182l-0.365,0.1Zm-3.601,-0.116l-0.166,-0.067l0.067,-0.199l0.182,0.083l-0.083,0.183Zm5.244,-0.614l0.464,0.116l-0.116,0.166l-0.265,0.149l-0.282,-0.149l-0.199,-0.199l0.398,-0.083Zm-12.727,0.016l0.066,0.2l-0.182,0.165l-0.266,-0.199l-0.199,-0.298l0.149,-0.183l0.15,0.199l0.282,0.116Zm8.811,0.117l-0.232,-0.017l-0.399,-0.348l0.15,-0.233l0.149,0.199l0.216,0.017l0.116,0.382Zm-9.508,-1.61l0.05,0.299l0.149,0.049l0.216,0.266l-0.033,0.199l-0.349,-0.133l-0.166,0.034l-0.182,-0.332l-0.216,0.033l0.1,-0.299l0.232,0.017l0.199,-0.133Zm11.748,0.415l-0.183,0.149l-0.298,-0.282l0.232,-0.216l-0.348,-0.398l-0.017,-0.166l0.348,-0.083l0.216,0.15l0.1,0.199l0.066,0.431l-0.116,0.216Zm-11.648,-1.012l-0.216,0.016l-0.067,-0.149l0.133,-0.398l0.183,0.049l0.033,0.415l-0.066,0.067Zm5.741,-0.896l0.149,0.282l0.913,0.415l0.464,0.049l0.282,0.432l-0.033,0.099l0.249,0.631l0.183,0.149l0.448,0.05l0.066,0.315l-0.149,0.133l-0.316,-0.116l-0.348,-0.266l-0.066,-0.215l-0.365,-0.482l-0.598,-0.033l-0.249,-0.116l-0.099,-0.282l-0.249,-0.149l-0.332,-0.316l-0.249,-0.182l-0.498,-0.183l-0.099,-0.116l0.315,-0.215l0.348,-0.083l0.233,0.199Zm6.289,-0.963l-0.017,0.15l0.315,0.248l0.116,0.166l-0.199,0.349l-0.663,-0.133l-0.133,-0.133l0.265,-0.215l-0.149,-0.083l-0.199,0.249l-0.365,-0.117l-0.15,-0.149l0.117,-0.232l0.248,0.016l0.283,-0.132l-0,-0.1l0.381,-0.033l0.15,0.149Zm-13.491,-0.265l-0.215,0.05l-0.199,-0.133l-0.2,-0.315l-0.365,-0.366l0.117,-0.182l0.265,-0.066l0.232,0.199l-0.182,0.199l0.133,0.116l0.149,0.398l0.265,0.1Zm11.25,-1.427l-0.116,0.232l-0.016,0.216l-0.631,-0.116l-0.05,-0.382l0.365,-0.017l0.133,0.133l0.166,-0.149l0.149,0.083Zm0.399,-1.145l-0.233,0.066l-0.282,-0.216l0.233,-0.082l0.282,0.232Zm-1.975,-0.498l-0.265,0.1l-0.299,-0.183l0.182,-0.382l0.216,0.017l0.166,0.216l0,0.232Zm-17.622,-6.139l0.382,0.066l-0.183,0.149l-0.199,-0.215Zm1.095,-0.332l-0.132,0.016l-0.93,-0.016l-0.282,-0.05l-0.083,-0.216l0.299,0.033l0.083,0.1l1.045,0.133Zm-0.879,-0.382l-0.332,0.017l-0.431,-0.133l0.049,-0.183l0.797,0.1l-0.083,0.199Zm-3.518,-2.738l-0.05,0.067l-0.547,-0.448l-0.05,-0.316l0.465,0.448l0.182,0.249Zm-0.813,-1.078l-0.315,-0.034l0.133,-0.182l0.182,0.216Zm-0.697,0.249l-0.149,-0.017l-0.282,-0.697l0.066,-0.199l-0.133,-0.332l0.15,-0.05l0.083,0.349l0.166,0.149l-0.017,0.266l0.116,0.531Zm0.614,-0.813l-0.249,0.049l-0.166,-0.166l-0.215,-0.033l-0.166,-0.166l0.166,-0.116l0.083,-0.199l0.547,0.631Zm-57.346,-51.871l0.2,0.017l0.464,-0.133l0.365,-0.182l0.083,0.182l-0.415,0.399l0.365,0.149l0.332,0.05l-0.016,0.282l-0.282,0.265l0.132,0.05l0.581,-0.083l0.166,0.382l0.249,-0.033l0.398,0.049l0.232,0.199l0.2,-0.049l0.083,0.149l-0.117,0.199l-0.248,0.1l0.348,0.481l-0,0.182l-0.166,0.117l-0.216,-0l-0.166,0.348l-0.199,0.183l-0.332,0.165l-0.431,-0.083l-0.183,0.249l0.034,0.233l-0.216,0.215l-0.879,0.349l-0.415,-0l-0.432,0.083l-1.029,0.332l-0.779,0.464l-0.332,0.116l-0.515,0.05l-0.298,0.083l-0.979,0.133l-0.332,0.083l-0.199,0.182l-0.083,0.233l-0.664,0.182l-0.631,0.116l-1.061,-0.083l-0.897,-0.215l-0.746,-0.05l-0.631,-0.415l-0.481,-0.166l-0.597,-0.299l-0.382,0.183l-2.057,0.05l-0.133,-0.083l-0.033,-0.349l0.182,-0.132l0.216,0.199l0.829,-0.183l0.449,-0.315l0.414,-0.448l-0.58,0.199l-0.034,-0.315l-0.149,-0.183l-0.282,-0.132l-0.05,-0.133l0.183,-0.15l-0.382,-0.199l-0.431,0.017l-1.095,-0.083l-0.631,0.166l-0.332,0.016l-0.149,-0.165l-0,-0.183l0.249,-0.05l0.298,0.017l0.681,-0.1l0.232,-0.099l0.133,0.083l0.597,-0.183l0.166,0.033l0.664,-0.033l0.73,-0.016l0.182,-0.133l0.067,-0.183l-0.465,0.15l-0.614,-0.083l-0.099,-0.15l0.597,-0.265l0.448,-0.133l-0.133,-0.216l-0.531,0.034l-0.116,-0.133l-0.431,-0.067l-0.299,0.05l-0.149,-0.083l-0.399,0.1l-0.862,0.149l-0.548,0.15l-0.514,-0.183l-0.399,-0.033l0.233,-0.233l0.332,-0.016l0.282,0.133l0.016,-0.531l0.199,0.049l0.465,0.183l-0.116,-0.465l0.365,0.017l-0.365,-0.266l0.083,-0.165l0.265,-0.05l0.133,-0.166l0.398,-0l0.382,0.182l0.033,0.233l0.349,-0l0.182,-0.133l0.149,0.099l0.083,0.2l0.199,-0l0.067,-0.365l-0.598,-0.183l-0.049,-0.232l0.614,-0.017l-0.282,-0.182l-0.498,0.033l-0.233,-0.067l0.432,-0.199l0.564,0l0.232,0.033l0.382,0.283l0.332,0.099l0.514,0.382l0.365,0.149l0,0.199l0.116,0.133l-0.381,0.564l0.149,0.116l-0.133,0.266l0.316,0.099l0.166,0.282l0.149,-0.298l0.249,-0.316l0.381,-0.215l0.15,0.016l0.149,0.166l0.149,0.017l0.233,-0.332l0.116,-0.714l0.282,-0.149l0.299,0.116l0.215,0.266l0.432,0.348l0.299,-0.083l0.016,-0.381l0.166,-0.216l0.332,-0.05l0.365,-0.133l0.382,-0.033l0.282,0.233l0.199,0.232l0.282,0.182l0.116,0.299l0.149,-0.05l-0.033,-0.282l-0.232,-0.431l0.05,-0.15l0.68,0.034l0.498,0.381l0.215,-0.05l0.598,-0.464l0.381,0.133l0.299,0.016l0.465,-0.133l0.132,-0.199l-0.149,-0.381l0.1,-0.067l0.431,-0.099l0.448,0.016l0.432,0.349l-0.017,0.166l0.265,0.132Zm60.117,69.31l-0.199,0.415l-0.464,0.713l-0.249,0.846l0.049,0.332l0.266,0.233l-0.116,0.083l0.265,0.298l0.017,0.216l-0.299,0.315l-0.066,0.282l0.016,0.249l-0.481,-0.099l-0.232,0.049l-0.614,-0.232l-0.315,-0.464l-0.498,-0.332l-0.498,-0l-0.232,-0.083l-0.481,-0.316l-0.498,-0.232l-0.432,-0.348l-0.282,-0.067l-0.249,-0.166l-0.481,0l-0.381,-0.265l-0.216,-0.382l0.216,-0.614l0.232,-0.132l0.149,-0.2l0.382,0.382l0.298,-0.133l0.233,-0.265l0.398,0.016l0.083,0.15l0.232,0.05l0.415,0.265l0.232,0.066l0.565,-0.166l0.497,0.067l0.465,-0.083l0.282,-0.1l0.199,-0.166l0.233,-0.049l0.58,0.049l0.332,-0.199l0.133,0.033l0.332,-0.199l0.182,0.183Zm-12.992,-6.886l0.116,0.149l0.299,0.83l-0.1,0.265l-0.216,0.332l0.133,0.465l-0.099,1.908l-0.1,0.481l-0.149,0.066l-0.481,-0.199l-0.249,0.05l-0.2,-0.099l-0.049,0.497l-0.299,0.349l-0.498,-0.033l-0.116,-0.1l-0.398,-0.63l-0.067,-0.714l0.1,-0.216l0,-0.415l0.183,-0.016l-0,-0.282l-0.299,-0.199l-0,-0.316l0.116,-0.232l-0.017,-0.431l-0.132,-0.15l-0.133,-0.381l-0.365,-0.399l0.017,-0.564l0.564,0.1l0.215,-0.05l0.515,-0.249l0.348,-0.415l0.233,-0.083l0.248,-0.298l0.117,0.149l0.365,0.133l0.199,0.249l0.149,0.083l-0.116,0.232l0.166,0.133Zm1.377,-5.111l0.05,0.232l-0.415,0.083l-0.182,-0.182l0.481,-0.033l0.066,-0.1Zm-12.378,-43.54l0.016,0.282l-0.166,-0.017l-0.116,-0.182l-0.033,-0.332l0.116,-0.083l0.183,0.332Zm-0.299,-1.842l-0.299,-0l0.05,-0.216l0.149,-0.05l0.1,0.266Zm5.393,-5.293l-0.382,-0.033l-0.166,-0.133l0.465,-0.133l0.116,0.083l-0.033,0.216Zm0.597,-0.764l-0.05,-0.149l0.448,-0.099l0.15,0.165l-0.548,0.083Zm4.646,-2.754l-0.697,0.05l-0.05,-0.183l0.349,-0.133l0.199,0l0.199,0.266Zm1.128,-1.742l-0.331,0.049l0.016,-0.182l0.299,-0.05l0.016,0.183Zm0.681,-0.946l-0.017,-0.183l0.166,-0.199l0.166,0.067l-0.05,0.249l-0.265,0.066Zm0.514,-4.132l-0.249,0.116l0.183,-0.431l0.182,-0.116l0.067,0.249l-0.183,0.182Zm1.411,-0.863l0.381,0.034l-0.083,0.132l-0.232,0.05l-0.183,0.133l-0.315,0.033l-0.315,0.166l-0.266,0.05l-0.066,-0.199l0.149,-0.166l0.216,-0l0.166,-0.199l0.548,-0.034Zm2.057,-1.493l0.365,0.348l-0.05,0.249l-0.199,0.117l-0.547,0.016l-0.266,-0.149l-0.365,0.099l-0.265,-0.182l0.265,-0.233l0.432,0.067l0.083,-0.282l0.282,0.05l0.066,-0.249l0.199,0.149Zm1.045,0.83l0.216,-0.183l0.249,-0.066l0.1,-0.365l0.298,-0.083l0.266,0.166l0.149,0.199l-0.033,0.182l-0.514,0.199l-0.415,0.332l-0.266,-0.033l-0.116,0.116l-0.398,0.1l-0.282,-0.15l-0.15,0.15l-0.232,0.066l-0.199,-0.066l-0.481,0.249l-0.465,0.05l-0.166,-0.183l0.515,-0.315l0.846,-0.1l0.481,-0.381l0.067,-0.415l0.099,-0.15l-0.216,-0.099l0.034,-0.282l0.398,-0.282l0.215,-0.233l0.249,-0.049l0.15,0.182l-0.183,0.232l-0.265,0.199l0.182,0.249l0.1,0.399l-0.233,0.365Zm2.572,-2.274l0.233,0.133l0.249,-0.05l0.381,0.117l0.166,0.248l-0.199,0.15l0.066,0.282l-0.63,0.083l-0.149,-0.083l-0.249,0.149l-0.233,0.232l-0.365,-0.099l0.034,-0.266l-0.05,-0.381l0.116,-0.083l0.481,0.05l-0.066,-0.332l0.215,-0.15Zm20.576,-0.431l-0.299,0.066l0.033,-0.298l0.266,0.232Zm-15.332,-0.631l-0.216,0.067l-0.299,-0.05l-0.116,-0.166l0.365,-0.166l0.282,0.05l-0.016,0.265Zm-2.506,0.05l0.166,0.116l0.249,-0.083l0.183,0.166l-0.233,0.133l-0.132,0.199l-0.332,0.017l-0.481,0.381l-0.017,0.133l-0.83,0.083l-0.249,-0.05l0.282,-0.448l0.283,0l0.282,-0.132l-0.05,-0.133l0.415,-0.332l0.099,-0.282l0.233,-0.166l0.132,0.398Zm0.797,-0.332l0.232,0.034l0.216,0.265l-0.382,0l-0.332,-0.299l0.266,0Zm6.189,-0.713l0.083,0.182l-0.548,0.349l-0.265,0.016l-0.349,-0.199l0.017,-0.132l0.315,-0.15l0.15,0.017l0.448,-0.232l0.149,0.149Zm0.647,-0.05l-0.299,0.083l-0.282,-0.149l-0.033,-0.266l0.133,-0.05l0.531,0.2l-0.05,0.182Zm-1.062,-0.531l-0.066,0.133l-0.448,0.348l-0.365,0.116l-0.299,-0.049l-0.133,0.099l-0.332,0l-0.331,-0.099l-0.332,-0.199l0.58,-0.017l0.1,-0.083l0.249,-0l0.465,-0.066l0.182,0.049l0.349,-0.232l0.381,0Zm3.335,-0.697l0.614,0.083l0.365,0.232l-0.597,0.083l-0.282,-0.016l-0.332,-0.299l0.232,-0.083Zm-56.35,0.647l-0.016,-0.166l0.746,-0.249l0.316,-0.232l0.564,-0.083l-0.033,0.299l-0.498,0.133l-0.548,0.083l-0.531,0.215Zm44.669,-7.467l-0.166,0.083l-0.315,-0.132l-0.133,-0.199l0.498,-0.017l0.116,0.265Zm1.593,-8.313l0.647,0.033l0.332,0.316l0.232,0.332l0.216,0.033l0.78,-0.067l0.564,0.117l-0.233,0.182l0,0.199l0.913,0.216l0.299,0.017l0.498,-0.067l1.078,0.282l-1.095,0.183l-0.332,0.315l-0.614,0.216l-0.431,-0l-0.382,0.215l-0.365,0.017l-0.249,-0.315l0.365,-0.216l-0.514,-0.066l-0.199,0.083l-1.743,0.166l-0.182,-0.034l-0.149,-0.199l0.464,-0.099l0.033,-0.183l0.415,-0.398l-0.912,-0.266l-0.332,-0.199l-0.133,-0.166l-0.415,-0.149l0,-0.166l-0.282,0.017l-0.066,-0.199l1.792,-0.15Zm7.666,-0.099l-0.216,-0l-0.431,-0.133l0.116,-0.166l0.531,0.299Zm-22.832,0.066l0.58,0.249l0.316,0.083l0.381,0.249l-0.116,0.149l-0.332,-0.199l-0.597,-0.216l-0.382,-0.033l-0.547,-0.415l-0.249,-0.132l-0.133,-0.282l0.597,0.116l0.266,0.166l-0.05,0.132l0.266,0.133Zm25.819,-0.564l0.448,0.017l-0.017,0.099l-1.211,-0.066l-0.631,0.116l0.066,-0.149l0.399,-0.1l0.614,-0.017l0.332,0.1Zm-18.236,-1.792l0.232,-0.1l0.896,0.133l0.415,0.149l0.216,0.166l-0.316,0.316l0.282,0.166l0.531,-0.283l0.448,0.05l0.282,0.15l0.166,0.182l-0.033,0.232l0.515,0.183l0.564,-0.033l0.398,0.05l0.249,0.165l0.315,-0.033l0.033,-0.132l0.432,0.033l0.498,0.132l-0.349,0.15l0.349,0.133l0.564,0.099l0.348,0.1l-0.249,0.232l-0.531,-0l-0.481,0.05l-0.896,0.05l-0.498,0.265l-0.415,0.299l-0.066,0.265l0.1,0.183l-0.249,0.083l-0.548,0.033l0.033,0.647l-0.132,0.315l-0.548,0.05l-0.299,0.183l-0.199,0.348l-0.348,0.332l0.166,0.166l-0.349,0.315l0.199,0.299l-0.166,0.099l-0.348,0.05l-0.365,-0.05l-0.382,-0.182l-1.111,-0.365l-0.714,-0.399l-0.996,-0.215l-0.547,-0.266l-0.249,-0.215l0.05,-0.233l0.464,-0.033l0.482,0.116l0.282,-0.315l1.875,-0.183l1.211,-0.033l-0.315,-0.215l-1.145,0.116l-0.714,-0.033l-0.348,0.016l-0.349,0.1l-0.713,0.083l-0.763,-0.017l-0.482,-0.166l-0.215,-0.332l0.199,-0.099l0.63,0.016l1.062,-0.149l0.498,-0.133l0.514,-0.016l-0.082,-0.133l0.298,-0.067l0.398,-0.033l0.93,0.017l0.033,-0.1l-0.432,-0.099l-0.149,-0.1l0.432,-0.298l-0.366,0.016l-0.497,0.216l-0.299,0.083l-0.763,0.05l-0.282,-0.266l0.149,-0.199l-0.133,-0.116l-0.215,0.216l-0.349,0.049l-0.332,-0.149l-0.315,0.083l0.116,0.166l-0.099,0.166l0.331,0.149l-0.381,0.1l-0.349,0.182l-0.647,0.033l-0.747,0.017l-0.763,-0.265l-0.365,-0.2l-0.299,-0.199l-0.448,-0.099l-0.282,-0.133l-0.066,-0.183l-0.232,-0.116l-0.116,-0.199l0.73,0l-0.282,-0.298l0.083,-0.266l-0.565,0.017l0.067,0.149l-0.365,0.166l-0.199,-0.033l-0.382,-0.316l-0.398,-0.398l0.066,-0.216l-0.199,-0.165l0.249,-0.117l0.415,0.15l0.132,-0.116l0.631,-0.067l0.763,0.183l0.067,-0.183l0.696,0.083l0.498,-0.099l0.83,-0.05l0.332,0.066l-0.166,0.183l-1.045,0.05l-0.664,0.215l0.946,-0.033l0.166,0.017l0.099,0.182l0.498,0.083l0.382,0.166l0.132,-0.083l-0.099,-0.365l0.73,-0.382l0.348,0.067l0.349,0.149l0.663,0.498l0.382,0.315l1.012,0.465l-0.116,-0.249l-0.697,-0.747l-0.149,-0.282l0.149,-0.282l0.183,-0.083l-0.067,-0.216l0.216,-0.083l0.398,0.05l0.432,0.216Zm22.351,-0.382l-1.328,0.067l-0.149,-0.05l2.605,-0.232l0.282,0.082l-1.41,0.133Zm-19.73,-0.315l-0.298,0.1l-0.531,-0.083l0.149,-0.117l0.68,0.1Zm3.087,0.083l0.929,0.017l0.249,0.149l0.912,0.182l0.133,-0.249l-0.099,-0.365l0.315,-0.016l0.282,-0.1l0.514,0.05l0.034,0.216l-0.083,0.232l0.348,0.017l0.465,-0.05l0.315,-0.183l0.398,0.017l0.216,-0.1l0.232,0.1l1.361,0.116l0.547,0.1l0.863,-0l0.614,0.033l0.465,0.166l0.182,0.282l-0.149,0.066l-1.112,0.332l-0.265,0.116l-0.398,0.382l-0.681,0.116l-0.581,-0.05l-0.497,0.116l-0.316,0.166l-0.249,0.034l-1.526,-0.067l-0.365,-0.182l0.199,-0.15l-1.361,0.05l-1.526,-0.017l-0.166,-0.082l-0.929,-0.083l-0.697,-0.183l0.182,-0.083l0.963,0l-0.116,-0.249l-0.482,-0.016l-0.298,0.066l-0.714,0.033l-0.664,-0.016l-0.315,-0.05l-0.63,-0.166l-0.117,-0.133l0.465,-0.066l0.349,-0.116l-0.747,-0.05l-0.315,-0.05l-0.1,-0.149l0.979,-0.034l0.83,0.133l-0.117,-0.365l0.648,0.183l0.033,-0.183l-0.332,-0.232l0.332,-0.017l0.746,0.116l0.847,0.266Zm1.659,52.451l-0.249,-0.05l-0.05,-0.631l0.332,-0.763l0.166,-0.05l0.448,-1.078l0.083,0.332l-0.249,0.531l-0.05,0.365l-0.099,0.083l-0.332,1.261Zm4.347,-3.767l-0.215,0.232l-0.233,0.083l0.017,0.548l0.249,0.199l-0.216,0.083l-0.116,0.299l-0.299,0.099l-0.249,0.266l-0.049,0.265l-0.349,0.15l0.199,-0.399l-0.149,-0.116l-0.232,-0.348l0.066,-0.15l-0.099,-0.531l0.448,-0.481l0.215,-0.182l0.548,-0.166l0.216,-0l0.248,0.149Zm19.265,44.636l-0.481,0.082l-0.017,-0.248l0.365,-0.1l0.133,0.266Zm10.503,-15.615l0,0.1l-0.647,-0.133l-0.149,-0.149l0.796,0.182Zm-57.727,-14.004l0.249,0.232l-0.249,0.05l-0.265,-0.166l0.265,-0.116Zm1.742,-3.319l-0.182,0.183l-0.1,-0.233l0.282,-0.232l0,0.282Zm-6.454,36.09l-0.067,0.166l-0.332,-0.066l0,-0.249l0.2,-0.266l0.448,-0.116l0.132,0.216l-0.381,0.315Zm3.6,-2.256l0.199,0.083l0.216,-0.083l0.232,0.066l0.034,0.166l-0.365,0.581l-0.1,0.232l-0.348,0.216l-0.664,-0.282l-0.05,-0.266l-0.232,-0.116l-0.282,0.216l-0.233,-0.166l-0.049,-0.199l0.879,-0.614l0.249,-0.15l0.531,-0.149l0.083,0.199l-0.1,0.266Zm2.44,-0.133l-0.05,0.033l-0.647,-0.315l-0.266,-0.067l0.017,-0.232l0.431,-0.033l0.349,0.116l0.199,0.299l-0.033,0.199Zm10.685,-7.666l-0.049,0.381l0.166,0.283l0.099,1.078l-0.298,0.531l0.016,0.498l-0.265,0.713l-0.133,0.183l-0.631,-0.332l-0.199,-0.183l0.166,-0.298l-0.365,-0.15l0.066,-0.282l-0.033,-0.149l-0.265,-0.083l0.166,-0.216l-0,-0.132l-0.249,-0.166l-0.05,-0.15l0.216,-0.182l-0.1,-0.15l0.017,-0.215l0.149,-0.315l0.199,-0.15l0.465,-0.133l0.199,-0.182l0.315,0.099l0.1,-0.199l-0.033,-0.448l0.049,-0.182l0.216,0.083l0.066,0.448Zm-22.218,-7.948l-0.066,0.232l-0.315,-0.398l0.166,-0.083l0.215,0.249Zm75.598,28.175l-0.033,-0l0,-0.017l0.017,0l-0,-0.016l0.016,0.016l0,0.017Zm0.565,-0.133l0.033,0.017l0.05,0.049l0.033,0.067l0.016,0.05l0.034,0.033l0.033,0.016l-0.083,0l-0.05,-0.016l-0.033,-0.033l-0.033,-0l-0.117,0.016l-0.099,0.017l-0.033,0.033l-0.1,-0l-0.016,-0.017l0.033,-0.016l0.016,-0l-0.016,-0.05l-0.033,-0l-0.034,-0.017l0,-0.066l-0.016,-0.017l-0.05,-0.016l0,-0.033l0.017,-0.017l0.033,-0.017l0.033,0.034l0.033,-0.017l0.05,-0.05l0.033,0.033l0.033,0.017l0.017,0l0.033,0.017l0.017,-0l0.049,-0.017l0.034,0l0.016,0.017l0.067,-0l-0,-0.017Zm-0.664,0.183l-0,0.033l-0.05,0.016l-0.05,0.05l0,0.033l-0.016,0.05l-0,0.166l-0.017,0l-0.016,0.017l-0,0.049l-0.017,0.017l-0.1,-0l-0.033,0.017l-0.016,0.016l-0.017,0.033l-0.017,0.017l-0.033,0.017l-0.066,0.016l-0.066,0.033l-0.05,0.017l-0.033,-0.05l0.016,0.083l-0.066,0.033l-0.15,0.033l-0.033,0.017l-0.016,0.017l-0.034,0.016l-0.033,0l-0.149,-0.016l-0.166,0.016l-0.017,0.017l-0.033,0.016l-0.099,0.083l-0.017,0.05l-0.05,0l-0.049,0.017l-0,0.016l-0.017,-0.016l-0.017,-0.033l0.017,-0.034l0.017,0.017l0.049,-0l-0.016,-0.066l-0.067,-0.017l-0.049,0.05l-0.034,-0.017l0,0.017l-0.066,-0.017l-0.05,-0.033l-0.016,-0.017l-0,-0.033l-0.067,0l-0.016,0.017l-0,0.016l-0.034,0l-0.016,0.034l-0.066,-0l-0.017,0.016l0.017,0.033l-0.034,0.017l-0.083,-0l-0.099,-0.017l-0.083,-0.033l-0.116,-0.066l-0.1,-0.033l-0.083,-0l-0.05,-0.017l-0.033,-0.033l-0.099,-0.066l-0.017,-0.017l-0.017,-0.066l0,-0.017l-0.016,-0.017l-0.067,-0.149l-0.016,-0.017l-0.05,-0.033l-0.033,-0.016l-0.017,-0.017l-0.016,-0.033l-0,-0.033l0.016,-0.034l-0.049,-0.066l-0.017,-0.033l-0,-0.066l-0.017,-0.034l-0.049,-0.083l-0.034,-0.049l-0.016,-0.067l0.016,-0.05l0.017,0l0.05,0.017l0.066,0.083l0.05,0.017l0.033,0.016l0.1,0l0.066,-0.033l0.1,-0.133l0.016,-0.083l0.017,-0.049l0.033,-0.017l0.017,-0.017l-0,-0.016l0.016,-0l0.017,0.016l0.05,0l0.049,0.05l0.05,0l0.033,-0.033l0.017,-0.033l-0,-0.033l0.066,0.016l0.067,0.133l0.033,0.017l0.066,0.016l0.05,0.017l0.033,0.033l0.033,0.016l0.017,0.034l-0,0.033l0.033,0.033l0.017,0l0.066,-0.017l0.033,-0.066l0.017,-0.017l0.033,0.034l0.033,0.016l0.033,0l0.034,-0.016l0.066,-0.067l0.033,-0.016l0.05,-0.033l0.017,-0.034l0.033,0l0.049,0.017l0.117,-0l0.016,-0.017l0.017,0l0.016,-0.033l0.05,-0.033l0.033,-0l0.034,0.017l0.016,0.016l0.05,0l0.066,0.067l0.034,0.016l0.049,0.017l0.017,-0l0.016,-0.017l0,-0.016l0.017,-0.034l0.05,-0.049l0.149,-0l0,0.033l0.017,0.033l0.083,0.083l-0,0.016l0.016,0.05l0,0.15l-0.016,0.049l0.016,0.034l0.017,0.016l0.066,0l0,-0.116l0.05,-0.05l0.017,0.017l0.016,0.066l0.017,0.033l0.016,0.017l0.05,-0.017l0,-0.033l0.017,-0.016l0.033,-0l0.017,0.016l0.033,0l0.016,-0.016l0.017,0.016l0.017,0l0.049,0.033l0.05,0l0.05,0.034Z" style="fill:#4e4e4e;stroke:#000;stroke-width:0.02px;"/></g></svg>