<?xml version="1.0" encoding="UTF-8" standalone="no"?><!DOCTYPE svg PUBLIC "-//W3C//DTD SVG 1.1//EN" "http://www.w3.org/Graphics/SVG/1.1/DTD/svg11.dtd"><svg width="100%" height="100%" viewBox="0 0 121 121" version="1.1" xmlns="http://www.w3.org/2000/svg" xmlns:xlink="http://www.w3.org/1999/xlink" xml:space="preserve" xmlns:serif="http://www.serif.com/" style="fill-rule:evenodd;clip-rule:evenodd;stroke-linejoin:round;stroke-miterlimit:2;"><rect id="latinoamerica" x="0.11" y="0.031" width="120.172" height="120.172" style="fill:none;"/><path id="pe" d="M91.085,46.644c-0.001,-0.016 0.002,-0.034 0.01,-0.054c-0.001,0.019 -0.004,0.037 -0.01,0.054Zm1.597,0.798c0.01,-0.012 0.023,-0.023 0.037,-0.034c-0.013,0.014 -0.026,0.026 -0.037,0.034Zm-7.109,-7.447c-0.019,-0.045 -0.032,-0.081 -0.035,-0.1c0.015,0.033 0.027,0.066 0.035,0.1Zm-20.153,19.844c-0.155,-0.012 -0.298,-0.02 -0.4,-0.014c-0.157,0.009 -0.328,0.196 -0.498,0.144c-0.101,-0.031 -0.212,-0.197 -0.321,-0.102c-0.049,-0.394 -0.077,-0.832 -0.088,-1.206c-0.005,-0.191 0.023,-0.231 0.079,-0.393c0.003,-0.053 -0.012,-0.1 -0.048,-0.141c-0.056,-0.108 0.045,-0.156 0.069,-0.252c-0.25,0.024 -0.518,0.473 -0.722,0.634c-0.303,0.24 -0.807,0.14 -1.154,0.097c0.059,-0.186 -0.098,-0.475 -0.237,-0.594c-0.25,-0.213 -0.682,-0.072 -0.955,-0.213c0.317,-0.414 0.214,-0.53 -0.128,-0.879c-0.073,-0.074 -0.089,-0.126 -0.119,-0.221c-0.032,-0.101 -0.14,-0.146 -0.202,-0.224c-0.142,-0.18 -0.109,-0.406 -0.332,-0.551c0.222,-0.126 -0.2,-0.378 -0.258,-0.515c0.076,-0.146 0.044,-0.226 0.214,-0.256c0.169,-0.031 -0.028,-0.232 0.02,-0.458c0.077,-0.364 0.356,-0.395 0.598,-0.551c0.172,-0.111 0.046,-0.355 0.004,-0.534c-0.039,-0.163 0.047,-0.311 0.139,-0.44c0.185,-0.259 -0.011,-0.635 0.177,-0.863c0.098,-0.117 0.305,-0.125 0.419,-0.236c0.102,-0.099 0.106,-0.212 0.247,-0.261c0.181,-0.062 0.283,-0.239 0.458,-0.31c0.162,-0.066 0.412,-0.062 0.587,-0.098c0.208,-0.043 0.381,-0.033 0.534,-0.195c0.025,-0.026 0.063,-0.131 0.295,-0.185c0.086,-0.02 0.105,0.018 0.223,0.044c0.1,0.022 0.211,0.14 0.269,0.218c0.029,-0.036 0.058,-0.071 0.087,-0.108c0.157,0.258 0.235,-0.255 0.249,-0.346c0.062,-0.415 0.124,-0.83 0.166,-1.248c0.056,-0.566 0.119,-1.135 0.234,-1.69c0.049,-0.235 0.148,-0.449 0.091,-0.694c-0.055,-0.235 -0.222,-0.356 -0.23,-0.607c-0.007,-0.261 -0.134,-0.304 -0.328,-0.485c-0.217,-0.202 -0.221,-0.414 -0.221,-0.67c0,-0.149 -0.023,-0.336 0.057,-0.473c0.205,-0.221 0.61,-0.334 0.772,-0.169c0.177,0.094 0.239,0.041 0.225,-0.163c-0.022,-0.316 -0.512,-0.487 -0.788,-0.335c-0.001,-0.229 -0.124,-0.626 -0.016,-0.824c0.105,-0.193 0.486,-0.037 0.624,-0.037c0.331,-0 0.641,-0.006 0.97,0.007c0.059,0.003 0.245,0.022 0.263,-0.069c0.009,-0.047 -0.019,-0.183 0.044,-0.223c0.232,-0.15 0.175,0.32 0.365,0.227c0.161,-0.079 0.251,-0.279 0.389,-0.389c0.254,-0.202 0.381,0.101 0.442,0.245c0.123,0.287 0.123,0.426 0.094,0.705c-0.006,0.066 -0.047,0.214 0.073,0.192c0.131,-0.024 0.14,-0.087 0.2,-0.051c-0.105,-0.166 -0.098,-0.356 -0.156,-0.546c-0.071,-0.236 -0.244,-0.565 -0.234,-0.812c0.009,-0.194 -0.514,-0.83 -0.75,-0.654c-0.007,-0.218 0.347,-0.451 0.5,-0.57c0.267,-0.209 0.089,-0.431 -0.099,-0.645c-0.415,-0.471 -0.295,-1.275 -0.294,-1.841c0.001,-0.203 0.066,-0.3 0.19,-0.437c0.079,-0.088 0.041,-0.269 0.104,-0.383c0.069,-0.125 0.18,-0.214 0.214,-0.324c0.062,-0.196 -0.209,-0.393 -0.32,-0.342c-0.268,0.122 -0.485,0.15 -0.717,0.134c-0.106,-0.007 -0.334,0.105 -0.576,0.04c-0.172,-0.046 -0.162,0.02 -0.379,0.051c-0.039,0.005 -0.354,-0.095 -0.324,-0.075c-0.12,-0.077 -0.175,-0.246 -0.25,-0.36c-0.107,-0.162 -0.208,-0.321 -0.306,-0.488c-0.05,-0.086 -0.12,-0.19 -0.243,-0.153c-0.231,0.069 -0.378,-0.152 -0.596,-0.175c-0.14,-0.015 -0.202,0.098 -0.329,0.13c-0.189,0.048 -0.366,-0.083 -0.555,-0.048c-0.121,0.022 -0.192,-0.056 -0.319,0.007c-0.124,0.063 -0.29,-0.011 -0.36,-0.124c-0.054,-0.088 -0.081,-0.151 -0.105,-0.248c-0.034,-0.134 -0.222,-0.12 -0.289,-0.215c-0.13,-0.184 -0.028,-0.574 0.082,-0.726c0.21,-0.287 -0.149,-0.569 -0.243,-0.778c-0.099,-0.219 0.009,-0.729 -0.314,-0.646c0.006,-0.077 -0.005,-0.153 -0.033,-0.226c-0.126,0.11 -0.26,0.177 -0.432,0.172c0.296,-0.348 0.445,-0.721 0.538,-1.159c0.09,-0.42 0.188,-0.746 0.409,-1.113c0.179,-0.299 0.586,-0.473 0.759,-0.787c0.196,-0.357 0.531,-0.265 0.852,-0.462c-0.131,0.317 -0.473,0.193 -0.662,0.419c-0.161,0.193 0.011,0.608 0.217,0.69c-0.187,-0.009 -0.007,0.402 0.012,0.48c0.055,0.239 -0.176,0.481 -0.337,0.632c-0.209,0.196 -0.31,0.435 -0.181,0.692c0.05,0.1 0.067,0.226 0.163,0.297c0.107,0.078 0.124,0.044 0.106,0.186c-0.039,0.299 0.192,0.367 0.434,0.23c0.25,-0.141 0.349,-0.35 0.381,-0.626c0.042,-0.353 -0.118,-0.551 -0.297,-0.84c-0.071,-0.114 -0.133,-0.243 -0.176,-0.371c-0.037,-0.116 0.061,-0.273 -0.029,-0.368c0.136,0.016 0.253,-0.188 0.358,-0.247c0.19,-0.109 0.369,-0.253 0.591,-0.291c0.192,-0.034 0.345,-0.06 0.514,-0.161c0.063,-0.038 0.253,-0.19 0.336,-0.151c-0.011,-0.06 -0.04,-0.111 -0.086,-0.151c0.083,0.033 0.335,0.243 0.422,0.144c0.058,-0.067 -0.003,-0.233 -0.078,-0.264c-0.129,-0.053 -0.301,0.068 -0.431,0.077c0.025,-0.149 -0.1,-0.935 0.342,-0.754c0.202,0.082 0.16,0.516 0.191,0.686c0.069,0.378 0.478,0.127 0.748,0.221c0.303,0.105 0.68,0.186 0.812,0.535c0.081,0.213 -0.129,0.693 0.229,0.769c0.426,0.089 0.966,-0.107 1.388,-0.162c0.362,-0.048 0.739,-0.125 0.96,0.196c0.092,0.133 0.221,0.242 0.374,0.296c0.125,0.044 0.255,0.073 0.383,0.106c0.013,0.002 0.414,0.088 0.219,0.088c0.341,0.184 0.503,-0.213 0.773,-0.238c0.164,-0.015 0.201,-0.185 0.337,-0.248c0.187,-0.086 0.401,0.079 0.593,-0.03c-0.165,-0.173 -0.553,0.012 -0.662,-0.205l0.284,-0c0.133,-0 0.172,-0.082 0.27,-0.086c0.047,0.016 0.094,0.036 0.139,0.059c0.133,0.024 0.27,0.008 0.402,-0.014c0.562,-0.095 1.138,0.011 1.691,-0.099c-0.086,0.174 -0.363,0.141 -0.522,0.224c-0.229,0.12 -0.494,-0.043 -0.717,0.078c0.053,-0.02 0.1,0.007 0.122,0.085c-0.093,-0.007 -0.159,0.051 -0.173,0.14c0.205,-0.12 0.363,0.002 0.359,0.242c-0.004,0.19 -0.324,0.063 -0.424,0.06c0.072,0.266 0.513,0.079 0.467,-0.162c0.119,0.017 0.169,0.153 0.179,0.254c0.013,0.136 0.139,0.288 0.123,0.414c0.085,-0.089 0.127,-0.213 0.088,-0.334c0.109,0.106 0.125,0.311 0.031,0.431c0.116,-0.081 0.068,-0.242 0.055,-0.355c0.059,0.014 0.116,0.032 0.173,0.054c-0.011,-0.012 -0.369,-0.202 -0.159,-0.176c0.2,0.025 0.461,0.234 0.354,0.456c0.048,-0.086 0.116,-0.079 0.065,-0.162c0.081,-0.04 0.164,-0.047 0.25,-0.022c-0.183,-0.202 0.114,-0.019 0.181,0.088c0.123,0.198 0.339,0.117 0.499,0.24c0.425,0.327 -0.074,0.329 -0.182,0.631c0.035,-0.038 0.071,-0.074 0.109,-0.108c0.009,0.048 -0.001,0.106 -0.02,0.167c0.053,-0.047 0.121,-0.077 0.193,-0.081c-0.087,0.041 -0.156,0.109 -0.228,0.172c-0.049,0.112 -0.118,0.224 -0.158,0.294c-0.045,0.08 -0.032,0.148 -0.136,0.148c-0.091,0 -0.371,-0.081 -0.431,0c0.042,0.024 0.093,0.042 0.145,0.062c0.101,-0.054 0.315,-0.074 0.321,0.088c-0.069,-0.013 -0.139,-0.024 -0.206,-0.043c0.069,0.032 0.13,0.074 0.163,0.141c0.086,-0.112 0.207,-0.191 0.227,-0.011c0.125,-0.136 0.218,-0.2 0.401,-0.237c0.17,-0.034 0.237,0.146 0.395,-0.006c0.275,-0.263 0.769,0.39 0.614,0.467c-0.153,0.078 -0.242,0.189 -0.367,0.307c-0.117,0.111 -0.319,0.164 -0.412,0.262c-0.066,0.07 -0.12,0.166 -0.18,0.242c-0.121,0.156 0.055,0.254 0.042,0.422c-0.008,0.105 0.031,0.221 0.154,0.155c0.146,-0.08 0.248,0.112 0.138,0.218c-0.122,0.116 -0.303,0.157 -0.421,0.274c-0.056,0.056 -0.155,-0.025 -0.213,-0.031c-0.052,-0.005 -0.081,0.096 -0.131,0.115c-0.456,0.177 0.008,0.458 -0.234,0.724c-0.061,0.067 -0.306,0.22 -0.219,0.338c0.147,0.201 0.299,0.404 0.458,0.596c0.065,0.078 0.153,0.172 0.226,0.273c0.163,-0.024 0.303,0.001 0.468,-0.046c0.135,-0.039 0.235,0.004 0.325,0.14c0.19,0.288 -0.053,0.496 -0.1,0.752c-0.023,0.132 0.29,0.063 0.459,0.231c0.038,0.037 -0.047,0.145 -0.015,0.22c0.052,0.12 0.11,0.214 0.177,0.324c0.075,0.122 -0.268,0.444 -0.295,0.545c-0.027,0.1 -0.029,0.214 -0.055,0.323c-0.049,0.198 -0.16,0.351 -0.184,0.555c-0.036,0.301 0.008,0.577 0.207,0.772c0.143,0.139 -0.016,0.576 0.171,0.561c-0.014,0.036 -0.029,0.072 -0.044,0.108c0.226,0.025 0.396,0.277 0.486,0.444c0.075,0.14 0.226,0.011 0.315,0.141c0.08,0.117 0.216,0.088 0.286,0.103c0.079,0.016 0.159,-0.199 0.248,-0.273c0.317,-0.261 0.534,-0.236 0.786,-0.344c0.145,-0.062 0.218,0.026 0.341,-0.121c0.162,-0.194 0.331,-0.299 0.613,-0.212c0.23,0.071 0.351,-0.068 0.591,-0.001c0.157,0.044 0.59,0.262 0.648,-0.003c0.054,-0.244 -0.249,-0.263 -0.136,-0.489c0.208,-0.415 0.249,-0.057 0.497,-0.12c0.158,-0.039 0.268,-0.076 0.411,-0.128c0.304,-0.112 0.29,-0.052 0.515,0.134c0.045,0.037 0.012,-0.088 0.066,-0.005c0.067,0.103 0.173,0.139 0.271,0.212c0.127,0.096 0.245,0.108 0.377,0.18c0.056,0.053 0.139,-0.163 0.432,-0.267c0.074,-0.041 0.166,0.057 0.245,0.064c0.097,0.008 0.467,-0.096 0.397,0.102c0.107,-0.05 0.276,0.075 0.364,-0.003c0.124,-0.111 0.235,-0.158 0.328,-0.301c0.132,-0.201 0.381,-0.848 0.514,-1.048c0.388,-0.581 0.752,-1.065 0.658,-1.462c0.069,0.166 0.218,0.46 0.265,0.511c-0.05,-0.14 -0.168,-0.313 -0.044,-0.452c0.329,0.202 0.372,0.528 0.336,0.883c0.019,-0.105 0.029,-0.219 0.119,-0.291c-0.013,0.469 0.036,0.958 0.203,1.399c0.068,0.181 0.347,0.728 0.143,0.894c0.158,-0.051 0.184,0.118 0.234,0.221c0.097,0.2 0.325,0.12 0.493,0.189c0.383,0.157 0.309,0.606 -0.022,0.753c0.086,-0.024 0.183,-0.009 0.25,0.054c-0.146,0.145 -0.4,0.275 -0.458,0.486c-0.031,0.108 -0.155,0.157 -0.214,0.246c-0.089,0.134 -0.128,0.284 -0.236,0.408c-0.147,0.168 -0.336,0.29 -0.501,0.438c-0.203,0.184 -0.309,0.431 -0.48,0.641c-0.158,0.194 -0.217,0.344 -0.194,0.594c0.012,0.14 -0.248,0.165 -0.257,0.357c-0.013,0.26 -0.204,0.12 -0.337,0.116c-0.123,-0.004 -0.507,0.183 -0.552,0.3c0.108,-0.025 0.692,-0.136 0.529,0.13c0.111,-0.121 0.284,-0.11 0.418,-0.188c0.156,-0.092 0.276,-0.191 0.445,-0.263c0.22,-0.094 0.545,-0.366 0.667,-0.572c0.109,0.063 0.137,0.164 0.139,0.278c0.253,-0.032 0.224,0.139 0.37,-0.106c-0.095,-0.026 -0.276,0.14 -0.34,0.014c-0.057,-0.115 0.03,-0.197 0.036,-0.305c0.006,-0.093 -0.067,-0.138 -0.031,-0.238c0.086,0.025 0.173,0.046 0.26,0.065c-0.241,-0.068 -0.232,-0.351 -0.126,-0.528c0.192,-0.323 0.571,-0.194 0.862,-0.118c0.159,0.041 0.293,0.063 0.456,0.07c0.186,0.009 0.057,-0.041 0.174,-0.091c0.265,-0.114 0.618,0.059 0.897,0.076c0.357,0.022 0.119,0.367 0.079,0.57c-0.043,0.216 -0.083,0.401 -0.209,0.587c-0.13,0.192 -0.124,0.427 -0.349,0.543c-0.124,0.064 -0.51,0.224 -0.571,0c-0.001,0.139 -0.11,0.241 -0.216,0.313c-0.028,-0.038 -0.053,-0.077 -0.076,-0.118c0.035,0.186 -0.113,0.105 -0.215,0.076c-0.143,-0.042 -0.335,0.049 -0.489,0.032c0.174,0.096 -0.163,0.072 -0.245,-0.011c-0.109,-0.11 -0.164,-0.26 -0.244,-0.389c0.006,-0.132 0.023,-0.287 -0.022,-0.416c-0.002,0.177 -0.05,0.379 0.059,0.512c0.074,0.091 0.002,0.335 0.125,0.371c0.103,0.03 0.28,-0.029 0.218,0.148c0.238,0.047 0.661,-0.378 0.713,0.091c-0.008,-0.138 0.137,-0.165 0.248,-0.186c0.057,0.001 0.098,-0.024 0.123,-0.077c0.044,-0.118 0.172,-0.075 0.271,-0.097c-0.129,0.4 -0.248,0.661 -0.229,1.077c0.184,-0.236 0.075,-0.748 0.383,-0.893c0.09,-0.042 0.147,-0.071 0.192,-0.106c-0.127,-0.094 -0.056,-0.237 0.076,-0.283c-0.007,0.091 -0.025,0.18 -0.056,0.267c0.049,-0.044 0.088,-0.101 0.149,-0.199c0.2,-0.325 0.255,-0.085 0.459,0.04c-0.005,-0.068 -0.022,-0.133 -0.053,-0.194c0.113,-0.008 0.224,-0.034 0.336,-0.054c-0.115,-0.057 -0.243,-0.01 -0.359,0.01c-0.029,-0.157 0.083,-0.164 0.172,-0.248c0.134,-0.128 -0.011,-0.412 0.155,-0.575c0.195,-0.191 0.14,-0.03 0.27,-0.08c0.091,-0.035 0.282,-0.264 0.304,-0.033c0.179,-0.174 0.189,0.069 0.356,0.01c-0.071,-0.061 -0.088,-0.153 -0.043,-0.236c0.102,0.03 0.347,0.089 0.293,0.247c0.036,-0.019 0.072,-0.037 0.109,-0.054c0.014,0.04 0.029,0.08 0.043,0.12c0.094,-0.074 0.109,-0.075 0.109,0.052c0.069,-0.023 0.121,-0.073 0.142,-0.139c0.005,0.085 0.112,0.123 0.104,0.213c0.022,-0.067 0.075,-0.104 0.154,-0.074c-0.001,0.074 -0.04,0.133 -0.1,0.165c0.135,-0.025 0.261,0.133 0.392,0.009c-0.02,0.202 0.131,0.082 0.175,-0.023c-0.062,0.246 0.145,0.144 0.129,0.303c0.058,-0.024 0.102,-0.063 0.131,-0.119c-0.02,0.139 0.155,0.088 0.184,0.216c0.037,-0.035 0.073,-0.071 0.108,-0.108c0.007,0.081 0.037,0.152 0.088,0.215c0.036,-0.028 0.071,-0.057 0.107,-0.086c0.016,0.093 0.05,0.144 0.125,0.087c-0.047,0.055 -0.052,0.126 -0.005,0.192c0.022,-0.083 0.087,-0.147 0.173,-0.161c-0.122,0.109 -0.079,0.342 0.033,0.442c0.049,-0.091 -0.01,-0.244 0.114,-0.292c0.225,-0.086 0.124,0.074 0.233,0.108c-0.007,-0.089 0.047,-0.16 0.129,-0.193c-0.038,0.071 -0.056,0.146 -0.054,0.226c0.257,-0.153 -0.034,0.305 0.239,0.14c-0.037,0.034 -0.074,0.07 -0.108,0.107c0.088,0.03 0.168,-0.012 0.216,-0.085c-0.074,0.159 0.187,0.072 0.074,0.285c-0.091,0.174 -0.061,0.321 -0.24,0.403c0.059,-0.007 0.104,0.039 0.123,0.108c0.006,-0.137 0.158,-0.347 0.285,-0.17c0.136,0.19 -0.102,0.249 -0.177,0.392c-0.064,0.122 -0.178,0.497 -0.134,0.63c0.049,0.146 -0.185,0.267 -0.082,0.376c0.013,-0.206 0.258,-0.268 0.346,-0.431c0.087,-0.162 0.03,-0.434 0.124,-0.567c0.048,-0.069 0.267,-0.224 0.337,-0.106c0.116,0.194 -0.251,0.297 -0.276,0.458c0.107,-0.069 0.143,-0.043 0.108,0.076c0.127,-0.061 0.304,-0.552 0.369,-0.302c0.011,-0.173 0.346,-0.266 0.476,-0.193c-0.014,-0.34 0.695,0.036 0.821,0.108c0.089,0.051 0.58,0.25 0.588,0.343c0.107,-0.069 0.39,0.106 0.337,-0.118c0.142,0.032 0.238,0.137 0.368,0.193c0.149,0.065 0.309,0.055 0.433,0.174c-0.002,-0.207 0.127,-0.185 0.288,-0.191c0.325,-0.012 0.612,-0.141 0.943,-0.071c0.605,0.128 1.166,0.642 1.637,1.01c0.158,0.122 0.338,0.143 0.468,0.297c0.125,0.148 0.222,0.313 0.34,0.465c0.133,0.171 0.311,0.247 0.434,0.415c0.13,0.18 0.37,0.199 0.514,0.385c0.144,0.186 0.354,0.111 0.519,0.271c0.19,0.186 0.525,0.111 0.758,0.082c0.537,-0.066 0.934,0.133 1.09,0.663c0.061,0.205 0.151,0.409 0.155,0.626c0.001,0.065 -0.055,0.175 -0.004,0.2c0.058,0.029 0.091,0.108 0.114,0.163c0.097,0.232 0.263,0.748 0.137,0.992c0.035,-0.052 0.067,-0.106 0.097,-0.161c-0.024,0.245 0.156,0.54 -0.097,0.721c0.04,0.009 0.08,0.02 0.119,0.032c-0.101,0.203 0.059,0.447 -0.065,0.631c-0.128,0.19 -0.032,0.446 -0.133,0.646c-0.116,0.232 -0.157,0.493 -0.265,0.728c-0.119,0.259 -0.378,0.429 -0.479,0.698c-0.038,-0.027 -0.074,-0.055 -0.109,-0.085c0.008,0.109 -0.026,0.245 -0.131,0.064c0.019,0.069 0.062,0.105 0.131,0.108c-0.158,0.31 -0.389,0.714 -0.651,0.948c-0.108,0.097 -0.254,0.135 -0.364,0.231c-0.114,0.1 -0.203,0.231 -0.34,0.306c0.023,-0.092 -0.036,-0.157 -0.12,-0.182c-0.01,0.1 0.116,0.132 0.098,0.225c-0.024,0.121 -0.128,0.281 -0.249,0.13c0.06,0.078 0.2,0.152 0.115,0.268c-0.049,0.068 -0.253,0.291 -0.17,0.044c-0.068,0.107 -0.054,0.242 -0.151,0.335c0.044,-0.014 0.087,-0.028 0.13,-0.044c-0.239,0.338 -0.618,2.042 -1.236,1.938c0.114,-0.257 -0.149,-0.305 -0.228,-0.507c-0.004,0.095 -0.089,0.328 -0.177,0.281c0.059,0.053 0.133,0.098 0.13,0.175c-0.009,0.198 -0.261,0.34 -0.19,0.557c-0.174,-0.117 -0.138,0.181 -0.142,0.302c0.013,-0.056 0.031,-0.109 0.054,-0.161c0.059,0.151 0.06,0.282 0.054,0.441c-0.033,-0.026 -0.064,-0.054 -0.094,-0.083c0.083,0.098 0.151,0.32 0.117,0.428c0.03,-0.075 0.058,-0.151 0.086,-0.227c0.015,0.453 -0.131,0.863 -0.065,1.323c0.057,0.394 0.229,0.807 0.249,1.201c0.035,0.698 -0.406,1.348 -0.211,2.064c0.109,0.399 -0.145,0.448 -0.317,0.749c-0.199,0.345 -0.229,0.775 -0.179,1.163c0.035,0.277 0.2,0.835 -0.13,0.979c-0.311,0.136 -0.061,0.741 -0.431,0.791c0.263,0.231 -0.182,0.52 -0.332,0.662c-0.129,0.122 -0.092,0.214 -0.137,0.377c-0.067,0.241 -0.177,0.458 -0.138,0.715c0.02,0.134 0.117,0.342 0.017,0.464c-0.167,0.201 -0.421,0.195 -0.63,0.319c-0.142,0.084 -0.288,0.241 -0.352,0.393c-0.041,0.098 0.007,0.189 0.035,0.283c0.03,0.096 -0.094,0.147 -0.045,0.254c-0.148,-0.163 -0.573,-0.081 -0.759,-0.043c-0.109,0.023 -0.284,0.083 -0.39,0.022c-0.157,-0.09 -0.045,-0.241 -0.054,-0.377c-0.349,0.041 -0.062,0.185 -0.109,0.359c-0.046,0.173 -0.743,0.106 -0.9,0.19c0.107,-0.113 0.291,-0.062 0.423,-0.108c-0.142,-0.126 -0.302,-0.195 -0.479,-0.088c-0.157,0.095 -0.227,0.019 -0.39,0.038c-0.117,0.013 -0.313,0.026 -0.354,0.165c-0.039,0.129 0.162,0.186 0.237,0.241c-0.171,0.139 -0.399,-0.007 -0.511,0.157c-0.096,0.141 -0.251,0.158 -0.384,0.25c-0.118,0.081 0.027,0.206 -0.091,0.283c-0.163,0.106 -0.441,-0.195 -0.673,-0c-0.024,0.02 -0.185,0.314 -0.242,0.241c-0.051,-0.063 -0.011,-0.155 -0.137,-0.133c0.066,0.195 -0.189,0.218 -0.33,0.311c-0.174,0.116 -0.254,0.279 -0.391,0.427c-0.15,0.161 -0.38,0.206 -0.542,0.351c-0.138,0.124 -0.217,0.312 -0.374,0.417c0.036,0.022 0.072,0.044 0.109,0.065c-0.122,0.125 -0.243,0.271 -0.315,0.431c-0.011,-0.081 0.01,-0.153 0.065,-0.215c-0.113,0.048 -0.231,0.017 -0.336,-0.033c0.049,0.223 -0.076,0.352 -0.292,0.172c-0.002,0.129 0.304,0.261 0.422,0.248c-0.081,0.075 -0.11,0.176 -0.13,0.28c-0.016,0.083 -0.185,0.056 -0.238,0.097c0.073,-0.002 0.145,0.001 0.217,0.01c-0.033,0.102 0.01,0.207 -0.02,0.308c-0.031,0.106 -0.135,0.134 -0.182,0.045c0.024,0.081 0.022,0.174 0.106,0.21c0.129,0.055 0.054,0.325 0.084,0.429c0.048,0.165 0.255,0.407 0.163,0.613c0.159,-0.037 0.142,0.149 0.012,0.172c0.143,0.109 0.031,0.569 0.145,0.759c0.108,0.178 -0.083,0.621 -0.091,0.803c-0.057,-0.042 -0.104,-0.092 -0.142,-0.152c0.039,0.093 0.036,0.202 0.152,0.238c-0.121,0.17 -0.313,0.271 -0.468,0.405c-0.165,0.143 -0.279,0.334 -0.382,0.524c-0.248,0.461 -0.321,0.953 -0.453,1.452c-0.124,0.47 -0.358,0.896 -0.63,1.295c-0.262,0.384 -0.644,0.658 -0.95,1.008c0.055,-0.138 -0.023,-0.308 -0.054,-0.442c0.16,0.043 0.223,0.057 0.364,-0.041c0.126,-0.087 0.196,-0.286 0.309,-0.349c0.157,-0.088 0.184,-0.161 0.183,-0.341c-0,-0.116 0.021,-0.32 0.163,-0.152c-0.053,-0.171 0.028,-0.236 0.129,-0.355c0.083,-0.098 0.1,-0.21 0.082,-0.334c-0.013,-0.09 -0.109,-0.391 0.092,-0.205c0.005,-0.047 -0.06,-0.336 -0.135,-0.31c-0.047,0.016 -0.307,0.211 -0.309,0.268c-0.072,-0.08 -0.113,-0.176 -0.219,-0.214c-0.125,-0.044 -0.101,-0.221 -0.215,-0.281c-0.01,0.295 0.131,0.283 0.248,0.495c-0.248,0.06 -0.067,0.346 -0.085,0.505c-0.018,-0.078 -0.05,-0.15 -0.098,-0.215c-0.036,0.102 0.061,0.233 0.01,0.318c-0.023,0.038 -0.103,0.031 -0.092,0.09c0.047,0.245 -0.163,0.376 -0.338,0.475c-0.138,0.078 -0.083,0.249 -0.122,0.378c-0.033,0.108 -0.307,0.372 -0.044,0.398c-0.14,0.086 -0.04,0.277 0.098,0.172c0.022,0.137 -0.079,0.264 -0.135,0.38c-0.091,0.189 -0.084,0.418 -0.113,0.622c-0.058,0.401 -0.304,0.641 -0.514,0.966c-0.085,0.132 -0.196,0.206 -0.265,0.179c-0.073,-0.029 -0.17,-0.203 -0.206,-0.285c-0.067,-0.154 -0.039,-0.282 -0.049,-0.414c-0.013,-0.172 0.156,-0.299 0.232,-0.441c0.119,-0.222 -0.138,-0.322 -0.29,-0.392c-0.177,-0.082 -0.25,-0.235 -0.357,-0.388c-0.25,-0.357 -0.598,-0.341 -0.833,-0.591c-0.194,-0.202 -0.421,-0.314 -0.657,-0.444c-0.087,-0.041 -0.12,-0.127 -0.206,-0.167c-0.247,0.156 -0.545,-0.377 -0.801,-0.576c0.131,0.185 -0.397,0.501 -0.386,0.107c0.009,-0.312 -0.379,-0.512 -0.601,-0.678c-0.164,-0.123 -0.489,-0.552 -0.737,-0.374c-0.083,0.06 -0.087,0.17 -0.218,0.204c-0.122,0.032 -0.291,0.017 -0.402,-0.121c0.002,-0.001 0.005,-0.002 0.007,-0.003c-0.005,0.001 -0.01,0.002 -0.015,0.003c0.045,0.115 0.003,0.268 -0.084,0.345c-0.244,0.216 0.051,0.243 0.074,0.474c0.012,0.114 -0.06,0.135 -0.066,0.225c-0.006,0.106 0.008,0.132 0.019,0.237c0.01,0.105 0,0.2 -0.047,0.294c-0.096,0.191 0.086,0.091 0.07,0.276c-0.021,0.233 -0.156,0.277 -0.111,0.532c0.037,0.218 0.169,0.3 0.098,0.521c-0.065,0.2 0.072,0.445 0.172,0.611c0.175,0.291 -0.218,0.185 -0.203,0.353c0.02,0.22 -0.111,0.444 -0.007,0.665c0.058,0.124 0.529,0.796 0.15,0.776c0.172,0.139 0.19,0.318 0.396,0.446c0.223,0.139 0.445,0.246 0.684,0.356c0.39,0.179 0.937,0.482 0.725,0.961c-0.152,0.345 0.308,1.039 0.722,0.868c0.163,-0.068 0.235,0.42 0.269,0.508c0.103,0.261 -0.073,0.556 -0.181,0.79c-0.099,0.216 -0.353,0.522 -0.36,0.761c-0.008,0.253 0.016,0.327 -0.219,0.494c-0.425,0.301 -0.913,0.456 -1.42,0.557c-0.611,0.123 -1.204,0.301 -1.831,0.329c-0.242,0.011 -0.445,0.006 -0.683,-0.015c-0.271,-0.024 -0.454,-0.196 -0.714,-0.229c0.036,0.069 0.085,0.129 0.145,0.179c0.067,0.061 -0.007,0.193 0.031,0.269c0.022,0.042 0.516,0.405 0.203,0.284c0.144,0.105 0.213,0.179 0.245,0.357c0.023,0.129 0.042,0.342 -0.158,0.236c0.03,0.13 0.067,0.262 0.063,0.396c-0.004,0.109 -0.116,0.203 -0.035,0.3c0.059,0.071 0.142,0.12 0.21,0.182c0.104,0.093 0.05,0.243 0.196,0.166c-0.089,0.528 -0.63,0.608 -1.078,0.648c-0.594,0.053 -1.08,-0.345 -1.665,-0.433c0.242,-0.047 -0.012,-0.134 -0.089,-0.094c-0.102,0.052 -0.163,0.182 -0.168,0.292c-0.012,0.316 0.377,0.546 0.436,0.857c0.048,0.253 0.054,0.566 0.337,0.673c0.144,0.055 0.54,0.085 0.428,0.328c0.06,0.015 0.617,0.077 0.579,-0.067c-0.03,-0.117 -0.287,-0.122 -0.374,-0.169c0.185,0.028 0.284,-0.162 0.456,-0.172c0.177,-0.011 0.36,0.235 0.39,0.387c0.028,0.142 0.208,0.35 0.108,0.496c-0.068,0.1 -0.322,0.132 -0.431,0.118c-0.182,-0.022 -0.153,-0.227 -0.243,-0.317c-0.148,-0.146 -0.351,-0.205 -0.532,-0.085c-0.48,0.319 0.312,0.579 0.589,0.509c-0.023,0.151 -0.184,0.2 -0.306,0.249c-0.24,0.099 -0.23,0.207 -0.323,0.419c-0.096,0.221 -0.112,0.296 0.042,0.503c0.053,0.071 0.127,0.159 0.136,0.252c-0.018,0.063 -0.019,0.126 -0.004,0.189c0.065,0.059 0.098,0.132 0.102,0.218c-0.007,0.041 0.013,0.188 -0.047,0.204c-0.084,0.022 -0.201,0.058 -0.213,0.163c-0.019,0.178 0.251,0.206 0.222,0.345c-0.031,0.153 -1.109,-0.064 -0.878,0.324c-0.465,-0.098 -0.589,0.457 -0.653,0.794c-0.108,0.565 0.265,0.789 0.693,1.076c0.21,0.141 0.392,0.328 0.627,0.431c0.3,0.13 0.663,-0.046 0.948,0.121c0.306,0.18 0.412,0.685 0.163,0.872c0.148,-0.003 0.211,0.103 0.304,0.206c-0.095,0.011 -0.125,0.066 -0.077,0.149c-0.178,-0.036 -0.538,0.423 -0.649,0.532c-0.145,0.142 -0.257,0.281 -0.364,0.455c-0.073,0.118 -0.143,0.187 -0.137,0.333c0.005,0.115 0.017,0.225 -0.086,0.308c0.089,0.015 0.158,-0.033 0.175,-0.12c0.011,0.32 0.366,0.876 -0.116,1.029c-0.355,0.112 -0.469,-0.424 -0.774,-0.479c0.079,0.03 0.286,0.187 0.217,0.29c-0.018,0.028 -0.055,0.037 -0.1,0.04c0.152,0.022 0.268,0.127 0.448,0.165c-0.032,0.198 -0.347,0.188 -0.419,0.408c-0.098,0.295 0.112,0.487 -0.058,0.787c0.22,-0.271 0.538,0.324 0.618,0.479c0.123,0.239 -0.376,0.099 -0.499,0.2c0.129,-0.042 0.433,0.079 0.488,0.047c0.178,-0.104 0.315,0.133 0.451,0.24c0.263,0.207 0.544,0.358 0.665,0.66c-0.033,-0.056 -0.088,-0.082 -0.148,-0.095c0.009,0.003 0.019,0.006 0.028,0.01c-0.222,0.004 -0.424,-0.091 -0.638,-0.131c-0.392,-0.071 -0.193,0.14 -0.315,0.303c-0.107,0.143 -0.323,0.007 -0.448,0.146c-0.152,0.167 -0.427,0.134 -0.625,0.198c0.131,0.173 0.142,0.389 0.186,0.592c0.043,0.199 0.167,0.311 0.261,0.48c0.25,0.452 -0.346,0.299 -0.573,0.252c-0.272,-0.056 -0.891,-0.225 -0.996,-0.523c-0.104,-0.299 0.479,-0.128 0.233,0.071c0.14,0.003 0.097,-0.166 0.151,-0.239c0.039,-0.052 0.345,0.216 0.196,0.358c0.237,-0.08 -0.196,-0.444 0.25,-0.522c0.077,-0.014 0.094,-0.222 0.094,-0.277c0.001,-0.153 -0.258,-0.121 -0.344,-0.203c0.006,0.16 -0.225,0.306 -0.336,0.388c-0.189,0.138 -0.357,-0.076 -0.542,0.043c0.135,-0.026 0.24,0.09 0.335,0.162c-0.078,0.017 -0.154,0.009 -0.227,-0.023c0.03,0.082 0.019,0.158 -0.033,0.228c0.137,0.017 0.243,0.113 0.337,0.204c-0.327,0.083 -0.883,-0.271 -1.117,-0.474c0.162,0.077 0.388,0.069 0.563,0.065c-0.028,-0.145 -0.371,-0.156 -0.384,-0.438c-0.007,-0.169 0.291,-0.238 0.234,-0.026c0.19,-0.055 0.218,-0.038 0.351,-0.197c0.134,-0.161 0.49,0.078 0.677,-0.05c-0.12,-0.155 -0.915,-0.267 -0.953,0c-0.107,-0.037 -0.183,-0.083 -0.011,-0.151c-0.102,0.004 -0.512,0.009 -0.423,0.205c0.073,-0.069 0.149,-0.073 0.228,-0.01c-0.031,0.082 -0.1,0.145 -0.184,0.172c0.056,0.093 0.229,0.322 0.009,0.341c-0.135,0.012 -0.433,-0.156 -0.18,-0.231c-0.131,0.034 -0.232,-0.075 -0.327,-0.143c0.076,0.011 0.151,0.011 0.227,-0c-0.041,-0.019 -0.081,-0.041 -0.12,-0.065c0.149,-0.09 -0.018,-0.266 0.185,-0.215c-0.159,-0.058 -0.159,-0.083 -0,-0.075c-0.076,-0.024 -0.152,-0.024 -0.227,0c0.079,0.056 0.099,0.146 0.042,0.226c-0.037,-0.076 -0.109,-0.131 -0.195,-0.14c0.004,0.09 -0.048,0.167 -0.129,0.205c0.047,-0.105 0.014,-0.144 -0.098,-0.119c0.246,-0.2 -0.347,-0.568 -0.391,-0.753c0.103,0.115 0.285,0.228 0.446,0.221c0.074,-0.003 0.36,-0.259 0.281,0.037c0.071,-0.042 0.182,-0.013 0.215,-0.033l-0.042,-0c-0.001,-0.009 -0.001,-0.017 -0.002,-0.025c-0.022,-0.001 -0.106,-0.206 -0.106,-0.298c0.127,0.012 0.239,0.141 0.332,0.216c0.173,0.138 0.064,0.26 -0.04,0.398c0.105,-0.069 0.224,-0.019 0.337,-0.011c-0.148,-0.074 -0.037,-0.25 -0.17,-0.329c-0.081,-0.048 -0.353,-0.253 -0.112,-0.284c-0.085,-0.067 -0.143,-0.157 -0.209,-0.239c0.007,0.015 0.01,0.03 0.009,0.045c-0.015,0.152 -0.7,-0.203 -0.798,-0.193c0.069,0.094 0.172,0.074 0.256,0.14c0.09,0.071 0.032,0.202 0.178,0.204c-0.056,0.062 -0.092,0.134 -0.108,0.215c-0.102,-0.149 -0.179,-0.329 -0.326,-0.441c0.117,0.147 0.289,0.349 0.282,0.549c-0.168,-0.147 -0.388,-0.206 -0.476,-0.431c0.075,0.056 0.15,0.11 0.228,0.162c-0.059,-0.103 -0.241,-0.17 -0.207,-0.313c-0.07,0.001 -0.147,0.07 -0.217,0.054c-0.069,-0.016 -0.054,-0.118 -0.142,-0.134c-0.092,-0.016 -0.211,-0.247 -0.226,-0.328c0.19,0.045 0.306,0.211 0.454,0.323c-0.144,-0.163 -0.235,-0.369 -0.397,-0.516c0.215,0.188 0.04,-0.067 -0.068,-0.089c-0.011,0.036 -0.022,0.072 -0.033,0.108c-0.09,-0.023 -0.17,-0.065 -0.238,-0.128c0.152,0.244 -0.209,-0.159 -0.266,-0.209c-0.07,-0.061 0.103,-0.092 0.127,-0.096c0.049,-0.008 0.098,-0.01 0.147,-0.007c0.187,0.014 -0.178,-0.213 0.101,-0.055c-0.096,-0.08 -0.091,-0.244 0.054,-0.248c-0.124,-0.003 -0.254,-0.123 -0.163,-0.247c-0.121,0.107 -0.01,0.335 -0.088,0.464c-0.092,0.151 -0.473,-0.366 -0.552,-0.41c0.083,0.027 0.158,0.067 0.228,0.118c-0.227,-0.204 0.019,-0.053 0.131,-0.064c-0.142,-0.124 -0.453,-0.114 -0.511,-0.29c0,0.249 -0.282,-0.12 -0.433,-0.13c0.154,-0.303 0.646,0.165 0.89,0.13c-0.216,-0.05 -0.66,-0.178 -0.694,-0.443c0.178,-0.009 0.302,0.175 0.487,0.108c-0.111,0.007 -0.14,-0.074 -0.103,-0.16c-0.117,0.231 -0.61,-0.145 -0.264,-0.215c-0.095,0.013 -0.368,-0.078 -0.203,-0.174c0.226,-0.131 0.396,0.109 0.592,0.172c-0.143,-0.086 -0.301,-0.18 -0.422,-0.257c-0.063,-0.041 -0.168,-0.05 -0.162,-0.151c0.005,-0.094 0.102,-0.118 0.172,-0.083c-0.119,-0.075 -0.309,-0.478 -0.076,-0.359c-0.081,-0.052 -0.157,-0.045 -0.227,0.021c0.057,0.054 0.064,0.49 0.022,0.56c-0.166,-0.161 -0.43,-0.449 -0.417,-0.694c0.004,-0.058 -0.197,-0.162 -0.104,-0.233c0.069,-0.054 0.235,-0.059 0.315,-0.031c-0.035,-0.025 -0.591,-0.084 -0.388,-0.27c0.084,-0.078 0.301,0.034 0.388,0.066c-0.091,-0.049 -0.128,-0.137 -0.065,-0.226c-0.072,0.008 -0.467,-0.024 -0.26,-0.109c-0.247,0.072 -0.389,-0.379 -0.64,-0.301c-0.04,-0.289 0.393,0.049 0.465,0.118c-0.05,-0.075 -0.103,-0.147 -0.161,-0.215c0.203,-0.031 0.354,0.069 0.539,0.128c0.078,0.024 0.164,-0.002 0.235,0.049c0.099,0.071 0.224,0.033 0.308,0.102c0.039,-0.065 0.032,-0.126 -0.021,-0.182c-0.046,0.238 -0.408,-0.087 -0.423,-0.215c0.138,0.107 0.299,0.075 0.456,0.118c-0.058,-0.022 -0.118,-0.032 -0.181,-0.029c-0.124,-0.013 -0.182,-0.143 -0.275,-0.208c-0.082,-0.057 -0.158,-0.03 -0.227,-0.118c-0.007,-0.008 -0.012,-0.017 -0.016,-0.026c0.006,0.108 -0.043,0.202 -0.191,0.167c-0.114,-0.027 -0.295,-0.027 -0.461,-0.047c0.024,0.065 -0.011,0.058 -0.037,0.109c0.01,-0.037 0.02,-0.073 0.03,-0.109c-0.137,-0.017 -0.263,-0.047 -0.332,-0.116c0.094,-0.024 0.127,-0.093 0.065,-0.172c0.202,-0.054 0.296,0.166 0.464,0.226c-0.118,-0.047 -0.023,-0.188 0.099,-0.141c-0.024,-0.197 -0.137,-0.006 -0.259,-0.07c-0.083,-0.045 -0.122,-0.156 -0.229,-0.156c-0.11,0 0.046,-0.505 0.227,-0.215c-0.031,-0.088 0.001,-0.143 0.098,-0.139c-0.013,-0.054 -0.034,-0.105 -0.064,-0.151c-0.019,0.137 -0.151,0.179 -0.217,0.043c0.071,-0.024 0.143,-0.042 0.217,-0.054c-0.072,-0.099 -0.223,-0.118 -0.321,-0.182c-0.204,-0.132 -0.251,-0.199 -0.492,-0.066c0.086,-0.028 0.173,0.005 0.227,0.076c-0.181,-0.044 -0.367,-0.078 -0.532,-0.167c-0.29,-0.157 -0.085,-0.227 -0.194,-0.415c-0.105,0.207 -0.528,0.235 -0.542,0.421c0.197,-0.315 0.514,0.475 0.069,0.128c-0.277,-0.215 -0.058,-0.757 0.263,-0.696c-0.057,-0.029 -0.067,-0.087 -0.017,-0.155c0.168,0.131 0.1,-0.15 0.238,-0.03c-0.08,-0.104 0.066,-0.224 -0.087,-0.314c0.098,0.412 -0.42,0.072 -0.109,0.086c-0.112,-0.015 -0.241,-0.045 -0.271,-0.172c0.145,0.053 0.281,-0.092 0.439,-0.062c0.137,0.026 0.163,0.17 0.299,0.18c-0.196,-0.133 0.014,-0.187 0.124,-0.201c0.132,-0.017 0.092,0.148 0.234,0.159c-0.078,0.105 0.09,0.301 0.042,0.075c0.323,0.145 -0.161,0.355 -0.346,0.269c0.124,0.075 0.526,0.139 0.671,0.129c-0.081,-0.038 -0.134,-0.115 -0.129,-0.205c0.094,0.061 0.206,0.091 0.249,0.207c0.046,0.124 -0.088,0.228 -0.022,0.353c0.214,-0.028 0.277,-0.542 0.24,-0.699c-0.036,0.115 -0.064,0.236 -0.142,0.333c0.016,-0.229 -0.301,-0.805 0.152,-0.797c-0.128,-0.07 -0.258,0.028 -0.325,0.13c-0.023,-0.104 -0.095,-0.237 -0.065,-0.346c0.035,-0.124 0.175,-0.125 0.216,-0.246c0.081,0.097 0.2,0.135 0.309,0.19c0.14,0.072 0.178,-0.08 0.062,-0.07c-0.094,0.009 -0.152,-0.035 -0.226,-0.081c-0.138,-0.086 -0.292,-0.01 -0.427,-0.083c0.237,-0.177 -0.329,-0.359 0.116,-0.409c0.319,-0.036 0.46,-0.483 0.297,-0.732c-0.113,0.184 -0.802,-0.183 -0.787,-0.361c0.029,-0.037 0.068,-0.039 0.115,-0.005c-0.2,-0.21 0.203,-0.345 0.076,-0.518c-0.036,0.13 -0.156,0.133 -0.161,-0.008c-0.006,-0.177 -0.123,-0.109 -0.203,-0.275c-0.069,-0.143 0.006,-0.2 0.038,-0.324c0.018,-0.072 -0.128,-0.282 0.088,-0.232c-0.001,-0.131 -0.087,-0.149 -0.159,-0.235c-0.059,-0.072 -0.038,-0.167 -0.084,-0.243c-0.172,-0.281 0.044,-0.118 0.22,-0.158c-0.169,-0.022 -0.344,-0.209 -0.39,-0.366c0.242,-0.085 0.361,0.119 0.477,0.29c-0.024,-0.225 -0.183,-0.453 -0.293,-0.645c-0.22,0.205 -0.537,-0.093 -0.267,-0.27c0.17,-0.112 0.404,-0.194 0.181,-0.409c0.134,0.591 -0.33,0.161 -0.596,0.097c-0.203,-0.048 -0.063,0.272 -0.175,0.345c-0.167,0.11 -0.793,-0.074 -0.455,-0.226c-0.594,-0.013 -0.676,-0.938 -0.741,-1.344c-0.029,-0.18 -0.148,-0.591 -0.064,-0.77c0.083,-0.179 0.207,-0.021 0.17,-0.25c-0.025,-0.159 0.041,-0.31 0,-0.471c-0.061,-0.242 -0.129,-0.373 -0.3,-0.623c-0.175,-0.253 -0.388,-0.488 -0.476,-0.79c-0.054,-0.186 -0.001,-0.318 -0.145,-0.478c-0.096,-0.108 -0.191,-0.206 -0.262,-0.334c-0.059,-0.106 0.022,-0.164 -0.017,-0.244c-0.07,-0.144 -0.148,-0.245 -0.126,-0.414c0.125,0.092 0.35,0.152 0.416,-0.041c0.083,-0.239 -0.165,-0.422 -0.08,-0.658c0.004,0.085 0.055,0.132 0.141,0.128c-0.003,-0.06 -0.016,-0.118 -0.04,-0.173c-0.028,-0.109 0.063,-0.229 0.061,-0.343c-0.003,-0.227 -0.131,-0.377 0.007,-0.591c0.113,-0.174 -0.091,-0.276 -0.007,-0.483c0.064,-0.156 0.185,-0.421 0.207,-0.585c0.053,-0.396 -0.117,-0.816 -0.098,-1.206c0.01,-0.217 0.213,-0.402 0.203,-0.595c-0.009,-0.169 -0.143,-0.367 -0.208,-0.523c-0.055,-0.131 0.031,-0.307 0.081,-0.427c0.054,-0.13 -0.039,-0.341 -0.055,-0.469c-0.011,-0.092 0.045,-0.169 -0.022,-0.253c-0.071,-0.089 -0.135,-0.177 -0.172,-0.285c-0.083,-0.238 -0.117,-0.46 -0.218,-0.699c-0.184,-0.432 -0.388,-0.902 -0.468,-1.367c-0.041,-0.236 0.008,-0.26 0.173,-0.379c0.129,-0.093 0.001,-0.301 0.089,-0.421c0.083,-0.114 -0.186,-0.741 -0.279,-0.818c-0.118,-0.096 -0.267,-0.374 -0.185,-0.527c0.115,-0.214 0.131,-0.405 0.204,-0.634c0.047,-0.146 -0.06,-0.401 -0.057,-0.56c0.004,-0.26 0.201,-0.417 0.099,-0.68c-0.152,-0.394 0.059,-0.884 0.062,-1.302c0.003,-0.365 -0.226,-0.666 -0.208,-1.012c0.01,-0.199 0.223,-0.234 0.216,-0.424c-0.01,-0.254 -0.195,-0.503 -0.249,-0.755c-0.056,-0.263 -0.012,-0.522 -0.05,-0.783c-0.019,-0.131 -0.068,-0.22 -0.032,-0.357c0.03,-0.111 0.077,-0.225 0.053,-0.343c-0.029,-0.14 -0.242,-0.056 -0.277,-0.209c-0.037,-0.162 0.018,-0.339 0.033,-0.5c0.255,0.227 0.242,-0.515 0.239,-0.624c-0.013,-0.631 0.116,-1.357 -0.121,-1.95c-0.253,-0.635 -0.086,-1.333 -0.325,-1.98c-0.099,-0.27 -0.208,-0.594 -0.258,-0.876c-0.032,-0.177 0.052,-0.537 -0.155,-0.632c0.238,-0.135 0.523,-0.014 0.618,-0.346c0.044,-0.153 -0.167,-0.378 -0.046,-0.507c0.028,-0.018 0.06,-0.023 0.093,-0.015c0.091,-0.001 0.171,-0.14 0.224,-0.208c-0.061,-0.153 -0.113,-0.275 -0.195,-0.292c0.018,-0.1 0.092,-0.153 0.169,-0.207c0.118,-0.084 0.155,-0.22 0.236,-0.334c0.071,-0.098 0.122,-0.189 0.217,-0.265c0.015,-0.011 -0.015,-0.176 0.013,-0.161c0.084,0.044 0.293,0.087 0.083,-0.158c0.064,0.041 0.298,-0.215 0.312,-0.167c-0.024,-0.264 -0.453,0.186 -0.283,-0.455c-0.274,-0.046 -0.043,-0.114 -0.636,-0.501c0.03,-0.154 0.221,-0.316 0.143,-0.476c-0.122,-0.252 -0.313,-0.299 -0.155,-0.612c0.102,-0.202 0.208,-0.353 0.276,-0.553c0.081,-0.237 0.13,-0.228 -0.011,-0.479c-0.129,-0.231 -0.033,-0.416 -0.056,-0.664c-0.019,-0.199 -0.142,-0.608 0.01,-0.778c0.151,-0.168 0.29,-0.283 0.16,-0.503c-0.367,-0.621 -0.757,-1.251 -1.093,-1.888Zm3.11,-15.272c0.022,0.014 0.045,0.026 0.07,0.037c0.067,0.031 0.129,0.043 0.187,0.043c-0.09,-0.004 -0.175,-0.033 -0.257,-0.08Zm1.754,-0.47c0.014,-0.005 0.028,-0.01 0.041,-0.015c-0.014,0.004 -0.028,0.01 -0.041,0.015Zm0.221,-0.094c0.034,-0.02 0.066,-0.043 0.102,-0.074c-0.037,0.026 -0.071,0.052 -0.102,0.074Zm0.44,-0.116c-0,-0 -0,-0 -0,0c0.003,-0.005 0.006,-0.01 0.009,-0.014c-0.003,0.004 -0.006,0.009 -0.009,0.014Zm0.759,-0.86c0.034,-0.018 0.07,-0.037 0.104,-0.056c-0.034,0.016 -0.069,0.033 -0.104,0.056Zm0.243,-0.507c-0.043,-0.006 -0.095,-0.005 -0.154,0.001c0.051,-0.004 0.107,-0.006 0.154,-0.001Zm-0.245,0.008c-0.076,0.003 -0.164,-0.002 -0.238,-0.024c0.045,0.016 0.107,0.025 0.188,0.027c0.013,0 0.03,-0.001 0.05,-0.003Zm-0.359,-0.231c0.005,-0.046 0.011,-0.093 0.011,-0.127c-0.006,0.048 -0.01,0.09 -0.011,0.127Zm-0.375,-1.437c-0.048,-0.054 -0.103,-0.108 -0.158,-0.165c-0.021,-0.021 -0.052,-0.054 -0.086,-0.094c0.005,0.005 0.009,0.01 0.012,0.015c0.086,0.104 0.166,0.174 0.232,0.244Zm-0.397,-0.734c0.05,0.029 0.088,0.081 0.131,0.122c-0.037,-0.04 -0.07,-0.09 -0.131,-0.122Zm0.847,0.474c0.024,0.006 0.053,0.008 0.088,0.006c-0.01,-0.001 -0.02,-0.002 -0.03,-0.003c-0.024,-0.003 -0.043,-0.003 -0.058,-0.003Zm0.344,0.002c0.053,0.007 0.1,0.018 0.138,0.027c-0.054,-0.018 -0.098,-0.025 -0.138,-0.027Zm0.212,0.041c0.023,0.002 0.041,-0.001 0.054,-0.013c-0.017,0.007 -0.035,0.012 -0.054,0.013Zm0.763,0.391c0.032,-0.009 0.053,-0.027 0.066,-0.052c-0.017,0.024 -0.04,0.042 -0.066,0.052Zm0.076,-0.329c-0.002,-0.03 -0.004,-0.059 -0.003,-0.087c-0.003,0.028 -0.001,0.058 0.003,0.087Zm1.922,-0.864c0.028,0.003 0.056,0.002 0.082,-0.004c-0.024,0.004 -0.053,0.005 -0.082,0.004Zm8.799,42.582c0.005,0.004 0.01,0.009 0.015,0.014c0,-0 0,-0 0.001,-0.001c-0.005,-0.005 -0.011,-0.009 -0.016,-0.013Zm1.841,-1.593c0.002,0 0.004,0.001 0.006,0.002c0,0 0,-0 0,-0c-0.002,-0.001 -0.004,-0.002 -0.006,-0.002Zm-0.651,-2.106c-0.12,-0.006 -0.243,0.029 -0.264,0.159c0.001,0 0.001,0 0.001,0.001c0.021,-0.131 0.143,-0.165 0.263,-0.16Zm-0.493,0.095c-0.051,-0.04 -0.022,-0.182 -0.027,-0.276c-0.015,-0.254 0.067,-0.435 0.098,-0.697c0.022,-0.179 -0.021,-0.439 0.06,-0.603c0.084,-0.171 -0.15,-0.309 0.044,-0.449c-0.133,-0.09 -0.232,-0.25 -0.405,-0.271c-0.182,-0.021 -0.315,0.13 -0.473,0.185c-0.457,0.158 -0.555,-0.285 -0.64,-0.624c-0.05,-0.202 -0.195,-0.411 -0.232,-0.615c-0.132,-0.474 -0.271,-0.649 -0.433,-0.882c-0.183,-0.047 -0.361,-0.083 -0.513,-0.215c-0.163,-0.142 -0.162,-0.036 -0.309,0.2c-0.299,0.482 -0.254,-0.006 -0.398,-0.025c-0.206,-0.026 -0.454,-0.022 -0.639,-0.122c-0.098,-0.053 -0.49,-0.093 -0.52,-0.217c-0.031,-0.127 0.066,-0.246 0.097,-0.365c0.03,-0.115 -0.089,-0.288 -0.044,-0.404c0.08,-0.205 -0.005,-0.391 0.037,-0.589c0.033,-0.151 -0.24,-0.209 -0.095,-0.38c-0.177,-0.071 -0.244,-0.371 -0.335,-0.562c-0.046,-0.064 -0.045,-0.113 -0.021,-0.154c-0.006,0.004 -0.012,0.008 -0.018,0.012c0.089,-0.292 -0.282,-0.621 -0.512,-0.767c-0.243,-0.153 -0.516,-0.274 -0.795,-0.333c-0.773,-0.164 -1.579,0.265 -2.315,0.34c-0.36,0.037 -0.54,0.072 -0.598,0.458c-0.048,0.321 -0.281,0.497 -0.334,0.808c-0.049,0.293 0.078,0.578 0.017,0.881c-0.085,0.428 -0.106,0.893 -0.21,1.317c0.09,0.071 0.181,0.137 0.233,0.188c0.134,0.134 0.229,0.152 0.313,0.326c0.066,0.137 0.151,0.273 0.246,0.392c0.217,0.276 0.582,0.47 0.866,0.672c0.163,0.116 0.241,0.28 0.39,0.403c0.138,0.113 0.328,0.106 0.488,0.169c0.216,0.085 0.357,0.142 0.596,0.142c0.182,-0 0.311,0.163 0.461,0.24c0.389,0.198 0.693,0.573 1.122,0.711c0.126,0.04 0.277,0.053 0.378,0.146c0.148,0.136 0.212,0.057 0.362,0.146c0.146,0.087 0.339,0.1 0.448,0.237c0.077,0.097 0.163,0.185 0.239,0.283c0.15,0.194 -0.135,0.398 -0.173,0.622c-0.057,0.333 -0.358,0.421 -0.288,0.813c0.063,0.359 -0.205,0.47 -0.284,0.775c-0.039,0.152 -0.093,0.098 -0.01,0.28c0.221,-0.086 0.457,-0.087 0.687,-0.043c0.407,0.078 0.79,0.316 1.189,0.188c0.125,-0.041 0.184,0.15 0.313,0.058c0.124,-0.088 0.257,0.114 0.358,0.153c0.071,-0.147 0.082,-0.349 0.281,-0.377c0.154,-0.022 0.232,0.152 0.365,0.134c0.21,-0.027 0.177,-0.279 0.228,-0.419c0.06,-0.16 0.401,-0.143 0.384,-0.236c-0.006,-0.03 0.196,-0.319 0.22,-0.315c0.149,0.024 0.12,-0.324 0.138,-0.447c0.035,-0.244 0.032,-0.511 -0.032,-0.751c-0.019,-0.074 -0.019,-0.118 -0.005,-0.141Zm-4.47,-7.319c-0.002,-0.027 -0.023,-0.057 -0.07,-0.094c-0.014,-0.011 -0.028,-0.022 -0.041,-0.033c0.017,0.016 0.035,0.032 0.055,0.049c0.033,0.028 0.051,0.054 0.056,0.078Zm0.024,-1.238c0.002,-0.017 0.003,-0.033 -0,-0.048c0.001,0.016 0.001,0.032 0,0.048Zm-0.227,-1.798c-0.013,-0.044 -0.027,-0.082 -0.043,-0.109c0.005,0.011 0.01,0.023 0.015,0.037c0.009,0.024 0.018,0.048 0.028,0.072Zm-0.778,-1.694c-0,-0 -0,-0.001 -0,-0.001c-0.076,0.017 -0.152,0.03 -0.229,0.038c0.077,-0.008 0.153,-0.02 0.229,-0.037Zm-2.062,-0.129c-0.031,-0.035 -0.054,-0.079 -0.072,-0.127c0.007,0.021 0.015,0.041 0.025,0.06c0.012,0.026 0.028,0.048 0.047,0.067Zm-0.599,-2.676c0.001,-0.005 0.001,-0.011 0.002,-0.018c0.005,-0.083 0.01,-0.156 -0.006,-0.222c0.013,0.075 0.002,0.153 0.004,0.24Zm-1.456,-0.778c-0.036,-0.005 -0.053,-0.014 -0.118,-0.015c0.039,0.008 0.079,0.012 0.118,0.015Zm-1.15,-0.691c-0.002,-0.001 -0.003,-0.002 -0.005,-0.002c-0.009,-0.005 -0.019,-0.008 -0.029,-0.011c0.011,0.004 0.023,0.008 0.034,0.013Zm-0.735,-0.411c-0.025,0.009 -0.048,0.012 -0.07,0.009c0.028,0.008 0.05,0.002 0.07,-0.009Zm-0.287,-0.15c-0.01,-0.009 -0.02,-0.017 -0.03,-0.024c0.01,0.008 0.02,0.016 0.03,0.024Zm-1.637,-0.702c-0.014,-0.004 -0.027,-0.007 -0.039,-0.008c0.013,0.004 0.026,0.006 0.039,0.008Zm-0.156,-0.171c-0.01,-0.047 -0.021,-0.093 -0.051,-0.125c-0.01,-0.012 -0.023,-0.021 -0.037,-0.029c0.007,0.007 0.015,0.013 0.024,0.021c0.036,0.03 0.051,0.082 0.064,0.133Zm-0.446,-0.731c-0.012,-0.025 -0.022,-0.05 -0.031,-0.075c0.008,0.026 0.019,0.051 0.031,0.075Zm0.054,-0.537c-0.002,-0.009 -0.004,-0.018 -0.008,-0.025c0,0.001 0.001,0.002 0.001,0.003c0.003,0.007 0.005,0.014 0.007,0.022Zm-0.261,-1.595c-0.001,-0.001 -0.001,-0.001 -0.001,-0.001c-0.005,0.004 -0.01,0.01 -0.015,0.016c0.005,-0.005 0.01,-0.01 0.016,-0.015Zm-0.215,0.157c-0.024,-0.002 -0.047,-0.004 -0.069,-0.005c0.028,0.004 0.05,0.006 0.069,0.005Zm-1.95,0.749c-0.033,0.007 -0.079,0.031 -0.125,0.064c0.039,-0.025 0.081,-0.045 0.125,-0.064Zm-0.25,0.179c-0.023,0.03 -0.04,0.06 -0.046,0.089c0.003,-0.007 0.006,-0.014 0.009,-0.021c0.011,-0.025 0.023,-0.047 0.037,-0.068Zm-0.2,0.203c-0.022,-0.001 -0.044,-0.004 -0.066,-0.007c0.023,0.004 0.045,0.007 0.066,0.007Zm-0.091,-0.012c-0.023,-0.004 -0.044,-0.007 -0.062,-0.009c-0.045,-0.005 -0.088,0.004 -0.126,0.022c0.067,-0.03 0.13,-0.022 0.188,-0.013Zm-0.816,0.574c-0.031,0.01 -0.064,0.018 -0.093,0.02c0.028,0.002 0.061,-0.007 0.093,-0.02Zm8.022,50.845c-0.011,-0.003 -0.021,-0.004 -0.032,-0.004c0.011,0.001 0.022,0.002 0.032,0.004Zm-1.674,-1.204c-0.02,-0.019 -0.041,-0.037 -0.057,-0.059c0.014,0.023 0.032,0.043 0.057,0.059Zm-0.101,-0.392c-0.001,-0.016 -0.002,-0.032 -0.004,-0.048c0.017,0.003 0.033,0.005 0.048,0.005c-0.015,-0 -0.031,-0.002 -0.049,-0.005c0.002,0.016 0.004,0.032 0.005,0.048Zm0.214,-1.743c-0.06,-0.069 -0.078,-0.14 -0.082,-0.251c-0.001,0.08 0.007,0.157 0.064,0.23c0.005,0.006 0.011,0.013 0.018,0.021Zm-0.08,-0.403c0.002,-0.04 0.007,-0.087 0.014,-0.136c-0.011,0.049 -0.017,0.091 -0.015,0.119c0,0.005 0.001,0.011 0.001,0.017Zm0.279,-0.553c0.005,0 0.011,0.001 0.016,0.002c-0.001,-0.004 -0.003,-0.008 -0.005,-0.011c0.002,0.003 0.003,0.006 0.005,0.01c-0.006,-0.001 -0.011,-0.001 -0.016,-0.001Zm-0.173,-0.542c0.026,-0.026 0.055,-0.05 0.072,-0.084c0.011,-0.023 0.018,-0.048 0.02,-0.073c-0.003,0.021 -0.009,0.041 -0.02,0.059c-0.023,0.041 -0.051,0.07 -0.072,0.098Zm-0.056,-0.5c-0.081,-0.102 -0.18,-0.195 -0.26,-0.26c0.078,0.064 0.178,0.158 0.26,0.26Zm-0.328,-0.313c0.042,-0.002 0.078,-0.025 0.106,-0.059c-0.032,0.033 -0.07,0.057 -0.107,0.058c0.001,0.001 0.001,0.001 0.001,0.001Zm-0.142,-0.678c0.005,-0.024 0.017,-0.045 0.036,-0.063c0,-0 0.001,-0 0.001,-0.001c-0.009,0.005 -0.018,0.011 -0.025,0.022c-0.009,0.014 -0.012,0.028 -0.012,0.042Zm-0.195,-0.811c-0.036,-0.012 -0.073,-0.017 -0.111,-0.021c0.036,0.004 0.073,0.011 0.111,0.021Zm0.271,-0.282c0.009,-0.004 0.015,-0.008 0.02,-0.013c-0.005,0.005 -0.009,0.003 -0.011,-0.005c-0.003,0.007 -0.006,0.013 -0.009,0.018Zm0.04,-0.247c0.001,0.001 0.002,0.002 0.003,0.005c-0.001,-0.003 -0.002,-0.006 -0.003,-0.009c-0,0.001 -0,0.003 0,0.004Zm-0.877,-0.695c0.007,-0.022 0.007,-0.045 -0.006,-0.068c0.008,0.024 0.009,0.047 0.006,0.068Zm-0.159,-0.418c0.002,-0.04 -0.044,-0.079 -0.104,-0.118c0.022,0.019 0.043,0.039 0.06,0.057c0.024,0.027 0.038,0.047 0.044,0.061Zm-1.532,-3.484c-0.036,-0.067 -0.067,-0.134 -0.087,-0.201c0.016,0.072 0.046,0.138 0.087,0.201Zm-0.223,-1.094c0.019,0.003 0.035,0.002 0.048,-0.001c-0.015,-0.002 -0.032,-0.005 -0.051,-0.011c0.001,0.004 0.002,0.008 0.003,0.012Zm0.07,-0.646c0.001,-0.001 0.003,-0.001 0.004,-0.001c-0,0 -0.001,-0 -0.001,-0.001c-0.001,0.001 -0.002,0.001 -0.003,0.002Zm-0.414,-4.374c0.001,-0.001 0.002,-0.002 0.003,-0.003c0.017,-0.02 0.047,-0.036 0.076,-0.054c-0.033,0.004 -0.059,0.027 -0.079,0.057Zm-0.275,-1.252c0.01,-0.016 0.025,-0.026 0.042,-0.035c-0.007,-0.001 -0.014,-0.002 -0.021,-0.004c-0.062,-0.021 -0.053,0.001 -0.021,0.039Zm0.122,-0.595c-0,-0.024 0,-0.053 0.002,-0.085c-0.003,0.029 -0.003,0.057 -0.002,0.085Zm0.233,-0.631c0.012,-0.001 0.022,-0.003 0.029,-0.009c-0.008,0.004 -0.017,0.007 -0.029,0.009Zm-0.02,-0.287c-0.027,-0.059 -0.055,-0.114 -0.073,-0.15c0.018,0.05 0.042,0.1 0.073,0.15Zm-0.275,-1.027c-0.001,-0.001 -0.002,-0.001 -0.003,-0.001c-0.012,-0.004 -0.021,-0.006 -0.03,-0.006c0.011,0.002 0.022,0.004 0.033,0.007Zm-0.627,-1.11c-0.071,-0.108 -0.164,-0.203 -0.235,-0.31c0.067,0.112 0.16,0.206 0.235,0.31Zm-0.56,-4.981c0.005,-0.022 0.011,-0.043 0.017,-0.063c-0.008,0.021 -0.013,0.042 -0.017,0.063Zm0.739,-2.811c0.004,-0.034 0.014,-0.067 0.026,-0.1c-0.014,0.029 -0.024,0.062 -0.026,0.1Zm-0.058,-1.627c0,0 0,0 0,0c-0.001,-0.004 -0.003,-0.009 -0.006,-0.014c0.002,0.005 0.004,0.01 0.006,0.014Zm1.1,-2.35c0.001,-0.01 0.003,-0.02 0.005,-0.031c0.002,-0.013 0.003,-0.029 0.004,-0.048c-0.002,0.013 -0.003,0.027 -0.005,0.04c-0.001,0.013 -0.003,0.026 -0.004,0.039Zm-0.24,-0.625c-0.001,-0.003 -0.001,-0.006 -0.001,-0.008c-0.005,0.002 -0.009,0.005 -0.013,0.008c0.005,-0 0.009,-0 0.014,-0Zm1.738,-0.934c0.06,0.006 0.123,0.004 0.185,-0.002c-0.063,0.004 -0.126,0.006 -0.185,0.002Zm1.115,0.19c0.109,0.115 0.176,0.264 0.253,0.424c-0.077,-0.163 -0.141,-0.311 -0.253,-0.424Zm0.558,0.213c0.018,-0.042 0.04,-0.128 0.068,-0.218c-0.027,0.074 -0.049,0.146 -0.068,0.218Zm0.525,-0.54c0.006,-0.001 0.012,-0.003 0.017,-0.004c0.004,-0.001 0.008,-0.002 0.012,-0.003c-0.01,0.002 -0.02,0.005 -0.029,0.007Zm0.29,-0.024c0.093,0.003 0.186,0.011 0.274,0.011c0.003,0 0.006,0 0.01,0c-0.092,-0.002 -0.189,-0.009 -0.284,-0.011Zm-7.582,-5.749c0.006,0.027 0.016,0.052 0.03,0.075c-0.011,-0.025 -0.021,-0.05 -0.03,-0.075Zm0.333,0.532c0.046,0.045 0.106,0.073 0.181,0.092c-0.069,-0.02 -0.129,-0.052 -0.181,-0.092Zm0.222,0.102c-0.018,0.017 -0.03,0.037 -0.038,0.061c0.008,-0.023 0.021,-0.044 0.039,-0.061c-0,-0 -0.001,-0 -0.001,-0Zm0.431,1.335c0.059,0.073 0.13,0.144 0.222,0.218c-0.087,-0.074 -0.16,-0.145 -0.222,-0.218Zm0.357,0.346c0.096,0.119 0.06,0.203 -0.009,0.343c0.021,-0.037 0.04,-0.068 0.046,-0.082c0.044,-0.114 0.024,-0.188 -0.037,-0.261Zm-0.081,0.495c-0.002,0.003 -0.003,0.006 -0.004,0.009c-0.007,0.017 0.011,0.043 0.04,0.074c-0.011,-0.014 -0.022,-0.029 -0.033,-0.045c-0.007,-0.008 -0.007,-0.021 -0.003,-0.038Zm-0.051,0.496c-0.005,0.003 -0.01,0.006 -0.015,0.009c-0,-0 0,0 0,0c0.005,-0.003 0.011,-0.006 0.015,-0.009Zm0.006,0.03c0.056,0.062 0.066,0.126 0.067,0.191c0.008,-0.057 0.005,-0.116 -0.067,-0.191Zm0.088,0.408c0.005,0.015 0.012,0.03 0.022,0.045c0.005,0.008 0.01,0.015 0.016,0.021c-0.014,-0.021 -0.026,-0.044 -0.038,-0.066Zm0.265,0.213c0.007,0.015 0.01,0.028 0.012,0.039c0.007,-0.025 0.007,-0.04 -0.012,-0.039Zm1.084,2.684c0.008,0.023 0.016,0.046 0.025,0.068c-0.009,-0.023 -0.017,-0.046 -0.025,-0.068Zm0.157,0.238c0.029,0.018 0.062,0.03 0.102,0.034c-0.036,-0.008 -0.071,-0.02 -0.102,-0.034Zm31.547,-13.057c-0.005,-0.011 -0.011,-0.023 -0.016,-0.036c0.003,0.013 0.009,0.024 0.016,0.036Zm-21.403,45.238c-0.033,0.002 -0.069,-0 -0.107,-0.005c0.039,0.016 0.074,0.014 0.107,0.005Zm-1.528,2.678c-0.039,0.004 -0.074,0.011 -0.097,0.03c0.035,-0.014 0.067,-0.023 0.097,-0.03Zm-2.594,2.744c0.005,-0.016 -0.009,-0.046 -0.056,-0.102c0.023,0.032 0.042,0.066 0.056,0.102Zm-3.563,-5.761c-0.006,-0.027 -0.017,-0.052 -0.041,-0.075c0.016,0.021 0.03,0.047 0.041,0.075Zm3.482,5.13c-0.031,-0.032 -0.065,-0.061 -0.105,-0.085c-0.176,-0.104 -0.393,-0.107 -0.547,-0.252c-0.029,0.032 -0.05,0.068 -0.065,0.108c0.108,-0.012 0.546,0.093 0.717,0.229Zm-55.383,-98.585c0.005,-0.001 0.01,-0.001 0.016,-0.002c-0.007,0.012 -0.013,0.025 -0.017,0.037c-0,-0.011 0,-0.023 0.001,-0.035Zm19.171,8.331c-0.008,0.004 -0.016,0.008 -0.024,0.012c0.006,-0.003 0.014,-0.007 0.024,-0.012Zm0.297,-0.092c-0.133,0.034 -0.242,0.068 -0.297,0.092c0.099,-0.048 0.205,-0.081 0.312,-0.106c-0.005,0.005 -0.01,0.009 -0.015,0.014Zm-19.468,-8.239c-0.073,0.006 -0.111,-0.03 -0.093,-0.11c0.073,-0.098 0.155,-0.209 0.21,-0.329c0.014,-0.046 0.03,-0.091 0.047,-0.135c0.008,-0.032 0.012,-0.064 0.014,-0.096c0.001,0.022 -0,0.045 -0.003,0.068c0.143,-0.369 0.329,-0.698 0.113,-1.147c-0.119,-0.249 -0.389,-0.28 -0.549,-0.511c-0.072,-0.105 -0.183,-0.269 -0.188,-0.401c-0.003,-0.096 0.11,-0.118 0.076,-0.227c-0.067,0.083 -0.076,0.245 -0.184,0.291c-0.111,0.047 -0.202,-0.051 -0.316,0.032c-0.092,0.066 -0.149,-0.077 -0.174,-0.137c-0.061,-0.145 -0.177,-0.17 -0.291,-0.261c-0.022,-0.044 -0.049,-0.085 -0.082,-0.122c-0.063,-0.015 -0.126,-0.031 -0.189,-0.05c-0.114,-0.084 -0.06,-0.13 -0.082,-0.242c-0.051,-0.265 -0.463,-0.311 -0.481,-0.609c0.259,0.026 0.586,0.164 0.812,-0.032c-0.009,0.279 0.491,0.206 0.347,0.495c0.132,-0.102 0.199,-0.455 0.054,-0.571c0.002,0.067 -0.056,0.335 -0.187,0.271c-0.077,-0.037 0.029,-0.257 0.036,-0.314c-0.041,0.024 -0.08,0.049 -0.119,0.076c0.127,-0.276 0.528,-0.54 0.368,-0.883c-0.166,-0.357 -0.357,-0.82 -0.683,-1.06c-0.269,-0.197 -0.485,-0.355 -0.549,-0.699c-0.024,-0.129 0.065,-0.221 0.093,-0.344c0.037,-0.161 -0.118,-0.23 -0.042,-0.32c-0.034,0.031 -0.071,0.06 -0.109,0.086c-0.07,-0.289 0.229,-0.417 -0.014,-0.685c-0.112,-0.122 0.025,-0.217 0.025,-0.349c0,-0.177 -0.143,-0.293 -0.169,-0.456c-0.02,-0.121 0.048,-0.221 0.13,-0.297c0.072,-0.067 -0.025,-0.173 -0.055,-0.239c-0.035,-0.043 -0.065,-0.089 -0.09,-0.138c0.016,-0.072 0.03,-0.144 0.043,-0.216c-0.027,-0.155 -0.05,-0.103 0.036,-0.27l-0.113,-0.139c0.905,-0.089 1.81,-0.209 2.72,-0.237c-0.068,0.09 -0.164,0.159 -0.206,0.269l3.559,1.489l3.045,0.016l0.009,-0.572c0,-0 3.444,2.056 3.411,2.312c-0.074,0.566 0.429,0.817 0.827,1.084c0.138,0.093 0.354,0.291 0.528,0.185c0.125,-0.077 0.275,-0.209 0.342,-0.342c0.086,-0.172 0.26,-0.445 0.415,-0.564c0.097,-0.075 0.306,-0.103 0.42,-0.156c0.309,-0.007 0.625,0.066 0.937,0.103c0.088,0.018 0.199,0.249 0.285,0.329c0.14,0.129 0.322,0.428 0.359,0.61c0.05,0.247 0.112,0.499 0.126,0.751c0.015,0.265 0.186,0.425 0.273,0.666c0.04,0.111 0.078,0.222 0.135,0.325c0.044,0.081 0.124,0.078 0.165,0.147c0.101,0.169 -0.042,0.442 -0.043,0.622c-0.001,0.226 0.206,0.386 0.178,0.633c0.063,0.262 0.218,0.303 0.267,0.308c-0.003,0.001 -0.008,0.001 -0.013,0.001c0.153,0.015 0.25,0.132 0.417,0.233c0.108,0.066 0.146,0.144 0.263,0.147c0.269,0.009 0.477,-0.034 0.664,0.196c0.153,0.19 0.267,-0.103 0.46,-0.105c-0.545,0.871 -0.862,1.829 -1.228,2.775c0.081,-0.344 0.293,-1.12 0.624,-1.687c0.101,-0.172 0.137,-0.396 0.017,-0.368c0.013,0.001 -0.077,0.279 -0.22,0.088c-0.003,0.091 -0.115,0.214 -0.113,0.229c0.085,0.474 -0.011,0.404 -0.014,0.545c0,0.011 -0.152,0.383 -0.158,0.4c-0.006,0.016 -0.105,-0.081 -0.116,-0.069c0.009,0.21 0.07,0.188 0.066,0.278c-0.005,0.091 -0.1,0.253 -0.118,0.574c-0.004,0.075 -0.004,0.033 -0.073,0.102c0.159,0.245 -0.056,0.596 -0.082,0.851c-0.031,0.317 -0.234,0.573 -0.251,0.898c-0.016,0.334 0.021,0.635 0.22,0.913c0.214,0.298 0.116,0.285 -0.007,0.59c-0.013,-0.12 0.138,-0.29 0.063,-0.389c-0.141,-0.189 -0.172,-0.409 -0.279,-0.613c0.048,0.188 -0.029,0.388 0.043,0.571c0.066,0.166 0.149,0.183 0.162,0.383c0.026,0.42 0.196,0.855 0.408,1.206c0.244,0.405 0.329,0.731 0.436,1.18c0.045,0.189 0.185,0.329 0.248,0.509c0.054,0.155 0.073,0.298 0.242,0.372c-0.091,-0.006 -0.155,-0.115 -0.217,-0.053c0.09,0.024 0.097,0.089 0.072,0.159c0.01,-0.006 0.023,-0.011 0.041,-0.015c0.057,0.004 0.091,-0.023 0.104,-0.08c0.101,0.057 0.22,0.064 0.334,0.069c0.367,0.015 0.673,0.203 0.842,0.516c0.144,0.265 0.294,0.243 0.595,0.169c0.183,-0.046 0.494,-0.107 0.642,-0.244c0.401,-0.102 1.017,-0.208 1.045,-0.09c-0.068,-0.301 0.825,-0.464 0.943,-0.226c-0.238,-0.042 0.001,0.163 -0.033,0.269c0.081,-0.068 0.145,-0.035 0.239,-0.043c0.057,0.012 0.115,0.02 0.173,0.022c0.015,-0.042 0.035,-0.082 0.061,-0.119c0.132,-0.052 0.436,-0.343 0.102,-0.366c0.073,-0.06 0.149,-0.118 0.227,-0.172c-0.106,0.064 -0.211,0.131 -0.325,0.183c0.133,-0.221 0.43,-0.305 0.642,-0.428c0.295,-0.172 0.291,-0.421 0.425,-0.696c0.07,-0.143 0.196,-0.21 0.291,-0.33c0.095,-0.121 0.071,-0.287 0.087,-0.43c0.037,-0.341 0.218,-0.588 0.3,-0.904c-0.024,0.043 -0.053,0.082 -0.086,0.118c0.174,-0.482 0.863,-0.574 1.301,-0.624c0.316,-0.036 0.568,-0.12 0.866,-0.229c0.388,-0.142 0.72,0.02 1.106,0.056c-0.066,-0.027 -0.134,-0.041 -0.206,-0.043c0.156,-0.039 0.307,0.04 0.453,0.09c-0.134,-0.068 0.273,-0.206 0.445,-0.129c0.282,0.128 0.195,0.488 0.105,0.715c-0.119,0.301 -0.37,0.466 -0.588,0.69c-0.115,0.118 -0.251,0.265 -0.306,0.422c-0.032,0.087 0.028,0.443 -0.065,0.247c0.044,0.175 -0.261,0.33 -0.282,0.507c0.539,-0.067 -0.154,0.271 -0.033,0.441c0.034,-0.081 0.104,-0.141 0.196,-0.14c-0.15,0.21 -0.193,0.469 -0.307,0.695c-0.094,0.186 -0.303,0.551 -0.311,0.759c-0.254,-0.28 -0.061,-0.492 -0.12,-0.797c-0.168,0.116 -0.158,0.12 -0.244,0.278c-0.07,0.127 -0.179,0.123 -0.293,0.185c-0.24,0.133 -0.412,0.511 -0.536,0.743c-0.074,-0.081 -0.233,-0.187 -0.296,0.008c-0.048,0.15 -0.132,0.067 -0.344,0.067l-1.399,0c-0.106,0 -0.404,-0.044 -0.426,0.117c-0.018,0.131 -0.011,0.241 -0.023,0.373c-0.033,0.352 -0.291,0.242 -0.568,0.242c0.196,0.199 0.34,0.446 0.577,0.571c0.222,0.118 0.198,0.371 0.417,0.477c0.045,0.022 -0.055,0.509 -0.068,0.476c-0.367,0.14 -0.953,-0.025 -1.47,-0.011c-0.696,1.288 -0.598,1.099 -0.559,1.253c0.053,0.085 -0.183,0.639 -0.263,0.734c-0.105,-0.13 -0.223,-0.249 -0.328,-0.38c-0.061,-0.075 -0.34,-0.605 -0.149,-0.32c-0.04,-0.157 -0.234,-0.219 -0.339,-0.323c-0.154,-0.152 -0.262,-0.34 -0.427,-0.489c-0.331,-0.3 -0.509,-0.58 -0.957,-0.728c-0.029,0.17 0.394,0.247 0.477,0.366c-0.262,-0.135 -0.532,-0.267 -0.835,-0.258c0.079,-0.03 0.143,-0.094 0.174,-0.172c-0.089,-0.013 -0.161,0.015 -0.217,0.086c0.021,-0.263 -0.226,-0.18 -0.26,0.01c0.08,-0.008 0.156,0.007 0.227,0.044c-0.403,0.027 -0.598,0.268 -0.965,0.378c-0.33,0.098 -0.605,0.247 -0.941,0.313c-0.254,0.049 -0.363,0.018 -0.612,-0.115c-0.277,-0.149 -0.452,-0.169 -0.76,-0.218c-0.16,-0.025 -0.258,-0.107 -0.376,-0.211c-0.151,-0.132 -0.298,-0.161 -0.48,-0.227c-0.147,-0.053 -0.18,-0.177 -0.29,-0.271c-0.135,-0.114 -0.372,-0.137 -0.538,-0.179c-0.164,-0.041 -0.352,-0.058 -0.505,-0.132c-0.161,-0.078 -0.28,-0.209 -0.447,-0.282c-0.386,-0.17 -0.775,-0.266 -1.115,-0.526c-0.282,-0.215 -0.434,-0.517 -0.684,-0.744c-0.098,-0.089 -0.224,-0.053 -0.339,-0.031c-0.174,0.034 -0.467,-0.088 -0.63,-0.146c-0.27,-0.095 -0.642,-0.225 -0.817,-0.465c-0.087,-0.118 -0.147,-0.251 -0.22,-0.377c-0.124,-0.215 -0.303,-0.223 -0.491,-0.353c-0.04,-0.2 -0.543,-0.302 -0.72,-0.459c-0.092,-0.083 -0.065,-0.215 -0.156,-0.304c-0.101,-0.101 -0.196,-0.333 -0.255,-0.465c-0.069,-0.155 -0.202,-0.58 -0.007,-0.699c0.135,-0.083 0.292,-0.039 0.408,-0.166c0.108,-0.12 -0.135,-0.219 -0.224,-0.2c0.05,-0.162 0.627,-0.702 0.465,-0.901c-0.148,-0.184 -0.204,-0.292 -0.282,-0.518c-0.084,-0.243 0.02,-0.43 -0.007,-0.673c-0.057,-0.522 -0.558,-0.957 -0.792,-1.413c-0.271,-0.526 -0.562,-0.915 -1.032,-1.287c0.128,0.055 0.233,0.212 0.293,0.01c-0.204,0.023 -0.555,-0.169 -0.473,-0.392c0.059,-0.161 0.074,-0.624 -0.221,-0.501c0,-0.191 -0.028,-0.047 -0.163,-0.118c-0.092,-0.048 -0.17,-0.129 -0.27,-0.162c0.132,0.026 0.144,0.017 0.034,-0.028c-0.059,-0.067 -0.045,-0.163 -0.11,-0.231c-0.066,0.06 -0.142,0.103 -0.227,0.129c-0.032,-0.136 0.133,-0.148 0.151,-0.269c-0.164,0.15 -0.248,0.059 -0.455,0.011c0.04,-0.024 0.08,-0.05 0.119,-0.076c-0.096,-0.079 -0.143,-0.058 -0.141,0.065c-0.005,-0.156 0.018,-0.31 0.092,-0.449c0.028,-0.052 0.229,-0.406 0.201,-0.208c0.042,-0.083 0.14,-0.239 0.206,-0.107c0.022,-0.113 0.006,-0.209 -0.13,-0.119c0.057,-0.139 0.036,-0.317 -0.104,-0.401c-0.111,-0.067 -0.229,0.053 -0.35,-0.055c-0.13,-0.117 0.025,-0.474 -0.136,-0.517c-0.111,-0.03 -0.47,-0.069 -0.48,-0.226c-0.01,-0.167 -0.022,-0.731 0.192,-0.728c-0.103,-0.012 -0.349,-0.049 -0.314,-0.14c-0.047,0.041 -0.08,0.091 -0.098,0.15c-0.006,-0.159 -0.226,-0.168 -0.309,-0.272c-0.07,-0.09 -0.093,-0.242 -0.135,-0.346c-0.043,-0.107 -0.167,-0.112 -0.228,-0.2c-0.095,-0.136 -0.067,-0.383 -0.17,-0.498c-0.179,-0.197 -0.041,-0.385 -0.101,-0.611c-0.191,0.146 -0.128,-0.263 -0.152,-0.356c-0.078,-0.306 -0.079,-0.481 -0.058,-0.788c0.017,-0.251 -0.161,-0.478 -0.101,-0.728c0.028,-0.116 0.228,-0.409 0.19,-0.497c-0.063,-0.146 -0.304,-0.144 -0.43,-0.188c-0.206,-0.072 0.061,-0.346 -0.263,-0.368c-0.111,-0.008 -0.155,0.119 -0.28,0.11c-0.118,-0.009 -0.215,-0.103 -0.288,-0.186c-0.153,-0.177 -0.356,-0.231 -0.515,-0.413c0.013,0.137 0.169,0.263 0.113,0.404c-0.07,0.174 -0.197,0.366 -0.283,0.538c-0.087,0.174 0.044,0.345 0.008,0.523c-0.04,0.195 -0.055,0.399 -0.13,0.586c-0.183,0.455 0.02,0.634 0.307,0.969c0.261,0.305 0.331,0.52 0.311,0.911c0.185,-0.14 0.272,0.192 0.298,0.311c0.014,0.062 0.007,0.189 0.059,0.236c0.042,0.039 0.21,0.077 0.171,0.162c-0.09,0.196 -0.145,0.734 0.031,0.899c0.238,0.222 0.209,0.62 0.492,0.782c-0.163,0.121 -0.023,0.509 -0.011,0.679c0.11,-0.095 0.045,-0.325 0.022,-0.442c0.551,0.093 0.129,1.851 0.499,1.766c-0.029,0.178 -0.043,0.385 0.01,0.56c0.057,0.185 0.205,0.285 0.067,0.48c-0.175,0.25 -0.059,0.716 0.295,0.695c0.01,-0.004 0.018,-0.01 0.023,-0.017c0.041,-0.058 0.045,-0.133 0.092,-0.189c0.057,0.14 0.285,0.337 0.4,0.43c0.064,0.052 0.048,0.374 0.088,0.464c0.091,0.204 0.386,0.348 0.119,0.595c-0.106,0.097 -0.492,0.405 -0.636,0.341c-0.189,-0.084 -0.091,-0.501 -0.169,-0.661c-0.057,-0.117 -0.16,-0.203 -0.257,-0.286c-0.157,-0.133 -0.241,-0.328 -0.376,-0.479c-0.198,-0.221 -0.509,-0.318 -0.673,-0.574c-0.138,-0.216 -0.474,-0.341 -0.392,-0.648c-0.02,0.073 -0.046,0.145 -0.076,0.215c0.003,-0.071 0.013,-0.138 0.027,-0.204c-0.037,0.098 -0.071,0.197 -0.077,0.292Zm-0.001,0.035c0.002,0.071 0.021,0.138 0.071,0.2c-0.065,-0.051 -0.094,-0.125 -0.071,-0.2Zm16.874,7.867c-0.034,0.058 -0.076,0.11 -0.1,0.14c0.109,-0.005 0.095,-0.077 0.1,-0.14Zm27.258,0.786c-0,-0 -0,-0 -0,0c-0.231,-0.322 -0.636,-0.279 -0.976,-0.194c-0.326,0.082 -1.086,-0.308 -1.289,0.064c-0.154,0.283 -0.342,-0.188 -0.576,-0.228c-0.376,-0.063 0.013,-0.593 0.283,-0.417c0.258,0.106 0.346,0.067 0.596,0.075c-0.299,0.036 0.134,0.111 0.206,0.119c0.168,0.021 0.331,0.026 0.499,0.053c0.23,0.038 0.186,-0.054 0.37,-0.115c0.118,-0.039 0.305,0.047 0.323,-0.1c0.032,-0.26 -0.461,-0.343 -0.393,-0.68c0.067,-0.332 0.118,-0.547 -0.312,-0.634c-0.168,-0.034 -0.571,-0.016 -0.233,-0.252c0.391,-0.273 0.688,-0.093 1.077,0.02c0.219,0.064 0.587,-0.007 0.702,0.199c-0.016,-0.062 -0.026,-0.124 0.004,-0.182c0.15,-0.292 0.451,-0.014 0.633,-0.086c0.15,-0.059 0.3,-0.093 0.45,-0.014c0.148,0.079 0.298,0.091 0.44,0.161c0.131,0.065 0.2,0.129 0.353,0.133c0.156,0.003 0.18,-0.027 0.197,0.149c0.033,0.314 0.171,0.352 0.458,0.279c0.103,-0.027 0.239,-0.063 0.331,0.013c-0.044,0.144 -0.172,0.145 -0.297,0.124c-0.124,-0.02 -0.397,0.067 -0.161,0.134c0.099,0.028 0.499,0.18 0.588,0.139c0.259,-0.119 0.417,0.207 0.579,0.353c0.32,0.29 -0.186,0.431 -0.248,0.55c-0.106,0.203 -0.148,0.005 -0.239,-0.086c-0.088,-0.087 -0.185,-0.03 -0.293,-0.052c-0.076,-0.026 -0.153,-0.044 -0.233,-0.053c-0.093,0 -0.18,0.082 -0.271,0.025c-0.386,-0.238 -0.487,0.208 -0.781,0.261c-0.071,0.013 -0.305,0.06 -0.367,0.009c-0.087,-0.069 0.009,-0.224 -0.119,-0.284c-0.055,0.122 -0.197,0.108 -0.279,0.198c-0.069,0.076 -0.17,-0.043 -0.205,0.057c-0.112,0.329 -0.254,0.55 -0.481,0.822c-0.045,-0.1 -0.172,-0.147 -0.195,-0.258c-0.023,-0.109 -0.033,-0.238 -0.141,-0.302Zm0.278,-1.558c0.003,0.007 0.007,0.014 0.012,0.021c0.009,0.014 0.014,0.028 0.018,0.041c-0.004,-0.02 -0.013,-0.04 -0.03,-0.062Zm-0.09,0.539c-0,0.004 -0.001,0.008 -0.001,0.012c-0.001,0.006 -0.002,0.011 -0.003,0.016c0.002,-0.009 0.004,-0.019 0.004,-0.028Zm-0.362,0.287c0,-0 0,-0 0,-0c0.001,0.001 0.002,0.001 0.003,0.002c-0.001,-0.001 -0.002,-0.001 -0.003,-0.002Zm-9.617,-5.908c-0.062,0.062 0.121,0.14 0.221,0.104c0.113,-0.041 0.452,-0.044 0.491,0.019c0.062,0.1 0.228,0.248 0.36,0.209c0.153,-0.046 0.359,0.131 0.492,0.019c-0.031,0.038 -0.06,0.077 -0.087,0.119c0.249,0.064 0.2,0.18 0.372,0.348c0.225,0.221 0.327,0.166 0.624,0.193c0.283,0.026 0.393,0.152 0.619,0.288c0.086,0.051 0.208,0.039 0.267,0.136c0.053,0.089 0.124,0.248 0.243,0.122c-0.045,0.132 0.063,0.223 0.186,0.234c0.143,0.013 0.188,0.139 0.312,0.186c-0.052,-0.103 -0.087,-0.236 -0.216,-0.269c0.116,0.025 0.494,0.171 0.433,0.345c-0.077,-0.011 -0.153,-0.029 -0.227,-0.054c0.053,0.068 0.073,0.144 0.119,0.215c0.166,-0.283 0.216,0.04 0.412,0.043c-0.027,0.038 -0.056,0.074 -0.087,0.108c0.071,-0.042 0.147,-0.053 0.228,-0.032c-0.015,0.039 -0.03,0.078 -0.044,0.118c0.082,0.016 0.155,0.052 0.217,0.108c-0.015,-0.293 0.401,0.046 0.486,0.106c0.111,0.078 0.212,-0.015 0.331,-0.026c0.193,-0.018 0.261,0.247 0.05,0.275c0.04,0.022 0.08,0.043 0.119,0.065c-0.09,0.028 -0.17,0.086 -0.227,0.161c0.309,0.066 0.833,-0.045 1.079,0.165c0.209,0.179 0.265,0.366 0.555,0.407c0.343,0.047 -0.11,0.285 -0.251,0.301c-0.043,0.005 -0.779,0.2 -0.794,0.176c0.005,-0.038 0.025,-0.068 0.061,-0.09c-0.136,-0 -0.129,0.172 -0.361,0.15c-0.248,-0.024 -0.48,-0.112 -0.732,-0.123c-0.63,-0.028 -1.266,0.208 -1.898,0.188c0.009,-0.332 0.424,-0.412 0.642,-0.573c0.128,-0.095 0.207,-0.185 0.081,-0.288c-0.094,-0.076 0.038,-0.322 -0.189,-0.266c-0.425,0.104 -0.853,0.026 -1.096,-0.364c-0.087,-0.14 -0.072,-0.325 -0.097,-0.482c-0.011,-0.071 -0.029,-0.149 -0.077,-0.206c-0.057,-0.068 -0.182,-0.041 -0.056,-0.104c-0.194,-0.092 -0.386,0.052 -0.574,0.07c-0.195,0.019 -0.362,-0.162 -0.541,-0.194c-0.175,-0.031 -0.283,-0.003 -0.378,-0.117c-0.151,-0.182 -0.351,-0.171 -0.382,-0.459c-0.033,0.241 -0.768,0.169 -0.78,-0.151c-0.043,0.07 -0.065,0.145 -0.066,0.227c-0.065,-0.003 -0.116,-0.03 -0.153,-0.082c-0.093,-0.094 -0.24,-0.058 -0.356,-0.058c-0.19,-0 -0.355,-0.112 -0.488,-0.237c0.101,-0.111 0.296,-0.053 0.425,-0.075c0.193,-0.032 0.18,-0.226 0.012,-0.282c-0.33,-0.111 -0.953,-0.121 -1.251,0.074c-0.185,0.121 -0.395,0.254 -0.544,0.418c-0.139,0.153 -0.237,0.039 -0.401,0.106c-0.094,0.039 -0.195,-0.02 -0.285,0.034c-0.095,0.057 -0.062,0.149 -0.134,0.22c-0.151,0.15 -0.396,0.136 -0.553,0.28c0.046,-0.436 -0.469,0.113 -0.52,-0.172c0.014,0.01 0.028,0.021 0.043,0.032c0.208,-0.075 0.429,-0.269 0.661,-0.151c0.076,-0.17 -0.136,-0.313 0.014,-0.48c0.123,-0.135 0.318,-0.338 0.468,-0.438c0.178,-0.118 0.409,-0.162 0.61,-0.228c0.172,-0.056 0.328,-0.169 0.515,-0.165c0.388,0.009 0.711,-0.187 1.095,-0.216c0.178,-0.013 0.392,-0.026 0.561,0.045c0.039,0.016 0.085,0.045 0.086,0.093c0.114,-0.053 0.239,-0.078 0.355,-0.125Zm-0,0c0.013,-0.013 0.039,-0.026 0.079,-0.036c-0.026,0.013 -0.052,0.025 -0.079,0.036Zm26.158,98.254c0.012,0.012 0.023,0.027 0.033,0.045c-0.011,-0.016 -0.021,-0.031 -0.033,-0.045Zm0.673,2.088c0.018,0.047 0.036,0.094 0.052,0.142c-0.105,-0.063 -0.23,-0.076 -0.335,-0.139c0.061,0.061 0.133,0.103 0.217,0.128c-0.095,0.101 -0.271,0.103 -0.434,0.074c-0.157,0.128 -0.376,0.097 -0.563,0.121c-0.037,-0.032 -0.07,-0.068 -0.098,-0.108c0.096,-0.083 0.311,-0.078 0.486,-0.055c-0.039,-0.012 -0.074,-0.024 -0.104,-0.035c-0.092,-0.034 -0.196,-0.186 -0.3,-0.156c-0.137,0.04 -0.161,0.077 -0.278,-0.034c0.026,0.046 0.052,0.093 0.077,0.139c-0.076,-0.078 -0.405,0.07 -0.328,-0.121c-0.073,0.095 -0.394,0.141 -0.485,0.1c0.069,-0.058 0.141,-0.112 0.217,-0.161c-0.134,-0.078 -0.318,0.08 -0.446,0.108c-0.006,-0.087 -0.042,-0.158 -0.107,-0.216c-0.049,0.271 -0.243,-0.046 -0.337,-0.097c0.15,0.203 -0.153,0.129 -0.256,0.112c-0.082,-0.014 -0.18,0.074 -0.253,0.05c-0.077,-0.027 -0.104,-0.17 -0.173,-0.216c0.131,-0.009 0.224,0.096 0.346,0.118c-0.007,-0.085 -0.06,-0.144 -0.152,-0.128c0.081,-0.03 0.152,-0.017 0.213,0.038c-0.197,-0.205 0.495,0.026 0.568,-0.064c0.062,-0.078 -0.007,-0.206 0.185,-0.154c0.131,0.036 -0.003,0.396 0.216,0.341c-0.071,-0.048 -0.116,-0.127 -0.098,-0.215c0.189,-0.003 0.376,0.234 0.565,0.151c-0.182,-0.1 -0.381,-0.153 -0.547,-0.281c-0.146,-0.111 -0.342,-0.024 -0.451,-0.203c0.101,0.016 0.206,0.037 0.311,0.064c-0.207,-0.073 -0.354,-0.216 -0.474,-0.41c0.075,-0.033 0.151,-0.037 0.229,-0.01c-0.105,-0.076 -0.217,-0.4 0.021,-0.28c0.161,0.081 0.145,0.328 0.315,0.408c-0.076,0.063 -0.148,0.059 -0.217,-0.01c0.06,0.123 0.197,0.2 0.238,0.333c-0.002,-0 -0.005,-0.001 -0.007,-0.001c0.166,0.051 0.328,0.12 0.465,0.215c-0.081,-0.064 -0.097,-0.176 0.049,-0.153c0.14,0.022 0.241,0.163 0.349,0.241c-0.037,-0.082 -0.095,-0.147 -0.173,-0.194c0.142,-0.052 0.294,0.139 0.39,0.076c0.14,-0.092 0.335,0.1 0.273,0.25c0.044,-0.058 0.111,-0.077 0.182,-0.024c-0.131,-0.136 -0.014,-0.142 0.098,-0.129c-0.4,-0.339 -1.207,-0.225 -1.513,-0.703c-0.217,-0.34 0.613,-0.268 0.513,-0.576c-0.125,-0.383 -0.911,0.248 -1.158,-0.143c-0.077,-0.1 -0.197,-0.316 -0.108,-0.441c0.03,0.145 0.251,0.133 0.227,-0.022c-0.012,-0.083 -0.266,-0.168 -0.335,-0.193c0.124,-0.116 0.287,0.025 0.415,0.054c0.279,0.064 0.153,-0.263 0.238,-0.382c0.091,-0.128 0.344,0.164 0.44,0.188c0.171,0.044 0.305,-0.156 0.461,-0.06c0.037,0.023 0.066,0.051 0.09,0.083c-0.006,-0.015 -0.012,-0.03 -0.018,-0.045c0.205,0.185 0.461,0.315 0.629,0.537c-0.16,-0.169 -0.427,0.251 0.109,0.256c0.215,0.002 0.281,0.24 0.418,0.362c0.169,0.15 0.416,0.187 0.574,0.327c0.418,0.37 1.024,0.543 1.531,0.773c0.231,0.104 0.566,0.235 0.822,0.228c0.126,-0.004 0.251,-0.03 0.377,-0.024c0.178,0.008 0.138,0.193 0.092,0.341c-0.143,-0.078 -0.311,0.057 -0.48,-0.007c-0.183,-0.071 -0.437,0.164 -0.668,0.115c-0.259,-0.055 -0.485,-0.118 -0.754,-0.126c-0.299,-0.009 -0.683,0.005 -0.965,-0.111c-0.156,-0.065 -0.258,0.063 -0.383,-0.046Zm-11.407,-13.727c0.014,-0.006 0.029,-0.009 0.047,-0.01c-0.016,0.005 -0.031,0.008 -0.047,0.01Zm-0,-0c-0.059,0.023 -0.082,0.085 -0.072,0.151c-0.07,-0.043 -0.146,-0.069 -0.229,-0.076c0.083,-0.098 0.193,-0.061 0.301,-0.075Zm5.737,-77.682c-0.052,0.088 -0.132,0.637 -0.269,0.263c-0.076,-0.21 0.044,-0.417 0.269,-0.263Zm0,-0.021c0.095,-0.086 -0.002,-0.253 0.152,-0.28c0.021,0.137 0.136,0.235 0.249,0.302c-0.107,0.036 -0.343,0.144 -0.401,-0.022Zm0.282,0.528c-0.092,-0.094 -0.074,-0.141 0.054,-0.14c0.018,0.061 0,0.108 -0.054,0.14Zm0.18,1.832c-0.053,-0.007 -0.101,0.002 -0.127,-0.073c-0.041,-0.122 -0.097,-0.255 -0.099,-0.386c-0.002,-0.172 0.178,-0.022 0.225,0.037c0.035,0.043 0.074,0.104 0.105,0.17c0.1,-0.146 0.267,-0.247 0.498,-0.247c0.819,-0 0.819,1.266 0,1.266c-0.467,0 -0.668,-0.412 -0.602,-0.767Zm-51.449,-13.645c-0.029,-0.04 -0.058,-0.079 -0.087,-0.119c0.101,0.086 0.175,0.21 0.173,0.345c-0.042,-0.07 -0.071,-0.146 -0.086,-0.226Zm-9.701,-5.427c-0.074,0.109 0.019,0.224 -0.055,0.333c-0.074,-0.111 -0.083,-0.265 0.055,-0.333Zm3.067,1.055c0.058,0.156 -0.043,0.318 -0.108,0.452c-0.196,-0.08 0.034,-0.365 0.108,-0.452Zm2.547,-0.829c-0.043,-0.037 -0.488,-0.701 -0.228,-0.688c0.169,0.008 0.256,0.559 0.228,0.688Zm-0.303,5.793c0.137,-0.016 0.252,0.08 0.293,0.205c-0.133,-0.012 -0.207,-0.119 -0.293,-0.205Zm1.138,-5.449c-0.078,-0.04 -0.153,-0.083 -0.228,-0.129c0.175,-0.188 0.162,-0.463 0.466,-0.506c-0.096,0.216 -0.064,0.453 -0.238,0.635Zm0.39,3.468c0.006,0.138 -0.159,0.178 -0.206,0.29c0,-0.134 0.056,-0.27 0.206,-0.29Zm0.087,1.238c0.117,0.069 0.208,0.224 0.065,0.323c-0.061,-0.097 -0.087,-0.21 -0.065,-0.323Zm0.769,1.282c-0.059,-0.064 -0.087,-0.14 -0.086,-0.227c0.069,0.054 0.105,0.14 0.086,0.227Zm2.103,-1.196c0.058,0.062 0.076,0.134 0.054,0.216c-0.078,-0.058 -0.096,-0.13 -0.054,-0.216Zm0.792,4.351c0.088,0.002 0.142,0.064 0.14,0.15c-0.093,0.003 -0.151,-0.058 -0.14,-0.15Zm16.074,3.941c0.114,-0.062 0.248,-0.182 0.39,-0.162c-0.134,0.037 -0.237,0.196 -0.39,0.162Zm5.81,-2.089c-0.105,-0.297 0.221,-0.307 0.357,-0.431c-0.074,0.17 -0.213,0.317 -0.357,0.431Zm39.109,27.445c-0.185,0.31 -0.564,0.633 -0.76,0.681c-0.077,-0.187 0.032,-0.349 0.179,-0.445c0.135,-0.088 0.076,-0.232 0.109,-0.366c0.044,-0.182 0.379,-0.643 0.554,-0.301c0.051,0.099 0.024,0.23 -0.046,0.366c0.073,0.153 -0.049,0.36 -0.2,0.412c-0.002,-0.138 0.117,-0.227 0.164,-0.347Zm1.183,-1.549c0.087,-0.024 0.181,-0.037 0.239,-0.055c0.128,-0.04 0.539,-0.08 0.309,0.155c-0.088,0.091 -0.295,0.425 -0.4,0.214c-0.073,-0.009 -0.396,-0.03 -0.36,-0.162c0.02,-0.07 0.088,-0.111 0.168,-0.139c0.023,-0.078 0.083,-0.133 0.171,-0.119c-0.036,0.043 -0.078,0.079 -0.127,0.106Zm-2.539,2.296c0.031,-0.126 0.162,-0.179 0.281,-0.162c-0.078,0.075 -0.173,0.14 -0.281,0.162Zm0.26,0.149c-0.065,-0.172 0.223,-0.325 0.324,-0.161c-0.095,0.086 -0.236,0.063 -0.324,0.161Zm1.972,-4.867c-0.07,-0.106 -0.045,-0.142 0.076,-0.107c-0.026,0.036 -0.051,0.071 -0.076,0.107Zm0.098,0.312c-0.076,-0.101 -0.163,-0.258 0,-0.333c0.081,0.108 0.167,0.252 0,0.333Zm-1.149,3.06c0.053,-0.154 0.115,-0.362 0.271,-0.443c0.146,0.164 -0.158,0.368 -0.271,0.443Zm0.476,0.495l0.066,-0c-0.119,0.077 -0.153,0.243 -0.304,0.279c0.023,-0.127 0.114,-0.238 0.238,-0.279Zm-0.163,-0.421c-0.042,-0.116 0.028,-0.435 0.196,-0.269c-0.125,0.044 -0.147,0.163 -0.196,0.269Zm-0.02,0.539c-0.013,-0.141 0.107,-0.43 0.251,-0.481c0.132,-0.046 0.094,0.091 0.028,0.142c-0.118,0.09 -0.181,0.23 -0.279,0.339Zm0.075,-0.528c-0.011,-0.088 0.041,-0.158 0.119,-0.193c0.038,0.096 -0.032,0.167 -0.119,0.193Zm0.239,-0.344c-0.334,-0.066 -0.034,-0.272 0.12,-0.342c0.075,-0.034 0.243,0.005 0.144,0.114c-0.079,0.086 -0.184,0.142 -0.264,0.228Zm-0.141,0.377c0.058,-0.096 0.076,-0.249 0.216,-0.259c0.071,0.142 -0.124,0.21 -0.216,0.259Zm0.054,0.344c-0.022,-0.092 0.028,-0.14 0.119,-0.14c-0.024,0.061 -0.063,0.107 -0.119,0.14Zm0.033,-1.098c0.057,-0.075 0.146,-0.103 0.227,-0.043c-0.059,0.061 -0.131,0.097 -0.216,0.107c-0.004,-0.021 -0.008,-0.043 -0.011,-0.064Zm0.39,-0c-0.13,-0.128 -0.014,-0.36 0.095,-0.142c0.047,0.094 0.05,0.248 -0.095,0.142Zm0.141,-0.215c-0.154,-0.043 -0.025,-0.387 0.042,-0.518c0.15,0.168 0.067,0.357 -0.042,0.518Zm0.216,-0.226c-0.134,-0.136 0.066,-0.514 0.243,-0.364c0.11,0.093 -0.183,0.315 -0.243,0.364Zm0.012,-0.518c-0.039,-0.142 0.112,-0.205 0.227,-0.172c0.014,0.138 -0.119,0.169 -0.227,0.172Zm0.259,-0.238c-0.044,-0.065 -0.033,-0.118 0.033,-0.159c0.046,0.066 0.035,0.119 -0.033,0.159Zm0.293,1.197c0.185,-0.183 0.562,0.08 0.349,0.151c-0.121,0.04 -0.504,0.085 -0.349,-0.151Zm2.374,0.893l0,-0.118c0.005,0.005 0.115,0.17 0,0.118Zm1.366,0.431c-0.058,-0.104 -0.029,-0.143 0.087,-0.119c0.001,0.063 -0.028,0.102 -0.087,0.119Zm1.755,0.496l0,-0.109c0.016,0.072 0.045,0.047 0.087,-0.075c0.043,0.086 -0.003,0.154 -0.087,0.184Zm0.26,0.344c-0.024,-0.097 0.016,-0.111 0.119,-0.043c-0.039,0.014 -0.079,0.029 -0.119,0.043Zm0.24,1.81c0.007,-0.143 -0.053,-0.37 0.119,-0.443c0.005,0.16 -0.049,0.301 -0.119,0.443Zm1.007,-0.928c-0.05,-0.082 -0.018,-0.118 0.098,-0.107c-0.033,0.036 -0.065,0.072 -0.098,0.107Zm-3.696,31.056c-0.003,-0.084 0.026,-0.156 0.087,-0.215c0.09,0.095 0.049,0.207 0.011,0.312c-0.032,-0.032 -0.065,-0.065 -0.098,-0.097Zm0.369,1.907c-0.016,-0.143 -0.094,-0.456 0.065,-0.551c0.12,0.147 0.033,0.416 -0.065,0.551Zm3.121,-4.986c-0.07,-0.046 -0.145,-0.064 -0.228,-0.054c0.022,-0.103 0.069,-0.245 0.207,-0.216c-0.046,0.103 0.036,0.17 0.021,0.27Zm0.944,-0.969c-0.052,-0.14 0.112,-0.215 0.216,-0.141c-0.05,0.073 -0.127,0.128 -0.216,0.141Zm5.332,-13.051c-0.007,-0.127 0.146,-0.19 0.119,-0.323c0.166,0.115 -0.037,0.245 -0.119,0.323Zm-33.395,-40.424c-0.078,-0.01 -0.15,-0.035 -0.217,-0.076c0.073,-0.017 0.193,-0.02 0.217,0.076Zm-15.63,-4.308c-0.116,-0.026 -0.245,-0.072 -0.271,-0.204c0.233,0.248 0.135,-0.192 0.137,-0.262c0.004,-0.151 0.236,-0.212 0.351,-0.158c0.119,0.056 0.21,0.273 0.207,0.397c-0.003,0.169 -0.306,0.194 -0.424,0.227Zm3.295,-1.97c-0.04,-0.007 -0.08,-0.015 -0.119,-0.022c0.036,-0.024 0.076,-0.042 0.119,-0.054l-0,0.076Zm1.691,3.166c-0.042,-0.034 -0.082,-0.07 -0.119,-0.108c0.098,-0.003 0.093,0.032 0.119,0.108Zm0.238,-2.466c-0.074,-0.027 -0.147,-0.059 -0.217,-0.097c0.123,-0.055 0.345,-0.142 0.391,0.054c-0.059,0.012 -0.117,0.027 -0.174,0.043Zm0.423,0.194c-0.097,-0.057 -0.243,-0.061 -0.271,-0.194c0.171,-0.099 0.211,0.078 0.271,0.194Zm0.152,0.215c-0.126,-0.019 -0.199,-0.151 -0.12,-0.259c0.036,0.064 0.163,0.172 0.12,0.259Zm0.141,0.248c-0.073,-0.058 -0.145,-0.115 -0.217,-0.172c0.154,-0.14 0.459,0.013 0.217,0.172Zm17.19,17.1c0.065,-0.099 0.169,-0.222 0.304,-0.162c-0.045,0.145 -0.189,0.119 -0.304,0.162Zm0.033,0.247c-0.029,-0.032 -0.058,-0.064 -0.087,-0.097c0.078,-0.004 0.154,-0.018 0.229,-0.043c-0.006,0.085 -0.057,0.135 -0.142,0.14Zm0.098,-0.183l-0.108,-0.043c0.068,-0.042 0.141,-0.05 0.216,-0.022c-0.036,0.022 -0.072,0.044 -0.108,0.065Zm0.14,0.032c-0.018,-0.077 0.022,-0.092 0.12,-0.043c-0.04,0.015 -0.08,0.029 -0.12,0.043Zm0.033,-0.355l-0.108,0c0.029,-0.079 0.096,-0.13 0.183,-0.108c-0.025,0.036 -0.05,0.072 -0.075,0.108Zm0.054,-0.28c-0.111,-0.035 -0.1,-0.071 0.033,-0.108c-0.011,0.036 -0.022,0.072 -0.033,0.108Zm0.044,-0.011c0.018,-0.049 0.054,-0.078 0.108,-0.086c-0.036,0.029 -0.072,0.057 -0.108,0.086Zm-4.965,-2.283l-0.108,-0.032c0.03,-0.035 0.066,-0.064 0.108,-0.086c0.049,0.047 0.049,0.086 -0,0.118Zm1.399,0.033c-0.028,-0.081 -0.54,-0.193 -0.275,-0.277c0.141,-0.044 0.148,0.105 0.231,0.094c0.137,-0.019 0.16,-0.18 0.281,-0.227c0.074,0.289 0.041,0.26 -0.237,0.41Zm1.44,0.484c0.059,0.069 0.106,0.144 0.142,0.226c-0.07,-0.048 -0.141,-0.136 -0.142,-0.226Zm-23.303,2.854c-0.104,-0.1 0.16,-0.224 0.179,-0.318c0.035,-0.176 -0.148,-0.369 0.098,-0.475c0.201,-0.086 -0.169,-0.21 -0.169,-0.284c0,-0.153 0.121,-0.514 0.086,-0.574c0.144,-0.142 0.281,0.186 0.38,-0.018c0.075,0.066 0.184,0.149 0.217,0.248c-0,0.071 -0.004,0.143 -0.011,0.215c0.013,0.056 0.113,-0.006 0.105,0.076c-0.035,0.353 0.313,0.226 0.535,0.268c-0.043,-0.074 -0.09,-0.146 -0.142,-0.215c0.188,-0.057 0.371,0.396 0.588,0.426c0.456,0.063 0.713,-0.291 1.098,-0.434c0.264,-0.098 0.573,-0.176 0.773,-0.377c0.11,-0.11 0.171,-0.25 0.347,-0.252c0.198,-0.002 0.389,0.086 0.587,0.066c-0.036,0.045 -0.068,0.092 -0.098,0.141c0.386,-0.043 0.911,0.046 1.194,0.34c0.134,0.14 0.436,0.724 0.682,0.65c-0.182,0.279 0.025,0.403 0.12,0.691c0.102,0.31 -0.223,0.622 -0.456,0.784c-0.026,-0.079 -0.065,-0.151 -0.12,-0.215c-0.079,0.115 -0.034,0.133 -0.042,0.223c-0.008,0.092 -0.112,0.174 -0.181,0.379c-0.294,-0.21 -0.564,-0.719 -0.579,-1.076c0.247,0.091 0.162,-0.203 0.267,-0.315c0.116,-0.123 0.423,0.183 0.524,0.24c-0.067,-0.082 -0.162,-0.13 -0.244,-0.195c-0.117,-0.093 -0.096,-0.247 -0.167,-0.365c0.03,0.091 -0.02,0.171 -0.098,0.215c0.049,-0.217 -0.136,0.009 -0.217,-0.194c0.026,0.088 0.022,0.174 -0.011,0.259c-0.125,-0.229 -0.132,-0.461 -0.337,-0.579c-0.092,-0.053 -0.18,-0.115 -0.262,-0.181c-0.148,-0.119 -0.075,-0.113 -0.245,-0.103c-0.234,0.013 -0.632,0.063 -0.699,0.359c-0.051,0.225 -0.378,0.612 -0.657,0.567c-0.441,-0.071 0.033,0.577 0.132,0.684c0.076,0.083 0.238,0.252 0.146,0.375c-0.082,0.108 -0.271,0.037 -0.372,0.126c-0.132,0.117 -0.438,0.3 -0.626,0.197c-0.044,-0.025 -0.028,-0.323 -0.057,-0.395c-0.057,-0.142 -0.014,-0.36 -0.101,-0.479c-0.058,0.068 -0.12,0.071 -0.184,0.01c0.186,0.358 -0.221,0.447 -0.39,0.146c-0.144,-0.254 -0.139,-0.442 -0.443,-0.549c-0.099,-0.036 -0.202,0.051 -0.269,-0.056c-0.085,-0.134 -0.197,-0.028 -0.264,-0.133c-0.107,0.152 -0.264,-0.008 -0.401,0.065c-0.152,0.08 -0.043,0.257 -0.152,0.355c0.013,-0.132 -0.014,-0.247 -0.064,-0.323Zm0.65,0.032c0.022,-0.026 0.047,-0.03 0.076,-0.011c-0.05,0.086 -0.076,0.09 -0.076,0.011Zm0.716,0.786c0.027,0.112 0.005,0.234 0.076,0.334c-0.095,0.07 -0.196,0.007 -0.226,-0.092c-0.036,-0.121 0.081,-0.173 0.15,-0.242Zm0.552,0.216c0.062,-0.062 0.134,-0.105 0.217,-0.13c-0.061,0.062 -0.133,0.105 -0.217,0.13Zm2.797,-1.271c0.027,0.09 0.054,0.248 -0.098,0.226c-0.023,-0.082 -0.01,-0.208 0.098,-0.226Zm25.2,61.487c-0.036,-0.011 -0.071,-0.022 -0.107,-0.033c0.089,-0.053 0.125,-0.043 0.107,0.033Zm0.185,0.226c-0.083,-0.031 -0.159,-0.074 -0.227,-0.13c0.105,-0.06 0.237,0.002 0.227,0.13Zm4.715,19.759c-0.039,-0.025 -0.075,-0.054 -0.108,-0.086c0.252,-0.097 0.507,-0.188 0.78,-0.119c-0.201,0.074 -0.524,0.023 -0.672,0.205Zm-22.979,-93.888l-0.119,-0.032c0.084,-0.032 0.065,0.003 0.119,0.032Zm0.965,-0.829c-0.029,-0.021 -0.66,-0.288 -0.437,-0.333c0.141,-0.029 0.551,0.135 0.437,0.333Zm0.293,-1.69l-0.109,-0.033c0.084,-0.073 0.194,-0.047 0.26,0.033l-0.151,-0Zm-13.669,5.785c0.042,0.044 0.047,0.111 0.063,0.168c0.013,0.051 0.156,0.159 0.198,0.206c0.029,-0.086 -0.01,-0.144 -0.098,-0.161c0.106,-0.113 0.272,0.211 0.477,0.107c0.014,0.071 0.037,0.098 -0.011,0.162c0.219,-0.055 0.019,-0.201 -0.086,-0.237c0.351,0.049 0.285,0.344 0.563,0.452c-0.198,0.034 -0.382,-0.001 -0.557,0.121c-0.153,0.106 -0.466,0.208 -0.652,0.203c-0.148,-0.004 -0.283,0.153 -0.41,0.115c-0.09,-0.027 -0.174,-0.06 -0.256,-0.105c-0.038,-0.021 -0.041,-0.097 -0.079,-0.105c-0.206,-0.041 -0.227,0.219 -0.3,0.331c-0.047,0.072 -0.13,0.107 -0.174,0.183c-0.023,0.042 0.032,0.115 -0.009,0.144c-0.15,0.108 -0.623,0.373 -0.695,0.621c-0.328,-0.208 -0.394,-0.39 -0.606,-0.036c-0.147,0.246 -0.594,0.019 -0.57,0.235c0.023,0.213 0.117,0.462 -0.136,0.504c-0.134,0.023 -0.112,0.166 -0.148,0.261c-0.061,0.165 -0.294,0.105 -0.426,0.123c0.098,-0.158 -0.391,-0.378 -0.044,-0.506c-0.107,0.035 -0.251,0.034 -0.271,-0.108c-0.031,0.12 -0.13,0.154 -0.227,0.076c0.128,-0.042 0.105,-0.176 0.112,-0.281c0.011,-0.17 0.167,-0.36 -0.135,-0.363c-0.099,0.078 -0.152,0.064 -0.16,-0.043c-0.031,-0.038 -0.071,-0.053 -0.12,-0.045c-0.14,0.016 -0.259,0.127 -0.402,0.129c0.107,-0.24 -0.79,-0.622 -0.9,-0.733c0.082,-0.201 0.347,-0.247 0.22,-0.499c-0.071,-0.142 0.127,-0.358 0.238,-0.408c0.255,-0.114 0.455,-0.333 0.661,-0.519c0.082,-0.073 0.191,-0.138 0.286,-0.195c0.11,-0.065 0.172,0.025 0.262,-0.079c0.123,-0.144 0.403,-0.273 0.549,-0.125c0.106,0.108 0.631,0.12 0.788,0.105c0.22,-0.02 0.556,0.033 0.745,-0.087c0.068,-0.043 0.571,-0.154 0.294,-0.238c0.247,-0.008 0.46,0.146 0.705,0.15c0.253,0.005 0.547,-0.179 0.774,0.02c0.192,0.169 0.302,0.001 0.494,0.099c0.224,0.113 0.341,0.376 0.51,0.549c-0.078,-0.04 -0.152,-0.162 -0.248,-0.162c-0.081,0 -0.152,0.012 -0.219,-0.029Zm-2.677,-0.961c0.076,-0.144 0.271,-0.203 0.423,-0.205c-0.147,0.055 -0.292,0.118 -0.423,0.205Zm28.046,89.383c-0.104,-0.014 -0.21,-0.011 -0.313,-0.042c-0.296,-0.09 -0.493,-0.268 -0.776,-0.396c0.234,-0.057 0.407,0.17 0.616,0.224c0.267,0.068 0.505,0.074 0.739,0.249c-0.355,-0.333 0.447,0.318 0.108,-0.011c0.166,0.048 0.287,0.185 0.455,0.228c-0.098,0.019 -0.196,0.015 -0.292,-0.012c-0.152,0.056 -0.272,-0.155 -0.395,-0.204c-0.044,-0.018 -0.089,-0.028 -0.135,-0.035c0.032,0.022 0.064,0.045 0.096,0.067c-0.044,-0.01 -0.078,-0.032 -0.103,-0.068Zm-3.449,-4.206c-0.061,-0.066 -0.114,-0.139 -0.156,-0.2c-0.096,-0.135 -0.31,-0.17 -0.291,-0.372c0.125,0.06 0.208,0.176 0.325,0.248c-0.066,-0.078 -0.138,-0.149 -0.217,-0.215c0.072,-0.015 0.138,0.012 0.186,0.061c-0.2,-0.243 0.176,0.143 0.031,-0.148c0.081,0.034 0.153,0.08 0.216,0.141c-0.021,-0.109 -0.218,-0.417 -0.14,-0.518c-0.103,0.101 -0.306,-0.019 -0.151,-0.089c-0.201,0.038 0.172,-0.5 0.281,-0.072c-0,-0.288 0.087,0.112 0.164,0.136c0.112,0.036 0.066,0.146 0.144,0.216c0.193,0.173 0.217,0.507 0.24,0.756c0,-0.207 0.356,0.117 0.084,0.066c0.157,0.032 0.236,0.362 0.039,0.226c0.032,0.03 0.061,0.063 0.088,0.097c-0.087,0.051 -0.225,0.044 -0.325,-0c0.041,-0.031 0.081,-0.063 0.119,-0.097c-0.244,0.047 0.022,-0.057 -0.128,-0.151c-0.069,-0.043 -0.182,-0.056 -0.219,-0.139c0.039,-0.023 0.079,-0.044 0.119,-0.065c-0.083,-0.022 -0.144,-0.083 -0.141,-0.173c0.187,0.038 0.149,-0.113 0.022,-0.129c-0.009,0.127 -0.154,0.134 -0.141,0.27c0.012,0.132 0.173,0.187 0.162,0.333c-0.084,-0.005 -0.162,-0.047 -0.231,-0.105c0.033,0.04 0.06,0.086 0.079,0.138c-0.083,-0.093 -0.258,-0.052 -0.271,-0.205c-0.13,0.126 -0.24,-0.034 -0.271,-0.151c0.136,0.013 0.276,0.058 0.383,0.141Zm-2.245,-9c0.108,0.114 0.312,0.257 0.334,0.298c-0.072,0.011 -0.144,0.011 -0.216,0c0.097,0.092 0.413,0.308 0.097,0.346c0.013,0.06 0.187,0.359 -0.018,0.333c-0.099,-0.013 -0.198,-0.042 -0.294,-0.067c-0.111,-0.03 -0.262,-0.065 -0.31,-0.183c-0.05,-0.122 0.07,-0.191 0.015,-0.302c-0.128,-0.259 -0.102,-0.643 -0.264,-0.903c-0.097,-0.156 0.073,-0.411 -0.115,-0.601c0.086,-0.001 0.3,0.217 0.365,0.115c0.053,-0.083 0.081,-0.143 0.188,-0.062c0.072,0.211 0.223,0.395 0.379,0.549c-0.12,0.095 -0.377,0.179 -0.131,0.323c-0.132,-0 -0.113,0.062 -0.042,0.141c0.084,-0.075 0.116,-0.068 0.098,0.021c-0.029,-0.003 -0.058,-0.006 -0.086,-0.008Zm11.411,16.084c-0.035,-0.022 -0.071,-0.043 -0.107,-0.065c0.046,0.006 0.082,0.028 0.107,0.065Zm2.103,0.538c-0.065,-0.046 -0.137,-0.064 -0.216,-0.054c0.071,-0.04 0.147,-0.051 0.227,-0.031c-0.004,0.028 -0.007,0.057 -0.011,0.085Zm0.348,-0.01c-0.036,-0.015 -0.072,-0.029 -0.108,-0.044c0.09,-0.044 0.126,-0.03 0.108,0.044Zm0.152,0.022c-0.033,-0.036 -0.065,-0.071 -0.098,-0.107c0.043,0.027 0.076,0.063 0.098,0.107Zm-0.467,-0.949c0.045,0.118 -0.076,0.311 -0.216,0.246c-0.05,-0.023 -0.134,-0.222 -0.223,-0.147c-0.029,0.024 0.046,0.082 -0.015,0.096c-0.077,0.002 -0.153,-0.001 -0.229,-0.011c0.26,-0.028 -0.23,-0.025 -0.308,-0.094c-0.089,-0.081 -0.122,-0.3 -0.288,-0.218c0.197,-0.296 1.109,-0.097 1.279,0.128Zm-0.314,0.593c-0.071,-0.109 -0.045,-0.142 0.075,-0.097c-0.025,0.032 -0.05,0.065 -0.075,0.097Zm0.477,0.205c-0.076,-0.02 -0.152,-0.042 -0.227,-0.064c0.017,-0.045 0.042,-0.085 0.075,-0.12c0.075,0.041 0.126,0.103 0.152,0.184Zm-0.185,-0.969c0.077,0.017 0.15,0.045 0.218,0.085c-0.061,-0.003 -0.207,0.009 -0.218,-0.085Zm0.283,0.29c0.025,0.036 0.05,0.072 0.075,0.108c-0.076,0.018 -0.148,0.007 -0.217,-0.032c0.036,-0.047 0.083,-0.073 0.142,-0.076Zm0.313,0.064c-0.032,-0.032 -0.061,-0.068 -0.086,-0.107c0.103,-0.047 0.172,0.024 0.086,0.107Zm-8.519,-2.497c-0.038,0.032 -0.077,0.06 -0.119,0.087c0.003,-0.106 0.037,-0.087 0.119,-0.087Zm0.423,0.42c-0.083,-0.108 -0.058,-0.144 0.077,-0.108c-0.026,0.036 -0.052,0.072 -0.077,0.108Zm0.281,-0.248c0.145,0.23 -0.205,0.111 -0.302,0.076c0.076,0.013 0.152,0.031 0.227,0.052c-0.03,-0.034 -0.059,-0.07 -0.087,-0.106c0.053,-0.01 0.108,-0.018 0.162,-0.022Zm1.063,0.915c-0.071,-0.037 -0.147,-0.055 -0.227,-0.054c0.079,-0.016 0.154,-0.041 0.227,-0.074c-0.04,-0.029 -0.08,-0.058 -0.119,-0.087c0.036,-0.037 0.072,-0.073 0.109,-0.108c-0.146,-0.06 -0.313,-0.054 -0.388,0.088c-0.055,0.103 -0.166,0.068 -0.223,-0.017c-0.111,-0.165 -0.03,-0.347 -0.311,-0.222c0.003,-0.094 -0.052,-0.131 -0.141,-0.108c0.112,-0.218 0.386,0.022 0.552,0.011c-0.167,-0.033 -0.295,-0.129 -0.444,-0.203c0.076,-0.014 0.152,-0.014 0.227,-0c-0.022,-0.036 -0.044,-0.072 -0.064,-0.108c0.132,-0.102 0.328,0.162 0.39,0.247c0.013,-0.21 0.18,-0.048 0.227,0.043c-0.019,-0.19 0.174,-0.094 0.238,0.008c0.086,0.137 0.317,0.026 0.358,0.251c-0.158,-0.073 -0.138,0.12 -0.021,0.161c-0.137,0.026 -0.277,0.092 -0.39,0.172Zm-0.433,0c-0.061,-0.071 -0.137,-0.096 -0.228,-0.075c0.082,-0.067 0.232,-0.06 0.228,0.075Zm0.91,-0.075c0.228,0.068 0.022,0.317 -0.131,0.162c0.104,-0.011 0.129,-0.069 0.065,-0.151c0.022,-0.004 0.044,-0.007 0.066,-0.011Zm0.065,0.442c-0.039,-0.025 -0.075,-0.054 -0.108,-0.087c0.076,-0.06 0.151,-0.06 0.227,-0c-0.092,-0.016 -0.088,0.019 -0.119,0.087Zm0.033,-0.711c-0.036,0.014 -0.072,0.028 -0.108,0.042c0.033,-0.023 0.069,-0.036 0.108,-0.042Zm0.422,0.108c0.009,0.085 0.042,0.16 0.098,0.226c-0.085,0.032 -0.157,0.014 -0.217,-0.054c0.072,0.088 0.361,0.307 0.065,0.302c0.068,-0.23 -0.412,-0.242 -0.466,-0.42c0.069,-0.004 0.265,-0.191 0.308,-0.1c0.049,0.105 0.116,0.013 0.212,0.046Zm-0.228,0.441c-0.039,-0.032 -0.079,-0.065 -0.119,-0.097c0.043,0.029 0.083,0.061 0.119,0.097Zm0.021,0.215c-0.035,-0.01 -0.071,-0.022 -0.107,-0.032c0.039,0.001 0.075,0.012 0.107,0.032Zm0.067,-0.043c-0.036,-0.025 -0.073,-0.05 -0.109,-0.075c0.116,-0.06 0.152,-0.036 0.109,0.075Zm0.509,-0.389c-0.002,0.403 -0.31,-0.161 -0.336,-0.181c0.118,-0.027 0.28,-0.009 0.39,0.042c0.015,0.092 0.078,0.167 0.162,0.205c-0.058,-0.298 0.205,0.019 0.261,0.097c-0.076,0.04 -0.156,0.069 -0.24,0.087c0.051,-0.245 -0.234,-0.011 -0.237,-0.25Zm-0.14,0.776c-0.033,-0.036 -0.066,-0.071 -0.098,-0.107c0.096,0.001 0.085,0.032 0.098,0.107Zm0.162,-0.635c0.029,0.036 0.057,0.073 0.086,0.109c-0.077,-0.02 -0.077,-0.043 -0.086,-0.109Zm0.855,0.873c-0.093,-0.092 -0.245,-0.134 -0.335,-0.01c-0.029,-0.032 -0.051,-0.068 -0.065,-0.108c0.151,-0.042 0.283,0.051 0.433,0.031c-0.011,0.029 -0.022,0.058 -0.033,0.087Zm0.163,-0.979c-0.036,-0.015 -0.072,-0.029 -0.109,-0.044c0.104,-0.103 0.14,-0.088 0.109,0.044Zm0.51,1.29c-0.121,-0.264 -0.516,-0.058 -0.619,-0.311c0.107,-0.034 0.212,-0.002 0.317,0.016c0.094,0.016 0.161,-0.089 0.258,-0.08c-0.031,0.082 -0.106,0.133 -0.195,0.129c0.125,0.02 0.366,-0.015 0.423,0.139c-0.118,-0.072 -0.148,0.012 -0.184,0.107Zm-0.369,-1.141c-0.072,-0.021 -0.144,-0.042 -0.216,-0.064c0.068,-0.047 0.238,-0.074 0.216,0.064Zm0.196,0.69c-0.064,0.065 -0.14,0.086 -0.229,0.064c0.066,-0.057 0.143,-0.078 0.229,-0.064Zm0.498,0.097c-0.004,0.075 0.006,0.099 -0.087,0.108c0.029,-0.037 0.058,-0.072 0.087,-0.108Zm0.152,0.398c-0.036,-0.025 -0.072,-0.05 -0.108,-0.075c0.047,0.01 0.083,0.035 0.108,0.075Zm0.373,-0.179c-0.054,-0.16 0.374,-0.095 0.456,-0.12c0.158,-0.048 0.334,-0.099 0.5,-0.071c0.114,0.019 0.208,0.182 0.043,0.179c-0.21,-0.003 -0.281,0.026 -0.494,-0.056c0.233,0.261 0.638,0.104 0.911,0.29c-0.134,0.037 -0.328,0.08 -0.446,-0.021c0.099,0.129 0.318,0.101 0.456,0.15c0.182,0.064 0.279,0.184 0.401,0.324c-0.193,0.049 -0.221,-0.145 -0.376,-0.183c-0.133,-0.033 -0.47,-0.121 -0.589,-0.044c0.06,-0.08 -0.04,-0.244 -0.183,-0.254c-0.15,-0.01 -0.323,-0.18 -0.457,-0.133c0.329,0.102 -0.172,0.001 0.118,0.193c0.078,0.052 0.155,0.106 0.23,0.162c-0.125,0.073 -0.633,-0.058 -0.532,-0.258c-0.094,0.021 -0.382,-0.016 -0.433,-0.118c0.095,-0.095 0.302,-0.159 0.395,-0.04Zm-0.276,0.255c0.014,0.028 0.029,0.057 0.043,0.085c-0.131,-0.041 -0.146,-0.07 -0.043,-0.085Zm0.337,0.129c-0.036,-0.025 -0.072,-0.05 -0.109,-0.075c0.085,-0.017 0.085,0.008 0.109,0.075Zm-7.502,-4.329c-0.048,-0.065 -0.063,-0.136 -0.043,-0.215c0.07,0.033 0.173,0.177 0.043,0.215Zm0.282,0.28c-0.103,-0.073 -0.275,-0.364 -0.076,-0.323c-0.044,-0.069 -0.084,-0.141 -0.118,-0.216c0.235,-0.032 0.259,0.399 0.194,0.539Zm0.108,0.021c-0.015,-0.114 -0.078,-0.216 -0.075,-0.333c0.19,-0.054 0.146,0.251 0.075,0.333Zm0.24,0.227c-0.075,-0.042 -0.151,-0.082 -0.229,-0.119c0.068,0.014 0.346,-0.025 0.229,0.119Zm-0.142,-0.312c0.013,-0.093 0.08,-0.145 0.173,-0.118c-0.041,0.064 -0.098,0.103 -0.173,0.118Zm0.477,-0.141c-0.165,-0.075 -0.318,-0.159 -0.456,-0.28c0.121,-0.01 0.458,0.132 0.456,0.28Zm0.044,-0.193c-0.193,-0.077 -0.176,-0.131 -0.229,-0.312c0.12,0.065 0.186,0.192 0.304,0.258c-0.025,0.018 -0.05,0.036 -0.075,0.054Zm0.26,0.732c-0.07,-0.028 -0.332,-0.248 -0.066,-0.172c-0.106,-0.055 -0.213,-0.159 -0.346,-0.118c0.154,-0.167 0.424,0.121 0.552,0.192c-0.031,0.055 -0.078,0.088 -0.14,0.098Zm-0.174,-0.313c-0.04,-0.018 -0.08,-0.036 -0.119,-0.054c0.08,-0.024 0.085,-0.005 0.119,0.054Zm0.152,-0.398c-0.08,-0.044 -0.156,-0.094 -0.227,-0.151c0.082,0.014 0.218,0.044 0.227,0.151Zm0.325,0.506c-0.165,-0.144 -0.432,-0.171 -0.552,-0.367c0.192,0.016 0.511,0.153 0.552,0.367Zm-0.336,-0.398c-0.036,-0.018 -0.072,-0.036 -0.108,-0.054c0.098,-0.029 0.059,0.009 0.108,0.054Zm0.325,0.603c-0.094,-0.103 -0.226,-0.154 -0.335,-0.237c0.16,-0.015 0.339,0.068 0.411,0.216c-0.026,0.007 -0.05,0.014 -0.076,0.021Zm-0.206,-0.475c-0.025,-0.035 -0.05,-0.071 -0.075,-0.107c0.128,0.012 0.153,0.047 0.075,0.107Zm0.077,0.249c-0.04,-0.015 -0.08,-0.029 -0.12,-0.044c0.098,-0.048 0.138,-0.034 0.12,0.044Zm0.27,0.646c0,-0.061 -0.26,-0.343 -0.107,-0.371c0.196,-0.035 0.259,0.287 0.107,0.371Zm0.639,0.28c-0.094,-0.078 -0.215,-0.116 -0.335,-0.075c0.097,-0.058 0.306,-0.073 0.335,0.075Zm-0.281,-1.121c-0.032,-0.088 0.017,-0.158 0.098,-0.193c0.043,0.092 -0.012,0.162 -0.098,0.193Zm-2.991,-2.174c-0.029,0.082 -0.099,0.142 -0.184,0.161c0.104,-0.187 -0.08,-0.075 -0.17,-0.158c-0.051,-0.047 -0.055,-0.135 -0.059,-0.198c0.147,-0.026 0.127,0.163 0.271,0.13c0.022,-0.144 -0.265,-0.182 -0.346,-0.248c0.099,0.011 0.208,-0.073 0.299,-0.003c0.039,0.044 0.088,0.053 0.145,0.026c-0.031,0.157 0.08,0.166 0.206,0.085c-0.07,0.055 -0.125,0.124 -0.162,0.205Zm0.033,0.613c-0.139,0 -0.114,-0.167 -0.25,-0.161c0.086,-0.071 0.072,-0.147 -0.033,-0.183c0.11,-0.09 0.215,0.008 0.335,-0.021c-0.009,0.097 -0.077,0.129 -0.162,0.085c0.05,0.081 0.143,0.173 0.11,0.28Zm0.085,-0.495c-0.036,-0.004 -0.072,-0.007 -0.108,-0.011c0.043,-0.022 0.079,-0.018 0.108,0.011Zm0.217,0.517c-0.076,-0.037 -0.132,-0.109 -0.14,-0.194c0.124,-0.016 0.155,0.099 0.14,0.194Zm0.077,-0.387c-0.056,-0.088 -0.01,-0.15 0.086,-0.162c-0.009,0.065 -0.038,0.118 -0.086,0.162Zm0.303,0.485c-0.096,-0.004 -0.484,-0.112 -0.326,-0.259c0.086,-0.079 0.33,0.174 0.326,0.259Zm0.108,0.279c-0.004,-0.04 -0.007,-0.08 -0.011,-0.119c-0.103,0.104 -0.326,-0.036 -0.335,-0.16c0.117,0.006 0.231,0.032 0.346,0.053c-0.052,-0.08 -0.109,-0.156 -0.173,-0.227c0.274,-0.039 0.294,0.223 0.477,0.346c-0.118,-0.065 -0.24,0.007 -0.304,0.107Zm-0.248,0.646c-0.098,-0.108 -0.083,-0.307 -0.088,-0.441c0.03,0.091 0.102,0.127 0.184,0.064c-0.017,0.111 0.063,0.336 -0.096,0.377Zm0.596,-0.981c-0.133,-0.083 -0.3,-0.067 -0.402,-0.202c-0.061,-0.08 -0.09,-0.173 -0.184,-0.227c0.123,-0.061 0.207,-0.013 0.292,0.077c0.076,0.079 0.225,0.116 0.021,0.116c0.091,0.041 0.277,0.109 0.273,0.236Zm-0.381,0.787c0.063,-0.081 0.027,-0.153 -0.065,-0.182c0.165,-0.292 0.305,-0.092 0.413,0.085c-0.039,-0.026 -0.079,-0.051 -0.119,-0.075c-0.007,0.047 -0.007,0.094 -0,0.14c-0.036,-0.135 -0.101,-0.003 -0.229,0.032Zm0.381,-0.334c-0.088,-0.039 -0.279,-0.092 -0.175,-0.225c0.04,0.097 0.196,0.104 0.175,0.225Zm0.15,0.011c-0.078,-0.108 -0.148,-0.22 -0.216,-0.334c0.12,0.081 0.203,0.202 0.293,0.313c-0.026,0.007 -0.051,0.014 -0.077,0.021Zm0.294,0.291c-0.085,-0.029 -0.158,-0.088 -0.207,-0.163c0.109,-0.024 0.201,0.058 0.207,0.163Zm0.01,-0.097c-0.037,-0.032 -0.069,-0.068 -0.097,-0.107c0.076,-0.08 0.155,-0.055 0.195,0.042c-0.032,0.021 -0.065,0.043 -0.098,0.065Zm0.282,0c-0.086,-0.004 -0.133,-0.055 -0.13,-0.14c0.086,0.004 0.134,0.055 0.13,0.14Zm-2.981,-3.35c-0.107,-0.054 -0.223,-0.232 -0.266,-0.341c-0.045,-0.116 -0.164,0.007 -0.265,-0.034c0.189,-0.074 0.034,-0.052 0.015,-0.177c-0.011,-0.073 -0.177,-0.15 -0.222,-0.212c0.259,-0.141 0.932,0.563 0.738,0.764Zm-0.465,-1.087c-0.04,-0.022 -0.08,-0.043 -0.12,-0.064c0.018,-0.041 0.043,-0.077 0.076,-0.108c0.065,0.046 0.08,0.103 0.044,0.172Zm0.054,1.077c0.036,-0.018 0.071,-0.036 0.107,-0.054c-0.106,-0.031 -0.241,-0.042 -0.271,-0.172c0.135,-0.038 0.229,-0.155 0.327,0.01c0.079,0.134 -0.013,0.249 -0.163,0.216Zm0.054,0.13c-0.035,-0.034 -0.068,-0.07 -0.098,-0.108c0.129,0.056 0.217,-0.084 0.347,-0.043c-0.069,0.068 -0.153,0.127 -0.249,0.151Zm0.043,-1.271c-0.037,-0.029 -0.073,-0.057 -0.109,-0.086c0.116,-0.05 0.152,-0.022 0.109,0.086Zm0.27,0.356c-0.12,-0.021 -0.231,-0.146 -0.346,-0.033c-0.041,-0.166 0.149,-0.132 0.228,-0.065c-0.05,-0.071 -0.05,-0.143 -0,-0.215c0.108,0.063 0.155,0.195 0.118,0.313Zm0.077,0.474c-0.152,-0.113 -0.289,-0.25 -0.39,-0.41c0.23,-0.035 0.73,0.159 0.39,0.41Zm0.13,0.807c-0.104,-0.189 -0.456,-0.027 -0.499,-0.248c0.148,-0.097 0.486,0.066 0.499,0.248Zm-0.217,-1.207c-0.07,-0.045 -0.146,-0.078 -0.227,-0.097c0.084,-0.011 0.191,0.007 0.227,0.097Zm-0.075,1.218c-0.036,-0.015 -0.073,-0.029 -0.109,-0.044c0.09,-0.044 0.127,-0.03 0.109,0.044Zm0.14,0.226c-0.285,-0.044 -0.012,-0.19 -0.032,-0.334c0.261,0.078 -0.001,0.19 0.032,0.334Zm0.152,-0.344c-0.062,-0.079 -0.127,-0.155 -0.194,-0.228c0.129,-0.006 0.251,0.06 0.313,0.174c-0.04,0.018 -0.08,0.036 -0.119,0.054Zm-0.098,-1.218c-0.029,-0.039 -0.057,-0.079 -0.086,-0.118c0.031,0.038 0.06,0.077 0.086,0.118Zm0.087,1.013c-0.09,-0.015 -0.143,-0.072 -0.098,-0.162c0.069,0.033 0.101,0.087 0.098,0.162Zm0.423,-0.184c-0.128,-0.058 -0.377,-0.01 -0.461,-0.146c-0.111,-0.181 0.118,-0.298 0.201,-0.101c-0.025,-0.089 -0.108,-0.133 -0.142,-0.215c-0.015,-0.076 -0.029,-0.151 -0.042,-0.226c0.074,0.086 0.643,0.645 0.444,0.688Zm-0.379,1.077c-0.036,-0.022 -0.072,-0.043 -0.109,-0.065c0.042,0.012 0.078,0.034 0.109,0.065Zm0.021,-1.012c-0.018,-0.036 -0.036,-0.071 -0.054,-0.107c0.122,-0.014 0.172,0.04 0.054,0.107Zm0.358,0.678c-0.047,-0.045 -0.364,-0.16 -0.336,-0.24c0.07,-0.201 0.384,0.054 0.336,0.24Zm-0.206,-0.021c-0.036,-0.014 -0.072,-0.029 -0.108,-0.043c0.045,-0.006 0.081,0.009 0.108,0.043Zm0.108,-1.164c-0.053,-0.075 -0.107,-0.15 -0.162,-0.225c0.116,-0.007 0.324,0.111 0.162,0.225Zm0.011,-0.451c-0.091,-0.01 -0.157,-0.073 -0.173,-0.162c0.19,0.022 0.371,-0.049 0.552,0.044c-0.1,0.109 -0.251,0.079 -0.379,0.118Zm0.315,0.613c-0.085,-0.045 -0.261,-0.065 -0.196,-0.205c0.063,0.045 0.223,0.099 0.196,0.205Zm0.227,0.033c-0.08,-0.032 -0.156,-0.071 -0.227,-0.118c0.095,-0.02 0.183,0.036 0.227,0.118Zm0.087,-0.603c-0.036,-0.032 -0.072,-0.065 -0.108,-0.097c0.064,0.004 0.1,0.036 0.108,0.097Zm0.184,2.013c-0.047,-0.071 -0.087,-0.146 -0.119,-0.226c0.087,0.023 0.164,0.078 0.217,0.15c-0.033,0.025 -0.065,0.051 -0.098,0.076Zm-0,-1.894c-0.036,-0.019 -0.072,-0.037 -0.109,-0.054c0.039,0.013 0.075,0.031 0.109,0.054Zm-2.493,-3.038c-0.04,-0.018 -0.079,-0.036 -0.119,-0.054c0.044,0.009 0.083,0.027 0.119,0.054Zm0.065,0.033c-0.055,-0.092 -0.01,-0.167 0.087,-0.195c0.018,0.071 0.025,0.143 0.021,0.216l-0.108,-0.021Zm0.791,0.236c-0.062,-0.063 -0.102,-0.139 -0.118,-0.226c0.146,-0.021 0.137,0.131 0.118,0.226Zm0.163,0.087c-0.14,-0.117 0.04,-0.274 0.152,-0.141c-0.07,0.027 -0.121,0.074 -0.152,0.141Zm0.033,-0.28c-0.033,-0.04 -0.065,-0.08 -0.098,-0.12c0.052,0.026 0.085,0.066 0.098,0.12Zm0.075,-0.776c-0.032,-0.036 -0.065,-0.072 -0.097,-0.108c0.041,0.028 0.074,0.064 0.097,0.108Zm-0.054,2.542c-0.072,-0.107 -0.047,-0.154 0.075,-0.14c0.004,0.062 -0.021,0.109 -0.075,0.14Zm0.194,-1.207c-0.064,-0.07 -0.139,-0.124 -0.227,-0.161c0.139,-0.132 0.277,0.004 0.227,0.161Zm-0.01,-0.225c-0.086,0.003 -0.14,-0.045 -0.151,-0.129c0.073,0.018 0.123,0.06 0.151,0.129Zm-1.582,-2.456c-0.04,-0.007 -0.08,-0.014 -0.119,-0.021c0.073,-0.038 0.064,-0.001 0.119,0.021Zm0.466,0.431c-0.04,-0.018 -0.08,-0.036 -0.12,-0.054c0.057,-0.051 0.187,-0.044 0.12,0.054Zm-1.258,-1.011c-0.036,-0.029 -0.071,-0.058 -0.107,-0.087c0.072,-0.049 0.144,-0.049 0.217,-0c-0.034,0.033 -0.071,0.061 -0.11,0.087Zm0.358,1.636c-0.039,-0.033 -0.075,-0.069 -0.108,-0.108c0.091,-0.032 0.143,0.019 0.108,0.108Zm0.185,-0.313c-0.029,-0.036 -0.058,-0.071 -0.087,-0.107c0.077,0.019 0.077,0.042 0.087,0.107Zm0.313,-2.713c-0.066,-0.059 -0.142,-0.103 -0.227,-0.13c0.102,-0.033 0.204,0.028 0.227,0.13Zm0.023,2.736c-0.076,-0.008 -0.153,-0.015 -0.229,-0.023c0.071,-0.08 0.183,-0.086 0.229,0.023Zm-0.011,-0.195c-0.087,0.003 -0.154,-0.051 -0.185,-0.13c0.088,0.036 0.164,0.018 0.228,-0.052c0.022,0.069 0.008,0.13 -0.043,0.182Zm-0.033,-0.528c-0.036,-0.003 -0.072,-0.007 -0.108,-0.01c0.037,-0.006 0.073,-0.003 0.108,0.01Zm0.011,0.216c-0.036,-0.007 -0.073,-0.014 -0.109,-0.021c0.042,-0.014 0.078,-0.007 0.109,0.021Zm0.206,0.71c-0.086,-0.032 -0.155,-0.086 -0.206,-0.162c0.09,-0.005 0.232,0.046 0.206,0.162Zm-0.108,-3.823c-0.029,-0.039 -0.059,-0.078 -0.088,-0.118c0.064,0.018 0.093,0.057 0.088,0.118Zm0.173,1.444c-0.072,-0.023 -0.145,-0.044 -0.217,-0.065c0.083,-0.013 0.156,0.008 0.217,0.065Zm0.033,2.315c-0.154,-0.041 -0.325,-0.188 -0.089,-0.259c0.14,-0.043 0.317,-0.001 0.425,0.097c-0.134,0.003 -0.22,0.114 -0.336,0.162Zm0.011,-0.613c-0.086,-0.03 -0.151,-0.084 -0.196,-0.162c0.082,-0.017 0.161,-0.01 0.239,0.021c-0.022,0.045 -0.037,0.091 -0.043,0.141Zm-0.011,-0.442c-0.036,-0.011 -0.072,-0.022 -0.108,-0.033c0.044,-0.01 0.08,0.001 0.108,0.033Zm0.086,0.732c-0.083,-0.016 -0.151,-0.074 -0.184,-0.151c0.077,0.011 0.153,0.029 0.227,0.054c-0.014,0.032 -0.029,0.064 -0.043,0.097Zm-0,-0.452c-0.087,0.003 -0.134,-0.044 -0.13,-0.13c0.065,0.022 0.108,0.066 0.13,0.13Zm-0.086,1.013c0.085,-0.169 0.284,-0.177 0.421,-0.066c-0.124,0.038 -0.289,0.12 -0.421,0.066Zm0.184,0.387c-0.085,-0.026 -0.139,-0.097 -0.142,-0.184c0.082,0.019 0.165,0.091 0.142,0.184Zm-0.011,-1.228c-0.04,-0.007 -0.079,-0.014 -0.119,-0.021c0.092,-0.101 0.132,-0.094 0.119,0.021Zm0,1.346c-0.036,-0.014 -0.072,-0.029 -0.108,-0.043c0.099,-0.079 0.135,-0.064 0.108,0.043Zm0.098,-1.605c-0.072,-0.063 -0.134,-0.134 -0.185,-0.215c0.098,0.012 0.232,0.094 0.185,0.215Zm-0.054,0.421c-0.026,-0.036 -0.052,-0.072 -0.077,-0.108c0.112,0.003 0.137,0.039 0.077,0.108Zm0.031,0.505c-0.036,-0.01 -0.072,-0.021 -0.108,-0.031c0.031,-0.036 0.067,-0.065 0.108,-0.087c0.016,0.04 0.016,0.079 0,0.118Zm0.055,1.164c-0.028,-0.087 -0.257,-0.401 -0.022,-0.388c0.215,0.012 0.17,0.314 0.022,0.388Zm0.151,-0.99c0.149,-0.003 0.294,0.137 0.315,0.279c-0.152,0.025 -0.58,0.034 -0.606,-0.184c0.094,-0.04 0.199,-0.048 0.291,-0.095Zm0.098,0.462c-0.087,-0.027 -0.163,-0.074 -0.227,-0.139c0.12,-0.067 0.369,-0.007 0.434,0.118c-0.069,0.006 -0.138,0.013 -0.207,0.021Zm-0.043,-0.516c-0.08,-0.041 -0.138,-0.102 -0.173,-0.184c0.115,-0.039 0.239,0.066 0.173,0.184Zm-0.011,-0.27c-0.268,-0.097 -0.021,-0.347 0.142,-0.032c-0.047,0.011 -0.095,0.022 -0.142,0.032Zm-0.033,-3.306l-0.108,-0.054c0.094,-0.045 0.13,-0.027 0.108,0.054Zm0.066,4.371c-0.102,-0.202 0.214,-0.198 0.271,-0.031c-0.084,-0.036 -0.213,-0.073 -0.271,0.031Zm0.065,-0.946c-0.022,-0.036 -0.043,-0.072 -0.065,-0.108c0.093,-0.031 0.141,0.015 0.14,0.108l-0.075,-0Zm0.086,0.764c-0.04,-0.011 -0.079,-0.022 -0.119,-0.033c0.091,-0.075 0.13,-0.064 0.119,0.033Zm0.044,-1.799c-0.084,-0.004 -0.146,-0.059 -0.163,-0.139c0.133,-0.08 0.145,0.022 0.163,0.139Zm0.033,2.165c-0.086,-0.027 -0.157,-0.092 -0.196,-0.172c0.12,-0.082 0.359,0.072 0.196,0.172Zm0.226,-1.182c-0.134,0.021 -0.208,-0.122 -0.237,-0.229c0.088,0.003 0.168,-0.022 0.238,-0.075c-0.086,-0.026 -0.142,-0.091 -0.108,-0.183c0.165,0.091 0.14,-0.061 0.269,0.043c0.044,0.023 0.091,0.033 0.14,0.029c0.151,0.015 0.185,0.175 0.024,0.218c0.033,0.037 0.061,0.076 0.086,0.118c-0.07,0.088 -0.171,0.253 -0.308,0.235c-0.084,-0.011 -0.329,-0.111 -0.104,-0.156Zm0.143,1.226c-0.102,-0.084 -0.423,-0.279 -0.152,-0.378c0.092,-0.033 0.158,0.322 0.152,0.378Zm-0.652,0.053c-0.011,-0.039 -0.021,-0.079 -0.032,-0.119c0.147,0.014 0.158,0.054 0.032,0.119Zm-30.273,-58.514c-0.144,-0.073 -0.239,-0.348 0.02,-0.286c0.145,0.035 0.113,0.258 -0.02,0.286Zm-0.119,-0.646c0.369,-0.213 0.354,0.052 0.522,0.313c0.094,0.147 0.261,0.216 0.23,0.418c-0.02,0.13 0.217,0.138 0.193,0.295c-0.034,0.228 -0.446,0.386 -0.642,0.298c-0.363,-0.164 0.04,-0.447 0.249,-0.506c-0.065,-0.195 -0.241,-0.323 -0.307,-0.516c-0.053,-0.153 -0.057,-0.266 -0.245,-0.302Zm1.149,0.495c-0.013,-0.009 -0.52,-0.269 -0.207,-0.269c0.137,-0 0.334,0.119 0.207,0.269Zm0.14,-0.829c-0.021,-0.035 -0.043,-0.071 -0.065,-0.107c0.125,-0.033 0.147,0.002 0.065,0.107Zm0.174,1.346c-0.248,-0.004 -0.311,-0.318 -0.043,-0.356c0.263,-0.037 0.267,0.296 0.043,0.356Zm-0.119,0.742c-0.13,-0.047 -0.043,-0.222 0.086,-0.107c-0.024,0.039 -0.053,0.075 -0.086,0.107Zm1.04,-0.505c-0.111,-0.133 0.135,-0.334 0.25,-0.356c0.099,0.131 -0.126,0.345 -0.25,0.356Zm11.175,2.174c-0.033,-0.07 -0.037,-0.142 -0.011,-0.215c0.049,0.071 0.052,0.142 0.011,0.215Zm-0.173,0.033c0.04,0.022 0.079,0.043 0.119,0.064c-0.041,0.07 -0.215,0.131 -0.214,0.194c0,0.036 -0.058,0.184 -0.088,0.207c-0.087,0.07 -0.124,-0.21 -0.108,-0.25c0.044,-0.114 0.171,-0.202 0.291,-0.215Zm0.389,-4.612c0.007,-0.131 0.187,-0.196 0.298,-0.233c0.135,-0.047 0.425,-0.226 0.451,-0.054c0.055,-0.14 0.112,-0.289 0.206,-0.41c0.305,0.278 0.772,0.787 1.223,0.784c0.14,-0.001 0.146,0.169 0.28,0.211c0.18,0.057 0.022,0.414 0.335,0.41c0.235,-0.002 0.419,0.111 0.666,0.114c0.081,0.002 0.259,0.105 0.295,-0.038c0.011,-0.045 -0.073,-0.09 -0.011,-0.12c0.227,-0.111 0.398,0.083 0.529,0.24c0.202,0.243 0.475,0.249 0.726,0.413c-0.131,0.032 -0.261,0.01 -0.39,-0.012c-0.016,0.09 0.267,0.359 0.321,0.432c0.162,0.215 0.045,0.433 0.155,0.689c-0.085,0.012 -0.157,-0.013 -0.216,-0.075c-0.159,0.858 -0.663,1.61 -1.392,2.113c-0.35,0.241 -0.801,0.309 -1.186,0.478c-0.195,0.086 -0.306,0.212 -0.431,0.376c-0.048,0.047 -0.089,0.099 -0.124,0.156c-0.025,0.09 0.03,0.141 -0.043,0.225c-0.074,-0.348 -0.226,0.33 -0.246,0.364c-0.118,0.208 -0.234,0.502 -0.221,0.745c0.016,0.291 -0.198,0.28 -0.271,0.508c-0.075,0.233 -0.059,0.276 -0.283,0.27c-0.27,-0.007 -0.337,-0.305 -0.422,-0.501c-0.11,-0.253 -0.232,-0.056 -0.4,-0.147c-0.117,-0.064 -0.246,-0.304 -0.394,-0.157c-0.202,0.2 -0.413,0.145 -0.202,-0.133c-0.154,-0.022 -0.187,-0.218 -0.074,-0.31c0.067,-0.055 0.189,-0.02 0.264,-0.079c0.118,-0.094 -0.054,-0.673 -0.19,-0.732c0.17,-0.087 0.309,-0.04 0.412,-0.233c0.09,-0.167 0.109,-0.359 0.163,-0.538c0.068,-0.22 0.072,-0.23 -0,-0.434c-0.07,-0.196 -0.095,-0.387 0.043,-0.561c-0.244,0.117 -0.088,0.385 -0.125,0.584c-0.059,0.325 -0.284,0.035 -0.049,0.019c-0.118,-0.008 -0.128,-0.106 -0.086,-0.193c-0.079,0.079 -0.353,0.408 -0.293,0.528c-0.179,-0.122 -0.309,-0.315 -0.5,-0.417c-0.134,-0.071 -0.286,-0.112 -0.313,-0.284c0.232,0.074 0.237,-0.271 0.224,-0.41c-0.011,-0.111 -0.059,-0.195 -0.097,-0.299c-0.065,-0.176 0.133,-0.307 0.063,-0.476c-0.077,-0.186 -0.285,-0.434 0.059,-0.467c0.144,-0.014 0.2,-0.072 0.228,-0.21c0.036,-0.181 0.133,-0.14 0.282,-0.162c-0.252,-0.024 -0.278,-0.349 -0.125,-0.501c0.232,-0.23 0.388,-0.393 0.407,-0.737c0.006,-0.098 -0.141,-0.543 -0.048,-0.599c0.094,-0.056 0.436,-0.309 0.502,-0.137Z" style="fill:#4e4e4e;"/></svg>