<?xml version="1.0" encoding="UTF-8" standalone="no"?>
<!DOCTYPE svg PUBLIC "-//W3C//DTD SVG 1.1//EN" "http://www.w3.org/Graphics/SVG/1.1/DTD/svg11.dtd">
<svg width="100%" height="100%" viewBox="0 0 121 121" version="1.1" xmlns="http://www.w3.org/2000/svg" xmlns:xlink="http://www.w3.org/1999/xlink" xml:space="preserve" xmlns:serif="http://www.serif.com/" style="fill-rule:evenodd;clip-rule:evenodd;stroke-linejoin:bevel;stroke-miterlimit:8.52;">
    <g id="Layer-2" serif:id="Layer 2">
        <g id="path11498" transform="matrix(0.720797,0,0,0.720987,221.179,-116.45)">
            <path d="M-177.4,258.1L-178.6,258.5L-177.9,257.9L-177.4,258.1Z" style="fill:rgb(78,78,78);fill-rule:nonzero;stroke:white;stroke-width:0.5px;"/>
        </g>
        <g id="path11500" transform="matrix(0.720797,0,0,0.720987,221.179,-116.45)">
            <path d="M-183.1,258.8L-183.4,258.6L-183.2,258.3L-182.9,258.5L-183.1,258.8Z" style="fill:rgb(78,78,78);fill-rule:nonzero;stroke:white;stroke-width:0.5px;"/>
        </g>
        <g id="path11502" transform="matrix(0.720797,0,0,0.720987,221.179,-116.45)">
            <path d="M-180.1,258.2L-180.3,258.5L-180.6,258.3L-179.7,257.4L-179.6,257.9L-180.1,258.2Z" style="fill:rgb(78,78,78);fill-rule:nonzero;stroke:white;stroke-width:0.5px;"/>
        </g>
        <g id="path11504" transform="matrix(0.720797,0,0,0.720987,221.179,-116.45)">
            <path d="M-175.3,256.3L-176,256.4L-175.8,256.1L-175.3,256.3Z" style="fill:rgb(78,78,78);fill-rule:nonzero;stroke:white;stroke-width:0.5px;"/>
        </g>
        <g id="path11506" transform="matrix(0.720797,0,0,0.720987,221.179,-116.45)">
            <path d="M-169.5,249L-168.7,249.2L-167.9,251.9L-169,253.3L-169.6,252.4L-170.3,253L-169.7,255.4L-169.9,255.9L-169.1,256.1L-168.8,256.6L-170.7,257.8L-170.3,258.8L-171,261.4L-170.9,264.2L-182.1,265.4L-187.5,260.8L-187.4,259.8L-186,261.1L-185,261L-182.9,259.7L-177.7,258.8L-176.5,258.1L-175.4,257L-175.1,255.4L-173.4,253.2L-172.2,250.5L-170.7,248.8L-170.6,247.5L-170.1,247.2L-169.5,249Z" style="fill:rgb(78,78,78);fill-rule:nonzero;stroke:white;stroke-width:0.5px;"/>
        </g>
        <g id="path11508" transform="matrix(0.720797,0,0,0.720987,221.179,-116.45)">
            <path d="M-169,251L-168.8,250.5L-169,251Z" style="fill:rgb(78,78,78);fill-rule:nonzero;stroke:white;stroke-width:0.5px;"/>
        </g>
        <g id="path11510" transform="matrix(0.720797,0,0,0.720987,221.179,-116.45)">
            <path d="M-265.7,217.3L-266.2,217.1L-267.7,217.5L-268,216.8L-270.8,216.9L-270.1,216.8L-270,215.8L-268,216L-263.7,214.2L-266.2,216L-265.7,217.3Z" style="fill:rgb(78,78,78);fill-rule:nonzero;stroke:white;stroke-width:0.5px;"/>
        </g>
        <g id="path11512" transform="matrix(0.720797,0,0,0.720987,221.179,-116.45)">
            <path d="M-271,216.7L-270.4,217.1L-268.7,216.6L-267.9,216.8L-267.6,217.5L-266.1,217.1L-265.3,217.5L-266.8,217.7L-267.5,218.5L-269.2,219L-269.6,219.6L-271.7,219.1L-272.2,217.4L-271,216.7Z" style="fill:rgb(78,78,78);fill-rule:nonzero;stroke:white;stroke-width:0.5px;"/>
        </g>
        <g id="path11514" transform="matrix(0.720797,0,0,0.720987,221.179,-116.45)">
            <path d="M-264.2,235L-261.1,243.9L-261.8,244.7L-262.8,249.1L-262.8,250.9L-263.7,252L-265.6,250.7L-267.9,248.2L-268.4,246.2L-270.2,243.7L-270.7,241.5L-271.2,241.8L-271.4,243.8L-270.6,244.5L-270.3,246.7L-269.4,248.1L-266.5,251L-265.9,253.7L-265.1,254.4L-264.7,255.4L-264.5,257.4L-263.9,257.8L-258.4,267.4L-257.2,269L-255.8,269.8L-256.8,269.9L-257,270.4L-256.8,272.1L-255.7,274.5L-254.8,275.4L-253.2,275.7L-252.3,276.8L-250.4,278.1L-250.3,278.6L-273.4,279.5L-274.2,279.3L-274,279L-274.3,278.3L-274.9,279.4L-275.6,279.5L-302.1,278.8L-302,259.6L-301.5,245.7L-302.5,239.8L-301.3,237.4L-301.7,234.4L-300.4,232.7L-300.1,233.4L-299.6,233.6L-297.6,233.1L-292.1,234.4L-290.7,235.5L-290,235.4L-285,237.3L-282.8,236.5L-281.4,235.3L-280.4,235.4L-279.5,234.3L-277.5,233.8L-278.9,234.5L-278.4,234.7L-277.2,234.3L-277,233.8L-276.3,233.7L-275,234.3L-273.5,233.9L-272.6,235L-273.4,234.3L-274.1,235.1L-272.7,235.9L-272.2,235.8L-272,235L-270.6,236.1L-269.6,235.7L-265.1,235.4L-264.2,235Z" style="fill:rgb(78,78,78);fill-rule:nonzero;stroke:white;stroke-width:0.5px;"/>
        </g>
        <g id="path11516" transform="matrix(0.720797,0,0,0.720987,221.179,-116.45)">
            <path d="M-259,229.8L-258.9,232.8L-259.2,234.1L-261.4,234.9L-261.3,233.6L-260.4,233L-260.7,232.5L-261.2,232.6L-261.4,230.9L-261.1,229.6L-259.9,229.2L-259,229.8Z" style="fill:rgb(78,78,78);fill-rule:nonzero;stroke:white;stroke-width:0.5px;"/>
        </g>
        <g id="path11518" transform="matrix(0.720797,0,0,0.720987,221.179,-116.45)">
            <path d="M-170.7,243.1L-171.6,244.2L-173.5,245.4L-174.3,245.2L-172.4,244L-172.7,243.5L-172.5,243.2L-172,243.4L-170.9,242.5L-170.6,242.7L-170.7,243.1Z" style="fill:rgb(78,78,78);fill-rule:nonzero;stroke:white;stroke-width:0.5px;"/>
        </g>
        <g id="path11520" transform="matrix(0.720797,0,0,0.720987,221.179,-116.45)">
            <path d="M-225.6,192.8L-223.6,194.6L-220.8,194.8L-219.6,194.4L-216.7,191.3L-214.8,190.1L-213.4,191.2L-214.1,191.8L-213.2,193.2L-214.2,193.6L-214.1,194.1L-211.6,195.8L-210.6,195.4L-209.1,199L-204.8,199.5L-203.1,201L-200.7,201.7L-198.2,201.9L-196.5,201.4L-191,198.7L-190.3,198.6L-191.2,199.2L-190,199L-190.8,196.6L-189.8,196.5L-188.2,195.5L-187.9,193.7L-186.4,192L-183.5,191.4L-183.1,190.3L-182.1,189.9L-181.1,190L-180.1,189.6L-179.3,190L-179,190.7L-176.2,190.6L-175.4,191.3L-174.5,190.7L-171.5,190.8L-170.3,192.2L-168.8,192.3L-166.8,193.8L-163.9,192.9L-161.8,197.7L-162.1,199.3L-161.6,201.5L-161.9,202.8L-162.4,203.1L-161.5,204L-162.5,204.1L-162.6,205.4L-162.1,207.4L-160.3,207.4L-160.9,210.3L-158.7,213.6L-157.8,217L-154.6,216.6L-153.5,217.7L-153.3,218.9L-155.6,224.5L-153.1,226.2L-151.6,228.3L-150,229.4L-148,229.4L-146.9,230L-146.2,229.7L-144.9,234.3L-143.2,233.8L-142.7,234L-142.6,236.5L-145.5,237.9L-145.9,239L-146.4,239.1L-147.3,240.2L-147.5,242.5L-147,244.7L-147.2,245.2L-147.6,245.8L-149.1,246L-150.9,246L-151.7,245.6L-152.1,246.2L-154.1,246.7L-156.1,246.7L-157.5,247.4L-158.8,247.1L-161.2,247.7L-162.5,247.4L-163,247.7L-165,247.7L-165.9,246.6L-167.6,242.8L-168.4,242.1L-170.4,242.1L-176.6,247.2L-179.2,246.5L-180.9,247L-182,246.1L-185.7,245L-186,244.3L-186.8,243.9L-188.1,243.8L-188.7,243.4L-190.7,243.6L-192.1,242.5L-193.3,240.9L-193.7,239.7L-194.8,239.1L-194.6,238.6L-195.7,238.2L-195.9,237L-198.4,235L-199.1,233.8L-201,234.8L-203.4,234.1L-203.7,233.6L-203,233.5L-202.8,233L-203.8,233.1L-203.5,233.3L-204,233.6L-204,235.4L-204.7,235.5L-205.1,236.1L-206,235.2L-205.8,234.9L-207.7,233.9L-208,231.4L-209.5,231.6L-209.5,227.8L-211.9,225.1L-213.5,224.8L-216.2,223.4L-217.4,223.6L-217.3,222.1L-218.7,221L-218.5,220.7L-219.3,220.5L-220.7,219.2L-220.3,218.1L-221,216.7L-220.8,216.2L-220.1,215.9L-220.2,214.9L-218.7,213.2L-219.7,211.1L-218.6,210L-220.1,209.9L-220.6,210.2L-221.4,209.5L-222.4,209.4L-223.1,207.7L-223.6,207.8L-224,206.3L-224.5,206.1L-225.3,203.7L-226.1,203L-226.5,202L-226.3,201.5L-227.9,200.9L-227.2,198.5L-228,198.3L-227.8,197.8L-228.2,196.3L-228.8,195.6L-228.6,194.8L-229.1,194.6L-229.4,193.9L-228.9,193.6L-228.1,193.8L-227.4,191.7L-225.6,192.8Z" style="fill:rgb(78,78,78);fill-rule:nonzero;stroke:white;stroke-width:0.5px;"/>
        </g>
        <g id="path11522" transform="matrix(0.720797,0,0,0.720987,221.179,-116.45)">
            <path d="M-225,203.8L-222.1,208.7L-221.1,208.8L-220.3,209.5L-219.8,209.2L-218.3,209.3L-219.4,210.4L-218.4,212.5L-219.9,214.2L-219.8,215.2L-220.5,215.5L-220.7,216L-220.1,216.7L-220.4,218.5L-219,219.8L-218.2,220L-218.4,220.3L-217,221.4L-217.1,222.9L-215.9,222.7L-213.2,224.1L-211.6,224.4L-209.2,227.1L-209.2,230.9L-207.7,230.7L-207.4,233.2L-205.5,234.2L-205.7,234.5L-204.8,235.4L-206.6,235.1L-207,235.7L-208.1,235.3L-209.8,235.5L-210.7,236.4L-211.8,239.8L-213.2,241L-220.2,241.4L-232,233.8L-239.5,230.5L-244.4,229.9L-244,228.8L-245,229.2L-245.3,228.5L-244.8,228.2L-246.3,224.1L-238.2,218.5L-237.6,217.4L-237.6,213.4L-237.2,212.3L-237.9,208.9L-237.5,208.1L-236,207.7L-232.7,203.5L-232.2,203.7L-231.5,203.4L-229.7,203.9L-228.5,203.7L-227.8,203.1L-227.3,203.3L-226.9,204.8L-225.8,203.7L-225,203.8Z" style="fill:rgb(78,78,78);fill-rule:nonzero;stroke:white;stroke-width:0.5px;"/>
        </g>
        <g id="path11524" transform="matrix(0.720797,0,0,0.720987,221.179,-116.45)">
            <path d="M-258.3,227.9L-259,228.2L-259.1,229.7L-259.9,229L-260.6,229.1L-261.1,229.4L-261.4,230.7L-261.2,232.4L-260.7,232.3L-260.4,232.8L-261.3,233.4L-261.4,234.7L-259.2,233.9L-259.2,235.7L-260.3,239.1L-260,239.3L-260.1,240.3L-260.9,243.7L-263.9,235.5L-262.8,233.9L-263.1,233.7L-261.7,230.8L-260.7,226.4L-259.4,226.5L-259,225.4L-258.7,225.6L-257.6,224.5L-257.8,224.8L-257.3,227L-258.3,227.9Z" style="fill:rgb(78,78,78);fill-rule:nonzero;stroke:white;stroke-width:0.5px;"/>
        </g>
        <g id="path11526" transform="matrix(0.720797,0,0,0.720987,221.179,-116.45)">
            <path d="M-244.4,230L-245.1,230.8L-253,233.8L-248.7,238.3L-249.9,239L-250.7,240.9L-253.9,241.8L-254.7,243.4L-256.5,245.1L-260.9,244.4L-260.7,243.9L-261,243.4L-260.2,239.5L-260.5,239.3L-259.7,237.4L-259,232.8L-259.1,228.3L-258.4,228L-257.6,228.4L-257.3,229.1L-254.2,230L-246.6,224.3L-245.1,228.4L-245.6,228.7L-245.3,229.4L-244.3,229L-244.4,230Z" style="fill:rgb(78,78,78);fill-rule:nonzero;stroke:white;stroke-width:0.5px;"/>
        </g>
        <g id="path11528" transform="matrix(0.720797,0,0,0.720987,221.179,-116.45)">
            <path d="M-205.7,237.2L-206.2,237.5L-206.6,236.5L-206.4,235.7L-205.6,236.4L-205.7,237.2Z" style="fill:rgb(78,78,78);fill-rule:nonzero;stroke:white;stroke-width:0.5px;"/>
        </g>
        <g id="path11530" transform="matrix(0.720797,0,0,0.720987,221.179,-116.45)">
            <path d="M-206.2,237.3L-207.6,238.2L-207.8,238.7L-206.6,238.5L-204.1,242.2L-207.3,242.9L-208.8,240.8L-212.6,240.8L-211.4,238.6L-210.9,236.5L-210,235.6L-208.3,235.4L-207.2,235.8L-206.2,237.3Z" style="fill:rgb(78,78,78);fill-rule:nonzero;stroke:white;stroke-width:0.5px;"/>
        </g>
        <g id="path11532" transform="matrix(0.720797,0,0,0.720987,221.179,-116.45)">
            <path d="M-257.9,224.6L-259,225.7L-259.3,225.5L-259.7,226.6L-261,226.5L-259.5,222.5L-259.2,220.7L-257.9,219.3L-258,218.8L-257.2,219L-256.5,218.7L-256.2,218.9L-256.6,219.5L-255.8,219.9L-255.4,220.9L-256.5,222.3L-256.2,222.8L-257.7,223.2L-257.9,223.7L-257.6,224.2L-257.9,224.6Z" style="fill:rgb(78,78,78);fill-rule:nonzero;stroke:white;stroke-width:0.5px;"/>
        </g>
        <g id="path11534" transform="matrix(0.720797,0,0,0.720987,221.179,-116.45)">
            <path d="M-153.3,271.2L-153.6,270.7L-153.1,268.9L-152.5,269.6L-153.3,271.2Z" style="fill:rgb(78,78,78);fill-rule:nonzero;stroke:white;stroke-width:0.5px;"/>
        </g>
        <g id="path11536" transform="matrix(0.720797,0,0,0.720987,221.179,-116.45)">
            <path d="M-167.8,251.8L-167.1,253L-164.8,255.2L-161.4,256L-158.4,255.9L-157.4,255.5L-156.3,255.9L-152.6,259.2L-150.8,259.2L-150.6,260.7L-151.8,264.9L-152.7,265.8L-154.1,270.5L-155.1,270.9L-155.7,270L-156.7,272.1L-156.6,275.1L-155.8,277.8L-159.4,279.5L-160.5,280.9L-160.5,282.9L-161.1,284L-164.9,285.5L-165.5,287.1L-165.2,287.8L-166,289.7L-167.2,290.4L-168.2,290.3L-170.4,291.1L-172.2,292.6L-174.3,293.6L-181.3,283.9L-168.9,276.5L-167.9,266.5L-170.5,263.8L-170.8,261.3L-170.1,258.7L-170.5,257.7L-168.6,256.5L-168.9,256L-169.7,255.8L-169.5,255.3L-170.1,252.9L-169.4,252.3L-168.8,253.2L-167.8,251.8Z" style="fill:rgb(78,78,78);fill-rule:nonzero;stroke:white;stroke-width:0.5px;"/>
        </g>
        <g id="path11538" transform="matrix(0.720797,0,0,0.720987,221.179,-116.45)">
            <path d="M-168.7,250.9L-169,250.4L-168.7,250.9Z" style="fill:rgb(78,78,78);fill-rule:nonzero;stroke:white;stroke-width:0.5px;"/>
        </g>
        <g id="path11540" transform="matrix(0.720797,0,0,0.720987,221.179,-116.45)">
            <path d="M-169.1,245.7L-168.8,248.2L-169,249L-169.5,249.1L-170.2,247.2L-170,246.4L-169.5,246.3L-169.3,245.5L-169.1,245.7Z" style="fill:rgb(78,78,78);fill-rule:nonzero;stroke:white;stroke-width:0.5px;"/>
        </g>
        <g id="path11542" transform="matrix(0.720797,0,0,0.720987,221.179,-116.45)">
            <path d="M-189.2,258.6L-190.4,259L-191,258.6L-191.8,256.4L-192,254.9L-191.6,252.3L-190.5,251.4L-189.1,252.2L-189.1,254L-188.1,255.6L-188,256.6L-188.6,258.2L-189.2,258.6Z" style="fill:rgb(78,78,78);fill-rule:nonzero;stroke:white;stroke-width:0.5px;"/>
        </g>
        <g id="path11544" transform="matrix(0.720797,0,0,0.720987,221.179,-116.45)">
            <path d="M-224.9,301.3L-224.4,301.2L-224.7,301L-223.9,301.2L-224.1,302L-224.4,301.5L-225.1,301.6L-225.9,300.9L-225.4,300.6L-225.5,300.1L-225,300.3L-224.9,301.3Z" style="fill:rgb(78,78,78);fill-rule:nonzero;stroke:white;stroke-width:0.5px;"/>
        </g>
        <g id="path11546" transform="matrix(0.720797,0,0,0.720987,221.179,-116.45)">
            <path d="M-251.4,262.8L-253.3,261.8L-253.1,261.5L-251.4,262.8Z" style="fill:rgb(78,78,78);fill-rule:nonzero;stroke:white;stroke-width:0.5px;"/>
        </g>
        <g id="path11548" transform="matrix(0.720797,0,0,0.720987,221.179,-116.45)">
            <path d="M-252.8,261.5L-253.1,261.3L-252.9,260.8L-252.8,261.5Z" style="fill:rgb(78,78,78);fill-rule:nonzero;stroke:white;stroke-width:0.5px;"/>
        </g>
        <g id="path11550" transform="matrix(0.720797,0,0,0.720987,221.179,-116.45)">
            <path d="M-220,241.5L-210,240.8L-208.7,240.9L-207.2,243L-204,242.3L-203,244.2L-202.2,244.9L-201.9,245.6L-202.1,245.9L-200,246.6L-200.2,246.9L-199.1,248L-198.6,247.9L-197.7,248.8L-195.6,249.8L-196.1,249.9L-196,250.6L-194.9,251.5L-195,252.5L-195.5,252.3L-195.1,253.3L-194.1,254.9L-193,255.3L-192.3,257L-190.8,258.6L-190.2,259L-188.2,258.5L-188.5,259.8L-187.2,259.9L-187.1,260.6L-186.2,261.5L-181.7,265.2L-176.2,264.8L-170.3,263.8L-167.7,266.5L-168.7,276.5L-181.1,283.9L-193.7,288.2L-197.4,290.9L-200,296.3L-201.1,297.2L-201.8,297.3L-203.2,296L-207.4,296.8L-210.2,296.4L-216.3,297.7L-217.6,297.1L-218.6,297.2L-219.3,298L-219,298.5L-219.4,299.1L-218.9,301.1L-220.4,302.8L-220.8,301.6L-222.6,299.6L-223.3,298.2L-226,296.5L-228.7,293.1L-231.3,288.1L-232.1,287.9L-234.6,285.9L-235.6,286L-236.4,285.6L-238.7,283.1L-239.7,281.5L-239.6,280L-240.3,278.8L-240.2,275.5L-243.4,270.4L-245.9,268.4L-247.7,268.1L-249.5,265.6L-249.1,265L-249.2,264.3L-250.8,261.7L-251.6,261.3L-252,259.8L-252.8,259.6L-257.8,252.2L-259.5,250.4L-261.3,250.4L-260.3,244.5L-255.9,245.2L-254.8,244.3L-253.3,241.8L-250.1,240.9L-249.5,239.3L-248.1,238.4L-252.4,233.9L-244.5,230.9L-243.8,230.1L-240.2,230.4L-236,231.9L-231.4,234.1L-220,241.5Z" style="fill:rgb(78,78,78);fill-rule:nonzero;stroke:white;stroke-width:0.5px;"/>
        </g>
        <g id="path11552" transform="matrix(0.720797,0,0,0.720987,221.179,-116.45)">
            <path d="M-234.2,205L-235,206.6L-236.1,207.7L-237.6,208.1L-238,208.9L-237.3,212.3L-237.7,213.4L-237.5,216.7L-238.3,218.6L-240.2,219.6L-254,229.9L-257.1,229L-257.4,228.3L-258.2,227.9L-257.5,227.1L-258,224.9L-257.3,224.1L-257.6,223.9L-257.4,223.1L-255.9,222.7L-256.2,222.2L-255.1,220.8L-255.5,219.8L-256.3,219.4L-255.9,218.8L-257.7,218.8L-258.1,217.8L-258.2,215L-258.8,214.3L-258.2,212.7L-257.4,213.1L-257,212.3L-256.5,212.2L-256.6,211.2L-255.4,210.8L-256,209.9L-255.7,208.3L-254.4,208.4L-253.8,208.8L-252.1,208.6L-249.2,207.2L-247.3,208.2L-244.6,207.9L-240.1,205.6L-237.8,205.6L-236.1,205.1L-234.7,204.2L-234.2,204.1L-234.2,205Z" style="fill:rgb(78,78,78);fill-rule:nonzero;stroke:white;stroke-width:0.5px;"/>
        </g>
        <g id="path11554" transform="matrix(0.720797,0,0,0.720987,221.179,-116.45)">
            <path d="M-295.2,192.7L-296.2,192.6L-295.2,192.2L-294.9,192.4L-295.2,192.7Z" style="fill:rgb(78,78,78);fill-rule:nonzero;stroke:white;stroke-width:0.5px;"/>
        </g>
        <g id="path11556" transform="matrix(0.720797,0,0,0.720987,221.179,-116.45)">
            <path d="M-262.5,184.1L-262.2,184.8L-260.8,185.6L-259.6,184.9L-259.1,185.1L-258.1,186.7L-257.3,187.1L-257.1,186.6L-256.4,186.5L-255.3,187.4L-252.8,187.6L-252.2,188L-250.4,188.3L-246.8,187.1L-245,187.6L-243.8,187.4L-241,185.8L-239.7,184.4L-238.4,184.7L-238.2,184.2L-236.2,184.4L-236,183.6L-235.3,183.5L-233.7,184.6L-233.4,185.3L-232.9,185L-232.6,185.7L-231.8,186.1L-231.5,186.8L-231.8,188.4L-231.1,189.8L-231.3,190.1L-230.2,190.5L-229,190.1L-226.8,191.6L-227.6,191.2L-228.3,193.3L-229.1,193.1L-229.6,193.4L-229.3,194.1L-228.8,194.3L-229,195.1L-228.4,195.8L-228,197.3L-228.2,197.8L-227.4,198L-228.1,200.4L-226.5,201L-226.7,201.5L-226.3,202.5L-225.5,203.2L-225.4,203.9L-226.2,203.7L-227.3,204.8L-227.7,203.3L-228.2,203.1L-228.9,203.7L-230.1,203.9L-230.9,203.5L-233.2,203.5L-234,204.9L-234.5,205L-234.8,204.3L-238.4,205.8L-240.7,205.8L-245.2,208.1L-247.9,208.4L-249.8,207.4L-252.7,208.8L-254.4,209L-255,208.6L-256.3,208.5L-256.6,210.1L-256,211L-257.2,211.4L-257.1,212.4L-257.6,212.5L-258,213.3L-258.8,212.9L-258.6,212.4L-259.3,211L-258,209.3L-258.4,208.1L-259.8,208.8L-260.9,209.9L-263.6,208.7L-265.2,209.9L-266.3,211.3L-267.5,212L-270.9,212.7L-272.5,212.1L-273.7,210.2L-276.4,209L-278.9,208.8L-279.8,211.7L-280.6,211.3L-282.5,212L-284.6,211L-285.3,209.3L-285.8,209.6L-287.2,208.8L-288.6,209.7L-288.8,209.7L-288.6,208.9L-290.1,209.3L-290.9,209.1L-288.9,208.6L-287.8,207.7L-291.6,207.7L-291.7,207.2L-290.5,206.8L-292.3,204.5L-291.6,204.2L-291.5,202.9L-292.8,202.6L-293.4,201.9L-293.9,202.2L-295,201.3L-294.3,200.7L-294.6,200L-294.4,199.7L-293.9,199.6L-293.5,201.1L-291.8,200.6L-292.3,200.7L-292.9,200L-293,199.3L-292.1,198.7L-292.9,198.3L-292.7,197.5L-293.3,196.6L-292.4,195.5L-295.1,195.8L-294.7,193.2L-294.2,193.1L-292.7,191.4L-290.7,191.2L-290.1,191.9L-288.9,191.7L-288.7,191.4L-289.3,191L-288.6,190.9L-288.3,191.1L-288.5,191.6L-284.7,191.6L-284.5,191.3L-285.6,190.9L-284.9,190.3L-281.7,189.9L-283.5,189.6L-284.3,188.9L-284.4,187.9L-284,187.3L-281.4,187.7L-279.9,187.5L-278.1,188L-276.4,187.8L-276,187L-272,184.5L-269.1,183.6L-266.3,183.8L-263.4,183.2L-262.9,183.4L-262.5,184.1Z" style="fill:rgb(78,78,78);fill-rule:nonzero;stroke:white;stroke-width:0.5px;"/>
        </g>
        <g id="path11558" transform="matrix(0.720797,0,0,0.720987,221.179,-116.45)">
            <path d="M-289.5,184L-288.9,184.4L-287.7,184L-287.3,185.5L-286.4,186.6L-284.3,187.6L-284,188.3L-284.9,188.9L-286.7,188.4L-287.9,188.8L-288.7,188.6L-294.5,192.9L-294.1,191.8L-292,190.3L-294.5,190.4L-294.6,189.9L-293.5,188.8L-293.4,187.5L-292.5,186.9L-292.6,185.9L-293.5,185L-292.5,184.6L-292.3,184.1L-290.8,183.7L-289.8,183.6L-289.5,184Z" style="fill:rgb(78,78,78);fill-rule:nonzero;stroke:white;stroke-width:0.5px;"/>
        </g>
        <g id="path11560" transform="matrix(0.720797,0,0,0.720987,221.179,-116.45)">
            <path d="M-168.5,310.9L-166.6,310.2L-165,310.5L-166.6,311.7L-168.3,312.2L-169,312.3L-170.3,311.7L-169.9,311.1L-169.4,310.8L-168.5,310.9Z" style="fill:rgb(78,78,78);fill-rule:nonzero;stroke:white;stroke-width:0.5px;"/>
        </g>
        <g id="path11562" transform="matrix(0.720797,0,0,0.720987,221.179,-116.45)">
            <path d="M-219.5,314.2L-219.9,314.8L-219.5,314.2Z" style="fill:rgb(78,78,78);fill-rule:nonzero;stroke:white;stroke-width:0.5px;"/>
        </g>
        <g id="path11564" transform="matrix(0.720797,0,0,0.720987,221.179,-116.45)">
            <path d="M-219.6,313.5L-220.1,313.3L-219.9,313L-219.6,313.5Z" style="fill:rgb(78,78,78);fill-rule:nonzero;stroke:white;stroke-width:0.5px;"/>
        </g>
        <g id="path11566" transform="matrix(0.720797,0,0,0.720987,221.179,-116.45)">
            <path d="M-221.3,307.4L-221.3,307.6L-221.6,307.4L-221.4,306.9L-221.1,307.1L-221.3,307.4Z" style="fill:rgb(78,78,78);fill-rule:nonzero;stroke:white;stroke-width:0.5px;"/>
        </g>
        <g id="path11568" transform="matrix(0.720797,0,0,0.720987,221.179,-116.45)">
            <path d="M-175.7,291.9L-174.5,293.5L-177.3,295.4L-178,297.5L-177.6,298.7L-181.3,301.7L-189.1,305.5L-191,306.7L-191.6,308L-192.7,309.1L-196.1,309.8L-198.1,311.8L-201.4,313.5L-206.1,314.6L-207.2,316L-208.2,316.4L-208.6,317.2L-209.3,317.5L-210.6,317.4L-212.2,318.6L-213.7,318.8L-215,318.5L-215.7,318.8L-215.8,318.1L-217.3,316.3L-217.3,314.5L-218.5,313.1L-218.7,311.6L-219.7,309.5L-219.5,309L-220.1,308.1L-221.1,308L-220.9,307.5L-220.4,307.7L-220.9,306L-220.6,304.2L-221,302.7L-219.5,301L-220,299L-219.6,298.4L-219.9,297.9L-219.2,297.1L-218.2,297L-216.9,297.6L-212.7,296.6L-210.7,296.4L-207.9,296.8L-203.7,296L-202.3,297.3L-201.6,297.2L-200.5,296.3L-197.9,290.9L-194.2,288.2L-181.6,283.9L-175.7,291.9Z" style="fill:rgb(78,78,78);fill-rule:nonzero;stroke:white;stroke-width:0.5px;"/>
        </g>
        <g id="polyF1S9P1" transform="matrix(0.720797,0,0,0.720987,222.62,-117.98)">
            <path d="M-179.4,260.1L-180.6,260.5L-179.9,259.9L-179.4,260.1Z" style="fill:rgb(78,78,78);fill-rule:nonzero;stroke:white;stroke-width:0.5px;"/>
        </g>
        <g id="polyF1S9P2" transform="matrix(0.720797,0,0,0.720987,222.62,-117.98)">
            <path d="M-185.1,260.9L-185.4,260.7L-185.2,260.4L-184.9,260.6L-185.1,260.9Z" style="fill:rgb(78,78,78);fill-rule:nonzero;stroke:white;stroke-width:0.5px;"/>
        </g>
        <g id="polyF1S9P3" transform="matrix(0.720797,0,0,0.720987,222.62,-117.98)">
            <path d="M-182.2,260.2L-182.4,260.5L-182.7,260.3L-181.8,259.4L-181.7,259.9L-182.2,260.2Z" style="fill:rgb(78,78,78);fill-rule:nonzero;stroke:white;stroke-width:0.5px;"/>
        </g>
        <g id="polyF1S9P4" transform="matrix(0.720797,0,0,0.720987,222.62,-117.98)">
            <path d="M-177.4,258.4L-178.1,258.5L-177.9,258.2L-177.4,258.4Z" style="fill:rgb(78,78,78);fill-rule:nonzero;stroke:white;stroke-width:0.5px;"/>
        </g>
        <g id="polyF1S9P5" transform="matrix(0.720797,0,0,0.720987,222.62,-117.98)">
            <path d="M-171.5,251.1L-170.7,251.3L-169.9,254L-171,255.4L-171.6,254.5L-172.3,255.1L-171.7,257.5L-171.9,258L-171.1,258.2L-170.8,258.7L-172.7,259.9L-172.3,260.9L-173,263.5L-172.9,266.3L-184.1,267.5L-189.5,262.9L-189.4,261.9L-188,263.2L-187,263.1L-184.9,261.8L-179.7,260.9L-178.5,260.2L-177.4,259.1L-177.1,257.5L-175.4,255.3L-174.2,252.6L-172.7,250.9L-172.6,249.6L-172.1,249.3L-171.5,251.1Z" style="fill:rgb(78,78,78);fill-rule:nonzero;stroke:white;stroke-width:0.5px;"/>
        </g>
        <g id="polyF1S9P6" transform="matrix(0.720797,0,0,0.720987,222.62,-117.98)">
            <path d="M-171,253L-170.8,252.5L-171,253Z" style="fill:rgb(78,78,78);fill-rule:nonzero;stroke:white;stroke-width:0.5px;"/>
        </g>
        <g id="polyF1S56P1" transform="matrix(0.720797,0,0,0.720987,222.62,-117.98)">
            <path d="M-267.7,219.3L-268.2,219.1L-269.7,219.5L-270,218.8L-272.8,218.9L-272.1,218.8L-272,217.8L-270,218L-265.7,216.2L-268.2,218L-267.7,219.3Z" style="fill:rgb(78,78,78);fill-rule:nonzero;stroke:white;stroke-width:0.5px;"/>
        </g>
        <g id="polyF1S57P1" transform="matrix(0.720797,0,0,0.720987,222.62,-117.98)">
            <path d="M-273.1,218.7L-272.5,219.1L-270.8,218.6L-270,218.8L-269.7,219.5L-268.2,219.1L-267.4,219.5L-268.9,219.7L-269.6,220.5L-271.3,221L-271.7,221.6L-273.8,221.1L-274.3,219.4L-273.1,218.7Z" style="fill:rgb(78,78,78);fill-rule:nonzero;stroke:white;stroke-width:0.5px;"/>
        </g>
        <g id="polyF1S66P1" transform="matrix(0.720797,0,0,0.720987,222.62,-117.98)">
            <path d="M-266.2,237L-263.1,245.9L-263.8,246.7L-264.8,251.1L-264.8,252.9L-265.7,254L-267.6,252.7L-269.9,250.2L-270.4,248.2L-272.2,245.7L-272.7,243.5L-273.2,243.8L-273.4,245.8L-272.6,246.5L-272.3,248.7L-271.4,250.1L-268.5,253L-267.9,255.7L-267.1,256.4L-266.7,257.4L-266.5,259.4L-265.9,259.8L-260.4,269.4L-259.2,271L-257.8,271.8L-258.8,271.9L-259,272.4L-258.8,274.1L-257.7,276.5L-256.8,277.4L-255.2,277.7L-254.3,278.8L-252.4,280.1L-252.3,280.6L-275.4,281.5L-276.2,281.3L-276,281L-276.3,280.3L-276.9,281.4L-277.6,281.5L-304.1,280.8L-304,261.6L-303.5,247.7L-304.5,241.8L-303.3,239.4L-303.7,236.4L-302.4,234.7L-302.1,235.4L-301.6,235.6L-299.6,235.1L-294.1,236.4L-292.7,237.5L-292,237.4L-287,239.3L-284.8,238.5L-283.4,237.3L-282.4,237.4L-281.5,236.3L-279.5,235.8L-280.9,236.5L-280.4,236.7L-279.2,236.3L-279,235.8L-278.3,235.7L-277,236.3L-275.5,235.9L-274.6,237L-275.4,236.3L-276.1,237.1L-274.7,237.9L-274.2,237.8L-274,237L-272.6,238.1L-271.6,237.7L-267.1,237.4L-266.2,237Z" style="fill:rgb(78,78,78);fill-rule:nonzero;stroke:white;stroke-width:0.5px;"/>
        </g>
        <g id="polyF1S233P1" transform="matrix(0.720797,0,0,0.720987,222.62,-117.98)">
            <path d="M-261,231.9L-260.9,234.9L-261.3,236.2L-263.4,237L-263.3,235.7L-262.4,235.1L-262.7,234.6L-263.2,234.7L-263.4,233L-263.1,231.7L-261.9,231.2L-261,231.9Z" style="fill:rgb(78,78,78);fill-rule:nonzero;"/>
            <g>
                <path d="M-261.2,231.8L-261,231.9L-261,232.1" style="fill:rgb(78,78,78);fill-rule:nonzero;stroke:white;stroke-width:0.5px;stroke-miterlimit:4;"/>
                <path d="M-261,232.6L-260.9,234.9L-261.1,235.8" style="fill:rgb(78,78,78);fill-rule:nonzero;stroke:white;stroke-width:0.5px;stroke-miterlimit:4;stroke-dasharray:0.92,0.92;"/>
                <path d="M-261.2,236L-261.3,236.2L-261.5,236.3" style="fill:rgb(78,78,78);fill-rule:nonzero;stroke:white;stroke-width:0.5px;stroke-miterlimit:4;"/>
                <path d="M-261.8,236.4L-263,236.8" style="fill:none;fill-rule:nonzero;stroke:white;stroke-width:0.5px;stroke-miterlimit:4;stroke-dasharray:0.78,0.78;"/>
                <path d="M-263.2,236.9L-263.4,237L-263.4,236.8" style="fill:rgb(78,78,78);fill-rule:nonzero;stroke:white;stroke-width:0.5px;stroke-miterlimit:4;"/>
                <path d="M-263.4,236.5L-263.4,236.1" style="fill:none;fill-rule:nonzero;stroke:white;stroke-width:0.5px;stroke-miterlimit:4;stroke-dasharray:0.57,0.57;"/>
                <path d="M-263.3,235.9L-263.3,235.7L-263.1,235.6" style="fill:rgb(78,78,78);fill-rule:nonzero;stroke:white;stroke-width:0.5px;stroke-miterlimit:4;"/>
                <path d="M-262.6,235.2L-262.4,235.1L-262.5,234.9" style="fill:rgb(78,78,78);fill-rule:nonzero;stroke:white;stroke-width:0.5px;stroke-miterlimit:4;"/>
                <path d="M-262.6,234.8L-262.7,234.6L-262.9,234.7" style="fill:rgb(78,78,78);fill-rule:nonzero;stroke:white;stroke-width:0.5px;stroke-miterlimit:4;"/>
                <path d="M-263,234.7L-263.2,234.7L-263.2,234.5" style="fill:rgb(78,78,78);fill-rule:nonzero;stroke:white;stroke-width:0.5px;stroke-miterlimit:4;"/>
                <path d="M-263.3,233.9L-263.4,233L-263.2,232.1" style="fill:rgb(78,78,78);fill-rule:nonzero;stroke:white;stroke-width:0.5px;stroke-miterlimit:4;stroke-dasharray:1.12,1.12;"/>
                <path d="M-263.1,231.9L-263.1,231.7L-262.9,231.6" style="fill:rgb(78,78,78);fill-rule:nonzero;stroke:white;stroke-width:0.5px;stroke-miterlimit:4;"/>
                <path d="M-262.6,231.5L-262.2,231.4" style="fill:none;fill-rule:nonzero;stroke:white;stroke-width:0.5px;stroke-miterlimit:4;stroke-dasharray:0.57,0.57;"/>
                <path d="M-262.1,231.3L-261.9,231.2L-261.7,231.4" style="fill:rgb(78,78,78);fill-rule:nonzero;stroke:white;stroke-width:0.5px;stroke-miterlimit:4;"/>
            </g>
        </g>
        <g id="polyF1S105P1" transform="matrix(0.720797,0,0,0.720987,222.62,-117.98)">
            <path d="M-172.7,245.2L-173.6,246.3L-175.5,247.5L-176.3,247.3L-174.4,246.1L-174.7,245.6L-174.5,245.3L-174,245.5L-172.9,244.6L-172.6,244.8L-172.7,245.2Z" style="fill:rgb(78,78,78);fill-rule:nonzero;stroke:white;stroke-width:0.5px;"/>
        </g>
        <g id="polyF1S105P2" transform="matrix(0.720797,0,0,0.720987,222.62,-117.98)">
            <path d="M-227.7,194.9L-225.7,196.7L-222.9,196.9L-221.7,196.5L-218.8,193.4L-216.9,192.2L-215.5,193.3L-216.2,193.9L-215.3,195.3L-216.3,195.7L-216.2,196.2L-213.7,197.9L-212.7,197.5L-211.2,201.1L-206.9,201.6L-205.2,203.1L-202.8,203.8L-200.3,204L-198.6,203.5L-193.1,200.8L-192.4,200.7L-193.3,201.3L-192.1,201.1L-192.9,198.7L-191.9,198.6L-190.3,197.6L-190,195.8L-188.5,194.1L-185.6,193.5L-185.2,192.4L-184.2,192L-183.2,192.1L-182.2,191.7L-181.4,192.1L-181.1,192.8L-178.3,192.7L-177.5,193.4L-176.6,192.8L-173.6,192.9L-172.4,194.3L-170.9,194.4L-168.9,195.9L-166,195L-163.9,199.8L-164.2,201.4L-163.7,203.6L-164,204.9L-164.5,205.2L-163.6,206.1L-164.6,206.2L-164.7,207.5L-164.2,209.5L-162.4,209.5L-163,212.4L-160.8,215.7L-159.9,219.1L-156.7,218.7L-155.6,219.8L-155.4,221L-157.7,226.6L-155.2,228.3L-153.7,230.4L-152.1,231.5L-150.1,231.5L-149,232.1L-148.3,231.8L-147,236.4L-145.3,235.9L-144.8,236.1L-144.7,238.6L-147.6,240L-148,241.1L-148.5,241.2L-149.4,242.3L-149.6,244.6L-149.1,246.8L-149.3,247.3L-149.7,247.9L-151.2,248.1L-153,248.1L-153.8,247.7L-154.2,248.3L-156.2,248.8L-158.2,248.8L-159.6,249.5L-160.9,249.2L-163.3,249.8L-164.6,249.5L-165.1,249.8L-167.1,249.8L-168,248.7L-169.7,244.9L-170.5,244.2L-172.5,244.2L-178.7,249.3L-181.3,248.6L-183,249.1L-184.1,248.2L-187.8,247.1L-188.1,246.4L-188.9,246L-190.2,245.9L-190.8,245.5L-192.8,245.7L-194.2,244.6L-195.4,243L-195.8,241.8L-196.9,241.2L-196.7,240.7L-197.8,240.3L-198,239.1L-200.5,237.1L-201.2,235.9L-203.1,236.9L-205.5,236.2L-205.8,235.7L-205.1,235.6L-204.9,235.1L-205.9,235.2L-205.6,235.4L-206.1,235.7L-206.1,237.5L-206.8,237.6L-207.2,238.2L-208.1,237.3L-207.9,237L-209.8,236L-210.1,233.5L-211.6,233.7L-211.6,229.9L-214,227.2L-215.6,226.9L-218.3,225.5L-219.5,225.7L-219.4,224.2L-220.8,223.1L-220.6,222.8L-221.4,222.6L-222.8,221.3L-222.4,220.2L-223.1,218.8L-222.9,218.3L-222.2,218L-222.3,217L-220.8,215.3L-221.8,213.2L-220.7,212.1L-222.2,212L-222.7,212.3L-223.5,211.6L-224.5,211.5L-225.2,209.8L-225.7,209.9L-226.1,208.4L-226.6,208.2L-227.4,205.8L-228.2,205.1L-228.6,204.1L-228.4,203.6L-230,203L-229.3,200.6L-230.1,200.4L-229.9,199.9L-230.3,198.4L-230.9,197.7L-230.7,196.9L-231.2,196.7L-231.5,196L-231,195.7L-230.2,195.9L-229.5,193.8L-227.7,194.9Z" style="fill:rgb(78,78,78);fill-rule:nonzero;stroke:white;stroke-width:0.5px;"/>
        </g>
        <g id="polyF1S106P1" transform="matrix(0.720797,0,0,0.720987,222.62,-117.98)">
            <path d="M-227,205.9L-224.1,210.8L-223.1,210.9L-222.3,211.6L-221.8,211.3L-220.3,211.4L-221.4,212.5L-220.4,214.6L-221.9,216.3L-221.8,217.3L-222.5,217.6L-222.7,218.1L-222.1,218.8L-222.4,220.6L-221,221.9L-220.2,222.1L-220.4,222.4L-219,223.5L-219.1,225L-217.9,224.8L-215.2,226.2L-213.6,226.5L-211.2,229.2L-211.2,233L-209.7,232.8L-209.4,235.3L-207.5,236.3L-207.7,236.6L-206.8,237.5L-208.6,237.2L-209,237.8L-210.1,237.4L-211.8,237.6L-212.7,238.5L-213.8,241.9L-215.2,243.1L-222.2,243.5L-234,235.9L-241.5,232.6L-246.4,232L-246,230.9L-247,231.3L-247.3,230.6L-246.8,230.3L-248.3,226.2L-240.2,220.6L-239.6,219.5L-239.6,215.5L-239.2,214.4L-239.9,211L-239.5,210.2L-238,209.8L-234.7,205.6L-234.2,205.8L-233.5,205.5L-231.7,206L-230.5,205.8L-229.8,205.2L-229.3,205.4L-228.9,206.9L-227.8,205.8L-227,205.9Z" style="fill:rgb(78,78,78);fill-rule:nonzero;stroke:white;stroke-width:0.5px;"/>
        </g>
        <g id="polyF1S108P1" transform="matrix(0.720797,0,0,0.720987,222.62,-117.98)">
            <path d="M-260.3,230L-261,230.3L-261.1,231.8L-261.7,231.2L-261.9,231.1C-262.1,231.1 -262.4,231.2 -262.6,231.2L-263.1,231.5L-263.4,232.8L-263.2,234.5L-262.7,234.4L-262.4,234.9L-263.3,235.5L-263.4,236.8L-261.2,236L-261.2,237.8L-262.3,241.2L-262,241.4L-262.1,242.4L-262.9,245.8L-265.9,237.6L-264.8,236L-265.1,235.8L-263.7,232.9L-262.7,228.5L-261.4,228.6L-261,227.5L-260.7,227.7L-259.6,226.6L-259.8,226.9L-259.3,229.1L-260.3,230Z" style="fill:rgb(78,78,78);fill-rule:nonzero;stroke:white;stroke-width:0.5px;"/>
        </g>
        <g id="polyF1S112P1" transform="matrix(0.720797,0,0,0.720987,222.62,-117.98)">
            <path d="M-246.4,232L-247.1,232.8L-255,235.8L-250.7,240.3L-251.9,241L-252.7,242.9L-255.9,243.8L-256.7,245.4L-258.5,247.1L-262.9,246.4L-262.7,245.9L-263,245.4L-262.2,241.5L-262.5,241.3L-261.7,239.4L-261,234.8L-261.1,230.3L-260.4,230L-259.6,230.4L-259.3,231.1L-256.2,232L-248.6,226.3L-247.1,230.4L-247.6,230.7L-247.3,231.4L-246.3,231L-246.4,232Z" style="fill:rgb(78,78,78);fill-rule:nonzero;stroke:white;stroke-width:0.5px;"/>
        </g>
        <g id="polyF1S122P1" transform="matrix(0.720797,0,0,0.720987,222.62,-117.98)">
            <path d="M-207.7,239.2L-208.2,239.5L-208.6,238.5L-208.4,237.7L-207.6,238.4L-207.7,239.2Z" style="fill:rgb(78,78,78);fill-rule:nonzero;stroke:white;stroke-width:0.5px;"/>
        </g>
        <g id="polyF1S122P2" transform="matrix(0.720797,0,0,0.720987,222.62,-117.98)">
            <path d="M-208.2,239.3L-209.6,240.2L-209.8,240.7L-208.6,240.5L-206.1,244.2L-209.3,244.9L-210.8,242.8L-214.6,242.8L-213.4,240.6L-212.9,238.5L-212,237.6L-210.3,237.4L-209.2,237.8L-208.2,239.3Z" style="fill:rgb(78,78,78);fill-rule:nonzero;stroke:white;stroke-width:0.5px;"/>
        </g>
        <g id="polyF1S124P1" transform="matrix(0.720797,0,0,0.720987,222.62,-117.98)">
            <path d="M-260,226.6L-261.1,227.7L-261.4,227.5L-261.8,228.6L-263.1,228.5L-261.6,224.5L-261.3,222.7L-260,221.3L-260.1,220.8L-259.3,221L-258.6,220.7L-258.3,220.9L-258.7,221.5L-257.9,221.9L-257.5,222.9L-258.6,224.3L-258.3,224.8L-259.8,225.2L-260,225.7L-259.7,226.2L-260,226.6Z" style="fill:rgb(78,78,78);fill-rule:nonzero;stroke:white;stroke-width:0.5px;"/>
        </g>
        <g id="polyF1S168P1" transform="matrix(0.720797,0,0,0.720987,222.62,-117.98)">
            <path d="M-155.4,273.2L-155.7,272.7L-155.2,270.9L-154.6,271.6L-155.4,273.2Z" style="fill:rgb(78,78,78);fill-rule:nonzero;stroke:white;stroke-width:0.5px;"/>
        </g>
        <g id="polyF1S168P2" transform="matrix(0.720797,0,0,0.720987,222.62,-117.98)">
            <path d="M-169.9,253.9L-169.2,255.1L-166.9,257.3L-163.5,258.1L-160.5,258L-159.5,257.6L-158.4,258L-154.7,261.3L-152.9,261.3L-152.7,262.8L-153.9,267L-154.8,267.9L-156.2,272.6L-157.2,273L-157.8,272.1L-158.8,274.2L-158.7,277.2L-157.9,279.9L-161.5,281.6L-162.6,283L-162.6,285L-163.2,286.1L-167,287.6L-167.6,289.2L-167.3,289.9L-168.1,291.8L-169.3,292.5L-170.3,292.4L-172.5,293.2L-174.3,294.7L-176.4,295.7L-183.4,286L-171,278.6L-170,268.6L-172.6,265.9L-172.9,263.4L-172.2,260.8L-172.6,259.8L-170.7,258.6L-171,258.1L-171.8,257.9L-171.6,257.4L-172.2,255L-171.5,254.4L-170.9,255.3L-169.9,253.9Z" style="fill:rgb(78,78,78);fill-rule:nonzero;stroke:white;stroke-width:0.5px;"/>
        </g>
        <g id="polyF1S168P3" transform="matrix(0.720797,0,0,0.720987,222.62,-117.98)">
            <path d="M-170.7,253L-171,252.5L-170.7,253Z" style="fill:rgb(78,78,78);fill-rule:nonzero;stroke:white;stroke-width:0.5px;"/>
        </g>
        <g id="polyF1S168P4" transform="matrix(0.720797,0,0,0.720987,222.62,-117.98)">
            <path d="M-171.1,247.8L-170.8,250.3L-171,251.1L-171.5,251.2L-172.2,249.3L-172,248.5L-171.5,248.4L-171.3,247.6L-171.1,247.8Z" style="fill:rgb(78,78,78);fill-rule:nonzero;stroke:white;stroke-width:0.5px;"/>
        </g>
        <g id="polyF1S182P1" transform="matrix(0.720797,0,0,0.720987,222.62,-117.98)">
            <path d="M-191.2,260.6L-192.4,261L-193,260.6L-193.8,258.4L-194,256.9L-193.6,254.3L-192.5,253.4L-191.1,254.2L-191.1,256L-190.1,257.6L-190,258.6L-190.6,260.2L-191.2,260.6Z" style="fill:rgb(78,78,78);fill-rule:nonzero;stroke:white;stroke-width:0.5px;"/>
        </g>
        <g id="polyF1S187P1" transform="matrix(0.720797,0,0,0.720987,222.62,-117.98)">
            <path d="M-226.9,303.4L-226.4,303.3L-226.7,303.1L-225.9,303.3L-226.1,304.1L-226.4,303.6L-227.1,303.7L-227.9,303L-227.4,302.7L-227.5,302.2L-227,302.4L-226.9,303.4Z" style="fill:rgb(78,78,78);fill-rule:nonzero;stroke:white;stroke-width:0.5px;"/>
        </g>
        <g id="polyF1S187P2" transform="matrix(0.720797,0,0,0.720987,222.62,-117.98)">
            <path d="M-253.4,264.9L-255.3,263.9L-255.1,263.6L-253.4,264.9Z" style="fill:rgb(78,78,78);fill-rule:nonzero;stroke:white;stroke-width:0.5px;"/>
        </g>
        <g id="polyF1S187P3" transform="matrix(0.720797,0,0,0.720987,222.62,-117.98)">
            <path d="M-254.8,263.5L-255.1,263.3L-254.9,262.8L-254.8,263.5Z" style="fill:rgb(78,78,78);fill-rule:nonzero;stroke:white;stroke-width:0.5px;"/>
        </g>
        <g id="polyF1S187P4" transform="matrix(0.720797,0,0,0.720987,222.62,-117.98)">
            <path d="M-222.1,243.6L-212.1,242.9L-210.8,243L-209.3,245.1L-206.1,244.4L-205.1,246.3L-204.3,247L-204,247.7L-204.2,248L-202.1,248.7L-202.3,249L-201.2,250.1L-200.7,250L-199.8,250.9L-197.7,251.9L-198.2,252L-198.1,252.7L-197,253.6L-197.1,254.6L-197.6,254.4L-197.2,255.4L-196.2,257L-195.1,257.4L-194.4,259.1L-192.9,260.7L-192.3,261.1L-190.3,260.6L-190.6,261.9L-189.3,262L-189.2,262.7L-188.3,263.6L-183.8,267.3L-178.3,266.9L-172.4,265.9L-169.8,268.6L-170.8,278.6L-183.2,286L-195.8,290.3L-199.5,293L-202.1,298.4L-203.2,299.3L-203.9,299.4L-205.3,298.1L-209.5,298.9L-212.3,298.5L-218.4,299.8L-219.7,299.2L-220.7,299.3L-221.4,300.1L-221.1,300.6L-221.5,301.2L-221,303.2L-222.5,304.9L-222.9,303.7L-224.7,301.7L-225.4,300.3L-228.1,298.6L-230.8,295.2L-233.4,290.2L-234.2,290L-236.7,288L-237.7,288.1L-238.5,287.7L-240.8,285.2L-241.8,283.6L-241.7,282.1L-242.4,280.9L-242.3,277.6L-245.5,272.5L-248,270.5L-249.8,270.2L-251.6,267.7L-251.2,267.1L-251.3,266.4L-252.9,263.8L-253.7,263.4L-254.1,261.9L-254.9,261.7L-259.9,254.3L-261.6,252.5L-263.4,252.5L-262.4,246.6L-258,247.3L-256.9,246.4L-255.4,243.9L-252.2,243L-251.6,241.4L-250.2,240.5L-254.5,236L-246.6,233L-245.9,232.2L-242.3,232.5L-238.1,234L-233.5,236.2L-222.1,243.6Z" style="fill:rgb(78,78,78);fill-rule:nonzero;stroke:white;stroke-width:0.5px;"/>
        </g>
        <g id="polyF1S207P1" transform="matrix(0.720797,0,0,0.720987,222.62,-117.98)">
            <path d="M-236.2,207L-237,208.6L-238.1,209.7L-239.6,210.1L-240,210.9L-239.3,214.3L-239.7,215.4L-239.5,218.7L-240.3,220.6L-242.2,221.6L-256,231.9L-259.1,231L-259.4,230.3L-260.2,229.9L-259.5,229.1L-260,226.9L-259.3,226.1L-259.6,225.9L-259.4,225.1L-257.9,224.7L-258.2,224.2L-257.1,222.8L-257.5,221.8L-258.3,221.4L-257.9,220.8L-259.7,220.8L-260.1,219.8L-260.2,217L-260.8,216.3L-260.2,214.7L-259.4,215.1L-259,214.3L-258.5,214.2L-258.6,213.2L-257.4,212.8L-258,211.9L-257.7,210.3L-256.4,210.4L-255.8,210.8L-254.1,210.6L-251.2,209.2L-249.3,210.2L-246.6,209.9L-242.1,207.6L-239.8,207.6L-238.1,207.1L-236.7,206.2L-236.2,206.1L-236.2,207Z" style="fill:rgb(78,78,78);fill-rule:nonzero;stroke:white;stroke-width:0.5px;"/>
        </g>
        <g id="polyF1S218P1" transform="matrix(0.720797,0,0,0.720987,222.62,-117.98)">
            <path d="M-297.2,194.8L-298.2,194.7L-297.2,194.3L-296.9,194.5L-297.2,194.8Z" style="fill:rgb(78,78,78);fill-rule:nonzero;stroke:white;stroke-width:0.5px;"/>
        </g>
        <g id="polyF1S218P2" transform="matrix(0.720797,0,0,0.720987,222.62,-117.98)">
            <path d="M-264.5,186.2L-264.2,186.9L-262.8,187.7L-261.6,187L-261.1,187.2L-260.1,188.8L-259.3,189.2L-259.1,188.7L-258.4,188.6L-257.3,189.5L-254.8,189.7L-254.2,190.1L-252.4,190.4L-248.8,189.2L-247,189.7L-245.8,189.5L-243,187.9L-241.7,186.5L-240.4,186.8L-240.2,186.3L-238.2,186.5L-238,185.7L-237.3,185.6L-235.7,186.7L-235.4,187.4L-234.9,187.1L-234.6,187.8L-233.8,188.2L-233.5,188.9L-233.8,190.5L-233.1,191.9L-233.3,192.2L-232.2,192.6L-231,192.2L-228.8,193.7L-229.6,193.3L-230.3,195.4L-231.1,195.2L-231.6,195.5L-231.3,196.2L-230.8,196.4L-231,197.2L-230.4,197.9L-230,199.4L-230.2,199.9L-229.4,200.1L-230.1,202.5L-228.5,203.1L-228.7,203.6L-228.3,204.6L-227.5,205.3L-227.4,206L-228.2,205.8L-229.3,206.9L-229.7,205.4L-230.2,205.2L-230.9,205.8L-232.1,206L-232.9,205.6L-235.2,205.6L-236,207L-236.5,207.1L-236.8,206.4L-240.4,207.9L-242.7,207.9L-247.2,210.2L-249.9,210.5L-251.8,209.5L-254.7,210.9L-256.4,211.1L-257,210.7L-258.3,210.6L-258.6,212.2L-258,213.1L-259.2,213.5L-259.1,214.5L-259.6,214.6L-260,215.4L-260.8,215L-260.6,214.5L-261.3,213.1L-260,211.4L-260.4,210.2L-261.8,210.9L-262.9,212L-265.6,210.8L-267.2,212L-268.3,213.4L-269.5,214.1L-272.9,214.8L-274.5,214.2L-275.7,212.3L-278.4,211.1L-280.9,210.9L-281.8,213.8L-282.6,213.4L-284.5,214.1L-286.6,213.1L-287.3,211.4L-287.8,211.7L-289.2,210.9L-290.6,211.8L-290.8,211.8L-290.6,211L-292.1,211.4L-292.9,211.2L-290.9,210.7L-289.8,209.8L-293.6,209.8L-293.7,209.3L-292.5,208.9L-294.3,206.6L-293.6,206.3L-293.5,205L-294.8,204.7L-295.4,204L-295.9,204.3L-297,203.4L-296.3,202.8L-296.6,202.1L-296.4,201.8L-295.9,201.7L-295.5,203.2L-293.8,202.7L-294.3,202.8L-294.9,202.1L-295,201.4L-294.1,200.8L-294.9,200.4L-294.7,199.6L-295.3,198.7L-294.4,197.6L-297.1,197.9L-296.7,195.3L-296.2,195.2L-294.7,193.5L-292.7,193.3L-292.1,194L-290.9,193.8L-290.7,193.5L-291.3,193.1L-290.6,193L-290.3,193.2L-290.5,193.7L-286.7,193.7L-286.5,193.4L-287.6,193L-286.9,192.4L-283.7,192L-285.5,191.7L-286.3,191L-286.4,190L-286,189.4L-283.4,189.8L-281.9,189.6L-280.1,190.1L-278.4,189.9L-278,189.1L-274,186.6L-271.1,185.7L-268.3,185.9L-265.4,185.3L-264.9,185.5L-264.5,186.2Z" style="fill:rgb(78,78,78);fill-rule:nonzero;stroke:white;stroke-width:0.5px;"/>
        </g>
        <g id="polyF1S218P3" transform="matrix(0.720797,0,0,0.720987,222.62,-117.98)">
            <path d="M-291.5,186L-290.9,186.4L-289.7,186L-289.3,187.5L-288.4,188.6L-286.3,189.6L-286,190.3L-286.9,190.9L-288.7,190.4L-289.9,190.8L-290.7,190.6L-296.5,194.9L-296.1,193.8L-294,192.3L-296.5,192.4L-296.6,191.9L-295.5,190.8L-295.4,189.5L-294.5,188.9L-294.6,187.9L-295.5,187L-294.5,186.6L-294.3,186.1L-292.8,185.7L-291.8,185.6L-291.5,186Z" style="fill:rgb(78,78,78);fill-rule:nonzero;stroke:white;stroke-width:0.5px;"/>
        </g>
        <g id="polyF1S236P1" transform="matrix(0.720797,0,0,0.720987,222.62,-117.98)">
            <path d="M-170.5,312.9L-168.6,312.2L-167,312.5L-168.6,313.7L-170.3,314.2L-171,314.3L-172.3,313.7L-171.9,313.1L-171.4,312.8L-170.5,312.9Z" style="fill:rgb(78,78,78);fill-rule:nonzero;stroke:white;stroke-width:0.5px;"/>
        </g>
        <g id="polyF1S236P2" transform="matrix(0.720797,0,0,0.720987,222.62,-117.98)">
            <path d="M-221.5,316.3L-221.9,316.9L-221.5,316.3Z" style="fill:rgb(78,78,78);fill-rule:nonzero;stroke:white;stroke-width:0.5px;"/>
        </g>
        <g id="polyF1S236P3" transform="matrix(0.720797,0,0,0.720987,222.62,-117.98)">
            <path d="M-221.6,315.6L-222.1,315.4L-221.9,315.1L-221.6,315.6Z" style="fill:rgb(78,78,78);fill-rule:nonzero;stroke:white;stroke-width:0.5px;"/>
        </g>
        <g id="polyF1S236P4" transform="matrix(0.720797,0,0,0.720987,222.62,-117.98)">
            <path d="M-223.4,309.5L-223.4,309.7L-223.7,309.5L-223.5,309L-223.2,309.2L-223.4,309.5Z" style="fill:rgb(78,78,78);fill-rule:nonzero;stroke:white;stroke-width:0.5px;"/>
        </g>
        <g id="polyF1S236P5" transform="matrix(0.720797,0,0,0.720987,222.62,-117.98)">
            <path d="M-177.7,293.9L-176.5,295.5L-179.3,297.4L-180,299.5L-179.6,300.7L-183.3,303.7L-191.1,307.5L-193,308.7L-193.6,310L-194.7,311.1L-198.1,311.8L-200.1,313.8L-203.4,315.5L-208.1,316.6L-209.2,318L-210.2,318.4L-210.6,319.2L-211.3,319.5L-212.6,319.4L-214.2,320.6L-215.7,320.8L-217,320.5L-217.7,320.8L-217.8,320.1L-219.3,318.3L-219.3,316.5L-220.5,315.1L-220.7,313.6L-221.7,311.5L-221.5,311L-222.1,310.1L-223.1,310L-222.9,309.5L-222.4,309.7L-222.9,308L-222.6,306.2L-223,304.7L-221.5,303L-222,301L-221.6,300.4L-221.9,299.9L-221.2,299.1L-220.2,299L-218.9,299.6L-214.7,298.6L-212.7,298.4L-209.9,298.8L-205.7,298L-204.3,299.3L-203.6,299.2L-202.5,298.3L-199.9,292.9L-196.2,290.2L-183.6,285.9L-177.7,293.9Z" style="fill:rgb(78,78,78);fill-rule:nonzero;stroke:white;stroke-width:0.5px;"/>
        </g>
        <g transform="matrix(0.720797,0,0,0.720987,222.62,-117.98)">
            <path d="M-263,231.7L-263.1,231.8C-263.2,232 -263.2,232.1 -263.3,232.3C-263.3,232.5 -263.4,232.7 -263.4,232.7C-263.4,232.7 -263.5,232.8 -263.5,232.9L-263.5,233.6C-263.5,233.7 -263.4,233.8 -263.4,233.9C-263.2,234.4 -263.3,234.6 -263.2,234.7C-263.1,234.8 -263,234.6 -262.8,234.7C-262.7,234.8 -262.6,235 -262.6,235.2C-262.6,235.4 -262.7,235.5 -262.8,235.5C-263,235.7 -263.2,235.6 -263.3,235.8C-263.4,235.9 -263.5,236.1 -263.5,236.2L-263.5,237.1C-263.4,237.2 -263.1,236.9 -262.6,236.8C-262.2,236.7 -261.9,236.6 -261.9,236.6C-261.7,236.6 -261.4,236.5 -261.4,236.4L-261.5,236.3C-261.5,236.2 -261.4,236.1 -261.3,236C-261.2,235.9 -261.2,235.8 -261.2,235.5C-261.1,234.8 -261.1,232.9 -261.1,232.9C-261.1,232.9 -261.1,232.3 -261.4,232C-261.6,231.7 -262,231.6 -262.1,231.6C-262.3,231.6 -262.5,231.6 -262.7,231.7C-262.8,231.7 -262.9,231.7 -263,231.8" style="fill:rgb(78,78,78);fill-rule:nonzero;stroke:white;stroke-width:0.5px;stroke-dasharray:1,1;"/>
        </g>
    </g>
</svg>
