<?xml version="1.0" encoding="UTF-8" standalone="no"?><!DOCTYPE svg PUBLIC "-//W3C//DTD SVG 1.1//EN" "http://www.w3.org/Graphics/SVG/1.1/DTD/svg11.dtd"><svg width="100%" height="100%" viewBox="0 0 121 121" version="1.1" xmlns="http://www.w3.org/2000/svg" xmlns:xlink="http://www.w3.org/1999/xlink" xml:space="preserve" xmlns:serif="http://www.serif.com/" style="fill-rule:evenodd;clip-rule:evenodd;stroke-linejoin:round;stroke-miterlimit:2;"><rect id="Medio-Este" serif:id="Medio Este" x="0.067" y="0.122" width="120.172" height="120.172" style="fill:none;"/><clipPath id="_clip1"><rect x="0.067" y="0.122" width="120.172" height="120.172"/></clipPath><g clip-path="url(#_clip1)"><path id="rect6077" d="M49.707,0.362l-0.017,0.439c0,0 0.312,0.206 0.657,0.45c0.345,0.245 0.723,0.53 0.862,0.7c0.07,0.086 0.133,0.126 0.19,0.136c0.057,0.01 0.106,-0.009 0.147,-0.038c0.081,-0.058 0.13,-0.163 0.13,-0.163c-0,0 0.121,-0.648 0.152,-0.803c0.007,-0.038 0.022,-0.048 0.038,-0.038c0.016,0.011 0.036,0.038 0.054,0.071c0.035,0.066 0.065,0.152 0.065,0.152l0.434,0.591l-0.092,1.362l0.71,0.282l0.592,0.803l0.119,0.651l0.841,0.466l-0.065,-0.559c-0,0 -1.208,-2.42 -1.27,-2.544c-0.062,-0.124 -0.032,-0.619 -0.032,-0.743c-0,-0.062 0.08,-0.113 0.157,-0.152c0.078,-0.039 0.152,-0.065 0.152,-0.065l1.861,3.163l0.217,0.683c-0,0 0.093,0.1 0.233,0.201c0.07,0.05 0.151,0.103 0.239,0.141c0.087,0.038 0.178,0.06 0.271,0.06c0.093,-0 0.165,-0.024 0.217,-0.066c0.052,-0.041 0.085,-0.101 0.114,-0.157c0.058,-0.112 0.09,-0.229 0.168,-0.244c0.039,-0.008 0.075,0.013 0.108,0.043c0.034,0.031 0.062,0.075 0.087,0.12c0.051,0.089 0.082,0.179 0.082,0.179l1.025,0.065l0.803,0.06l-0.31,0.499l-0.027,0.96c0,-0 -1.705,0.558 -1.86,0.651c-0.039,0.023 -0.096,-0.016 -0.152,-0.087c-0.057,-0.071 -0.118,-0.176 -0.174,-0.282c-0.112,-0.213 -0.2,-0.44 -0.2,-0.44l-0.532,-0.151l-0.743,0.119c-0,-0 -0.06,0.716 -0.06,0.933c0,0.054 -0.032,0.104 -0.076,0.152c-0.044,0.048 -0.099,0.093 -0.157,0.13c-0.116,0.074 -0.233,0.119 -0.233,0.119c-0,0 -0.219,-0.038 -0.467,-0.092c-0.248,-0.054 -0.527,-0.122 -0.651,-0.184c-0.124,-0.062 -0.24,-0.156 -0.325,-0.234c-0.086,-0.077 -0.136,-0.141 -0.136,-0.141l-0.434,0.559l-1.177,0l-1.834,1.736l-1.329,0.06c0,-0 -0.309,-0.19 -0.634,-0.407c-0.326,-0.217 -0.671,-0.46 -0.733,-0.553c-0.062,-0.093 -0.059,-0.177 -0.043,-0.239c0.015,-0.062 0.043,-0.103 0.043,-0.103c0,-0 0.058,-0.022 0.136,-0.076c0.077,-0.054 0.178,-0.137 0.271,-0.261c0.093,-0.124 0.15,-0.234 0.201,-0.358c0.05,-0.124 0.089,-0.264 0.135,-0.45c0.093,-0.372 0.005,-0.245 0.098,-0.927c0.046,-0.341 0.075,-0.408 0.114,-0.451c0.039,-0.042 0.085,-0.062 0.163,-0.325c0.077,-0.264 0.09,-0.412 0.086,-0.494c-0.003,-0.081 -0.027,-0.097 -0.027,-0.097c0,-0 -0.181,-0.126 -0.553,-0.25c-0.093,-0.031 -0.162,-0.028 -0.212,-0.005c-0.049,0.022 -0.081,0.063 -0.108,0.113c-0.054,0.101 -0.086,0.237 -0.179,0.299c-0.047,0.031 -0.094,0.035 -0.147,0.022c-0.052,-0.014 -0.112,-0.045 -0.168,-0.082c-0.112,-0.073 -0.228,-0.176 -0.336,-0.222c-0.054,-0.023 -0.093,-0.061 -0.125,-0.109c-0.032,-0.047 -0.056,-0.104 -0.076,-0.162c-0.038,-0.117 -0.062,-0.238 -0.108,-0.315c-0.047,-0.078 -0.225,-0.143 -0.434,-0.19c-0.209,-0.046 -0.448,-0.077 -0.619,-0.092c-0.341,-0.031 -0.808,-0.092 -0.808,-0.092l0,-0.342c0,-0 1.645,-1.052 1.769,-1.145c0.124,-0.093 1.084,-0.434 1.084,-0.434l0.586,0.277l0.25,-0.309c-0,-0 0.343,-0.124 0.591,-0.217c0.124,-0.047 0.24,-0.024 0.326,0.011c0.085,0.034 0.135,0.081 0.135,0.081c0,-0 0.002,-0.402 0.033,-0.526c0.015,-0.062 -0.077,-0.193 -0.174,-0.309c-0.097,-0.117 -0.195,-0.217 -0.195,-0.217c-0,-0 -0.043,-0.356 -0.065,-0.597l-13.041,-0l-1.373,1.557c0,-0 -0.162,0.472 -0.352,0.987c-0.19,0.515 -0.407,1.077 -0.516,1.248c-0.054,0.085 -0.128,0.147 -0.211,0.195c-0.083,0.048 -0.178,0.08 -0.271,0.103c-0.186,0.047 -0.369,0.055 -0.478,0.071c-0.108,0.015 -0.308,0.131 -0.482,0.244c-0.175,0.112 -0.326,0.222 -0.326,0.222l-0.184,-0.835l-0.125,-0.809c-0,0 -0.219,-0.033 -0.467,-0.157c-0.031,-0.015 -0.053,-0.006 -0.076,0.016c-0.023,0.023 -0.042,0.062 -0.059,0.114c-0.034,0.104 -0.062,0.26 -0.082,0.429c-0.038,0.337 -0.057,0.73 -0.119,0.9c-0.062,0.171 -0.056,0.41 -0.033,0.608c0.024,0.198 0.06,0.353 0.06,0.353l-1.02,0.526l-0.526,0.933l0.027,0.895c0,-0 -0.218,0.779 -0.342,1.058c-0.124,0.279 -0.618,1.019 -0.618,1.019l0.033,0.868c-0,0 -0.124,0.685 -0.217,0.933c-0.024,0.062 -0.078,0.086 -0.152,0.087c-0.074,0.001 -0.171,-0.025 -0.266,-0.059c-0.19,-0.07 -0.39,-0.183 -0.483,-0.245c-0.046,-0.031 -0.065,-0.061 -0.07,-0.086c-0.006,-0.025 0,-0.048 0.016,-0.071c0.031,-0.046 0.087,-0.09 0.087,-0.152c-0,-0.062 -0.08,-0.164 -0.158,-0.249c-0.077,-0.085 -0.152,-0.158 -0.152,-0.158l-0.591,0.158c0,-0 -0.652,0.96 -0.776,1.177c-0.062,0.108 -0.214,0.208 -0.368,0.293c-0.155,0.085 -0.313,0.154 -0.375,0.201c-0.062,0.046 -0.093,0.446 -0.108,0.83c-0.016,0.383 -0.017,0.754 -0.017,0.754l-0.71,0.092l-0.499,0.342l-0.038,-0.044l-0.011,0.119l-0.255,0.255l-0.814,-0.065l-0.526,0.223l0,0.591l1.801,0.26l0.895,2.062l-0.152,0.548l-0.7,-0.044l0.022,0.174l0.396,1.161l0.548,1.426l1.204,1.161l1.335,0.353l0.201,0.331c-0,-0 -0.504,0.877 -0.57,1.074c-0.017,0.049 -0.051,0.078 -0.098,0.098c-0.046,0.019 -0.104,0.031 -0.157,0.032c-0.107,0.003 -0.206,-0.022 -0.206,-0.022c-0,0 -0.395,-0.156 -0.526,-0.222c-0.132,-0.066 -1.975,-1.009 -1.975,-1.009c0,0 -0.769,0.552 -0.9,0.662c-0.033,0.027 -0.093,0.001 -0.163,-0.054c-0.07,-0.055 -0.152,-0.136 -0.228,-0.223c-0.153,-0.174 -0.288,-0.363 -0.288,-0.363l-1.578,0.179c-0,-0 -0.525,0.812 -0.635,0.944c-0.055,0.065 -0.22,0.16 -0.423,0.244c-0.203,0.084 -0.443,0.157 -0.651,0.19c-0.416,0.065 -1.269,0.179 -1.269,0.179c-0,-0 -0.725,0.503 -0.966,0.613c-0.241,0.109 -0.942,0.481 -1.096,0.591c-0.153,0.11 -0.678,0.353 -0.678,0.353l-0.417,-0.136c-0,-0 0.064,-0.351 0.13,-0.505c0.065,-0.153 0.221,-0.634 0.309,-0.699c0.088,-0.066 0.678,-0.261 0.678,-0.261l1.074,-0.222l0.548,-0.174c-0,0 -0.373,-0.352 -0.461,-0.352c-0.088,-0 -0.987,-0.109 -0.987,-0.109c-0,0 -0.613,-0.13 -0.7,-0.108c-0.044,0.011 -0.392,-0.33 -0.727,-0.7c-0.168,-0.185 -0.328,-0.377 -0.45,-0.537c-0.123,-0.16 -0.206,-0.287 -0.206,-0.342c-0,-0.055 -0.054,-0.097 -0.136,-0.13c-0.082,-0.033 -0.195,-0.059 -0.304,-0.076c-0.218,-0.034 -0.434,-0.038 -0.434,-0.038l-0.374,-0.477l-0.722,-0.266c0,-0 0.173,-0.108 0.239,-0.195c0.033,-0.044 -0.013,-0.146 -0.07,-0.245c-0.058,-0.098 -0.125,-0.194 -0.125,-0.238c-0,-0.088 -0.288,-0.375 -0.288,-0.375l-0.656,0.396l-1.009,0.44c-0,-0 -0.315,-0.051 -0.635,-0.114c-0.32,-0.064 -0.645,-0.141 -0.656,-0.195c-0.011,-0.055 -0.159,0.023 -0.304,0.114c-0.145,0.091 -0.288,0.195 -0.288,0.195c0,-0 -0.639,0.216 -0.748,0.282c-0.11,0.066 -0.456,0.13 -0.456,0.13c0,0 -0.074,-0.105 -0.157,-0.233c-0.083,-0.129 -0.173,-0.281 -0.195,-0.38c-0.011,-0.049 -0.044,-0.082 -0.087,-0.103c-0.043,-0.021 -0.095,-0.031 -0.152,-0.033c-0.115,-0.002 -0.244,0.027 -0.309,0.049c-0.066,0.022 -0.156,0.135 -0.228,0.239c-0.072,0.104 -0.125,0.201 -0.125,0.201l0,0.569c0,0 0.004,0.105 0.033,0.234c0.028,0.128 0.08,0.281 0.168,0.379c0.087,0.099 0.125,0.128 0.163,0.136c0.037,0.008 0.075,-0.006 0.162,0.016c0.088,0.022 0.178,0.124 0.244,0.217c0.067,0.094 0.109,0.179 0.109,0.179c-0,0 0.238,0.682 0.304,0.814c0.065,0.131 0.048,0.5 0.114,0.895c0.016,0.099 0.007,0.167 -0.017,0.217c-0.023,0.05 -0.059,0.084 -0.103,0.103c-0.088,0.039 -0.2,0.032 -0.255,0.054c-0.054,0.022 -0.1,-0.05 -0.135,-0.141c-0.035,-0.091 -0.06,-0.2 -0.082,-0.255c-0.044,-0.109 -0.464,-0.61 -0.661,-0.873c-0.198,-0.263 -0.13,-0.2 -0.217,-0.309c-0.044,-0.055 -0.119,-0.047 -0.179,-0.022c-0.061,0.025 -0.109,0.065 -0.109,0.065l-0.152,0.309c0,0 0.461,0.943 0.526,1.031c0.066,0.088 0.087,0.456 0.087,0.456l-0.569,0.092l-1.183,-1.866l-0.461,-0l-0.022,0.504l0.722,1.161l0.048,0.374l-0.33,0.087l-0.505,-0.504l-0.461,0.108c-0,0 -0.304,-0.46 -0.326,-0.548c-0.021,-0.087 0.022,-0.368 0.044,-0.455c0.022,-0.088 0.086,-0.243 0.13,-0.396c0.022,-0.077 -0.016,-0.17 -0.06,-0.244c-0.043,-0.075 -0.092,-0.131 -0.092,-0.131l-0.548,-0.417c0,-0 0.066,-0.395 0.022,-0.505c-0.044,-0.109 -0.351,-0.302 -0.483,-0.456c-0.131,-0.153 -0.135,-0.264 -0.222,-0.396c-0.022,-0.032 -0.018,-0.057 -0,-0.075c0.018,-0.019 0.052,-0.031 0.097,-0.044c0.091,-0.025 0.222,-0.048 0.342,-0.103c0.241,-0.11 0.438,-0.151 0.548,-0.26c0.044,-0.044 0.053,-0.096 0.049,-0.152c-0.004,-0.056 -0.02,-0.116 -0.033,-0.185l-1.86,-0.016l-0.239,1.492l-0.678,0.857c-0,-0 -0.022,0.677 -0.022,0.765c0,0.088 1.47,3.027 1.47,3.027l0.483,1.334l-0.092,0.7l-0.874,-0.13l0.066,-1.052l-0.7,-0.369l-0.461,0.065l-0.022,0.851l0.787,0.592c-0,-0 -0.282,0.503 -0.326,0.591c-0.022,0.044 -0.22,0.08 -0.412,0.103c-0.193,0.023 -0.38,0.033 -0.38,0.033l-0.591,-0.022l-0.196,0.526l0.548,0.787c0,-0 1.377,0.791 1.53,0.9c0.039,0.028 0.068,0.106 0.092,0.212c0.024,0.106 0.042,0.241 0.055,0.369c0.025,0.254 0.032,0.493 0.032,0.493l0.852,0.152l1.074,1.096l-0.087,1.291c0,0 -0.195,0.373 -0.195,0.526c-0,0.077 0.049,0.172 0.108,0.277c0.06,0.105 0.13,0.221 0.174,0.342c0.044,0.12 0.038,0.273 0.022,0.396c-0.017,0.123 -0.044,0.217 -0.044,0.217l-0.678,0.021c0,0 -0.678,-1.051 -0.7,-1.161c-0.022,-0.109 -0.439,-1.144 -0.439,-1.144l-0.505,-0.369l-0.282,0.396l-0.965,-0.136l-0.592,0.706l0.391,0.851l0.792,0.57c0,-0 0.352,0.265 0.461,0.331c0.055,0.033 0.057,0.11 0.038,0.19c-0.019,0.079 -0.059,0.162 -0.081,0.206c-0.022,0.044 -0.12,0.07 -0.244,0.087c-0.125,0.016 -0.276,0.021 -0.396,0.021c-0.241,0 -0.829,-0.042 -0.939,-0.108c-0.055,-0.033 -0.083,-0.089 -0.097,-0.147c-0.015,-0.058 -0.017,-0.119 -0.017,-0.162c0,-0.044 -0.065,-0.14 -0.152,-0.239c-0.086,-0.099 -0.194,-0.2 -0.282,-0.244c-0.175,-0.088 -0.574,-0.46 -0.64,-0.548c-0.066,-0.088 -0.304,-0.195 -0.304,-0.195l-0.195,0.065c0,-0 -0.022,0.567 -0.022,0.765c0,0.098 0.063,0.274 0.141,0.434c0.079,0.159 0.173,0.303 0.228,0.336c0.055,0.033 0.09,0.189 0.109,0.352c0.019,0.164 0.021,0.336 0.021,0.391l0,1.031c0,0.087 -0.086,1.6 -0.086,1.6l0.179,0.635l0.043,0.743c0,-0 -0.22,-0.022 -0.418,-0.044c-0.049,-0.005 -0.086,-0.024 -0.114,-0.054c-0.027,-0.029 -0.047,-0.072 -0.059,-0.108c-0.024,-0.073 -0.022,-0.141 -0.022,-0.141c0,-0 -0.329,-0.264 -0.526,-0.44c-0.099,-0.087 -0.148,-0.197 -0.185,-0.309c-0.036,-0.112 -0.059,-0.227 -0.103,-0.325c-0.043,-0.099 -0.038,-0.23 -0.021,-0.337c0.016,-0.107 0.043,-0.19 0.043,-0.19l-0.418,-0.086c0,-0 -0.503,-0.044 -0.591,-0.044c-0.044,0 -0.103,0.065 -0.152,0.13c-0.048,0.066 -0.087,0.131 -0.087,0.131l-0.065,0.417c0,0 -0.07,0.173 -0.114,0.282c-0.043,0.11 -0.106,0.177 -0.325,0.396c-0.11,0.11 -0.162,0.115 -0.185,0.093c-0.022,-0.022 -0.016,-0.071 -0.016,-0.071l-0.043,-0.808c-0,-0 -0.044,-0.551 -0.044,-0.77c0,-0.11 -0.043,-0.153 -0.097,-0.185c-0.054,-0.032 -0.119,-0.054 -0.163,-0.119c-0.029,-0.044 -0.034,-0.102 -0.043,-0.158l-0,24.764l0.417,0.049l0.369,0.483l0.879,0.065l0.396,0.548c0,-0 0.108,0.66 0.174,0.77c0.065,0.11 0.243,0.217 0.352,0.239c0.11,0.022 0.635,0.244 0.635,0.244l0.26,0.461c0,-0 0.59,-0.265 0.7,-0.331c0.11,-0.066 0.266,-0.418 0.266,-0.418l0.7,-0.021l0.021,0.461l0.505,0.526l0.727,0.396l0.434,0.461c-0,0 0.022,0.482 -0.022,0.613c-0.044,0.132 -0.216,0.352 -0.347,0.461c-0.033,0.028 -0.037,0.08 -0.027,0.147c0.01,0.066 0.035,0.147 0.065,0.222c0.06,0.15 0.135,0.288 0.135,0.288l0.657,0.965l0.857,-0.618c-0,-0 0.698,-0.152 0.873,-0.217c0.088,-0.033 0.302,0.008 0.494,0.059c0.192,0.052 0.363,0.114 0.363,0.114c0,0 0.529,0.157 0.792,0.201c0.066,0.011 0.122,0.047 0.169,0.092c0.047,0.046 0.084,0.103 0.114,0.158c0.059,0.109 0.086,0.211 0.086,0.211l0.923,0.548c-0,0 0.59,0.022 0.699,-0.022c0.055,-0.022 0.173,0.074 0.288,0.19c0.115,0.117 0.227,0.255 0.282,0.309c0.055,0.055 0.282,0.072 0.494,0.076c0.211,0.004 0.406,-0.005 0.406,-0.005c0,-0 0.33,0.129 0.483,0.195c0.154,0.066 0.699,0.217 0.83,0.217c0.066,0 0.247,0.097 0.429,0.212c0.181,0.115 0.363,0.249 0.428,0.314c0.132,0.132 0.635,0.505 0.635,0.505l0.835,0.352l0.722,0.613l0.857,-0.021l0.504,0.504l1.096,0.879l1.026,0.765c-0,-0 0.834,0.087 1.974,0.087c0.285,-0 0.445,-0.003 0.526,-0.017c0.081,-0.013 0.082,-0.034 0.055,-0.065c-0.028,-0.03 -0.086,-0.073 -0.125,-0.124c-0.04,-0.052 -0.06,-0.114 -0.017,-0.19c0.176,-0.307 0.217,-0.369 0.217,-0.369l2.105,-0.591c0,-0 0.46,-0.044 0.592,-0.044c0.131,0 0.68,-0.091 0.943,-0.179c0.132,-0.044 0.233,-0.092 0.315,-0.152c0.082,-0.059 0.146,-0.129 0.212,-0.217c0.131,-0.175 0.417,-0.548 0.417,-0.548c0,0 0.941,-0.048 1.313,-0.135c0.093,-0.022 0.177,-0.02 0.255,-0.006c0.078,0.014 0.148,0.038 0.212,0.071c0.126,0.066 0.227,0.157 0.303,0.201c0.039,0.021 0.05,0.053 0.049,0.092c-0.001,0.038 -0.012,0.084 -0.032,0.125c-0.041,0.081 -0.103,0.151 -0.103,0.151c-0,0 -0.553,0.048 -1.145,0.136c-0.148,0.022 -0.243,0.056 -0.304,0.092c-0.06,0.037 -0.086,0.076 -0.092,0.114c-0.013,0.076 0.049,0.141 0.049,0.141c-0,0 0.571,0.022 0.965,0.022c0.395,-0 0.986,-0 1.118,-0c0.131,-0 0.546,0.287 0.765,0.331c0.055,0.011 0.087,0.001 0.103,-0.022c0.016,-0.022 0.016,-0.057 0.011,-0.092c-0.011,-0.071 -0.049,-0.147 -0.049,-0.147l-0.109,-0.265l-0.569,-0.261l-0.266,-0.266c0,0 0.661,-0.217 0.749,-0.217c0.087,0 0.767,0.303 1.074,0.391c0.076,0.022 0.143,0.061 0.206,0.114c0.063,0.053 0.123,0.121 0.179,0.19c0.112,0.138 0.216,0.292 0.336,0.401c0.121,0.11 0.241,0.18 0.331,0.223c0.091,0.043 0.152,0.059 0.152,0.059l0.966,-0.173l1.291,1.139c-0,-0 -0,0.077 -0.011,0.168c-0.011,0.091 -0.032,0.195 -0.076,0.25c-0.044,0.054 -0.067,0.089 -0.109,0.119c-0.041,0.03 -0.101,0.054 -0.222,0.098c-0.06,0.022 -0.108,0.023 -0.157,0.01c-0.05,-0.012 -0.102,-0.038 -0.163,-0.075c-0.122,-0.075 -0.29,-0.189 -0.597,-0.31c-0.307,-0.12 -0.355,-0.118 -0.342,-0.076c0.007,0.022 0.03,0.05 0.044,0.082c0.014,0.031 0.016,0.065 -0.011,0.087c-0.027,0.021 -0.037,0.042 -0.033,0.059c0.004,0.018 0.023,0.033 0.049,0.054c0.053,0.043 0.14,0.102 0.228,0.212c0.175,0.219 0.395,0.415 0.526,0.656c0.066,0.121 0.222,0.242 0.391,0.353c0.169,0.111 0.351,0.211 0.461,0.288c0.11,0.076 0.218,0.148 0.342,0.249c0.124,0.101 0.264,0.231 0.428,0.429c0.165,0.197 0.275,0.255 0.342,0.265c0.067,0.011 0.092,-0.027 0.092,-0.027c0,0 0.157,-0.151 0.179,-0.238c0.022,-0.088 -0.069,-0.351 -0.179,-0.592c-0.109,-0.241 -0.108,-0.35 -0.173,-0.591c-0.033,-0.121 -0.079,-0.164 -0.131,-0.184c-0.051,-0.02 -0.108,-0.016 -0.151,-0.038c-0.044,-0.022 -0.081,-0.105 -0.109,-0.201c-0.028,-0.096 -0.049,-0.205 -0.07,-0.282c-0.011,-0.039 0.011,-0.061 0.054,-0.076c0.043,-0.015 0.105,-0.026 0.168,-0.027c0.126,-0.003 0.26,0.016 0.26,0.016l0.857,0.77l0.462,0.065l0.434,-0.33c-0,-0 0.35,0.151 0.569,0.151c0.11,0 0.232,-0.043 0.326,-0.086c0.093,-0.044 0.157,-0.087 0.157,-0.087c-0,-0 0.943,0.065 1.052,0.065c0.055,-0 0.079,0.134 0.087,0.271c0.008,0.137 0,0.277 0,0.277l0.309,0.683l0.857,-0.374l0.548,-0.7l0.456,0.282l1.953,-0.043l0.613,-0.309l2.479,-2.409l0.966,-2.436l0.851,-2.169l1.139,-1.357l0.635,-1.887l1.21,-1.666l0.369,-0.765l0.526,-0.9l0.179,-0.987l1.117,-0.722l0.678,-0.282l0.239,-1.188c0,-0 -0.284,-0.237 -0.591,-0.391c-0.077,-0.038 -0.132,-0.09 -0.168,-0.146c-0.037,-0.057 -0.055,-0.118 -0.065,-0.184c-0.022,-0.133 -0.006,-0.276 -0.006,-0.396c0,-0.242 0.021,-0.479 0.109,-0.874c0.022,-0.099 0.047,-0.156 0.076,-0.19c0.029,-0.033 0.059,-0.041 0.092,-0.038c0.066,0.008 0.14,0.06 0.206,0.049c0.066,-0.011 0.136,-0.081 0.201,-0.163c0.065,-0.081 0.124,-0.173 0.168,-0.227c0.088,-0.11 0.135,-0.373 0.157,-0.57c0.022,-0.197 0.001,-0.46 -0.043,-0.57c-0.044,-0.109 -0.114,-0.35 -0.136,-0.548c-0.005,-0.049 -0.044,-0.085 -0.097,-0.119c-0.054,-0.034 -0.121,-0.065 -0.19,-0.098c-0.07,-0.032 -0.14,-0.068 -0.196,-0.113c-0.055,-0.046 -0.097,-0.103 -0.108,-0.174c-0.011,-0.071 -0.005,-0.126 0.011,-0.174c0.016,-0.047 0.04,-0.089 0.07,-0.119c0.061,-0.061 0.141,-0.092 0.185,-0.125c0.087,-0.065 0.107,-0.154 0.26,-0.483c0.154,-0.328 0.331,-0.547 0.331,-0.547c-0,-0 0.243,-0.287 0.309,-0.418c0.066,-0.132 0.13,-0.374 0.13,-0.374c0,-0 -0.179,-0.526 -0.179,-0.635c0,-0.055 -0.128,-0.202 -0.26,-0.336c-0.132,-0.135 -0.266,-0.255 -0.266,-0.255l-0.06,-0.581c0,0 1.178,-0.898 1.302,-0.96c0.124,-0.062 0.462,-0.374 0.462,-0.374c-0,-0 0.054,-0.113 0.108,-0.255c0.054,-0.143 0.109,-0.315 0.109,-0.423c-0,-0.109 0.03,-0.279 0.054,-0.445c0.024,-0.167 0.042,-0.33 0.011,-0.423c-0.016,-0.047 -0.083,-0.097 -0.179,-0.147c-0.096,-0.049 -0.222,-0.098 -0.342,-0.141c-0.241,-0.085 -0.472,-0.146 -0.472,-0.146l-0.619,0.743l0,0.586c0,0.046 -0.042,0.068 -0.113,0.07c-0.072,0.002 -0.174,-0.018 -0.283,-0.043c-0.217,-0.05 -0.474,-0.133 -0.629,-0.179c-0.077,-0.023 -0.128,0.008 -0.163,0.07c-0.034,0.063 -0.051,0.155 -0.059,0.25c-0.016,0.189 0.005,0.39 0.005,0.39l-0.993,-0.124l-0.184,-0.554l-0.466,-0.466l-1.21,-0.901l-0.987,0.282l-1.026,0.462l-0.651,0.499l-0.493,0.493l-0.19,0.933l-0.277,0.309c0,0 -0.25,-0.064 -0.374,-0.157c-0.062,-0.046 -0.062,-0.078 -0.049,-0.114c0.013,-0.035 0.037,-0.073 0.022,-0.135c-0.016,-0.062 -0.065,-0.084 -0.136,-0.114c-0.071,-0.031 -0.163,-0.07 -0.271,-0.163c-0.054,-0.047 -0.117,-0.06 -0.179,-0.054c-0.063,0.006 -0.123,0.034 -0.179,0.065c-0.113,0.062 -0.201,0.146 -0.201,0.146c0,0 -0.006,0.132 -0.032,0.255c-0.014,0.062 -0.036,0.123 -0.06,0.163c-0.025,0.04 -0.054,0.059 -0.092,0.043c-0.078,-0.031 -0.131,-0.014 -0.185,0.006c-0.053,0.02 -0.107,0.042 -0.184,0.027c-0.155,-0.031 -0.467,0.06 -0.467,0.06l-0.743,0.157c0,-0 -0.402,0.215 -0.526,0.277c-0.124,0.062 -0.715,0.032 -0.901,0.032c-0.093,0 -0.304,-0.083 -0.51,-0.184c-0.205,-0.101 -0.405,-0.22 -0.482,-0.282c-0.155,-0.124 -0.649,-0.74 -0.711,-0.895c-0.031,-0.078 -0.126,-0.162 -0.212,-0.228c-0.085,-0.066 -0.162,-0.114 -0.162,-0.114l-0.928,-0.282c0,-0 -0.217,-0.43 -0.217,-0.554c0,-0.062 -0.096,-0.217 -0.19,-0.358c-0.093,-0.14 -0.184,-0.265 -0.184,-0.265l-1.085,-0.711l-0.684,-0.467l-0.369,-1.052l-2.511,-0.467l-0.96,-0.032l-0.624,0.532l-0.369,0.77l-0.184,1.833c-0,0 -0.282,-0.131 -0.57,-0.287c-0.144,-0.078 -0.288,-0.163 -0.402,-0.239c-0.113,-0.076 -0.196,-0.143 -0.211,-0.19c-0.016,-0.046 -0.066,-0.084 -0.136,-0.119c-0.069,-0.035 -0.159,-0.064 -0.244,-0.087c-0.17,-0.046 -0.331,-0.07 -0.331,-0.07l-0.341,0.434l-0.434,-0.25l-0.559,0.402c-0,-0 -0.068,0.054 -0.157,0.108c-0.09,0.054 -0.2,0.109 -0.277,0.109c-0.078,-0 -0.254,-0.086 -0.467,-0.201c-0.212,-0.116 -0.461,-0.261 -0.678,-0.385c-0.108,-0.062 -0.202,-0.139 -0.282,-0.223c-0.079,-0.083 -0.146,-0.175 -0.201,-0.26c-0.108,-0.171 -0.169,-0.323 -0.2,-0.385c-0.062,-0.124 -0.06,-0.712 -0.06,-0.96c0,-0.124 -0.008,-0.296 -0.027,-0.467c-0.02,-0.171 -0.051,-0.343 -0.098,-0.467c-0.023,-0.062 -0.053,-0.086 -0.087,-0.086c-0.033,-0 -0.07,0.023 -0.103,0.054c-0.065,0.062 -0.119,0.157 -0.119,0.157c0,0 -0.084,0.063 -0.19,0.125c-0.105,0.062 -0.232,0.125 -0.309,0.125c-0.077,-0 -0.3,-0.183 -0.504,-0.369c-0.205,-0.186 -0.391,-0.374 -0.391,-0.374l-0,-0.532c-0,-0.124 -0.079,-0.241 -0.157,-0.325c-0.079,-0.085 -0.158,-0.136 -0.158,-0.136l-1.085,0.309c0,0 -0.059,0.619 -0.059,0.836c-0,0.054 -0.074,0.079 -0.185,0.086c-0.11,0.007 -0.254,-0.004 -0.401,-0.021c-0.294,-0.036 -0.591,-0.098 -0.591,-0.098l-0.093,-0.651l-1.925,0.033l0.314,-0.467c0,0 1.393,-0.309 1.579,-0.309c0.093,-0 0.227,-0.039 0.412,-0.082c0.185,-0.042 0.422,-0.087 0.732,-0.103c0.31,-0.015 0.389,-0.03 0.413,-0.081c0.024,-0.051 -0.007,-0.138 0.086,-0.293c0.047,-0.077 0.046,-0.128 0.017,-0.163c-0.029,-0.035 -0.085,-0.052 -0.147,-0.059c-0.123,-0.016 -0.271,0.005 -0.271,0.005l-0.651,-0.217c0,0 -0.811,0.129 -0.966,0.098c-0.155,-0.031 -0.649,-0.159 -0.835,-0.19c-0.186,-0.031 -1.237,0.092 -1.237,0.092c0,0 -0.063,-0.054 -0.141,-0.146c-0.078,-0.093 -0.171,-0.225 -0.233,-0.38c-0.031,-0.078 -0.032,-0.145 -0.016,-0.206c0.015,-0.061 0.048,-0.118 0.086,-0.168c0.077,-0.101 0.176,-0.184 0.207,-0.277c0.015,-0.047 0.058,-0.048 0.113,-0.022c0.056,0.027 0.124,0.083 0.19,0.141c0.132,0.117 0.255,0.255 0.255,0.255l0.809,-0.125l-0.282,-0.591l-0.028,-0.591l0.559,-0.738l-0.282,-0.499l-0.179,-0.407c-0.057,0.001 -0.155,0.001 -0.25,-0.022c-0.094,-0.022 -0.184,-0.068 -0.222,-0.157c-0.023,-0.054 -0.058,-0.06 -0.098,-0.043c-0.039,0.017 -0.083,0.059 -0.135,0.097c-0.052,0.039 -0.109,0.072 -0.168,0.082c-0.06,0.009 -0.123,-0.006 -0.185,-0.076c-0.009,-0.01 -0.002,-0.002 -0.011,-0.011l-0.146,-0.331c-0,0 0.08,-0.259 0.13,-0.488c0.025,-0.115 0.04,-0.222 0.038,-0.288c-0.001,-0.032 -0.004,-0.052 -0.016,-0.059c-0.013,-0.008 -0.033,-0 -0.06,0.027c-0.054,0.054 -0.089,0.049 -0.114,0.011c-0.024,-0.039 -0.038,-0.111 -0.043,-0.196c-0.011,-0.169 0.005,-0.383 0.005,-0.461c0,-0.077 -0.062,-0.161 -0.179,-0.32c-0.116,-0.159 -0.287,-0.393 -0.504,-0.765c-0.109,-0.186 -0.179,-0.268 -0.228,-0.287c-0.05,-0.019 -0.078,0.026 -0.098,0.097c-0.019,0.072 -0.03,0.165 -0.049,0.25c-0.018,0.085 -0.045,0.161 -0.092,0.184c-0.093,0.047 -0.21,0.207 -0.304,0.358c-0.093,0.152 -0.162,0.293 -0.162,0.293c-0,0 -0.215,-0.522 -0.277,-0.77c-0.031,-0.124 -0.111,-0.218 -0.201,-0.287c-0.089,-0.07 -0.188,-0.116 -0.266,-0.147c-0.077,-0.031 -0.147,-0.18 -0.206,-0.347c-0.058,-0.167 -0.104,-0.353 -0.135,-0.461c-0.016,-0.054 -0.008,-0.087 0.016,-0.103c0.024,-0.016 0.063,-0.012 0.119,-0.006c0.114,0.013 0.287,0.049 0.489,0.049c0.1,0 0.152,-0.015 0.173,-0.043c0.022,-0.029 0.011,-0.07 -0.011,-0.114c-0.043,-0.089 -0.135,-0.199 -0.135,-0.277c-0,-0.155 -0.027,-1.209 -0.027,-1.209l0.461,0.151c-0,0 0.19,0.623 0.19,0.809c-0,0.093 0.054,0.209 0.124,0.325c0.07,0.116 0.155,0.233 0.217,0.326c0.062,0.093 0.069,0.176 0.06,0.238c-0.009,0.063 -0.033,0.103 -0.033,0.103c0,0 0.84,0.184 1.243,0.277c0.201,0.047 0.27,0.048 0.309,0.033c0.039,-0.016 0.047,-0.05 0.125,-0.065c0.077,-0.016 0.099,-0.069 0.103,-0.12c0.003,-0.05 -0.011,-0.097 -0.011,-0.097c-0,-0 -0.154,-0.403 -0.185,-0.527c-0.015,-0.062 -0.131,-0.084 -0.244,-0.092c-0.112,-0.007 -0.222,0 -0.222,0l-0,-0.618c-0,-0 -0.126,-0.279 -0.25,-0.434c-0.062,-0.078 -0.076,-0.122 -0.076,-0.185c0.001,-0.062 0.017,-0.142 0.017,-0.282c-0,-0.07 0.018,-0.116 0.049,-0.152c0.03,-0.035 0.072,-0.058 0.124,-0.076c0.105,-0.035 0.246,-0.052 0.385,-0.114c0.14,-0.062 0.204,-0.069 0.25,-0.092c0.046,-0.022 0.074,-0.06 0.152,-0.184c0.039,-0.062 0.05,-0.119 0.049,-0.168c-0.002,-0.05 -0.017,-0.09 -0.038,-0.125c-0.043,-0.07 -0.103,-0.109 -0.103,-0.109c-0,0 -0.124,-0.034 -0.31,-0.065c-0.093,-0.015 -0.116,-0.039 -0.124,-0.081c-0.009,-0.042 -0.002,-0.102 -0.033,-0.195c-0.062,-0.186 -0.032,-0.341 -0.032,-0.527c-0,-0.186 -0.089,-0.376 -0.12,-0.531c-0.015,-0.078 -0.031,-0.177 -0.032,-0.304c-0.001,-0.127 0.013,-0.281 0.059,-0.467c0.024,-0.093 0.054,-0.146 0.087,-0.173c0.033,-0.027 0.066,-0.029 0.103,-0.022c0.075,0.015 0.155,0.069 0.217,0.038c0.124,-0.062 0.215,0.03 0.494,-0.032c0.139,-0.031 0.194,-0.075 0.233,-0.136c0.039,-0.061 0.064,-0.14 0.141,-0.233c0.078,-0.093 0.1,-0.203 0.103,-0.288c0.004,-0.085 -0.011,-0.146 -0.011,-0.146c0,-0 -0.434,-0.064 -0.775,-0.033c-0.171,0.016 -0.274,-0.031 -0.331,-0.081c-0.058,-0.05 -0.071,-0.103 -0.071,-0.103l-0.776,-0.217l-0.623,0.401l-0.836,-0.249l-0.059,-0.244l0.526,-1.617l0.152,-0.244l1.182,-0.25l3.781,-1.578l0.244,0.553l1.118,0.282l0.499,0.559l-0.499,0.434c-0,-0 0.25,0.337 0.374,0.461c0.031,0.031 0.064,0.02 0.103,-0.011c0.039,-0.031 0.082,-0.081 0.13,-0.135c0.048,-0.055 0.105,-0.114 0.163,-0.152c0.058,-0.039 0.12,-0.059 0.19,-0.044c0.14,0.031 0.279,0.023 0.407,0c0.128,-0.023 0.243,-0.061 0.336,-0.092c0.093,-0.031 0.201,-0.024 0.299,-0.027c0.098,-0.003 0.186,-0.015 0.233,-0.092c0.093,-0.155 0.493,-0.434 0.493,-0.434c0,-0 0.84,-0.19 1.026,-0.19c0.093,-0 0.131,0.05 0.146,0.097c0.015,0.048 0.006,0.093 0.006,0.093c-0,-0 0.587,0.245 0.835,0.369c0.124,0.062 0.256,0.181 0.358,0.282c0.102,0.101 0.174,0.184 0.174,0.184c-0,0 0.649,-0.217 0.835,-0.217c0.093,0 0.168,-0.08 0.222,-0.157c0.055,-0.078 0.087,-0.152 0.087,-0.152l-0.249,-0.342c-0,0 -0.461,-0.187 -0.678,-0.249c-0.109,-0.031 -0.242,-0.146 -0.348,-0.255c-0.105,-0.109 -0.184,-0.212 -0.184,-0.212l0.407,-0.309l1.177,0.092l0.901,0.25c-0,-0 0.463,-0.017 0.981,-0.044c0.518,-0.026 1.091,-0.062 1.308,-0.108c0.434,-0.093 0.9,-0.098 0.9,-0.098l-0.434,-0.586l-0.992,-0.157l-0.679,0.032l-1.182,-0.276l-0.336,-0.559l0.678,-1.025l1.86,0.401l2.512,0.407l0.835,0.993l1.677,0.152l0.835,0.591l0.776,-1.052c-0,-0 0.337,-0.345 0.461,-0.499c0.062,-0.078 0.303,-0.15 0.51,-0.212c0.103,-0.031 0.196,-0.059 0.255,-0.087c0.058,-0.027 0.083,-0.052 0.043,-0.076c-0.155,-0.093 -0.181,-0.091 -0.146,-0.087c0.034,0.005 0.128,0.013 0.206,-0.065c0.039,-0.038 0.118,-0.065 0.217,-0.081c0.099,-0.017 0.218,-0.023 0.325,-0.027c0.215,-0.008 0.393,-0.001 0.331,-0.016c-0.124,-0.031 0.586,-0.06 0.586,-0.06c0,-0 0.117,-0.048 0.25,-0.114c0.132,-0.066 0.279,-0.15 0.341,-0.228c0.124,-0.155 0.993,-0.743 0.993,-0.743l2.696,-0.282l0.494,-0.684l1.275,0.065l2.169,0.836c0,-0 0.425,0.041 0.874,0.092c0.449,0.051 0.921,0.111 1.014,0.157c0.186,0.093 0.592,0.185 0.716,0.185c0.062,-0 0.203,-0.147 0.326,-0.293c0.123,-0.147 0.228,-0.293 0.228,-0.293l0.499,-0.19c-0,0 0.896,0.065 1.02,0.065c0.124,0 0.558,0.185 0.558,0.185l-0.059,0.434l-0.342,-0.033l-0.467,0.19c0,-0 -0.093,0.277 -0.124,0.401c-0.016,0.062 0.021,0.219 0.065,0.358c0.043,0.139 0.092,0.261 0.092,0.261l0.342,0.282l0.341,0.276c0,0 0.931,0.185 1.21,0.185c0.07,-0 0.146,-0.03 0.222,-0.076c0.077,-0.046 0.156,-0.112 0.223,-0.174c0.135,-0.123 0.233,-0.244 0.233,-0.244l0.526,0.526c0,0 0.53,0.773 0.592,0.928c0.015,0.039 0.002,0.08 -0.027,0.119c-0.03,0.04 -0.073,0.076 -0.12,0.109c-0.093,0.066 -0.195,0.114 -0.195,0.114l0.092,0.96l0.684,0.933c-0,0 0.528,-0.063 0.683,-0.125c0.078,-0.031 0.262,-0.218 0.429,-0.396c0.166,-0.178 0.314,-0.347 0.314,-0.347l1.145,0.586l0.092,0.776l0.467,0.157l0.933,0.152l0.586,0.407l0.341,-0.651l0.342,0.027l0.277,0.315c-0,-0 0.185,0.279 0.309,0.434c0.124,0.155 0.374,0.336 0.374,0.336l0.868,0.282l0.928,0.342l1.117,0.184l0.776,-0.776l1.177,0.31l0.651,-0.559l0.402,0.125l0.189,0.434l1.33,0.282l1.301,0.369c0,-0 1.147,-0.09 1.302,-0.152c0.155,-0.062 0.467,-0.314 0.684,-0.407c0.217,-0.093 0.526,-0.277 0.526,-0.277c0,0 0.402,-0.156 0.526,-0.249c0.124,-0.093 0.407,-0.369 0.407,-0.369l0.402,-0.309l0.775,-0.25l0.619,-0.743l0.526,-0.933l0.776,-0.494l-0.06,-1.302l-0.716,-1.052l-0.461,-3.103l-0.716,-0.277l-0.217,-0.434l-0.684,-0.124l-0.369,-0.744l-0.591,-0.065l-1.177,-0.927l-2.17,-2.572l-2.571,-2.576l-0.309,-0.776l-2.17,-1.487c-0,0 0.059,-0.869 0.059,-1.117c0,-0.062 -0.049,-0.124 -0.124,-0.179c-0.076,-0.055 -0.177,-0.104 -0.277,-0.146c-0.201,-0.085 -0.402,-0.136 -0.402,-0.136l-0.558,0.309l-1.118,-0.499l-1.242,-0.77l0.098,-1.026l-0.25,-0.249l-1.052,0.342l-0.434,-0.185l-0.098,-0.434l0.374,-0.157l0.901,-0.06l-0.125,-0.374l-0.374,-0.244l-0.526,-0.374l0.591,-0.434l1.177,0.71l1.145,0.532l0.651,-0.624l0.217,-1.085l0.808,-0.743l0.152,-1.053l0.531,-0.157l0.217,0.434l0.093,1.085l0.678,0.309l0.716,-0.434l-0.125,-0.369l-0.217,-0.157l-0.467,-0.184c0,-0 -0.028,-0.372 -0.059,-0.651c-0.008,-0.07 0.005,-0.129 0.027,-0.179c0.022,-0.051 0.054,-0.092 0.087,-0.125c0.066,-0.066 0.135,-0.098 0.135,-0.098l0.244,0.217c0,0 0.342,0.278 0.559,0.402c0.054,0.031 0.092,0.028 0.12,0.011c0.027,-0.018 0.044,-0.048 0.054,-0.087c0.019,-0.078 0.011,-0.174 0.011,-0.174l-0,-0.401c-0,-0 -0.589,-0.498 -0.744,-0.684c-0.155,-0.186 -0.276,-0.369 -0.276,-0.369l-0.434,-0.743l-0.402,0.185l-0.499,0.309l-0.114,-0.608l-0.141,0l-0.038,-0.222l-14.673,-0Z" style="fill:#4e4e4e;"/><path id="path9015" d="M106.726,0.362l-0.868,1.578l-0.765,-0.368c-0,-0 -0,-0.14 -0.011,-0.277c-0.011,-0.137 -0.032,-0.271 -0.076,-0.271c-0.044,-0 -0.204,-0.083 -0.358,-0.152c-0.077,-0.035 -0.152,-0.066 -0.212,-0.082c-0.059,-0.015 -0.103,-0.016 -0.114,0.011c-0.043,0.11 -0.043,0.396 -0.043,0.396c0,0 -0.351,0.152 -0.461,0.13c-0.11,-0.021 -0.477,-0.108 -0.477,-0.108c-0,-0 -0.061,0.091 -0.104,0.206c-0.021,0.058 -0.036,0.125 -0.037,0.185c-0.002,0.059 0.01,0.113 0.048,0.157c0.077,0.087 0.215,0.141 0.358,0.184c0.144,0.043 0.292,0.076 0.391,0.12c0.099,0.043 0.251,0.077 0.391,0.114c0.139,0.036 0.265,0.075 0.309,0.13c0.087,0.109 0.266,0.483 0.266,0.483c-0,-0 -0.005,0.127 -0.114,0.368c-0.11,0.242 -0.434,0.792 -0.434,0.792l-0.619,-0.439c0,-0 -0.119,0.058 -0.233,0.13c-0.114,0.072 -0.223,0.157 -0.201,0.201c0.044,0.088 0.325,0.194 0.413,0.325c0.087,0.132 0.482,0.684 0.482,0.684c0,-0 -0.286,0.263 -0.439,0.504c-0.077,0.121 -0.139,0.218 -0.195,0.288c-0.057,0.07 -0.108,0.114 -0.174,0.125c-0.131,0.022 -0.394,0.178 -0.57,0.244c-0.175,0.066 -0.702,0.13 -0.965,0.108c-0.132,-0.011 -0.319,-0.088 -0.472,-0.162c-0.153,-0.075 -0.271,-0.147 -0.271,-0.147c-0,0 -0.033,-0.044 -0.049,-0.125c-0.017,-0.081 -0.017,-0.199 0.049,-0.352c0.065,-0.154 0.135,-0.229 0.19,-0.32c0.054,-0.092 0.092,-0.199 0.092,-0.407c-0,-0.208 -0.046,-0.347 -0.071,-0.456c-0.012,-0.054 -0.016,-0.1 -0.011,-0.146c0.006,-0.047 0.022,-0.092 0.06,-0.141c0.077,-0.099 0.194,-0.176 0.282,-0.261c0.044,-0.042 0.081,-0.085 0.103,-0.135c0.022,-0.051 0.028,-0.108 0.011,-0.174c-0.016,-0.066 -0.003,-0.136 0.016,-0.201c0.019,-0.065 0.045,-0.122 0.06,-0.168c0.015,-0.045 0.017,-0.079 -0.011,-0.087c-0.027,-0.007 -0.086,0.011 -0.195,0.06c-0.219,0.099 -0.278,0.086 -0.326,0.092c-0.047,0.006 -0.085,0.031 -0.271,0.196c-0.372,0.328 -0.526,0.433 -0.526,0.433l-0.499,-0.021c-0,-0 -0.037,-0.035 -0.092,-0.044c-0.056,-0.008 -0.13,0.01 -0.196,0.109c-0.065,0.099 -0.148,0.186 -0.211,0.266c-0.064,0.079 -0.109,0.151 -0.098,0.217c0.011,0.065 0.058,0.086 0.087,0.119c0.029,0.033 0.038,0.08 -0.016,0.19c-0.11,0.219 -0.31,0.591 -0.31,0.591c0,0 -0.085,-0.016 -0.168,-0.016c-0.041,-0 -0.077,0.004 -0.108,0.016c-0.031,0.012 -0.054,0.032 -0.054,0.065c-0,0.066 -0.081,0.14 -0.114,0.196c-0.017,0.027 -0.025,0.048 -0,0.065c0.024,0.016 0.08,0.027 0.179,0.027l0.835,-0c0.055,-0 0.164,-0.022 0.26,-0.022c0.049,-0 0.093,0.005 0.125,0.022c0.033,0.016 0.054,0.043 0.054,0.087c0,0.175 0.022,0.308 0.022,0.417c0,0.055 0.027,0.142 0.033,0.223c0.003,0.04 0.003,0.08 -0.011,0.114c-0.014,0.033 -0.043,0.059 -0.087,0.076c-0.175,0.065 -0.547,0.178 -0.635,0.222c-0.043,0.022 -0.096,-0.07 -0.146,-0.109c-0.025,-0.019 -0.046,-0.023 -0.071,0.006c-0.024,0.029 -0.048,0.091 -0.07,0.211c-0.044,0.242 -0.03,0.318 -0.033,0.38c-0.002,0.063 -0.02,0.112 -0.119,0.299c-0.099,0.186 -0.181,0.338 -0.255,0.444c-0.074,0.107 -0.14,0.169 -0.206,0.169c-0.066,-0 -0.213,-0.036 -0.364,-0.049c-0.075,-0.007 -0.15,-0.009 -0.217,-0c-0.066,0.009 -0.124,0.032 -0.162,0.07c-0.077,0.077 -0.121,0.203 -0.147,0.309c-0.025,0.107 -0.032,0.196 -0.032,0.196l0.157,0.857l0.456,0.396l-0.044,0.743l-0.439,0.787c-0,-0 -0.055,-0.042 -0.136,-0.055c-0.04,-0.006 -0.084,-0.007 -0.135,0.011c-0.051,0.018 -0.108,0.054 -0.163,0.114c-0.219,0.241 -0.352,0.46 -0.396,0.613c-0.022,0.077 -0.11,0.187 -0.195,0.32c-0.086,0.134 -0.168,0.291 -0.179,0.467c-0.022,0.35 -0.022,0.678 -0.022,0.678c-0,-0 0.525,0.157 0.656,0.157l0.922,0l0.022,-0.548c0,0 0.113,-0.04 0.223,-0.038c0.055,0.001 0.105,0.012 0.146,0.044c0.041,0.031 0.071,0.086 0.071,0.168c-0,0.082 0.093,0.28 0.233,0.531c0.14,0.252 0.323,0.557 0.51,0.852c0.373,0.59 0.748,1.139 0.748,1.139c0,0 0.025,0.086 0.038,0.185c0.014,0.099 0.017,0.211 -0.016,0.255c-0.066,0.087 -0.374,0.412 -0.374,0.412l-0.044,0.683c0,0 -0.059,0.054 -0.103,0.147c-0.021,0.047 -0.039,0.104 -0.043,0.168c-0.004,0.064 0.005,0.135 0.038,0.212c0.131,0.307 0.325,0.678 0.325,0.678c0,-0 0.265,-0.285 0.375,-0.526c0.109,-0.242 0.309,-0.617 0.331,-0.792c0.022,-0.176 -0.022,-0.852 -0.022,-0.852l0.347,0.347l0.114,1.031l-0.749,1.801l-0.13,0.347l-0.13,0.922l0.065,0.548l0.808,0.548l0.418,0.635l0.835,0.857l0.657,1.47l0.656,1.025l1.579,1.514c-0,-0 1.773,3.443 1.817,3.553c0.022,0.055 0.327,0.293 0.624,0.515c0.297,0.222 0.586,0.429 0.586,0.429l0.635,0.26l0.151,0.814l0.505,0.152l0.635,0.173l1.448,1.031l0.483,0.635l-0.223,0.374c0,-0 -0.324,-0.043 -0.412,-0.065c-0.088,-0.022 -0.461,-0.152 -0.461,-0.152c-0,-0 -0.617,0.043 -0.727,0.043c-0.11,0 -0.33,0.174 -0.461,0.196c-0.132,0.022 -0.568,0.086 -0.7,0.086c-0.131,0 -0.808,0.201 -0.808,0.201l0.065,0.656l0.152,1.991l-0.7,0.684c0,-0 -0.058,0.075 -0.125,0.211c-0.066,0.137 -0.14,0.334 -0.162,0.575c-0.044,0.483 -0.044,0.966 -0.044,0.966l-0.548,0.331l-0.303,-0.244l0.021,-0.418l-0.179,-0.217l-0.483,0l-0.086,0.483l-0.196,0.065l-0.396,0.022l0.288,0.309c-0,-0 0.13,0.15 0.173,0.325c0.022,0.088 0.068,0.226 0.103,0.369c0.036,0.144 0.06,0.292 0.049,0.402c-0.022,0.219 0.022,0.524 0.022,0.765c0,0.241 0.043,1.361 0.043,1.361l0.288,1.118l-0.678,0.743l-0.065,0.965c-0,0 0.634,0.7 0.721,0.765c0.088,0.066 0.966,0.505 0.966,0.505l0.808,0.439l0,0.44l-0.396,0.282l-0.108,0.157l-0.022,0.499c-0,0 0.438,0.114 0.548,0.114c0.109,0 0.944,0.391 0.944,0.391l0.482,-0.505c0,0 -0.023,-0.084 -0.352,-0.347c-0.165,-0.132 -0.305,-0.227 -0.391,-0.298c-0.042,-0.036 -0.072,-0.066 -0.081,-0.093c-0.009,-0.026 -0,-0.048 0.032,-0.07c0.066,-0.044 0.162,-0.095 0.25,-0.125c0.088,-0.03 0.168,-0.038 0.212,-0.005c0.087,0.065 0.682,0.39 0.835,0.412c0.077,0.011 0.243,0.072 0.396,0.146c0.153,0.075 0.293,0.162 0.325,0.228c0.033,0.066 0.121,0.242 0.223,0.423c0.101,0.182 0.216,0.368 0.304,0.456c0.087,0.088 0.613,0.399 1.117,0.689c0.504,0.29 0.987,0.559 0.987,0.559l1.888,0.504l0.326,0.901c-0,-0 0.195,0.04 0.743,0.347c0.137,0.077 0.315,0.125 0.51,0.152c0.194,0.027 0.406,0.035 0.597,0.032c0.381,-0.004 0.694,-0.048 0.694,-0.048l0.325,-0.331c0,-0 0.265,0.115 0.543,0.222c0.278,0.107 0.569,0.206 0.624,0.174c0.055,-0.033 0.616,-0.105 1.166,-0.179c0.55,-0.075 1.09,-0.152 1.112,-0.196c0.044,-0.087 0.83,-1.557 0.83,-1.557l1.253,-0.151l1.27,-0.418l1.269,0.043l0.022,0.223c-0,-0 -0.173,0.195 -0.282,0.217c-0.11,0.022 -1.384,0.195 -1.384,0.195l0.136,0.618l1.774,0l0.656,-0.352l0.44,-0.396l-0.044,-1.335l0.304,-0.179l0.64,0.309c0,0 0.15,0 0.293,-0.021c0.071,-0.011 0.141,-0.025 0.19,-0.049c0.049,-0.025 0.076,-0.059 0.065,-0.103c-0.044,-0.176 -0.288,-0.548 -0.288,-0.548l-0.922,-0.879l-0.7,-0.022l-0.482,0.066l0.13,-1.161l-0.7,-0.375l0.309,-0.895l0.635,-0.575l0.022,-1.269l0.26,-0.44l-0.239,-0.412l-0.857,-0.309l-0.021,-1.383l0.943,-0.217l-0.065,-1.752l-0.244,-0.022l-0.765,0.195l-1.269,-1.226l0.022,-0.331l0.656,-0.325l0.374,-0.244l-1.253,-1.183l0.179,-0.526l0.57,0.065l0.765,0.439l0.792,0.065l-0.244,-0.461l-0.874,-0.808l-0.857,0l-0.591,-0.461c-0,-0 -0.46,0.303 -0.548,0.347c-0.044,0.022 -0.097,0.11 -0.157,0.185c-0.031,0.037 -0.066,0.071 -0.098,0.092c-0.032,0.02 -0.065,0.027 -0.098,0.011c-0.131,-0.066 -0.808,-0.31 -0.808,-0.31l-0.374,0.158c-0,-0 0.086,0.172 0.152,0.325c0.033,0.077 0.073,0.14 0.097,0.196c0.025,0.055 0.033,0.102 0.011,0.157c-0.044,0.109 -0.173,0.418 -0.173,0.418c-0,-0 -0.075,0.029 -0.158,0.043c-0.082,0.014 -0.173,0.011 -0.195,-0.043c-0.044,-0.11 -0.412,-0.618 -0.456,-0.727c-0.022,-0.055 -0.096,-0.208 -0.152,-0.358c-0.055,-0.151 -0.092,-0.298 -0.048,-0.342c0.087,-0.088 0.265,-0.526 0.265,-0.526l-0.265,-2.387c-0,-0 0.047,-0.05 0.097,-0.114c0.05,-0.064 0.103,-0.141 0.103,-0.195c0,-0.11 -0.135,-0.765 -0.135,-0.765l-0.044,-0.613l0.022,-0.375l0.57,-0.13l0.504,1.487l1.139,0.439l0.619,-0.304l0.569,-0.092l0.678,0.439l0.239,0.483c0,0 0.152,-0.037 0.32,-0.125c0.084,-0.043 0.176,-0.103 0.25,-0.173c0.073,-0.07 0.13,-0.151 0.157,-0.25c0.11,-0.394 0.217,-0.526 0.217,-0.526l0.656,0.526l0.548,-0.108c0,-0 0.067,-0.059 0.125,-0.13c0.058,-0.072 0.109,-0.157 0.076,-0.201c-0.066,-0.088 -0.353,-0.656 -0.353,-0.656c0,-0 0.013,-0.076 0.065,-0.131c0.027,-0.027 0.064,-0.05 0.114,-0.054c0.051,-0.004 0.113,0.01 0.196,0.054c0.164,0.088 0.341,0.198 0.482,0.266c0.071,0.034 0.13,0.054 0.179,0.06c0.05,0.005 0.087,-0.005 0.103,-0.044c0.066,-0.153 0.613,-0.895 0.613,-0.895l0.087,-0.748l-0.325,-0.657l-0.7,-0.282l-1.21,-0.244l-0.26,-0.852l-0.13,-0.705l-0.179,-0.786l-1.378,-0.923l-0.022,-1.139l-0.683,-0.173l-0.326,0.369l-0.7,0.135l-0.748,0.044c-0,-0 -0.482,0.238 -0.592,0.303c-0.109,0.066 -1.752,1.823 -1.752,1.823l0.022,0.434l0.526,0.814l0.369,1.687l-0.656,0.022l-1.226,-1.622l0.108,-0.966l-0.282,-2.913l-0.266,-0.77c0,-0 0.112,-0.064 0.331,-0.174c0.11,-0.055 0.268,-0.21 0.402,-0.363c0.134,-0.153 0.244,-0.304 0.255,-0.358c0.022,-0.11 0.13,-0.462 0.13,-0.462l0.591,0.087l0.114,-0.526c-0,0 -0.574,-0.439 -0.705,-0.461c-0.132,-0.022 -1.161,-0.26 -1.161,-0.26l-0.966,0.417l-0.873,-0.374l-0.944,-0.7l0.239,-1.117l-0.635,-0l-0.483,0.238l-0.591,0.44l-0.483,-0.966c0,0 -0.062,-0.231 -0.141,-0.472c-0.078,-0.241 -0.173,-0.493 -0.228,-0.537c-0.109,-0.088 -0.683,-0.678 -0.683,-0.678l-0.217,-0.944l-0.765,-0.656c-0,-0 -0.004,-0.185 -0.033,-0.375c-0.014,-0.094 -0.038,-0.192 -0.065,-0.265c-0.027,-0.074 -0.059,-0.125 -0.103,-0.131c-0.175,-0.021 -2.343,-0.678 -2.343,-0.678l0.303,-1.86l2.984,-0.152l0.396,0.721l2.083,-0.813l-0.114,-0.196c0,0 0.03,-0.046 0.044,-0.097c0.013,-0.052 0.011,-0.109 -0.044,-0.12c-0.109,-0.022 -0.236,-0.113 -0.434,-0.157c-0.197,-0.044 -0.64,-0.152 -0.64,-0.152l0.065,-0.879l1.78,-0.743l0.303,0l0.179,-0.439l-0.244,-0.44c0,0 0.135,-0.503 0.223,-0.591c0.043,-0.044 0.122,-0.108 0.206,-0.152c0.084,-0.043 0.173,-0.065 0.228,-0.022c0.109,0.088 0.421,0.178 0.64,0.331c0.109,0.077 0.146,0.123 0.233,0.147c0.087,0.024 0.225,0.027 0.532,0.027c0.613,-0 1.029,-0.087 1.204,-0.087c0.175,0 0.77,0.022 0.77,0.022l1.139,0.217l0.83,-0.657c0,0 0.089,-0.097 0.206,-0.173c0.059,-0.038 0.124,-0.069 0.19,-0.082c0.067,-0.012 0.135,-0.005 0.196,0.038c0.241,0.176 0.46,0.304 0.548,0.348c0.043,0.022 0.14,0.004 0.179,0.038c0.019,0.016 0.025,0.045 -0,0.097c-0.026,0.052 -0.081,0.129 -0.179,0.239c-0.395,0.438 -0.635,0.635 -0.635,0.635l-0.109,0.482l-0.282,0.765l-0.483,0.857l-0.352,0.196c-0,-0 -0.372,0.001 -0.635,-0.087c-0.263,-0.088 -0.569,-0.239 -0.569,-0.239l-0.749,0.196c-0,-0 -0.1,0.058 -0.195,0.13c-0.095,0.071 -0.185,0.157 -0.174,0.2c0.011,0.044 0.003,0.148 0.016,0.245c0.007,0.048 0.023,0.094 0.044,0.13c0.021,0.035 0.048,0.059 0.092,0.065c0.088,0.011 0.219,-0.037 0.353,-0.071c0.133,-0.034 0.27,-0.054 0.368,0c0.198,0.11 0.684,0.57 0.684,0.57c-0,-0 0.092,0.15 0.201,0.293c0.054,0.071 0.109,0.14 0.162,0.19c0.053,0.049 0.103,0.076 0.136,0.065c0.066,-0.022 0.154,-0.025 0.239,-0.038c0.085,-0.014 0.167,-0.038 0.222,-0.092c0.055,-0.055 0.156,-0.149 0.25,-0.25c0.093,-0.101 0.178,-0.211 0.211,-0.298c0.066,-0.176 0.243,-0.546 0.396,-0.787c0.077,-0.12 0.148,-0.146 0.223,-0.201c0.074,-0.054 0.151,-0.138 0.238,-0.368c0.088,-0.231 0.109,-0.386 0.136,-0.505c0.027,-0.119 0.059,-0.2 0.168,-0.287c0.219,-0.176 0.879,-0.657 0.879,-0.657l0.9,-0.548l0.456,-0.765l0.77,0.044l0.7,0.021l-0.152,-0.591l-0.504,-0.266c-0,0 0.03,-0.134 0.076,-0.26c0.046,-0.126 0.108,-0.244 0.163,-0.222c0.109,0.043 0.683,0.108 0.683,0.108l0.282,-0.369c0,0 -0.027,-0.148 -0.07,-0.287c-0.022,-0.07 -0.048,-0.139 -0.076,-0.185c-0.029,-0.046 -0.06,-0.07 -0.093,-0.054c-0.065,0.033 -0.301,0.035 -0.52,0.027c-0.22,-0.008 -0.423,-0.027 -0.423,-0.027l-0.657,-0.57l-0.043,-0.813c-0,-0 -0.086,-0.046 -0.201,-0.076c-0.115,-0.03 -0.259,-0.044 -0.369,0.011c-0.219,0.109 -0.374,0.195 -0.374,0.195l-0.152,-0.657l0.043,-1.6l-0.417,-0.526l0.287,-0.591l-0.07,-0.526c-0,-0 -0.1,-0.068 -0.217,-0.12c-0.059,-0.026 -0.121,-0.045 -0.179,-0.054c-0.059,-0.009 -0.114,-0.006 -0.152,0.022c-0.154,0.109 -0.434,0.352 -0.434,0.352c-0,0 -0.086,0.124 -0.185,0.196c-0.049,0.035 -0.106,0.057 -0.152,0.043c-0.045,-0.015 -0.081,-0.064 -0.103,-0.174c-0.087,-0.438 -0.065,-0.835 -0.065,-0.835l0.011,-0.461l-16.637,-0Z" style="fill:#4e4e4e;"/><path id="path10965" d="M54.524,120.307l-0.526,-1.34l-0.868,-0.927l-1.552,-0.25l-0.309,-0.683l0.374,-0.678l-0.499,-0.868l-0.987,-0.434l-0.065,-0.684l0.933,0.06l-0,-2.045l-0.933,-0.868l-0.06,-0.619l-1.551,-2.11l0.184,-0.678l-1.052,-1.551l-0.25,-1.118l-0.434,-0.559c0,0 -0.168,-0.402 -0.369,-0.835c-0.201,-0.433 -0.434,-0.896 -0.558,-1.02c-0.124,-0.124 -0.295,-0.435 -0.489,-0.776c-0.194,-0.341 -0.412,-0.712 -0.629,-0.96c-0.108,-0.124 -0.164,-0.242 -0.184,-0.352c-0.021,-0.111 -0.006,-0.213 0.021,-0.299c0.055,-0.171 0.163,-0.282 0.163,-0.282l-1.671,-3.472l-0.19,-0.802l-1.236,0.119l-0.375,-0.494l-0.249,0.434l-0.12,0.494l-0.499,-0.185c0,0 -0.185,-0.492 -0.309,-0.802c-0.031,-0.078 -0.029,-0.155 -0.005,-0.228c0.023,-0.073 0.067,-0.142 0.114,-0.201c0.092,-0.117 0.2,-0.195 0.2,-0.195l0.993,-1.861c0,0 0.309,-1.982 0.309,-2.23c0,-0.124 0.109,-0.466 0.217,-0.775c0.109,-0.31 0.217,-0.586 0.217,-0.586l0.374,-1.367l-0.623,-0.309l-0.494,1.117l-0.684,0.244l0,2.36l-1.735,2.848l0.623,0.993l-0.499,0.683l-0.184,0.928l-0.499,-0.185l-0.244,0.31l-0.624,0.249l-0.244,-0.618l-0.499,-1.118l-1.112,-0.993l-0.125,-1.052l-1.302,-0.683l-0.25,-1.487l0.125,-1.117l-0.933,-1.427l-0.743,-0.244l-0.868,-2.669l-0.494,-2.295l-0.374,0.19l-0.494,1.302l-0.499,0.987l1.118,1.367l0.065,2.17l1.302,2.539l0.927,2.485l1.677,1.855l-0.065,0.993l0.743,1.117l-0.06,1.427l0.619,0.618l-0.125,2.17l0.933,1.551l-0.065,1.053l0.743,0.808l-0.06,1.546l0.993,1.302l-0,1.183l1.427,2.788l0.558,2.17l1.736,1.92c0,0 0.742,1.426 0.928,1.736c0.046,0.078 0.037,0.096 -0,0.082c-0.038,-0.015 -0.106,-0.062 -0.179,-0.12c-0.147,-0.116 -0.315,-0.271 -0.315,-0.271l-1.367,-0.374l-0.618,-0.185l0.51,2.083l13.22,0Z" style="fill:#4e4e4e;"/><path id="path10963" d="M176.625,120.307c0.02,-0.293 0.07,-0.792 0.07,-0.792l0.901,-0.461c-0,0 1.773,0.504 1.861,0.526c0.043,0.011 0.054,-0.754 0.054,-1.524c-0,-0.77 -0.011,-1.546 -0.011,-1.546l-2.148,0.157l-0.96,-0.77l-2.371,-0.412l-0.439,-0.64l-0,-1.291l0.9,-0.527l1.183,-0.9l1.888,0.965c-0,0 0.416,0.152 0.526,0.152c0.109,0 0.351,-0.043 0.526,-0.065c0.088,-0.011 0.154,-0.046 0.222,-0.092c0.069,-0.046 0.14,-0.103 0.239,-0.146c0.099,-0.044 0.114,-0.076 0.125,-0.136c0.01,-0.061 0.015,-0.15 0.092,-0.304c0.038,-0.077 0.022,-0.119 -0.027,-0.135c-0.05,-0.017 -0.134,-0.01 -0.228,0.005c-0.188,0.03 -0.422,0.098 -0.532,0.087c-0.109,-0.011 -0.342,-0.038 -0.558,-0.076c-0.217,-0.038 -0.417,-0.086 -0.472,-0.141c-0.028,-0.028 -0.034,-0.066 -0.027,-0.109c0.007,-0.043 0.025,-0.09 0.054,-0.141c0.057,-0.101 0.146,-0.21 0.211,-0.298c0.066,-0.088 0.116,-0.094 0.169,-0.087c0.052,0.007 0.107,0.028 0.184,-0.005c0.077,-0.033 0.181,-0.041 0.282,-0.038c0.101,0.002 0.2,0.016 0.266,0.016c0.131,-0 0.369,-0.152 0.369,-0.152l0.157,-0.7l-0.548,-1.096l-0.569,0.261l-0.792,0.548c-0,-0 -0.769,-0.238 -0.901,-0.304c-0.131,-0.066 -0.678,-0.043 -0.678,-0.043l-0.304,0.347l-0.591,1.117c-0,0 -1.274,1.209 -1.34,1.297c-0.066,0.087 -0.9,1.204 -0.9,1.204l-0.678,0.152l-0.679,0.374l-0.222,-0.813l-0.347,-0.527l-2.213,-0.434c-0,0 -0.18,-0.249 -0.391,-0.515c-0.211,-0.266 -0.454,-0.547 -0.575,-0.602c-0.121,-0.055 -0.227,-0.136 -0.336,-0.244c-0.11,-0.108 -0.222,-0.243 -0.342,-0.396c-0.06,-0.077 -0.095,-0.15 -0.114,-0.217c-0.019,-0.068 -0.024,-0.133 -0.022,-0.19c0.005,-0.115 0.033,-0.206 0,-0.271c-0.033,-0.066 -0.189,-0.162 -0.369,-0.266c-0.18,-0.104 -0.384,-0.216 -0.504,-0.304c-0.06,-0.044 -0.095,-0.096 -0.114,-0.152c-0.019,-0.055 -0.026,-0.116 -0.022,-0.173c0.009,-0.115 0.049,-0.222 0.049,-0.288c0,-0.131 -0.087,-0.814 -0.087,-0.814c0,0 -0.99,0.551 -1.253,0.771c-0.066,0.054 -0.123,0.074 -0.179,0.076c-0.055,0.001 -0.111,-0.017 -0.157,-0.044c-0.093,-0.054 -0.168,-0.141 -0.233,-0.163c-0.066,-0.021 -0.131,-0.139 -0.179,-0.249c-0.049,-0.11 -0.082,-0.212 -0.082,-0.212c0,0 -0.065,-0.419 -0.065,-0.813c0,-0.099 0.019,-0.174 0.044,-0.234c0.024,-0.059 0.054,-0.105 0.086,-0.135c0.065,-0.061 0.13,-0.071 0.13,-0.071c0,0 0.196,-0.324 0.196,-0.455c-0,-0.132 0.266,-0.548 0.266,-0.548c-0,-0 -1.231,-0.44 -1.319,-0.44c-0.043,0 -0.097,0.145 -0.141,0.288c-0.043,0.142 -0.076,0.282 -0.076,0.282c0,-0 -0.723,-0.135 -1.03,-0.223c-0.154,-0.043 -0.416,-0.048 -0.64,-0.043c-0.225,0.006 -0.413,0.022 -0.413,0.022l-1.204,0.64c0,-0 -0.612,-0.049 -0.721,-0.071c-0.055,-0.011 -0.196,0.043 -0.342,0.114c-0.146,0.072 -0.298,0.162 -0.364,0.217c-0.131,0.11 -0.478,0.22 -0.96,0.44c-0.12,0.054 -0.225,0.081 -0.314,0.086c-0.09,0.006 -0.162,-0.01 -0.228,-0.032c-0.132,-0.044 -0.227,-0.119 -0.315,-0.141c-0.088,-0.022 -0.251,0.008 -0.407,0.049c-0.155,0.04 -0.303,0.092 -0.358,0.103c-0.109,0.022 -0.596,0.282 -0.683,0.26c-0.044,-0.011 -0.168,0.018 -0.31,0.071c-0.142,0.052 -0.302,0.129 -0.412,0.217c-0.109,0.087 -0.178,0.244 -0.222,0.407c-0.045,0.162 -0.065,0.329 -0.087,0.428c-0.011,0.049 -0.053,0.08 -0.109,0.098c-0.055,0.017 -0.126,0.023 -0.195,0.021c-0.137,-0.003 -0.266,-0.032 -0.266,-0.032l-0.786,-0.44l-1.405,0.044c-0,-0 -0.503,-0.086 -0.657,-0.13c-0.076,-0.022 -0.113,-0.078 -0.151,-0.158c-0.039,-0.079 -0.081,-0.183 -0.158,-0.303c-0.038,-0.061 -0.097,-0.109 -0.168,-0.147c-0.071,-0.038 -0.153,-0.066 -0.233,-0.087c-0.161,-0.041 -0.32,-0.054 -0.385,-0.054c-0.066,0 -0.189,0.123 -0.293,0.25c-0.105,0.126 -0.19,0.255 -0.19,0.255c-0,-0 -0.065,0.66 -0.065,0.835c-0,0.044 -0.037,0.076 -0.092,0.098c-0.056,0.021 -0.127,0.034 -0.207,0.043c-0.158,0.019 -0.335,0.021 -0.401,0.054c-0.132,0.066 -0.9,0.065 -0.987,0.109c-0.088,0.044 -1.074,0.092 -1.161,0.114c-0.088,0.022 -0.658,-0.243 -1.031,-0.396c-0.093,-0.039 -0.187,-0.05 -0.277,-0.044c-0.089,0.006 -0.175,0.03 -0.255,0.06c-0.159,0.06 -0.292,0.146 -0.368,0.179c-0.077,0.033 -0.224,0.266 -0.353,0.488c-0.129,0.223 -0.239,0.434 -0.239,0.434l-0.656,-0.217c-0,0 -0.137,-0.082 -0.288,-0.157c-0.15,-0.075 -0.314,-0.142 -0.368,-0.109c-0.11,0.066 -1.536,0.722 -1.536,0.722l-0.086,-0.217l-0.641,-0.087c0,0 -0.368,0.634 -0.455,0.722c-0.044,0.043 -0.231,0.081 -0.434,0.103c-0.203,0.021 -0.422,0.027 -0.532,0.005c-0.219,-0.044 -0.898,-0.064 -1.117,-0.13c-0.22,-0.066 -0.531,-0.287 -0.662,-0.331c-0.132,-0.044 -0.634,-0 -0.743,-0c-0.055,-0 -0.159,-0.092 -0.261,-0.201c-0.101,-0.108 -0.2,-0.232 -0.244,-0.298c-0.044,-0.066 -0.188,-0.14 -0.32,-0.195c-0.131,-0.056 -0.249,-0.093 -0.249,-0.093l-0.462,0.109c0,-0 0.504,0.921 0.613,1.052c0.028,0.033 0.009,0.069 -0.043,0.103c-0.051,0.035 -0.136,0.07 -0.228,0.103c-0.183,0.067 -0.406,0.125 -0.515,0.169c-0.055,0.021 -0.109,0.009 -0.157,-0.022c-0.049,-0.031 -0.095,-0.078 -0.136,-0.136c-0.082,-0.115 -0.146,-0.259 -0.19,-0.325c-0.088,-0.132 -0.417,-0.439 -0.504,-0.526c-0.044,-0.044 -0.17,0.017 -0.31,0.108c-0.139,0.091 -0.292,0.211 -0.39,0.288c-0.05,0.038 -0.1,0.055 -0.152,0.059c-0.052,0.005 -0.107,-0.002 -0.163,-0.021c-0.112,-0.04 -0.232,-0.119 -0.363,-0.196c-0.066,-0.038 -0.155,-0.059 -0.255,-0.07c-0.1,-0.011 -0.211,-0.011 -0.315,-0.006c-0.208,0.011 -0.395,0.044 -0.439,0.055c-0.044,0.01 -0.097,0.093 -0.136,0.173c-0.039,0.08 -0.065,0.157 -0.065,0.157l-0.765,-0.504l-0.043,0.418c-0,-0 -0.239,0.067 -0.51,0.13c-0.271,0.062 -0.574,0.119 -0.695,0.108c-0.06,-0.005 -0.103,-0.042 -0.146,-0.097c-0.043,-0.056 -0.089,-0.131 -0.141,-0.206c-0.052,-0.076 -0.114,-0.154 -0.201,-0.217c-0.087,-0.064 -0.199,-0.114 -0.347,-0.136c-0.296,-0.044 -0.522,-0.024 -0.689,0.016c-0.167,0.041 -0.276,0.103 -0.342,0.136c-0.065,0.033 -0.293,-0.013 -0.537,-0.049c-0.122,-0.018 -0.248,-0.029 -0.358,-0.033c-0.11,-0.003 -0.205,0.006 -0.266,0.038c-0.241,0.132 -0.811,0.482 -1.009,0.57c-0.049,0.022 -0.106,-0 -0.162,-0.043c-0.057,-0.044 -0.112,-0.105 -0.163,-0.174c-0.101,-0.137 -0.179,-0.287 -0.179,-0.287c-0,-0 -0.657,-0.216 -1.161,-0.326c-0.126,-0.027 -0.22,-0.021 -0.293,0c-0.073,0.021 -0.123,0.056 -0.157,0.098c-0.069,0.084 -0.076,0.184 -0.076,0.184l-1.009,-0.7c-0,0 -0.547,0.331 -0.656,0.331c-0.11,0 -0.504,-0.2 -0.635,-0.287c-0.132,-0.088 -0.394,-0.307 -0.57,-0.505c-0.175,-0.197 -0.525,-0.503 -0.634,-0.656c-0.11,-0.154 -0.135,-0.263 -0.201,-0.548c-0.033,-0.142 -0.041,-0.35 -0.038,-0.542c0.003,-0.193 0.016,-0.369 0.016,-0.445c0,-0.154 -0.042,-0.221 -0.13,-0.375c-0.088,-0.153 -0.329,-0.371 -0.505,-0.699c-0.087,-0.165 -0.116,-0.266 -0.124,-0.348c-0.008,-0.082 0.005,-0.145 -0.006,-0.244c-0.022,-0.197 -0.222,-0.525 -0.222,-0.634c-0,-0.055 -0.038,-0.089 -0.098,-0.158c-0.059,-0.068 -0.14,-0.171 -0.228,-0.369c-0.087,-0.197 -0.14,-0.251 -0.206,-0.298c-0.066,-0.047 -0.145,-0.085 -0.276,-0.249c-0.066,-0.083 -0.136,-0.142 -0.207,-0.185c-0.07,-0.043 -0.144,-0.069 -0.211,-0.087c-0.135,-0.036 -0.254,-0.037 -0.331,-0.059c-0.153,-0.044 -0.7,-0.044 -0.7,-0.044l-0.569,-0.417l-0.679,0.2c0,0 -0.617,0.46 -0.705,0.548c-0.044,0.044 -0.286,0.106 -0.526,0.157c-0.24,0.052 -0.477,0.093 -0.521,0.104c-0.087,0.021 -0.857,0.309 -0.857,0.309l-1.074,1.009l-1.074,-0.288l-0.7,0.375c0,-0 -0.329,0.392 -0.526,0.721c-0.197,0.329 -0.372,0.573 -0.548,0.749c-0.088,0.087 -0.179,0.125 -0.287,0.157c-0.108,0.032 -0.232,0.059 -0.375,0.125c-0.142,0.065 -0.284,0.106 -0.412,0.124c-0.128,0.019 -0.243,0.017 -0.331,0.006c-0.175,-0.022 -0.635,-0.261 -0.635,-0.261l-0.591,-0.634l-1.318,-0.353l-0.526,0.109l-0.526,0.526c-0,-0 -0.303,0.374 -0.434,0.439c-0.033,0.017 -0.058,0.01 -0.076,-0.011c-0.018,-0.021 -0.032,-0.057 -0.044,-0.103c-0.023,-0.09 -0.037,-0.216 -0.081,-0.325c-0.044,-0.11 -0.092,-0.136 -0.179,-0.147c-0.088,-0.01 -0.215,-0.005 -0.412,-0.048c-0.198,-0.044 -0.339,-0.078 -0.445,-0.114c-0.107,-0.037 -0.179,-0.076 -0.233,-0.131c-0.055,-0.054 -0.046,-0.108 -0.066,-0.222c-0.019,-0.114 -0.068,-0.29 -0.244,-0.586c-0.175,-0.296 -0.243,-0.379 -0.325,-0.439c-0.082,-0.06 -0.177,-0.096 -0.396,-0.304c-0.11,-0.104 -0.178,-0.155 -0.223,-0.168c-0.045,-0.013 -0.065,0.012 -0.092,0.06c-0.027,0.047 -0.058,0.117 -0.114,0.195c-0.056,0.077 -0.139,0.162 -0.271,0.239c-0.263,0.153 -0.367,0.206 -0.45,0.211c-0.083,0.005 -0.145,-0.037 -0.32,-0.081c-0.176,-0.044 -0.22,-0.084 -0.277,-0.168c-0.057,-0.085 -0.128,-0.215 -0.358,-0.445c-0.115,-0.115 -0.21,-0.189 -0.287,-0.234c-0.078,-0.044 -0.139,-0.06 -0.19,-0.065c-0.104,-0.01 -0.168,0.028 -0.244,-0.005c-0.077,-0.033 -0.111,-0.12 -0.136,-0.255c-0.026,-0.135 -0.043,-0.318 -0.087,-0.537c-0.044,-0.219 -0.114,-0.379 -0.173,-0.483c-0.06,-0.104 -0.109,-0.152 -0.109,-0.152c0,0 -0.327,-0.262 -0.678,-0.613c-0.088,-0.087 -0.174,-0.139 -0.255,-0.168c-0.081,-0.029 -0.153,-0.033 -0.217,-0.027c-0.127,0.011 -0.212,0.065 -0.212,0.065l-1.464,-0.987c-0,-0 -0.33,-0.022 -0.483,-0.044c-0.077,-0.011 -0.181,0.006 -0.277,0.033c-0.096,0.027 -0.184,0.065 -0.228,0.098c-0.043,0.032 -0.219,-0.083 -0.385,-0.207c-0.165,-0.123 -0.32,-0.255 -0.32,-0.255c0,0 -0.236,-0.087 -0.434,-0.065c-0.098,0.011 -0.197,-0.042 -0.293,-0.114c-0.095,-0.071 -0.189,-0.162 -0.276,-0.217c-0.044,-0.027 -0.075,-0.072 -0.098,-0.13c-0.023,-0.057 -0.04,-0.124 -0.049,-0.2c-0.017,-0.153 -0.011,-0.335 -0.011,-0.5c0,-0.164 0.034,-0.24 0.082,-0.298c0.047,-0.058 0.108,-0.097 0.163,-0.184c0.054,-0.088 0.052,-0.108 0.01,-0.163c-0.042,-0.055 -0.123,-0.144 -0.233,-0.364c-0.219,-0.438 -0.347,-0.568 -0.347,-0.678c-0,-0.054 -0.064,-0.171 -0.157,-0.309c-0.094,-0.138 -0.216,-0.297 -0.326,-0.439c-0.055,-0.071 -0.062,-0.147 -0.043,-0.223c0.019,-0.075 0.065,-0.15 0.114,-0.217c0.098,-0.133 0.212,-0.238 0.168,-0.26c-0.088,-0.044 -0.768,-0.438 -0.987,-0.57c-0.11,-0.065 -0.191,-0.167 -0.245,-0.249c-0.054,-0.083 -0.081,-0.147 -0.081,-0.147l-0.065,-1.226c-0,0 -0.986,-0.174 -1.096,-0.13c-0.027,0.011 -0.049,-0.003 -0.065,-0.032c-0.016,-0.03 -0.029,-0.074 -0.038,-0.125c-0.017,-0.102 -0.022,-0.227 -0.032,-0.304c-0.022,-0.153 -0.129,-0.283 -0.261,-0.7c-0.066,-0.208 -0.167,-0.356 -0.277,-0.482c-0.109,-0.127 -0.226,-0.233 -0.314,-0.353c-0.175,-0.241 -0.482,-0.611 -0.591,-0.808c-0.11,-0.198 -0.442,-0.594 -0.727,-0.944c-0.143,-0.176 -0.22,-0.314 -0.261,-0.407c-0.04,-0.093 -0.043,-0.141 -0.043,-0.141c-0,-0 0.194,-0.33 0.304,-0.483c0.054,-0.077 0.057,-0.229 0.043,-0.363c-0.014,-0.134 -0.043,-0.25 -0.043,-0.25l-0.939,-0.022c0,0 -0.769,0.504 -0.879,0.57c-0.054,0.033 -0.145,-0.026 -0.244,-0.119c-0.098,-0.094 -0.205,-0.222 -0.282,-0.32c-0.038,-0.05 -0.096,-0.075 -0.163,-0.082c-0.066,-0.007 -0.141,0.001 -0.211,0.016c-0.14,0.031 -0.261,0.087 -0.261,0.087c0,0 -1.316,0.195 -1.47,0.239c-0.076,0.022 -0.216,-0.019 -0.374,-0.098c-0.158,-0.078 -0.335,-0.194 -0.477,-0.314c-0.072,-0.061 -0.188,-0.115 -0.326,-0.163c-0.137,-0.048 -0.295,-0.092 -0.455,-0.13c-0.321,-0.077 -0.644,-0.135 -0.798,-0.19c-0.153,-0.055 -0.297,-0.079 -0.401,-0.087c-0.104,-0.008 -0.168,0 -0.168,0l-0.527,0.304l-0.9,0.504l-0.678,0.044l-0.396,0.2l-0.353,0.527l-0.087,0.938l0.288,0.57c-0,-0 0.194,0.35 0.347,0.548c0.038,0.049 0.056,0.093 0.054,0.13c-0.001,0.037 -0.02,0.07 -0.049,0.103c-0.056,0.066 -0.156,0.129 -0.244,0.228c-0.043,0.049 -0.079,0.068 -0.108,0.065c-0.029,-0.003 -0.054,-0.026 -0.071,-0.054c-0.033,-0.058 -0.043,-0.141 -0.043,-0.141c-0,-0 -0.302,-0.022 -0.499,-0c-0.049,0.005 -0.081,0.026 -0.103,0.054c-0.022,0.027 -0.034,0.064 -0.038,0.097c-0.009,0.068 0.005,0.131 0.005,0.131c0,-0 -0.151,0.33 -0.238,0.374c-0.044,0.022 -0.055,0.118 -0.055,0.206c0,0.088 0.011,0.168 0.011,0.168l0.391,0.239l0.352,-0.152l-0.065,-0.418l0.836,0.375l-0.792,0.808c-0,-0 1.929,3.245 2.126,3.662c0.099,0.208 0.159,0.377 0.223,0.602c0.063,0.225 0.129,0.505 0.238,0.933c0.11,0.427 0.168,0.579 0.223,0.672c0.055,0.094 0.107,0.129 0.217,0.315c0.054,0.093 0.124,0.17 0.2,0.239c0.077,0.068 0.162,0.128 0.255,0.184c0.187,0.112 0.4,0.21 0.619,0.342c0.219,0.131 0.287,0.208 0.331,0.277c0.044,0.068 0.063,0.129 0.195,0.227c0.131,0.099 0.205,0.208 0.282,0.364c0.077,0.156 0.156,0.36 0.288,0.645c0.065,0.143 0.131,0.235 0.195,0.293c0.064,0.059 0.126,0.084 0.184,0.093c0.118,0.016 0.222,-0.033 0.299,-0.011c0.076,0.022 0.175,0.188 0.255,0.347c0.079,0.159 0.141,0.309 0.141,0.309c-0,0 -0.397,0.086 -0.836,0.174c-0.219,0.044 -0.266,0.072 -0.276,0.103c-0.011,0.031 0.016,0.064 -0.049,0.119c-0.066,0.055 -0.06,0.144 -0.038,0.217c0.022,0.073 0.059,0.13 0.059,0.13l0.261,0.44l0.461,0.857c-0,-0 0.504,-0.438 0.57,-0.548c0.032,-0.055 0.085,-0.1 0.146,-0.163c0.061,-0.063 0.13,-0.145 0.184,-0.276c0.028,-0.066 0.069,-0.1 0.114,-0.114c0.046,-0.015 0.099,-0.009 0.147,0.005c0.095,0.027 0.173,0.087 0.173,0.087l0.093,0.374l0.656,0.743l0.591,0.13l0.331,0.505l0.261,0.548c-0,-0 0.964,0.33 1.117,0.374c0.077,0.022 0.181,0.162 0.266,0.293c0.085,0.132 0.152,0.255 0.152,0.255c-0,0 -0.152,0.006 -0.331,0.022c-0.179,0.016 -0.384,0.043 -0.483,0.087c-0.099,0.043 -0.224,0.013 -0.336,-0.022c-0.112,-0.036 -0.211,-0.076 -0.255,-0.044c-0.044,0.033 -0.06,0.148 -0.065,0.255c-0.006,0.107 -0,0.207 -0,0.207l0.108,0.526c0,-0 0.212,0.043 0.44,0.081c0.227,0.038 0.471,0.071 0.526,0.049c0.055,-0.022 0.142,0.069 0.217,0.168c0.074,0.099 0.135,0.206 0.135,0.206c0,0 -0.156,0.416 -0.222,0.592c-0.033,0.087 -0.03,0.199 -0.016,0.287c0.013,0.088 0.038,0.152 0.038,0.152l-0.592,0.043l-0.548,0.131l-0.217,0.504l0.418,0.13c0,0 0.178,0.11 0.358,0.234c0.181,0.123 0.364,0.259 0.364,0.314c-0,0.11 0.173,0.548 0.173,0.548c0,0 0,0.415 0,0.7c0,0.142 -0.03,0.186 -0.076,0.201c-0.046,0.014 -0.108,-0.001 -0.162,0.021c-0.055,0.022 -0.036,0.156 -0,0.282c0.035,0.126 0.086,0.244 0.086,0.244l1.031,0.109l0.374,0.944l0.239,0.526l0.439,0.439l0.527,-0.179c-0,0 -0.091,-0.37 -0.201,-0.808c-0.027,-0.109 -0.029,-0.187 -0.016,-0.244c0.013,-0.057 0.041,-0.09 0.076,-0.114c0.069,-0.047 0.162,-0.048 0.206,-0.081c0.087,-0.066 0.461,-0.174 0.461,-0.174c-0,0 0.238,-0.372 0.325,-0.569c0.088,-0.198 0.266,-0.44 0.266,-0.44c0,0 0.308,-0.53 0.396,-0.727c0.044,-0.098 0.027,-0.321 0,-0.521c-0.027,-0.199 -0.065,-0.374 -0.065,-0.374l0.326,-0.656l0.721,-0.396l0.504,-0.266l0.217,0.521l0.185,0.803l0.184,0.992l0.559,0.559l-0.369,0.309l-0.065,0.309l0.065,0.809l0.803,0.558l-0.494,1.856l-0.683,0.314l-0.25,0.988l0.749,-0.185l0.494,0l-0.375,0.743l0.624,0.19l0.678,0.06l-0.059,1.117l0.374,0.125l1.177,-0.19l1.177,-0.868l1.487,0.19l1.052,-0.374l0.559,0.184l1.117,0.25l1.053,-0.25l1.117,0l0.868,-0.244l1.362,-0.249l0.374,0.309l0.683,-0l0.125,-0.434l-0.249,-0.25l0.124,-0.558l0.868,-0.244l0.993,-0.5l0.553,-0.493l0.624,-0.185l0.678,-1.426l0.375,-0.125l0.558,-0.185l0.06,-0.808l0.743,-0.618l0.499,-0.933l1.427,-0.494l0.184,-1.242l0.809,-0.369l0.369,-1.736l0.434,-0.624l0.808,0.065l0.803,0.185l0.249,0.933l-0.059,0.119l-0.749,0l-0.119,0.374l0.553,0.494l-0.184,5.582l0.933,0.808l1.052,1.178l1.302,1.361l0.559,0.25l0.558,0.124l0.31,0.31l1.486,0.309l0.987,0.656l53.835,0Z" style="fill:#4e4e4e;"/></g></svg>