<svg width="24" height="32" viewBox="0 0 24 32" fill="none" xmlns="http://www.w3.org/2000/svg">
<path fill-rule="evenodd" clip-rule="evenodd" d="M19.5 7H4.5C3.67157 7 3 7.67157 3 8.5V23.5C3 24.3284 3.67157 25 4.5 25H19.5C20.3284 25 21 24.3284 21 23.5V8.5C21 7.67157 20.3284 7 19.5 7ZM19.5 8.5V18.25H16.8094C16.4117 18.249 16.0301 18.4073 15.75 18.6897L13.9397 20.5H10.0603L8.25 18.6897C7.96966 18.4071 7.58773 18.2487 7.18969 18.25H4.5V8.5H19.5ZM19.5 23.5H4.5V19.75H7.18969L9 21.5603C9.28034 21.8429 9.66227 22.0013 10.0603 22H13.9397C14.3377 22.0013 14.7197 21.8429 15 21.5603L16.8103 19.75H19.5V23.5Z" fill="#5E7D8C"/>
</svg>
