<svg width="24" height="32" viewBox="0 0 24 32" fill="none" xmlns="http://www.w3.org/2000/svg">
<path fill-rule="evenodd" clip-rule="evenodd" d="M12 6.25C6.61522 6.25 2.25 10.6152 2.25 16C2.25 21.3848 6.61522 25.75 12 25.75C17.3848 25.75 21.75 21.3848 21.75 16C21.7443 10.6176 17.3824 6.25568 12 6.25ZM20.25 16C20.2508 17.0584 20.0471 18.107 19.65 19.0881L15.4594 16.5109C15.2812 16.401 15.0819 16.3298 14.8744 16.3019L12.735 16.0131C12.1323 15.9345 11.5412 16.2249 11.235 16.75H10.4175L10.0612 16.0131C9.86166 15.5973 9.48093 15.2972 9.03 15.2003L8.28 15.0381L9.01313 13.75H10.5797C10.8332 13.7495 11.0824 13.685 11.3044 13.5625L12.4528 12.9288C12.5537 12.8725 12.648 12.8052 12.7341 12.7281L15.2569 10.4462C15.7779 9.97931 15.9049 9.21324 15.5625 8.60313L15.5288 8.54219C18.4101 9.90842 20.2477 12.8112 20.25 16ZM13.4353 7.87562L14.25 9.33437L11.7272 11.6163L10.5797 12.25H9.01313C8.47644 12.2492 7.98022 12.5352 7.71187 13L6.89344 14.4278L5.94187 11.8928L6.9675 9.4675C8.80317 8.04914 11.1518 7.47049 13.4362 7.87375L13.4353 7.87562ZM3.75 16C3.74875 14.7738 4.02233 13.5628 4.55062 12.4563L5.61375 15.2941C5.79378 15.7715 6.20418 16.1247 6.70312 16.2316L8.71219 16.6637L9.06938 17.4062C9.32224 17.9214 9.84551 18.2484 10.4194 18.25H10.5581L9.88031 19.7716C9.63621 20.3192 9.74165 20.9596 10.1484 21.4L10.1616 21.4131L12 23.3069L11.8181 24.2444C7.33749 24.1401 3.75743 20.4818 3.75 16ZM13.3669 24.1356L13.4728 23.5909C13.5611 23.1217 13.422 22.6384 13.0978 22.2878C13.0932 22.2837 13.0888 22.2793 13.0847 22.2747L11.25 20.3819L12.5344 17.5L14.6737 17.7887L18.96 20.425C17.7042 22.3971 15.6721 23.7453 13.3669 24.1356Z" fill="#5E7D8C"/>
</svg>
