<?xml version="1.0" encoding="UTF-8" standalone="no"?>
<!DOCTYPE svg PUBLIC "-//W3C//DTD SVG 1.1//EN" "http://www.w3.org/Graphics/SVG/1.1/DTD/svg11.dtd">
<svg width="100%" height="100%" viewBox="0 0 200 123" version="1.1" xmlns="http://www.w3.org/2000/svg" xmlns:xlink="http://www.w3.org/1999/xlink" xml:space="preserve" xmlns:serif="http://www.serif.com/" style="fill-rule:evenodd;clip-rule:evenodd;stroke-linejoin:round;stroke-miterlimit:2;">
    <g transform="matrix(1,0,0,1,-1958.22,-898.385)">
        <g id="unknown" transform="matrix(1,0,0,0.612387,1958.22,898.385)">
            <rect x="0" y="0" width="200" height="200" style="fill:none;"/>
            <g transform="matrix(0.362288,0,0,0.5916,-45.4012,-234.816)">
                <path d="M600,475L200,475C186.193,475 175,486.193 175,500L175,666.667C175,680.473 186.193,691.667 200,691.667L600,691.667C613.807,691.667 625,680.473 625,666.667L625,500C625,486.193 613.807,475 600,475ZM200,450C172.385,450 150,472.385 150,500L150,666.667C150,694.282 172.385,716.667 200,716.667L600,716.667C627.615,716.667 650,694.282 650,666.667L650,500C650,472.385 627.615,450 600,450L200,450Z" style="fill:rgb(0,129,214);"/>
            </g>
            <g transform="matrix(0.362288,0,0,0.5916,-45.4012,-234.816)">
                <path d="M294.775,569.14L312.322,569.14C320.677,569.14 326.867,567.052 330.892,562.875C334.918,558.697 336.93,553.152 336.93,546.24C336.93,539.557 334.918,534.353 330.892,530.632C326.942,526.91 321.473,525.048 314.485,525.048C308.182,525.048 302.903,526.795 298.648,530.29C294.395,533.708 292.268,538.188 292.268,543.733L259.342,543.733C259.342,535.075 261.658,527.327 266.292,520.492C271.002,513.58 277.533,508.187 285.888,504.313C294.32,500.44 303.587,498.503 313.688,498.503C331.233,498.503 344.982,502.718 354.932,511.148C364.882,519.503 369.857,531.05 369.857,545.785C369.857,553.38 367.54,560.368 362.907,566.748C358.273,573.128 352.197,578.027 344.678,581.445C354.02,584.787 360.97,589.8 365.527,596.485C370.16,603.168 372.477,611.068 372.477,620.182C372.477,634.918 367.085,646.728 356.298,655.615C345.59,664.502 331.385,668.945 313.688,668.945C297.13,668.945 283.572,664.578 273.015,655.843C262.533,647.108 257.292,635.563 257.292,621.208L290.218,621.208C290.218,627.437 292.535,632.525 297.168,636.475C301.877,640.425 307.65,642.398 314.485,642.398C322.308,642.398 328.423,640.348 332.828,636.247C337.31,632.07 339.55,626.563 339.55,619.727C339.55,603.168 330.437,594.89 312.207,594.89L294.775,594.89L294.775,569.14Z" style="fill:rgb(0,129,214);fill-rule:nonzero;"/>
            </g>
            <g transform="matrix(0.362288,0,0,0.5916,-45.4012,-234.816)">
                <path d="M530.045,645.703C523.893,653.07 515.197,658.805 503.955,662.907C492.713,666.933 480.257,668.945 466.585,668.945C452.23,668.945 439.622,665.832 428.76,659.603C417.975,653.298 409.618,644.183 403.695,632.258C397.847,620.335 394.847,606.32 394.693,590.218L394.693,578.938C394.693,562.38 397.467,548.063 403.012,535.987C408.632,523.833 416.683,514.567 427.165,508.187C437.722,501.73 450.065,498.503 464.193,498.503C483.865,498.503 499.247,503.212 510.335,512.63C521.425,521.973 527.995,535.607 530.045,553.532L496.777,553.532C495.258,544.038 491.878,537.088 486.637,532.682C481.472,528.277 474.333,526.075 465.218,526.075C453.597,526.075 444.748,530.442 438.672,539.177C432.595,547.912 429.52,560.9 429.443,578.142L429.443,588.737C429.443,606.13 432.747,619.27 439.355,628.158C445.963,637.045 455.648,641.488 468.408,641.488C481.245,641.488 490.397,638.753 495.867,633.285L495.867,604.687L464.762,604.687L464.762,579.508L530.045,579.508L530.045,645.703Z" style="fill:rgb(0,129,214);fill-rule:nonzero;"/>
            </g>
            <g transform="matrix(0.726358,0,0,1.18611,-1332.81,-1094.78)">
                <circle cx="2066.41" cy="963.619" r="36.692" style="fill:rgb(0,129,214);"/>
                <clipPath id="_clip1">
                    <circle cx="2066.41" cy="963.619" r="36.692"/>
                </clipPath>
                <g clip-path="url(#_clip1)">
                    <g transform="matrix(0.107332,0.0561057,-0.0561057,0.107332,2038.89,912.605)">
                        <path d="M364.73,278.935C360.982,275.482 357.975,271.317 355.89,266.688C353.803,262.06 352.683,257.065 352.592,252C352.502,246.933 353.445,241.902 355.363,237.205C357.282,232.507 360.138,228.24 363.762,224.657C367.385,221.075 371.7,218.25 376.452,216.353C381.202,214.455 386.29,213.523 391.413,213.613C396.537,213.702 401.588,214.81 406.268,216.873C410.948,218.935 415.162,221.908 418.655,225.615C425.393,232.767 429.063,242.225 428.888,252C428.713,261.773 424.71,271.098 417.72,278.012C410.728,284.923 401.298,288.883 391.413,289.055C381.528,289.227 371.963,285.6 364.73,278.935ZM220.788,83.333L256.78,118.923C221.008,154.298 200.912,202.275 200.912,252.3C200.912,302.325 221.008,350.302 256.78,385.678L220.788,421.267C198.345,399.078 180.543,372.737 168.397,343.745C156.251,314.753 150,283.68 150,252.3C150,220.92 156.251,189.847 168.397,160.855C180.543,131.863 198.345,105.521 220.788,83.333ZM562.545,83.333C584.988,105.521 602.79,131.863 614.937,160.855C627.082,189.847 633.333,220.92 633.333,252.3C633.333,283.68 627.082,314.753 614.937,343.745C602.79,372.737 584.988,399.078 562.545,421.267L526.553,385.678C562.325,350.302 582.422,302.325 582.422,252.3C582.422,202.275 562.325,154.298 526.553,118.923L562.545,83.333ZM292.747,154.461L328.713,190.025C320.445,198.2 313.887,207.905 309.412,218.585C304.937,229.267 302.635,240.713 302.635,252.275C302.635,263.837 304.937,275.283 309.412,285.965C313.887,296.645 320.445,306.35 328.713,314.525L292.747,350.088C266.512,324.147 251.773,288.962 251.773,252.275C251.773,215.588 266.512,180.403 292.747,154.461ZM490.587,154.461C516.822,180.403 531.56,215.588 531.56,252.275C531.56,288.962 516.822,324.147 490.587,350.088L454.62,314.525C462.888,306.35 469.447,296.645 473.922,285.965C478.397,275.283 480.698,263.837 480.698,252.275C480.698,240.713 478.397,229.267 473.922,218.585C469.447,207.905 462.888,198.2 454.62,190.025L490.587,154.461Z" style="fill:white;fill-rule:nonzero;"/>
                    </g>
                </g>
            </g>
        </g>
    </g>
</svg>
