<?xml version="1.0" encoding="UTF-8" standalone="no"?><!DOCTYPE svg PUBLIC "-//W3C//DTD SVG 1.1//EN" "http://www.w3.org/Graphics/SVG/1.1/DTD/svg11.dtd"><svg width="100%" height="100%" viewBox="0 0 48 30" version="1.1" xmlns="http://www.w3.org/2000/svg" xmlns:xlink="http://www.w3.org/1999/xlink" xml:space="preserve" xmlns:serif="http://www.serif.com/" style="fill-rule:evenodd;clip-rule:evenodd;stroke-linejoin:round;stroke-miterlimit:2;"><rect id="Artboard1" x="0" y="0" width="48" height="29.395" style="fill:none;"/><g><path d="M14.39,11.323c-1.488,0 -2.976,0.461 -3.649,0.886l0.319,-4.145l8.785,0c0.815,0 1.027,-0.389 1.027,-1.027l0,-2.905c0,-0.637 -0.212,-1.027 -1.027,-1.027l-12.575,0c-0.78,0 -0.957,0.39 -0.992,1.027l-0.886,11.796c0,0.921 0.213,1.063 0.957,1.063l2.904,-0c0.355,-0 0.567,-0 0.78,-0.142c0.991,-0.744 1.806,-1.31 3.542,-1.31c1.984,-0 3.507,1.487 3.507,3.188c-0,1.912 -1.275,3.259 -3.578,3.259c-1.559,-0 -2.975,-0.744 -3.401,-2.161c-0.106,-0.602 -0.283,-0.673 -0.85,-0.673l-3.188,-0c-0.779,-0 -0.956,0.141 -0.956,1.027c-0,3.79 3.896,6.73 8.395,6.73c4.322,0 8.75,-2.727 8.75,-7.828c-0,-4.605 -3.366,-7.758 -7.864,-7.758Z" style="fill:#0081d6;fill-rule:nonzero;"/><path d="M41.453,13.378l-7.757,-0c-0.815,-0 -1.028,0.389 -1.028,1.027l0,2.763c0,0.638 0.213,1.027 1.028,1.027l3.188,0c-0,2.728 -1.63,3.791 -3.932,3.791c-2.338,-0 -3.897,-1.311 -3.897,-3.578l0,-7.12c0,-2.267 1.559,-3.826 3.897,-3.826c2.373,0 3.648,1.063 4.038,2.161c0.177,0.496 0.035,1.204 1.027,1.204l3.436,0c0.815,0 1.027,-0.141 1.027,-0.992c0,-4.746 -5.1,-7.297 -9.528,-7.297c-4.18,0 -9.529,2.374 -9.529,7.97l-0,8.715c-0,5.561 5.349,7.686 9.529,7.686c4.038,0 9.21,-2.267 9.528,-7.368l0,-5.136c0,-0.638 -0.212,-1.027 -1.027,-1.027Z" style="fill:#0081d6;fill-rule:nonzero;"/></g><path d="M45.746,23.3c0.523,0 1.025,0.208 1.395,0.578c0.37,0.37 0.578,0.872 0.578,1.396c0,0.523 -0.208,1.025 -0.578,1.395c-0.37,0.37 -0.872,0.578 -1.395,0.578l-10.441,0c-0.523,0 -1.025,-0.208 -1.395,-0.578c-0.37,-0.37 -0.578,-0.872 -0.578,-1.395c0,-0.524 0.208,-1.026 0.578,-1.396c0.37,-0.37 0.872,-0.578 1.395,-0.578l10.441,0Z" style="fill:#ebebeb;"/><g><clipPath id="_clip1"><path d="M45.746,23.3c0.523,0 1.025,0.208 1.395,0.578c0.37,0.37 0.578,0.872 0.578,1.396c0,0.523 -0.208,1.025 -0.578,1.395c-0.37,0.37 -0.872,0.578 -1.395,0.578l-10.441,0c-0.523,0 -1.025,-0.208 -1.395,-0.578c-0.37,-0.37 -0.578,-0.872 -0.578,-1.395c0,-0.524 0.208,-1.026 0.578,-1.396c0.37,-0.37 0.872,-0.578 1.395,-0.578l10.441,0Z"/></clipPath><g clip-path="url(#_clip1)"><g><path d="M37.193,26.439l-0.561,-0.816c0.247,-0.084 0.553,-0.375 0.553,-0.793c0,-0.254 -0.083,-0.481 -0.231,-0.625c-0.167,-0.167 -0.358,-0.254 -0.792,-0.254l-1.003,0c-0.092,0 -0.112,0.043 -0.112,0.115l0,2.385c0,0.091 0.04,0.115 0.112,0.115l0.394,0c0.072,0 0.115,-0.024 0.115,-0.115l0,-1.943l0.53,0c0.207,0 0.366,0.131 0.366,0.338c0,0.187 -0.183,0.323 -0.378,0.323l-0.08,0c-0.091,0 -0.115,0.044 -0.115,0.115l0,0.319c0,0.111 0.008,0.155 0.044,0.203l0.43,0.641c0.055,0.083 0.103,0.119 0.199,0.119l0.47,0c0.075,0 0.095,-0.071 0.059,-0.127Z" style="fill:#0081d6;fill-rule:nonzero;"/><path d="M39.319,26.009l-1.27,0l0,-0.526l1.067,0c0.092,0 0.116,-0.043 0.116,-0.115l0,-0.311c0,-0.071 -0.024,-0.115 -0.116,-0.115l-1.067,0l0,-0.434l1.203,0c0.091,0 0.115,-0.044 0.115,-0.115l0,-0.331c0,-0.072 -0.024,-0.115 -0.115,-0.115l-1.716,0c-0.092,0 -0.116,0.043 -0.116,0.115l0,2.389c0,0.072 0.024,0.115 0.116,0.115l1.783,0c0.092,0 0.116,-0.043 0.116,-0.115l0,-0.327c0,-0.071 -0.024,-0.115 -0.116,-0.115Z" style="fill:#0081d6;fill-rule:nonzero;"/><path d="M41.891,26.455l-0.88,-2.385c-0.036,-0.084 -0.075,-0.123 -0.163,-0.123l-0.382,0c-0.088,0 -0.131,0.039 -0.163,0.123l-0.884,2.385c-0.02,0.048 -0.02,0.111 0.067,0.111l0.419,-0c0.087,-0 0.119,-0.024 0.151,-0.119l0.111,-0.315l0.976,-0l0.111,0.315c0.032,0.095 0.064,0.119 0.151,0.119l0.419,-0c0.087,-0 0.087,-0.063 0.067,-0.111Zm-1.533,-0.88l0.299,-0.88l0.299,0.88l-0.598,-0Z" style="fill:#0081d6;fill-rule:nonzero;"/><path d="M42.974,23.947l-0.892,0c-0.091,0 -0.115,0.043 -0.115,0.115l-0,2.389c-0,0.072 0.024,0.115 0.115,0.115l0.892,0c0.474,0 1.071,-0.27 1.071,-0.895l-0,-0.829c-0,-0.621 -0.597,-0.895 -1.071,-0.895Zm0.446,1.668c-0,0.255 -0.183,0.398 -0.446,0.398l-0.382,0l-0,-1.513l0.382,0c0.263,0 0.446,0.147 0.446,0.398l-0,0.717Z" style="fill:#0081d6;fill-rule:nonzero;"/><path d="M46.187,23.947l-0.43,0c-0.092,0 -0.131,0.012 -0.183,0.119l-0.45,0.856l-0.466,-0.856c-0.056,-0.107 -0.095,-0.119 -0.187,-0.119l-0.458,0c-0.075,0 -0.083,0.067 -0.063,0.111l0.852,1.525l0,0.868c0,0.091 0.039,0.115 0.115,0.115l0.398,0c0.072,0 0.116,-0.024 0.116,-0.115l0,-0.868l0.82,-1.525c0.02,-0.044 0.012,-0.111 -0.064,-0.111Z" style="fill:#0081d6;fill-rule:nonzero;"/></g></g></g></svg>