<?xml version="1.0" encoding="UTF-8" standalone="no"?><!DOCTYPE svg PUBLIC "-//W3C//DTD SVG 1.1//EN" "http://www.w3.org/Graphics/SVG/1.1/DTD/svg11.dtd"><svg width="100%" height="100%" viewBox="0 0 48 30" version="1.1" xmlns="http://www.w3.org/2000/svg" xmlns:xlink="http://www.w3.org/1999/xlink" xml:space="preserve" xmlns:serif="http://www.serif.com/" style="fill-rule:evenodd;clip-rule:evenodd;stroke-linejoin:round;stroke-miterlimit:2;"><rect id="LTE" x="0" y="0" width="48" height="29.395" style="fill:none;"/><g><path d="M20.898,16.764l-2.14,0l-0,-12.879c-0,-0.82 -0.393,-1.034 -1.035,-1.034l-3.532,-0c-0.499,-0 -0.856,0.392 -1.07,0.642l-10.239,13.057c-0.356,0.499 -0.535,0.785 -0.535,1.249l0,2.925c0,0.642 0.214,1.035 1.035,1.035l9.953,-0l0,3.567c0,0.821 0.393,1.035 1.035,1.035l3.353,-0c0.642,-0 1.035,-0.214 1.035,-1.035l-0,-3.567l2.14,-0c0.821,-0 1.035,-0.393 1.035,-1.035l-0,-2.925c-0,-0.643 -0.214,-1.035 -1.035,-1.035Zm-7.563,0l-5.137,0l5.137,-6.707l0,6.707Z" style="fill:#0081d6;fill-rule:nonzero;"/><path d="M40.912,13.268l-7.813,-0c-0.82,-0 -1.034,0.392 -1.034,1.034l-0,2.783c-0,0.642 0.214,1.035 1.034,1.035l3.211,-0c-0,2.747 -1.641,3.817 -3.96,3.817c-2.355,-0 -3.924,-1.32 -3.924,-3.603l-0,-7.171c-0,-2.283 1.569,-3.853 3.924,-3.853c2.39,0 3.675,1.07 4.067,2.176c0.178,0.5 0.036,1.213 1.035,1.213l3.46,0c0.821,0 1.035,-0.142 1.035,-0.999c-0,-4.78 -5.138,-7.349 -9.597,-7.349c-4.21,0 -9.597,2.39 -9.597,8.027l0,8.776c0,5.601 5.387,7.742 9.597,7.742c4.067,-0 9.276,-2.283 9.597,-7.421l-0,-5.173c-0,-0.642 -0.214,-1.034 -1.035,-1.034Z" style="fill:#0081d6;fill-rule:nonzero;"/></g><path d="M44.854,22.939c1.26,0 2.282,1.022 2.282,2.282l-0,0.001c-0,1.26 -1.022,2.282 -2.282,2.282l-9.69,-0c-1.26,-0 -2.282,-1.022 -2.282,-2.282l0,-0.001c0,-1.26 1.022,-2.282 2.282,-2.282l9.69,0Z" style="fill:#ebebeb;"/><clipPath id="_clip1"><path d="M44.854,22.939c1.26,0 2.282,1.022 2.282,2.282l-0,0.001c-0,1.26 -1.022,2.282 -2.282,2.282l-9.69,-0c-1.26,-0 -2.282,-1.022 -2.282,-2.282l0,-0.001c0,-1.26 1.022,-2.282 2.282,-2.282l9.69,0Z"/></clipPath><g clip-path="url(#_clip1)"><g><path d="M38.768,26.307l-1.603,-0l0,-2.722c0,-0.128 -0.061,-0.161 -0.161,-0.161l-0.551,-0c-0.1,-0 -0.162,0.033 -0.162,0.161l0,3.34c0,0.1 0.034,0.161 0.162,0.161l2.315,0c0.128,0 0.162,-0.061 0.162,-0.161l-0,-0.457c-0,-0.1 -0.034,-0.161 -0.162,-0.161Z" style="fill:#0081d6;fill-rule:nonzero;"/><path d="M41.273,23.424l-2.583,-0c-0.128,-0 -0.161,0.061 -0.161,0.161l-0,0.462c-0,0.1 0.033,0.161 0.161,0.161l0.858,0l-0,2.717c-0,0.128 0.061,0.161 0.161,0.161l0.551,0c0.1,0 0.161,-0.033 0.161,-0.161l0,-2.717l0.852,0c0.128,0 0.161,-0.061 0.161,-0.161l0,-0.462c0,-0.1 -0.033,-0.161 -0.161,-0.161Z" style="fill:#0081d6;fill-rule:nonzero;"/><path d="M44.257,26.307l-1.776,-0l-0,-0.735l1.492,0c0.128,0 0.161,-0.061 0.161,-0.161l0,-0.434c0,-0.101 -0.033,-0.162 -0.161,-0.162l-1.492,0l-0,-0.607l1.681,0c0.128,0 0.161,-0.061 0.161,-0.161l0,-0.462c0,-0.1 -0.033,-0.161 -0.161,-0.161l-2.399,-0c-0.128,-0 -0.162,0.061 -0.162,0.161l0,3.34c0,0.1 0.034,0.161 0.162,0.161l2.494,0c0.128,0 0.161,-0.061 0.161,-0.161l-0,-0.457c-0,-0.1 -0.033,-0.161 -0.161,-0.161Z" style="fill:#0081d6;fill-rule:nonzero;"/></g></g></svg>